<?xml version="1.0" encoding="UTF-8"?>
<svg id="Layer_1" xmlns="http://www.w3.org/2000/svg" version="1.1" viewBox="0 0 1000 1000">
  <!-- Generator: Adobe Illustrator 29.7.1, SVG Export Plug-In . SVG Version: 2.1.1 Build 8)  -->
  <defs>
    <style>
      .st0 {
        fill: #231f20;
      }
    </style>
  </defs>
  <rect class="st0" x="422.66" y="413.03" width="128.86" height="45.2"/>
  <rect class="st0" x="439.68" y="477.93" width="94.71" height="42"/>
  <path class="st0" d="M257.66,500.24c0-49.48-39.32-89.46-88.49-89.46s-88.02,39.98-88.02,89.46,39.55,88.98,88.02,88.98,88.49-39.98,88.49-88.98ZM126.45,500.24c0-24.09,19.36-43.66,42.72-43.66s43.42,19.58,43.42,43.66-19.01,43.19-43.42,43.19-42.72-19.58-42.72-43.19Z"/>
  <rect class="st0" x="422.66" y="542.59" width="128.86" height="44.61"/>
  <path class="st0" d="M267.28,413.39v92.54c0,13.64,2.93,25.63,11.97,35.24l42.25,45.92h34.62l42.25-45.92c9.27-9.61,11.97-21.59,11.97-35.24v-92.54h-43.19v91.83c0,3.91-.94,7-3.64,9.96l-24.88,27.53-24.53-27.53c-2.7-2.97-3.4-6.05-3.4-9.96v-91.83h-43.42Z"/>
  <path class="st0" d="M775.43,413.15v30.49c0,13.76,2.93,25.39,12.21,35.36l38.02,41.05v66.92h42.95v-66.92l38.03-41.05c9.27-9.97,12.2-21.59,12.2-35.36v-30.49h-43.77v33.22c0,3.68-.82,7-3.29,9.73l-24.76,27.76-24.76-27.76c-2.47-2.73-3.17-6.05-3.17-9.73v-33.22h-43.66Z"/>
  <path class="st0" d="M715.47,411.49v.12h-.12l.12,119.12c0,32.63,24.17,56.36,54.57,56.36h42.01v-45.56h-39.2c-6.69,0-12.56-4.87-12.56-11.51v-118.41c-43.66,0-44.13-.12-44.83-.12Z"/>
  <path class="st0" d="M705.14,483.63v-10.2c0-33.58-27.11-61.1-60.21-61.1h-20.89c-32.63,0-60.44,27.29-60.44,60.27v114.37h44.71v-46.86h9.51c23.59,0,42.6,23.25,42.6,46.86h44.71c0-21.59-8.68-46.86-29.46-57.9,16.9-4.98,29.46-27.88,29.46-45.44ZM660.66,487.78c0,8.66-6.92,16.13-15.73,16.13h-36.62c0-9.02-.24-21.83-.24-30.73s7.16-16.14,15.96-16.14h20.89c8.8,0,15.73,7.36,15.73,16.14v14.59Z"/>
</svg>