<?xml version="1.0" encoding="UTF-8"?>
<svg id="Layer_1" xmlns="http://www.w3.org/2000/svg" version="1.1" viewBox="0 0 750 195.85">
  <!-- Generator: Adobe Illustrator 29.7.1, SVG Export Plug-In . SVG Version: 2.1.1 Build 8)  -->
  <defs>
    <style>
      .st0 {
        fill: #231f20;
      }
    </style>
  </defs>
  <rect class="st0" x="307.81" y="22.35" width="111.96" height="39.27"/>
  <rect class="st0" x="322.59" y="78.75" width="82.29" height="36.49"/>
  <path class="st0" d="M164.45,98.13c0-42.99-34.16-77.72-76.89-77.72S11.09,55.14,11.09,98.13s34.36,77.32,76.47,77.32,76.89-34.73,76.89-77.32ZM50.45,98.13c0-20.93,16.83-37.94,37.11-37.94s37.73,17.01,37.73,37.94-16.51,37.52-37.73,37.52-37.11-17.01-37.11-37.52Z"/>
  <rect class="st0" x="307.81" y="134.92" width="111.96" height="38.76"/>
  <path class="st0" d="M172.81,22.67v80.41c0,11.86,2.55,22.26,10.41,30.61l36.71,39.89h30.08l36.71-39.89c8.06-8.35,10.41-18.75,10.41-30.61V22.67h-37.52v79.79c0,3.4-.81,6.09-3.16,8.66l-21.61,23.91-21.31-23.91c-2.35-2.58-2.96-5.26-2.96-8.66V22.67h-37.74Z"/>
  <path class="st0" d="M614.3,22.46v26.49c0,11.96,2.55,22.06,10.6,30.72l33.04,35.66v58.13h37.32v-58.13l33.04-35.66c8.06-8.66,10.6-18.77,10.6-30.72v-26.49h-38.03v28.87c0,3.19-.71,6.09-2.86,8.45l-21.52,24.12-21.52-24.12c-2.14-2.37-2.75-5.26-2.75-8.45v-28.87h-37.93,0Z"/>
  <path class="st0" d="M562.21,21.02v.1h-.1l.1,103.49c0,28.35,21.01,48.96,47.42,48.96h36.5v-39.59h-34.06c-5.81,0-10.9-4.23-10.9-10V21.11c-37.93,0-38.33-.1-38.95-.1h0Z"/>
  <path class="st0" d="M553.23,83.69v-8.86c0-29.17-23.55-53.09-52.3-53.09h-18.15c-28.35,0-52.51,23.71-52.51,52.36v99.37h38.84v-40.71h8.26c20.5,0,37.01,20.21,37.01,40.71h38.84c0-18.77-7.55-40.71-25.59-50.31,14.68-4.33,25.59-24.22,25.59-39.48h.01ZM514.59,87.29c0,7.53-6.02,14.02-13.67,14.02h-31.82c0-7.84-.21-18.96-.21-26.7s6.22-14.02,13.87-14.02h18.15c7.65,0,13.67,6.39,13.67,14.02v12.68h.01Z"/>
</svg>