<?xml version="1.0" encoding="UTF-8"?>
<svg id="Layer_1" xmlns="http://www.w3.org/2000/svg" version="1.1" viewBox="0 0 1080 1080">
  <!-- Generator: Adobe Illustrator 30.0.0, SVG Export Plug-In . SVG Version: 2.1.1 Build 123)  -->
  <defs>
    <style>
      .st0 {
        fill: #fff;
      }
    </style>
  </defs>
  <path class="st0" d="M471.71,583.4l-10.79,33.24c-.3,1.11-1.33,1.86-2.47,1.8h-26.02c-1.57,0-2.02-.9-1.8-2.24l44.91-129.58c1.53-4.41,2.29-9.04,2.25-13.7-.04-.8.55-1.49,1.34-1.57h35.94c1.08,0,1.57.23,1.8,1.34l50.95,143.73c.44,1.08.23,2.02-1.08,2.02h-29.19c-1.1.15-2.14-.51-2.47-1.57l-11.45-33.46h-51.93ZM479.79,555.33h35.49l-3.41-11c-4.71-14.95-10.98-34.42-14.33-46.95h-.23c-3.59,15.05-11.68,39.75-17.52,57.94ZM571.41,563.59c-.01-32.11,24.01-59.06,65.12-59.06,1.79,0,4.04.23,7.41.44v-44.24c-.05-.43.1-.86.41-1.17.2-.2.46-.34.74-.39l28.72-.02c1.08,0,1.36.44,1.36,1.34v132.72c-.05,5.48.25,10.96.9,16.4,0,.87-.15,1.35-.89,1.74l-.68.28c-13.99,5.95-29.04,9-44.24,8.99-33.24,0-58.84-18.86-58.84-57.04ZM643.95,531.7c-2.68-.86-5.5-1.23-8.31-1.08-8.57-.63-17.01,2.46-23.15,8.47-5.63,5.51-8.84,13-9,20.82l.03,2.14c0,22.23,12.8,31.89,29.87,31.89,3.57.15,7.14-.3,10.56-1.34v-60.9ZM803.7,559.66l.08,2.36c0,35.26-22.91,58.61-55.29,58.61-38.41,0-55.47-28.97-55.47-57.94-.9-15.29,4.63-30.26,15.24-41.3,10.62-11.04,25.36-17.15,40.67-16.86,35.23,0,53.83,25.79,54.76,55.13h0ZM724.69,562.21c0,19.76,9.2,32.34,24.25,32.34,13.01,0,22.91-11.23,22.91-31.89,0-17.52-7.19-32.11-24.25-32.11-13.01,0-22.91,11.68-22.91,31.66ZM823.57,459.17h27.39c1.8-.01,2.24.22,2.24,1.79v46.04c4.92-1.32,9.96-2.12,15.05-2.38l3.82-.1c14.42-.72,28.48,4.67,38.74,14.84,9.61,9.53,15.05,22.45,15.2,35.91l-.04,2.7c0,42-33.24,62.66-67.36,62.66-11.95.08-23.84-1.66-35.26-5.16-.81-.46-1.32-1.31-1.34-2.24v-152.49c0-1.08.44-1.57,1.57-1.57ZM868.39,530.99l-1.93.03c-4.48-.05-8.94.55-13.25,1.8v60.86c1.82.42,3.66.7,5.52.82l2.79.08c8.98.51,17.73-2.92,23.98-9.39,6.25-6.47,9.37-15.34,8.54-24.29,1.05-7.8-1.44-15.66-6.78-21.44-4.9-5.3-11.73-8.33-18.88-8.47h0ZM969.85,570.76c1.08,12.8,10.1,23.36,32.11,23.36,9.46.17,18.86-1.58,27.62-5.17.68-.44,1.36-.23,1.36,1.08v21.33c0,1.57-.44,2.24-1.57,2.7-9.71,4.35-20.21,6.59-30.82,6.59l-3.54-.08c-42.21,0-57.04-28.97-57.04-56.81,0-30.22,18.15-57.87,51.73-59.23l2.61-.05c12.91-.47,25.41,4.53,34.43,13.76s13.73,21.86,12.95,34.75c.17,5.04-.2,10.08-1.08,15.05-.07.96-.84,1.73-1.8,1.8-5.77.55-11.55.85-17.34.92l-49.61.02ZM999.05,548.98c3.75.14,7.5,0,11.23-.44v-1.57c-.13-4.9-2.23-9.54-5.82-12.88s-8.37-5.09-13.27-4.87c-11.29-.18-20.76,8.5-21.56,19.76h29.42Z"/>
  <path class="st0" d="M187.26,505.83l69.24,164.28h-45.38l-20.72-52.32h-50.67l47.52-111.96ZM334.23,409.9v260.17l-108.7-260.17h108.7ZM148.97,409.9l-108.74,260.17v-260.17h108.74Z"/>
</svg>