<?xml version="1.0" encoding="UTF-8"?>
<svg id="Layer_1" xmlns="http://www.w3.org/2000/svg" version="1.1" viewBox="0 0 1080 1080">
  <!-- Generator: Adobe Illustrator 29.8.3, SVG Export Plug-In . SVG Version: 2.1.1 Build 3)  -->
  <g id="_Group_">
    <path id="_Path_" d="M107.08,471.86c-12.04,0-15.65,5.3-15.65,17.1v19.5h32.26l-3.13,31.78h-29.13v96.07h-38.77v-96.07h-26v-31.54h26v-19.02c0-32.26,13-49.12,48.88-49.12,7.46,0,15.17.48,22.63,1.44v29.86" fill="#fff"/>
    <path id="_Compound_Path_" d="M126.34,568.41c0-35.64,16.85-62.6,52.49-62.6,19.26,0,31.06,9.87,36.84,22.39v-19.5h37.08v127.85h-37.32v-19.26c-5.3,12.28-17.58,21.91-36.84,21.91-35.39,0-52.49-26.73-52.49-62.6M165.1,577.08c0,19.02,6.98,31.78,25.04,31.78,15.89,0,23.84-11.56,23.84-29.86v-13c0-18.3-8.19-29.86-23.84-29.86-18.06,0-25.04,12.52-25.04,31.78v9.15h0Z" fill="#fff"/>
    <path id="_Path_2" d="M333.17,505.81c14.93,0,29.38,3.13,37.08,8.67l-8.67,27.45c-7.95-3.85-16.85-5.78-25.76-5.78-20.95,0-30.1,12.04-30.1,32.75v7.46c0,20.71,9.15,32.75,30.1,32.75,8.91,0,17.82-2.17,25.76-6.02l8.67,27.45c-7.7,5.3-21.91,8.67-37.08,8.67-45.51,0-65.97-24.32-65.97-63.57v-6.02c0-39.25,20.47-63.81,65.97-63.81" fill="#fff"/>
    <path id="_Compound_Path_2" d="M375.31,577.32v-11.32c0-36.36,20.71-60.2,62.84-60.2,39.73,0,57.31,24.08,57.31,59.71v20.47h-81.38c.72,17.58,8.67,25.28,30.1,25.28,13.97,0,27.93-2.65,41.17-7.7l6.98,26.49c-10.11,5.3-31.06,9.39-49.6,9.39-49.12-.24-67.42-24.56-67.42-62.12M414.07,560.47h46.71v-3.13c0-13.97-5.54-25.04-22.63-25.04s-24.08,11.08-24.08,28.17" fill="#fff"/>
    <path id="_Compound_Path_3" d="M638.96,576.6c0,35.64-17.1,62.6-52.73,62.6-19.26,0-32.75-9.63-38.04-21.91v19.26h-36.6v-192.14l38.77-3.37v85.48c5.54-11.32,18.06-20.47,36.12-20.47,35.39,0,52.73,26.73,52.73,62.6M600.2,567.69c0-18.06-6.98-31.54-25.52-31.54-15.89,0-24.32,11.32-24.32,29.62v13.48c0,18.3,8.67,29.62,24.32,29.62,18.54,0,25.52-13.48,25.52-31.54v-9.63h0Z" fill="#fff"/>
    <path id="_Compound_Path_4" d="M651.72,575.64v-6.5c0-36.84,20.95-63.33,63.57-63.33s63.57,26.49,63.57,63.33v6.5c0,36.84-20.95,63.33-63.57,63.33s-63.57-26.25-63.57-63.33M740.33,566.49c0-16.85-6.98-30.34-25.04-30.34s-25.04,13.48-25.04,30.34v12.04c0,16.85,6.98,30.34,25.04,30.34s25.04-13.48,25.04-30.34v-12.04Z" fill="#fff"/>
    <path id="_Compound_Path_5" d="M792.1,575.64v-6.5c0-36.84,20.95-63.33,63.57-63.33s63.57,26.49,63.57,63.33v6.5c0,36.84-20.95,63.33-63.57,63.33s-63.57-26.25-63.57-63.33M880.7,566.49c0-16.85-6.98-30.34-25.04-30.34s-25.04,13.48-25.04,30.34v12.04c0,16.85,6.98,30.34,25.04,30.34s25.04-13.48,25.04-30.34v-12.04Z" fill="#fff"/>
    <path id="_Path_3" d="M972.44,569.62l38.28-61.16h40.93l-39.97,63.33,41.66,64.77h-41.17l-39.73-62.6v62.6h-38.52v-192.14l38.52-3.61" fill="#fff"/>
  </g>
</svg>