<?xml version="1.0" encoding="UTF-8"?>
<svg id="Layer_1" xmlns="http://www.w3.org/2000/svg" version="1.1" viewBox="0 0 1080 1080">
  <!-- Generator: Adobe Illustrator 30.0.0, SVG Export Plug-In . SVG Version: 2.1.1 Build 123)  -->
  <defs>
    <style>
      .st0 {
        fill-rule: evenodd;
      }

      .st0, .st1 {
        fill: #fff;
      }
    </style>
  </defs>
  <path class="st1" d="M277.59,400.23v215.77l27.71.11v-102.7h66.95v-27.18h-66.95v-58.81h87.15v-27.18h-114.86,0ZM442.48,444.02c10.05,0,18.09-8.14,18.09-18.09s-8.14-18.09-18.09-18.09-18.09,8.14-18.09,18.09,8.14,18.09,18.09,18.09ZM428.42,471.2v144.8h27.71v-144.8h-27.71Z"/>
  <path class="st0" d="M559.04,466.97c-36.91,0-62.61,31.2-62.61,68.22s25.7,68.22,62.61,68.22c16.92,0,30.78-6.56,40.93-17.13v19.14c0,24.01-18.83,44-43.47,44-8.88,0-17.66-3.38-24.64-8.25l-13.96,24.12c11.11,7.19,24.33,11.32,38.5,11.32,39.35,0,71.18-31.84,71.18-71.18v-134.22h-27.61v12.9c-10.15-10.58-24.01-17.13-40.93-17.13h0ZM524.24,535.19c0-22.95,17.56-41.04,37.86-41.04s37.86,18.09,37.86,41.04-17.56,41.04-37.86,41.04-37.86-18.09-37.86-41.04h0Z"/>
  <path class="st1" d="M727.74,494.15c-16.39,0-29.72,13.96-29.72,30.36v91.49h-27.71v-144.8h27.71v13.22c8.14-10.47,20.1-17.45,35.75-17.45,19.46,0,34.37,9.62,43.05,24.43,9.62-14.28,25.28-24.43,44.21-24.43,31.62,0,51.3,25.49,51.4,57.01v92.02h-27.71v-91.59c0-16.39-13.33-30.36-29.72-30.36s-29.72,13.96-29.72,30.36v91.59h-27.71v-91.59c-.11-16.39-13.43-30.25-29.83-30.25h0Z"/>
  <path class="st0" d="M1020.29,487.59c-12.37-12.8-29.3-20.62-48.86-20.62-41.25,0-70.65,35.01-70.65,76.68s29.3,76.68,70.65,76.68c19.57,0,36.49-7.93,48.86-20.62v16.29h27.71v-144.8h-27.71v16.39h0ZM928.59,543.65c0-27.61,21.15-49.5,45.9-49.5s45.9,21.79,45.9,49.5-21.15,49.5-45.9,49.5c-24.75-.11-45.9-21.89-45.9-49.5Z"/>
  <path class="st1" d="M125.18,540.05c0-25.7,20.84-46.64,46.64-46.64s46.64,20.84,46.64,46.64-20.84,46.64-46.64,46.64-46.64-20.94-46.64-46.64h0Z"/>
  <path class="st1" d="M32,633.23c0-25.7,20.84-46.64,46.64-46.64h46.64v46.64c0,25.7-20.84,46.64-46.64,46.64s-46.64-20.84-46.64-46.64h0Z"/>
  <path class="st1" d="M125.18,400.23v93.18h46.64c25.7,0,46.64-20.84,46.64-46.64s-20.84-46.64-46.64-46.64h-46.64v.11h0Z"/>
  <path class="st1" d="M32,446.87c0,25.7,20.84,46.64,46.64,46.64h46.64v-93.29h-46.64c-25.81,0-46.64,20.84-46.64,46.64h0Z"/>
  <path class="st1" d="M32,540.05c0,25.7,20.84,46.64,46.64,46.64h46.64v-93.29h-46.64c-25.81,0-46.64,20.94-46.64,46.64h0Z"/>
</svg>