<?xml version="1.0" encoding="UTF-8"?>
<svg id="Layer_1" xmlns="http://www.w3.org/2000/svg" version="1.1" viewBox="0 0 1080 1080">
  <!-- Generator: Adobe Illustrator 30.0.0, SVG Export Plug-In . SVG Version: 2.1.1 Build 123)  -->
  <defs>
    <style>
      .st0 {
        fill: #fff;
      }
    </style>
  </defs>
  <path class="st0" d="M152.85,369.53c-73.52,0-134.68,59.2-134.68,132.08s61.16,131.43,134.68,131.43c39.68,0,68.98-13.01,92.4-37.09,24.08-24.08,31.24-57.26,31.24-83.93,0-8.45-.65-16.26-1.94-22.77h-121.67v35.78h86.53c-2.6,20.17-9.1,35.14-19.51,45.56-12.35,12.35-32.52,26.67-67.01,26.67-53.35,0-95-42.94-95-95.65s41.65-95.65,95-95.65c28.64,0,50.1,11.07,65.07,26.02l25.36-25.36c-21.48-20.82-50.1-37.09-90.44-37.09h-.02ZM373.43,463.87c-46.19,0-84.59,35.78-84.59,85.9s37.74,85.9,84.59,85.9,84.59-36.43,84.59-85.9-38.4-85.9-84.59-85.9M373.43,601.81c-25.36,0-47.5-21.48-47.5-52.06s22.11-52.06,47.5-52.06,47.5,20.82,47.5,52.06-22.11,52.06-47.5,52.06M556.9,463.87c-46.84,0-84.59,35.78-84.59,85.9s37.74,85.9,84.59,85.9,84.59-36.43,84.59-85.9-37.74-85.9-84.59-85.9M556.9,601.81c-25.36,0-47.5-21.48-47.5-52.06s22.11-52.06,47.5-52.06,47.5,20.82,47.5,52.06-21.48,52.06-47.5,52.06M739.73,463.87c-42.28,0-80.68,37.09-80.68,85.24s38.4,84.59,80.68,84.59c20.17,0,35.78-9.1,44.25-19.51h1.31v12.35c0,32.52-16.92,50.1-44.9,50.1-22.77,0-36.43-16.26-42.28-29.93l-32.52,13.66c9.1,22.77,33.83,50.1,74.83,50.1,43.59,0,80.02-26.02,80.02-88.49v-152.25h-35.14v13.66h-1.31c-8.45-10.41-24.08-19.51-44.25-19.51M742.98,600.52c-25.36,0-46.84-21.48-46.84-51.41s21.48-52.06,46.84-52.06,44.9,22.11,44.9,52.06-19.51,51.41-44.9,51.41M847.74,379.94h37.09v251.16h-37.09v-251.16h0ZM984.39,463.87c-44.25,0-81.33,34.49-81.33,85.9,0,48.15,36.43,85.9,85.24,85.9,39.68,0,62.47-24.08,71.58-37.74l-29.27-19.51c-9.76,14.32-23.42,23.42-42.28,23.42s-33.18-8.45-41.65-26.02l115.17-47.5-3.91-9.76c-7.16-18.86-29.27-54.66-73.52-54.66M940.14,547.15c-1.31-33.18,26.02-50.1,44.9-50.1,14.97,0,27.98,7.16,31.89,18.23l-76.77,31.89-.02-.02Z"/>
</svg>