<?xml version="1.0" encoding="UTF-8"?>
<svg id="Layer_1" xmlns="http://www.w3.org/2000/svg" version="1.1" viewBox="0 0 1080 1080">
  <!-- Generator: Adobe Illustrator 30.0.0, SVG Export Plug-In . SVG Version: 2.1.1 Build 123)  -->
  <defs>
    <style>
      .st0 {
        fill: #fff;
      }
    </style>
  </defs>
  <path class="st0" d="M73.24,393.41c-21.3,8.92-44.72,34.1-52.11,65.73-9.37,40.06,29.61,57,32.81,51.45,3.76-6.53-6.98-8.74-9.2-29.52-2.86-26.85,9.62-56.84,25.33-70.01,2.92-2.45,2.78.96,2.78,7.25,0,11.26-.62,112.32-.62,133.41,0,28.54-1.18,37.55-3.3,46.46-2.15,9.02-5.59,15.12-2.98,17.47,2.92,2.63,15.38-3.62,22.6-13.69,8.65-12.08,11.68-26.59,12.23-42.34.66-18.99.63-49.13.66-66.32.03-15.76.26-61.93-.28-89.68-.13-6.81-19.01-13.95-27.92-10.22ZM1055.65,543.34c-3.09,0-4.5,3.18-5.66,8.55-4.05,18.64-8.3,22.85-13.78,22.85-6.13,0-11.63-9.23-13.05-27.71-1.11-14.53-.93-41.28.49-67.88.29-5.47-1.22-10.88-15.88-16.2-6.31-2.29-15.48-5.66-20.05,5.36-12.9,31.14-17.95,55.87-19.14,65.91-.06.52-.7.63-.81-.59-.76-8.04-2.45-22.66-2.66-53.38-.04-5.99-1.31-11.09-7.92-15.27-4.29-2.71-17.32-7.5-22.02-1.8-4.06,4.66-8.77,17.21-13.67,32.09-3.98,12.09-6.75,20.27-6.75,20.27,0,0,.05-32.62.1-45,.02-4.67-3.18-6.23-4.15-6.51-4.34-1.26-12.91-3.37-16.54-3.37-4.49,0-5.58,2.51-5.58,6.16,0,.48-.71,42.95-.71,72.65,0,1.29,0,2.7,0,4.19-2.48,13.65-10.52,32.18-19.27,32.18s-12.89-7.75-12.89-43.15c0-20.65.62-29.63.92-44.57.18-8.6.52-15.21.5-16.71-.06-4.6-8.02-6.92-11.72-7.77-3.72-.86-6.95-1.2-9.47-1.05-3.57.2-6.09,2.54-6.09,5.76,0,1.73.02,5.01.02,5.01-4.6-7.23-12-12.25-16.91-13.71-13.25-3.93-27.08-.45-37.51,14.15-8.29,11.6-13.29,24.74-15.26,43.61-1.44,13.8-.97,27.79,1.59,39.62-3.09,13.35-8.82,18.82-15.1,18.82-9.11,0-15.72-14.88-14.95-40.6.51-16.92,3.89-28.8,7.59-45.98,1.58-7.33.3-11.16-2.92-14.83-2.95-3.37-9.23-5.09-18.27-2.97-6.44,1.51-15.64,3.13-24.06,4.38,0,0,.51-2.03.92-5.6,2.19-18.74-18.17-17.22-24.67-11.23-3.88,3.57-6.52,7.79-7.52,15.37-1.59,12.02,8.22,17.7,8.22,17.7-3.22,14.73-11.11,33.97-19.25,47.88-4.36,7.45-7.7,12.98-12.01,18.85-.02-2.18-.03-4.37-.04-6.55-.1-30.97.31-55.34.49-64.13.18-8.6.52-15.04.5-16.53-.05-3.36-2.01-4.63-6.1-6.24-3.61-1.42-7.88-2.41-12.31-2.75-5.59-.43-8.96,2.53-8.87,6.04.02.66.02,4.73.02,4.73-4.6-7.23-12-12.25-16.91-13.71-13.25-3.93-27.08-.45-37.51,14.15-8.29,11.6-13.72,27.87-15.26,43.46-1.43,14.53-1.17,26.88.78,37.28-2.11,10.42-8.17,21.31-15.02,21.31-8.76,0-13.74-7.75-13.74-43.15,0-20.65.62-29.63.92-44.57.18-8.6.52-15.21.5-16.71-.06-4.6-8.02-6.92-11.72-7.77-3.87-.9-7.21-1.22-9.78-1.04-3.39.25-5.77,3.28-5.77,5.54v5.21c-4.6-7.23-12-12.25-16.91-13.71-13.25-3.93-27.01-.39-37.51,14.15-6.85,9.48-12.4,19.99-15.26,43.26-.83,6.72-1.19,13.02-1.14,18.9-2.73,16.71-14.8,35.97-24.67,35.97-5.78,0-11.28-11.2-11.28-35.08,0-31.81,1.97-77.1,2.3-81.46,0,0,12.47-.21,14.89-.24,6.22-.07,11.86.08,20.14-.35,4.16-.21,8.16-15.13,3.87-16.98-1.94-.84-15.69-1.57-21.13-1.68-4.58-.1-17.33-1.05-17.33-1.05,0,0,1.14-30.06,1.41-33.24.23-2.65-3.2-4.01-5.16-4.84-4.78-2.02-9.05-2.99-14.11-4.03-7-1.44-10.17-.03-10.79,5.88-.93,8.96-1.42,35.21-1.42,35.21-5.14,0-22.67-1-27.81-1-4.77,0-9.92,20.52-3.32,20.77,7.59.29,20.82.55,29.59.81,0,0-.39,46.04-.39,60.25,0,1.51,0,2.97.02,4.38-4.83,25.15-21.83,38.74-21.83,38.74,3.65-16.64-3.81-29.14-17.24-39.72-4.95-3.9-14.72-11.28-25.65-19.36,0,0,6.33-6.24,11.94-18.79,3.98-8.89,4.15-19.07-5.62-21.31-16.13-3.71-29.44,8.14-33.4,20.79-3.07,9.8-1.43,17.07,4.59,24.62.44.55.92,1.11,1.41,1.68-3.64,7.02-8.64,16.47-12.88,23.8-11.76,20.35-20.65,36.44-27.36,36.44-5.37,0-5.29-16.34-5.29-31.64,0-13.19.97-33.02,1.75-53.55.26-6.79-3.14-10.66-8.83-14.16-3.46-2.13-10.84-6.31-15.11-6.31-6.4,0-24.85.87-42.29,51.32-2.2,6.36-6.52,17.94-6.52,17.94l.37-60.66c0-1.42-.76-2.8-2.49-3.74-2.94-1.59-10.79-4.86-17.77-4.86-3.32,0-4.99,1.55-4.99,4.63l-.61,94.91c0,7.21.19,15.62.9,19.3.71,3.69,1.86,6.68,3.29,8.46,1.42,1.78,3.07,3.14,5.78,3.7,2.53.52,16.36,2.3,17.08-2.99.86-6.34.89-13.19,8.16-38.75,11.31-39.79,26.05-59.2,32.99-66.1,1.21-1.21,2.59-1.28,2.53.7-.29,8.72-1.33,30.52-2.04,49.04-1.88,49.56,7.14,58.74,20.02,58.74,9.86,0,23.75-9.8,38.65-34.58,9.28-15.45,18.3-30.6,24.78-41.52,4.51,4.18,9.58,8.68,14.64,13.48,11.76,11.17,15.63,21.77,13.06,31.84-1.96,7.7-9.34,15.62-22.48,7.92-3.83-2.25-5.47-3.99-9.31-6.52-2.07-1.36-5.23-1.77-7.12-.34-4.92,3.71-7.73,8.43-9.34,14.27-1.56,5.68,4.13,8.69,10.03,11.31,5.08,2.26,16,4.31,22.96,4.54,27.13.91,48.86-13.1,63.99-49.23,2.71,31.2,14.23,48.86,34.26,48.86,13.39,0,26.81-17.3,32.68-34.33,1.69,6.94,4.18,12.97,7.4,18.08,15.43,24.45,45.36,19.19,60.4-1.57,4.65-6.41,5.36-8.72,5.36-8.72,2.19,19.6,17.98,26.45,27.02,26.45,10.12,0,20.58-4.79,27.9-21.28.84,1.76,1.78,3.47,2.82,5.12,15.43,24.45,45.36,19.19,60.4-1.57.71-.98,1.32-1.86,1.86-2.65l.44,12.88-13.84,12.7c-23.2,21.27-40.83,37.4-42.13,56.18-1.65,23.95,17.77,32.85,32.47,34.02,15.59,1.24,28.97-7.38,37.18-19.45,7.23-10.62,11.95-33.48,11.61-56.05-.14-9.04-.37-20.53-.55-32.86,8.15-9.46,17.32-21.42,25.77-35.41,9.21-15.25,19.08-35.73,24.13-51.67,0,0,8.57.07,17.73-.53,2.93-.19,3.77.4,3.23,2.55-.65,2.59-11.56,44.66-1.61,72.69,6.81,19.19,22.17,25.36,31.28,25.36,10.66,0,20.86-8.05,26.32-20.01.66,1.33,1.35,2.62,2.1,3.81,15.43,24.45,45.26,19.16,60.4-1.57,3.42-4.68,5.36-8.72,5.36-8.72,3.25,20.29,19.03,26.56,28.06,26.56s18.35-3.86,25.59-21.01c.3,7.55.78,13.73,1.53,15.67.46,1.19,3.13,2.69,5.08,3.41,8.61,3.19,17.39,1.68,20.64,1.03,2.25-.46,4.01-2.26,4.25-6.92.63-12.24.24-32.82,3.96-48.11,6.23-25.66,12.04-35.61,14.8-40.54,1.54-2.76,3.28-3.22,3.35-.29.13,5.91.42,23.27,2.84,46.6,1.77,17.15,4.14,27.29,5.96,30.5,5.19,9.18,11.61,9.61,16.83,9.61,3.32,0,10.27-.92,9.65-6.76-.3-2.85.23-20.44,6.37-45.72,4.01-16.51,10.7-31.42,13.11-36.88.89-2.01,1.3-.43,1.29-.12-.51,11.37-1.65,48.55,2.98,68.89,6.28,27.55,24.44,30.63,30.77,30.63,13.51,0,24.56-10.28,28.28-37.32.91-6.51-.42-11.54-4.4-11.54h0ZM489.71,526.63c-.77,14.31-3.57,26.27-8.05,34.97-8.11,15.73-24.15,20.72-31.22-2.01-5.1-16.39-3.36-38.73-1.24-50.8,3.15-17.91,11.03-30.61,23.34-29.41,12.64,1.24,18.78,17.48,17.17,47.26ZM613.2,526.83c-.72,13.51-4.22,27.09-8.05,34.76-7.89,15.84-24.38,20.79-31.22-2.01-4.67-15.58-3.55-35.74-1.24-48.44,3-16.48,10.27-31.77,23.34-31.77,12.7,0,18.96,13.93,17.17,47.46ZM616.43,619.03c-.17,24.65-4.05,46.27-12.37,52.55-11.8,8.9-27.66,2.22-24.38-15.76,2.91-15.92,16.65-32.18,36.78-52.04,0,0,.04,4.53-.04,15.26ZM829.61,526.98c-.69,14.84-3.97,26.43-8.05,34.61-7.89,15.84-24.27,20.75-31.22-2.01-3.79-12.41-3.97-33.13-1.24-50.45,2.77-17.64,10.52-30.96,23.34-29.76,12.65,1.19,18.56,17.48,17.17,47.61Z"/>
</svg>