<?xml version="1.0" encoding="UTF-8"?>
<svg id="Layer_1" xmlns="http://www.w3.org/2000/svg" version="1.1" viewBox="0 0 1080 1080">
  <!-- Generator: Adobe Illustrator 29.8.3, SVG Export Plug-In . SVG Version: 2.1.1 Build 3)  -->
  <path d="M611.92,445.79c5.63.03,11.06-2.14,15.12-6.05,4.04-3.89,6.39-9.22,6.52-14.83-.07-5.69-2.37-11.12-6.41-15.13-4.06-4.02-9.52-6.31-15.23-6.36-5.63.13-10.99,2.46-14.93,6.48-3.93,4.01-6.11,9.4-6.09,15.01.05,5.53,2.28,10.82,6.21,14.72,3.94,3.91,9.26,6.12,14.82,6.17M758.97,465.87h52.19v4.11c-2.89.51-5.69,1.47-8.28,2.84-4.77,2.22-14.31,12.96-21.64,30.97-12.41,31.29-25.44,68.25-39.12,110.6l-5.09,16.06c-2.23,7.26-4.14,12-5.09,14.86-.95,2.86-2.23,7.26-4.45,12.62-1.26,4.04-2.89,7.95-4.85,11.69-2.56,4.74-7.33,14.46-11.14,17.38-6.05,5.06-14.96,10.75-26.09,9.8-21.64,0-37.86-16.06-38.19-35.06,0-12.96,8.28-21.49,20.69-21.49,8.91,0,16.85,4.82,16.85,14.84,0,7.28-7.31,14.86-7.31,18.65,0,9.8,5.73,14.45,16.87,14.45,8.89,0,16.17-5.69,21.62-17.06,7.33-12.96,7.96-27.18,1.91-42.98l-45.8-120.39c-10.51-27.8-18.47-36.94-28.32-37.92v-4.11h72.21v4.11c-8.59.95-13.03,6.01-13.03,15.16,0,6.63,2.54,16.75,7.31,29.72l8.59,23.37c9.87,25.28,17.79,47.4,21.96,61.31,9.22-28.75,17.79-54.03,26.09-76.15,6.05-16.43,8.91-28.12,8.91-35.08,0-12.32-6.68-18.01-16.87-18.01l.08-4.3ZM256.56,619.76c-9.22-1.61-17.17-9.8-17.17-27.18v-209.5l-52.5,11.37v4.43c8.91-.95,17.79,6.94,17.79,23.69v170c0,16.43-8.91,25.91-17.79,27.18-.84.15-1.68.25-2.52.3-4.54.31-9.09-.49-13.26-2.33-7.05-3.05-12.94-8.5-17.92-16.62l-24.26-38.55c-5.12-8.13-12.72-14.39-21.68-17.85-8.98-3.47-18.84-3.97-28.13-1.42l27.37-30.02c20.67-22.74,39.77-37.28,57.9-43.29v-4.12h-60.2v4.11c15.59,6.01,14.64,19.28-3.24,40.16l-38.49,44.54v-171.59l-52.5,11.37v4.43c8.91,0,17.79,8.83,17.79,24.32v169.38c0,18.65-8.59,25.91-17.79,27.18v4.11h69.74v-4.11c-11.45-1.61-17.18-10.42-17.18-27.18v-31.27l14.94-16.43,36.2,59.08c8.59,14.23,16.55,19.92,29.27,19.92h121.14v-3.21s-3.46-.24-7.5-.9M401.09,599.78v-70.67c-.7-46.21-20.2-67.25-64.87-67.25-14.26-.11-28.15,4.56-39.45,13.26-11.77,8.85-17.5,18.97-17.5,30.66s6.36,19.9,16.85,19.9c11.14,0,19.1-6.31,19.1-15.16,0-6.63-4.46-15.8-4.46-22.12,0-11.39,8.6-21.19,23.55-21.19,19.1,0,32.77,14.23,32.77,45.82v18.95l-15.9,3.79c-8.28,1.61-15.27,3.21-20.69,4.82s-12.4,3.79-20.69,6.94c-16.55,6.33-25.44,12.34-33.09,23.71-3.74,5.5-5.74,12-5.73,18.65,0,26.21,18.45,38.23,44.23,38.23,20.36,0,42.05-10.75,51.85-30.97.14,6.38,1.68,12.65,4.51,18.38,10.79,21.68,46.51,8.87,46.51,8.87v-4.11c-15.64,2.42-16.93-16.05-17.01-20.51M367.12,577.9c0,10.42-3.82,18.95-11.45,24.96-7.31,6.01-14.95,9.17-22.9,9.17-15.59,0-25.78-10.12-25.78-28.77,0-8.83,4.85-17.06,8.91-21.79,3.22-3.27,6.99-5.95,11.14-7.9,5.4-2.84,8.09-4.3,11.77-6.01l14.56-5.36c7.31-2.84,11.76-4.42,13.67-5.36l.08,41.07ZM1070.05,465.87h-123.74v-82.78h123.74l-25.98,41.39,25.98,41.39ZM818.52,603.76c-15.38-15.71-23.87-36.89-23.6-58.87-.17-10.83,1.83-21.59,5.88-31.63,4.06-10.06,10.08-19.22,17.72-26.93,15.61-16.45,34.72-24.69,57.04-24.69s41.11,8.24,56.72,24.69c7.74,7.65,13.85,16.79,17.96,26.86,4.1,10.06,6.13,20.84,5.94,31.7.16,10.9-1.87,21.73-5.98,31.83-4.11,10.12-10.21,19.31-17.93,27.04-15.61,16.06-34.74,24.37-56.72,24.37s-41.43-8.23-57.04-24.37M904.24,488.97c-6.29-12.22-14.56-19.39-24.26-21.32-19.68-3.93-37.09,16.16-43.57,48.11-2.77,14.33-3.44,28.99-1.99,43.51,1.43,14.54,5.49,28.69,12,41.76,6.31,12.24,14.56,19.39,24.26,21.31,19.68,3.94,37.59-17.01,44.12-49.28,5.42-26.97,2.67-59.81-10.64-84.12l.08.02Z" fill="#fff"/>
  <path d="M630.38,592.58v-126.72h-112v3.81c14.96,2.22,22.08,13.43,15.28,31.61-35,94.48-32.77,90.24-35,97.82-2.23-7.28-7.33-25.15-15.59-47.58-8.27-22.42-13.68-37.29-15.91-43.93-8.59-26.23-5.73-36.03,8.28-37.6v-4.11h-72.55v4.11c10.82,2.22,20.36,14.53,28.32,36.65l11.14,28.75c12.24,31.06,26.62,73.89,31.43,88.49h24.11c7.76-22.49,38.91-112.23,43.09-121.35,4.5-10.39,9.59-18.26,15.28-23.71,2.75-2.93,6.1-5.25,9.81-6.79,3.72-1.55,7.73-2.29,11.76-2.17,0,0,17.48,0,17.48,16.75v105.96c0,17.67-8.59,25.91-17.5,27.18v4.11h69.37v-4.11c-9.17-1.27-16.8-9.48-16.8-27.18" fill="#fff"/>
</svg>