<?xml version="1.0" encoding="UTF-8"?>
<svg id="Layer_1" xmlns="http://www.w3.org/2000/svg" version="1.1" viewBox="0 0 1080 1080">
  <!-- Generator: Adobe Illustrator 30.0.0, SVG Export Plug-In . SVG Version: 2.1.1 Build 123)  -->
  <defs>
    <style>
      .st0 {
        fill: #fff;
      }
    </style>
  </defs>
  <path id="Path_2514" class="st0" d="M76.27,457.27h36.25v132.04h67.11v33.45h-103.36v-165.5Z"/>
  <path id="Path_2515" class="st0" d="M195.66,510.55h34.82v112.15h-34.82v-112.15ZM213.07,454.8c11.16,0,20.2,9.05,20.2,20.21s-9.05,20.2-20.21,20.2c-11.16,0-20.2-9.05-20.2-20.2s9.04-20.2,20.2-20.2h0"/>
  <path id="Path_2516" class="st0" d="M376.16,457.24h34.82v98.91l39.47-45.65h42.7l-45.71,51.92,44.75,60.33h-43.77l-36.97-55.44h-.46v55.43h-34.82v-165.5Z"/>
  <path id="Path_2517" class="st0" d="M249.79,510.56h33.44v15.33h.48c6.81-11.66,19.48-18.63,32.97-18.12,35.31,0,41.82,23.23,41.82,53.42v61.5h-34.82v-54.53c0-13.02-.24-29.75-18.14-29.75s-20.89,14.17-20.89,28.8v55.46h-34.82l-.03-112.12Z"/>
  <path id="Path_2518" class="st0" d="M566.48,553.58c.27-11.53-8.85-21.09-20.38-21.37-.33,0-.67,0-1,0-12.66-.79-23.61,8.72-24.61,21.37h45.99ZM595.98,603.28c-11.72,14.21-29.2,22.4-47.62,22.31-34.82,0-62.71-23.25-62.71-59.24s27.88-59.23,62.71-59.23c32.55,0,52.96,23.22,52.96,59.23v10.92h-80.83c2.08,12.8,13.28,22.12,26.25,21.83,10.07-.06,19.43-5.22,24.85-13.71l24.39,17.88Z"/>
  <path id="Path_2519" class="st0" d="M673.91,537.66c-17.41,0-27.86,11.63-27.86,28.57s10.44,28.58,27.86,28.58,27.89-11.61,27.89-28.58-10.45-28.57-27.89-28.57M733.86,622.68h-32.06v-14.87h-.48c-8.15,10.97-20.96,17.5-34.62,17.66-33.46,0-55.5-24.15-55.5-58.3,0-31.36,19.51-60.16,51.57-60.16,14.41,0,27.87,3.94,35.77,14.87h.46v-64.65h34.86v165.45Z"/>
  <path id="Path_2520" class="st0" d="M968.96,622.75h-34.82v-54.54c0-13-.23-29.75-18.11-29.75s-20.91,14.17-20.91,28.8v55.48h-34.82v-112.15h33.43v15.33h.47c6.82-11.66,19.49-18.62,32.99-18.12,35.3,0,41.8,23.22,41.8,53.42v61.52ZM820.99,495.26c-11.16,0-20.21-9.04-20.21-20.21s9.04-20.21,20.21-20.21c11.16,0,20.21,9.04,20.21,20.21s-9.04,20.21-20.21,20.21h0M838.4,622.75h-34.86v-112.15h34.86v112.15ZM986.32,422.5h-200.28c-9.47-.11-17.23,7.48-17.34,16.94v201.11c.11,9.47,7.87,17.06,17.34,16.96h200.28c9.49.12,17.28-7.47,17.41-16.96v-201.12c-.14-9.48-7.93-17.07-17.41-16.94"/>
</svg>