<?xml version="1.0" encoding="UTF-8"?>
<svg id="Layer_1" xmlns="http://www.w3.org/2000/svg" version="1.1" viewBox="0 0 1080 1080">
  <!-- Generator: Adobe Illustrator 30.0.0, SVG Export Plug-In . SVG Version: 2.1.1 Build 123)  -->
  <defs>
    <style>
      .st0 {
        fill: #fff;
      }
    </style>
  </defs>
  <g id="g1340">
    <path id="path1342" class="st0" d="M230.57,532.62c1.96-.24,3.85-.24,5.57,0,1-2.3,1.17-6.25.27-10.55-1.34-6.4-3.15-10.27-6.88-9.67s-3.88,5.24-2.54,11.64c.75,3.6,2.09,6.68,3.58,8.58h0" vector-effect="none"/>
  </g>
  <g id="g1346">
    <path id="path1348" class="st0" d="M198.47,537.68c2.68,1.17,4.32,1.95,4.96,1.27.41-.42.29-1.23-.35-2.27-1.32-2.16-4.04-4.34-6.92-5.57-5.89-2.54-12.92-1.69-18.34,2.2-1.79,1.31-3.48,3.13-3.24,4.23.08.35.34.62.97.72,1.47.17,6.63-2.44,12.57-2.8,4.19-.26,7.67,1.05,10.34,2.23h0" vector-effect="none"/>
  </g>
  <g id="g1352">
    <path id="path1354" class="st0" d="M193.09,540.75c-3.48.55-5.4,1.7-6.64,2.77-1.05.92-1.7,1.94-1.7,2.65l.27.63.58.22c.79,0,2.55-.7,2.55-.7,4.85-1.74,8.05-1.53,11.22-1.17,1.75.2,2.58.31,2.96-.3.11-.17.25-.54-.1-1.11-.82-1.32-4.33-3.56-9.13-2.99h0" vector-effect="none"/>
  </g>
  <g id="g1378">
    <path id="path1380" class="st0" d="M219.74,552.02c2.37,1.16,4.97.7,5.82-1.02s-.38-4.07-2.75-5.23c-2.37-1.16-4.97-.7-5.82,1.02-.85,1.73.38,4.07,2.75,5.23" vector-effect="none"/>
  </g>
  <g id="g1384">
    <path id="path1386" class="st0" d="M234.95,538.74c-1.92-.03-3.52,2.08-3.56,4.72-.04,2.64,1.48,4.8,3.4,4.83s3.52-2.08,3.56-4.71-1.48-4.8-3.4-4.83h0" vector-effect="none"/>
  </g>
  <g id="g1390">
    <path id="path1392" class="st0" d="M105.84,586.27c-.48-.6-1.26-.41-2.02-.24-.53.12-1.13.26-1.79.25-1.41-.03-2.61-.63-3.29-1.66-.88-1.34-.82-3.35.14-5.65l.45-1.03c1.54-3.46,4.12-9.25,1.23-14.76-2.18-4.15-5.74-6.74-10.01-7.28-4.1-.52-8.33,1-11.02,3.97-4.25,4.69-4.92,11.07-4.09,13.33.3.83.77,1.05,1.11,1.1.73.1,1.79-.43,2.46-2.23l.19-.59c.3-.95.86-2.73,1.76-4.15,1.1-1.72,2.81-2.9,4.82-3.33,2.04-.44,4.14-.05,5.88,1.1,2.98,1.95,4.12,5.6,2.86,9.08-.66,1.8-1.73,5.24-1.49,8.07.48,5.73,4,8.03,7.16,8.27,3.08.12,5.23-1.61,5.77-2.88.32-.75.05-1.2-.12-1.4h0" vector-effect="none"/>
  </g>
  <g id="g1396">
    <path id="path1398" class="st0" d="M283.45,575.79c-.12-.41-.88-3.21-1.93-6.57l-2.14-5.73c4.21-6.3,4.28-11.93,3.72-15.12-.6-3.95-2.24-7.32-5.56-10.8-3.32-3.48-10.1-7.05-19.63-9.72l-5-1.39c-.03-.2-.26-11.79-.48-16.77-.16-3.6-.47-9.21-2.21-14.74-2.08-7.49-5.69-14.03-10.21-18.22,12.46-12.91,20.24-27.14,20.22-39.34-.04-23.47-28.86-30.57-64.38-15.86l-7.52,3.19s-13.61-13.35-13.81-13.53c-40.5-35.32-167.12,105.42-126.63,139.6l8.85,7.5c-2.3,5.94-3.19,12.76-2.46,20.08.95,9.41,5.8,18.42,13.67,25.39,7.46,6.61,17.28,10.8,26.81,10.79,15.75,36.31,51.75,58.58,93.95,59.83,45.27,1.34,83.28-19.9,99.2-58.06,1.04-2.68,5.46-14.75,5.46-25.4s-6.05-15.14-9.91-15.14h0M98.23,604.36c-1.38.24-2.78.33-4.19.3-13.68-.37-28.44-12.68-29.91-27.28-1.62-16.13,6.62-28.56,21.22-31.5,1.74-.35,3.86-.55,6.13-.44,8.18.45,20.23,6.73,22.99,24.54,2.44,15.78-1.44,31.85-16.23,34.37h0M82.96,536.23c-9.09,1.77-17.1,6.92-22,14.03-2.93-2.44-8.38-7.17-9.35-9.01-7.82-14.85,8.53-43.72,19.96-60.02,28.23-40.29,72.45-70.78,92.92-65.26,3.33.94,14.35,13.72,14.35,13.72,0,0-20.46,11.35-39.44,27.18-25.57,19.69-44.88,48.3-56.45,79.35h0M226.48,598.33c.3-.12.5-.47.47-.8-.04-.41-.41-.72-.83-.67,0,0-21.42,3.17-41.66-4.24,2.2-7.16,8.07-4.58,16.92-3.86,15.97.95,30.28-1.38,40.85-4.42,9.16-2.63,21.2-7.81,30.55-15.19,3.15,6.93,4.26,14.55,4.26,14.55,0,0,2.44-.44,4.48.82,1.93,1.19,3.34,3.65,2.38,10.03-1.97,11.91-7.03,21.58-15.54,30.47-5.18,5.58-11.47,10.42-18.66,13.94-3.82,2.01-7.89,3.74-12.19,5.15-32.07,10.48-64.91-1.04-75.49-25.78-.84-1.86-1.56-3.81-2.12-5.84-4.51-16.3-.68-35.85,11.29-48.16h0c.74-.79,1.49-1.71,1.49-2.87,0-.97-.62-2-1.15-2.72-4.19-6.07-18.69-16.42-15.78-36.46,2.09-14.39,14.68-24.52,26.41-23.92l2.97.17c5.08.3,9.52.95,13.71,1.13,7.01.3,13.3-.72,20.76-6.93,2.52-2.1,4.53-3.92,7.95-4.5.36-.06,1.25-.38,3.03-.3,1.82.1,3.55.6,5.11,1.63,5.98,3.98,6.83,13.62,7.14,20.67.18,4.03.66,13.77.83,16.56.38,6.39,2.06,7.29,5.46,8.42,1.91.63,3.69,1.1,6.3,1.83,7.92,2.22,12.61,4.48,15.57,7.37,1.76,1.81,2.59,3.73,2.84,5.57.94,6.81-5.29,15.22-21.76,22.87-18.01,8.36-39.84,10.47-54.94,8.79l-5.29-.6c-12.07-1.62-18.96,13.98-11.71,24.66,4.67,6.89,17.39,11.37,30.11,11.37,29.18,0,51.6-12.46,59.94-23.22l.67-.95c.41-.62.07-.96-.44-.61-6.81,4.66-37.09,23.18-69.47,17.61,0,0-3.94-.65-7.52-2.04-2.86-1.11-8.83-3.86-9.55-9.99,26.13,8.08,42.58.44,42.58.44h0M185.09,593.44h0s0,.02,0,.02v-.02s-.01,0-.01,0h0M135.1,481.06c10.04-11.6,22.39-21.68,33.46-27.35.38-.19.79.22.58.6-.88,1.59-2.57,5-3.11,7.58-.09.4.35.7.69.47,6.88-4.69,18.87-9.72,29.37-10.37.45-.03.67.55.31.83-1.6,1.23-3.35,2.92-4.62,4.64-.22.29-.01.71.35.72,7.38.05,17.78,2.64,24.56,6.44.46.26.13,1.15-.38,1.03-10.26-2.35-27.05-4.14-44.49.12-15.57,3.8-27.45,9.66-36.12,15.97-.44.32-.96-.26-.61-.67h0" vector-effect="none"/>
  </g>
  <g id="g1404">
    <path id="path1406" class="st0" d="M1007.92,508.33c-15,0-21.88,11.25-24.87,17.66-1.97,4.23-1.88,5.47-3.32,5.47-2.09,0-.35-3.4.58-7.4,1.85-7.87.44-13.89.44-13.89h-21.38v102.6h29.19v-32.53c3.45,5.86,9.85,12.12,19.72,12.12,21.1,0,31.72-17.86,31.72-41.99,0-27.35-12.71-42.06-32.08-42.06h0M999.91,573.33c-6.7,0-11.62-8.49-11.62-20.32s5.06-20.31,11.39-20.31c8.12,0,11.58,7.45,11.58,20.31s-3.19,20.32-11.35,20.32h0" vector-effect="none"/>
  </g>
  <g id="g1410">
    <path id="path1412" class="st0" d="M427.79,508.33c-12.84,0-19.19,10.11-22.1,16.62-1.63,3.64-2.08,6.52-3.4,6.52-1.86,0-.53-2.5-2.05-8.05-2.01-7.3-8.04-15.09-20.87-15.09-13.49,0-19.26,11.4-22,17.66-1.87,4.28-1.88,5.47-3.32,5.47-2.09,0-.35-3.4.58-7.4,1.85-7.87.44-13.89.44-13.89h-21.38v80.4h29.19v-40c0-7.89,3.3-17.9,8.96-17.9,6.53,0,7.85,5.02,7.85,14.32v43.61h29.3v-40.02c0-7.02,2.87-17.9,9-17.9,6.63,0,7.8,7.05,7.8,14.32v43.59h28.78v-47.28c0-20.98-7.39-34.97-26.77-34.97h0M923.17,508.33c-12.84,0-19.19,10.11-22.1,16.62-1.63,3.64-2.08,6.52-3.4,6.52-1.86,0-.62-3.18-2.05-8.05-2.14-7.26-7.46-15.09-20.87-15.09s-19.26,11.4-22,17.66c-1.87,4.28-1.88,5.47-3.32,5.47-2.09,0-.35-3.4.58-7.4,1.85-7.87.44-13.89.44-13.89h-21.38v80.4h29.19v-40c0-7.89,3.3-17.9,8.96-17.9,6.53,0,7.85,5.02,7.85,14.32v43.61h29.3v-40.02c0-7.02,2.87-17.9,9-17.9,6.63,0,7.8,7.05,7.8,14.32v43.59h28.78v-47.28c0-20.98-7.39-34.97-26.77-34.97h0M504.39,508.35c-22.36,0-38.4,8.22-38.4,8.22v24.16s17.71-10.19,32.08-10.19c11.47,0,12.88,6.18,12.36,11.32,0,0-3.31-.88-13.4-.88-23.79,0-35.8,10.81-35.8,28.15,0,16.45,13.49,23.32,24.87,23.32,16.59,0,23.88-11.15,26.13-16.44,1.55-3.67,1.84-6.14,3.24-6.14,1.59,0,1.05,1.77.98,5.43-.13,6.39.17,11.23,1.18,15.31h22v-39.57c0-24.71-8.74-42.68-35.23-42.68h0M497.29,571.79c-6.98,1.61-10.59-.54-10.59-5.16,0-6.34,6.56-8.87,15.91-8.87,4.12,0,8,.35,8,.35,0,2.72-5.89,11.97-13.32,13.68M587.7,485.84h29.19v104.76h-29.19v-104.76h0M649.01,550.4c0-7.23,6.72-13.81,19.04-13.81,13.43,0,24.24,6.47,26.66,7.94v-27.96s-8.53-8.22-29.52-8.22c-22.12,0-40.54,12.94-40.54,40.8s16.71,43.3,40.48,43.3c18.56,0,29.63-10.2,29.63-10.2v-26.56c-3.5,1.96-13.26,8.73-26.58,8.73-14.11,0-19.18-6.49-19.18-14.02h0M753.84,508.35c-16.9,0-23.32,16.01-24.62,18.79s-1.94,4.38-3,4.35c-1.84-.06-.56-3.41.16-5.58,1.36-4.1,4.24-14.86,4.24-28.09,0-8.97-1.22-11.97-1.22-11.97h-25.2v104.76h29.19v-40c0-6.52,2.6-17.9,9.95-17.9,6.09,0,8,4.51,8,13.6v44.31h29.19v-42.56c0-20.64-3.42-39.69-26.69-39.69h0M790.01,510.29v80.31h29.19v-80.31s-4.9,2.87-14.56,2.87-14.62-2.87-14.62-2.87h0" vector-effect="none"/>
  </g>
  <g id="g1416">
    <path id="path1418" class="st0" d="M822.39,496.69c0,6.44-8,11.66-17.87,11.66s-17.87-5.22-17.87-11.66,8-11.66,17.87-11.66,17.87,5.22,17.87,11.66" vector-effect="none"/>
  </g>
  <g id="g1422">
    <path id="path1424" class="st0" d="M549.06,510.29v80.31h29.19v-80.31s-4.9,2.87-14.56,2.87l-14.62-2.87" vector-effect="none"/>
  </g>
  <g id="g1428">
    <path id="path1430" class="st0" d="M581.44,496.69c0,6.44-8,11.66-17.87,11.66s-17.87-5.22-17.87-11.66,8-11.66,17.87-11.66,17.87,5.22,17.87,11.66" vector-effect="none"/>
  </g>
</svg>