<?xml version="1.0" encoding="UTF-8"?>
<svg id="Layer_1" xmlns="http://www.w3.org/2000/svg" version="1.1" viewBox="0 0 1080 1080">
  <!-- Generator: Adobe Illustrator 29.8.3, SVG Export Plug-In . SVG Version: 2.1.1 Build 3)  -->
  <path d="M319.29,511.91c-1.29-2.06-2.83-4.12-4.38-5.93-3.35-3.61-7.22-6.44-11.6-8.25-4.38-2.06-9.28-3.09-14.17-3.09-6.96-.26-13.91,1.8-20.1,5.41-6.18,4.12-10.82,10.05-13.4,17.01-3.35,9.02-5.15,18.55-4.64,28.35v6.18c-.26,9.53,1.29,19.33,4.64,28.35,2.58,6.7,6.96,12.63,12.88,16.75,5.93,3.87,12.88,5.67,20.1,5.41,4.9,0,9.79-1.03,14.43-3.09,4.38-2.06,8.5-4.9,11.85-8.25,1.8-1.8,3.09-3.61,4.38-5.67v14.17h44.58v-101.79h-44.58v14.43ZM320.32,550.82c0,4.38-.26,8.76-1.29,12.88-.52,2.83-1.8,5.41-3.87,7.73-.77.77-1.8,1.55-3.09,1.8-1.03.52-2.32.52-3.61.52s-2.32-.26-3.35-.52c-1.03-.52-2.06-1.03-2.83-1.8-2.06-2.06-3.35-4.64-3.87-7.47-1.03-4.12-1.29-8.5-1.29-12.88v-5.41c0-4.38.26-8.5,1.29-12.88.52-2.83,1.8-5.41,3.87-7.47.77-.77,1.8-1.55,2.83-1.8,1.03-.52,2.32-.52,3.35-.52,2.32,0,4.64.77,6.44,2.32,2.06,2.06,3.35,4.64,3.87,7.47,1.03,4.12,1.55,8.5,1.29,12.88l.26,5.15Z" fill="#fff"/>
  <path d="M470.81,498.77c-4.9-2.83-10.57-4.12-16.23-4.12s-11.08,1.03-15.98,3.35c-4.64,2.06-8.76,5.15-12.11,8.76-2.32,2.58-4.12,5.41-5.67,8.5v-17.78h-43.03v102.04h44.32v-61.07c0-2.32.26-4.64,1.29-6.7.77-1.55,2.06-3.09,3.61-3.87,1.55-.77,3.09-1.29,4.64-1.29,1.03,0,2.32,0,3.35.52,1.03.52,2.06,1.03,2.83,1.8,1.8,2.32,2.58,4.9,2.32,7.73v62.88h44.06v-68.54c.26-6.96-1.03-13.66-3.35-20.1-2.06-5.15-5.41-9.28-10.05-12.11" fill="#fff"/>
  <path d="M672.06,559.33c.26,4.38-1.03,8.5-3.09,12.11-1.03,1.29-2.06,2.32-3.61,3.09-1.55.77-3.09,1.03-4.64,1.03-2.58,0-4.9-.77-6.7-2.32-2.06-2.32-3.35-4.9-3.87-7.99-1.03-4.9-1.29-10.05-1.29-14.95v-4.64c0-8.76,1.03-14.95,3.09-18.55.77-1.8,2.06-3.09,3.87-4.12s3.61-1.55,5.41-1.29c1.55,0,3.09.26,4.64.77,1.29.77,2.58,1.8,3.61,3.09,2.06,3.35,2.83,7.47,2.83,11.34v.52h45.35c-.26-8.25-2.83-16.23-7.47-22.93-4.9-6.7-11.85-11.6-19.58-14.69-9.53-3.61-19.84-5.15-29.89-5.15-10.31-.26-20.36,1.8-29.89,5.67-8.5,3.61-15.72,9.53-20.61,17.52-5.15,7.73-7.47,17.52-7.47,29.12v2.83c0,11.6,2.32,21.39,7.22,29.38,4.9,7.73,11.85,13.91,20.36,17.52,9.53,4.12,19.84,5.93,30.41,5.93,10.05.26,20.1-1.55,29.63-4.9,7.99-2.83,14.95-7.99,20.36-14.95,5.15-6.96,7.73-15.2,7.99-23.71h-45.87v.26h-.77Z" fill="#fff"/>
  <path d="M819.97,498.51c-4.9-2.83-10.57-4.12-16.23-4.12s-11.08,1.03-15.98,3.35c-4.64,2.06-8.76,5.15-12.11,8.76-1.8,1.8-3.09,3.87-4.38,5.93v-46.38h-44.32v133.48h44.32v-61.33c0-2.32.26-4.64,1.29-6.7.77-1.55,2.06-3.09,3.61-3.87s3.09-1.29,4.64-1.29c1.03,0,2.32,0,3.35.52s2.06,1.03,2.83,1.8c1.8,2.32,2.58,4.9,2.32,7.73v62.88h44.32v-68.29c.26-6.96-1.03-13.66-3.35-20.1-2.06-5.15-5.67-9.53-10.31-12.37" fill="#fff"/>
  <path d="M912.23,511.91c-1.29-2.06-2.83-4.12-4.38-5.93-3.35-3.61-7.22-6.44-11.6-8.25-4.38-2.06-9.28-3.09-14.17-3.09-6.96-.26-13.91,1.8-20.1,5.41-6.18,4.12-10.82,10.05-13.4,17.01-3.35,9.02-5.15,18.55-4.64,28.35v6.18c-.26,9.53,1.29,19.33,4.64,28.35,2.58,6.7,6.96,12.63,12.88,16.75,5.93,3.87,12.88,5.67,20.1,5.41,4.9,0,9.79-1.03,14.43-3.09,4.38-2.06,8.5-4.9,11.85-8.25,1.8-1.8,3.09-3.61,4.64-5.67v14.17h44.58v-101.79h-44.58l-.26,14.43ZM913.26,550.82c0,4.38-.26,8.76-1.29,12.88-.52,2.83-1.8,5.41-3.87,7.73-.77.77-1.8,1.55-3.09,1.8-1.03.52-2.32.52-3.61.52s-2.32-.26-3.35-.52c-1.03-.52-2.06-1.03-2.83-1.8-2.06-2.06-3.35-4.64-3.87-7.47-1.03-4.12-1.29-8.5-1.29-12.88v-5.41c0-4.38.26-8.5,1.29-12.88.52-2.83,1.8-5.41,3.87-7.47.77-.77,1.8-1.55,2.83-1.8,1.03-.52,2.32-.52,3.35-.52,2.32,0,4.64.77,6.44,2.32,2.06,2.06,3.35,4.64,3.87,7.47,1.03,4.12,1.55,8.5,1.29,12.88l.26,5.15Z" fill="#fff"/>
  <path d="M1044.16,524.8v-27.31h-19.07v-31.44h-44.32v31.44h-15.72v27.31h15.46v44.58c-.26,6.44,1.55,13.14,4.9,18.55,3.35,4.64,7.99,8.25,13.4,10.31,6.18,2.06,12.63,3.09,19.33,3.09,4.9,0,9.79-.52,14.69-1.55,3.87-.77,7.73-2.06,11.34-3.87v-23.96c-3.09,1.03-6.18,1.55-9.53,1.55-2.58.26-4.9-.52-6.96-2.06-1.55-1.29-2.58-3.61-2.58-6.96v-39.68h19.07Z" fill="#fff"/>
  <path d="M211.58,451.1h-1.55c-42.26,0-62.88,63.39-62.88,63.39v-48.7H35.84v133.74h44.58v-89.16h23.71v89.16h47.67s24.48-105.65,47.41-97.92c15.46,5.93-28.09,97.66-28.09,97.66h63.13s8.76-59.78,8.76-80.66c2.06-35.05-3.61-67.51-31.44-67.51" fill="#fff"/>
  <path d="M524.15,605.45c0-1.8-.52-3.61-1.55-4.9-1.03-1.29-2.58-2.32-4.38-2.83-2.32-.77-4.64-1.03-6.96-1.03l-23.45-99.21h46.13l13.91,85.04h-4.38l14.43-85.04h45.35l-22.42,99.21c-2.58,0-4.9.26-7.22,1.03-1.55.52-3.09,1.55-3.87,2.83-.77,1.55-1.29,3.35-1.29,4.9v23.45h-44.06v-23.45h-.26Z" fill="#fff"/>
</svg>