<?xml version="1.0" encoding="UTF-8"?>
<svg id="Layer_1" xmlns="http://www.w3.org/2000/svg" version="1.1" viewBox="0 0 1080 1080">
  <!-- Generator: Adobe Illustrator 30.0.0, SVG Export Plug-In . SVG Version: 2.1.1 Build 123)  -->
  <defs>
    <style>
      .st0 {
        fill-rule: evenodd;
      }

      .st0, .st1 {
        fill: #fff;
      }
    </style>
  </defs>
  <path class="st1" d="M399.2,435.19h38.19l65.04,117.28,65.04-117.28h37.45v192.92h-31.29v-147.83l-56.91,102.25h-29.32l-56.91-102.25v147.83h-31.29v-192.92h0Z"/>
  <path class="st0" d="M705.45,631.56c-14.45,0-27.1-3.2-37.94-9.61s-19.71-15.52-25.62-26.61c-6.24-11.33-9.36-24.31-9.36-38.93s3.04-27.84,9.12-39.17c5.91-11.33,14.21-20.29,24.88-26.86,10.68-6.41,22.91-9.61,36.71-9.61s25.38,3.29,35.23,9.86c10.02,6.41,17.66,15.44,22.91,27.1,5.42,11.66,8.13,25.38,8.13,41.15v8.62h-105.94c1.97,11.66,6.73,20.86,14.29,27.59,7.56,6.73,17.16,10.1,28.83,10.1,9.2,0,17.16-1.31,23.9-3.94,6.73-2.79,13.06-6.98,18.97-12.57l16.51,20.2c-16.43,15.11-36.63,22.67-60.61,22.67h-.01ZM728.36,516.99c-6.57-6.57-15.19-9.86-25.87-9.86s-18.81,3.37-25.87,10.1c-6.9,6.73-11.25,15.85-13.06,27.35h75.89c-.99-11.66-4.68-20.86-11.09-27.59h0Z"/>
  <path class="st1" d="M807.2,509.85h-28.58v-25.62h28.58v-42.13h30.06v42.13h43.61v25.62h-43.61v64.55c0,10.84,1.89,18.48,5.67,22.91,3.61,4.6,9.86,6.9,18.72,6.9,3.45.16,6.82.08,10.1-.25,2.79-.33,5.83-.82,9.12-1.48v25.38c-3.78.99-7.64,1.81-11.58,2.46-4.43.66-8.87.99-13.3.99-32.52,0-48.78-17.74-48.78-53.22v-68.25h0Z"/>
  <path class="st0" d="M1008.24,484.21v18.48c-5.17-6.89-11.82-12.31-19.46-16.01-7.89-3.94-16.75-5.91-26.61-5.91-12.98,0-24.56,3.2-34.74,9.61-10.02,6.57-17.9,15.44-23.65,26.61-5.75,11.33-8.62,24.55-8.62,39.17s2.87,27.6,8.62,38.93c5.58,11.33,13.22,20.2,22.91,26.61,9.85,6.57,21.1,9.86,33.75,9.86,10.35,0,19.63-2.05,27.84-6.16,7.89-4.19,14.79-10.1,19.96-17.49v20.2h29.57v-143.9h-29.57ZM1007.5,534.73v43.12c-2.95,7.89-8.37,14.79-15.52,19.22-7.39,4.93-15.68,7.39-24.88,7.39-12.65,0-22.67-4.35-30.06-13.06-7.39-8.7-11.09-20.61-11.09-35.23s3.86-26.28,11.58-34.99c7.56-8.54,17.82-12.81,30.8-12.81,9.04,0,17.09,2.3,24.15,6.9,6.9,4.76,11.91,11.25,15.03,19.46h-.01Z"/>
  <path class="st1" d="M186.08,471.41c4.76,6.08,9.69,12.98,14.78,20.7,4.6,6.57,9.28,13.8,14.04,21.68l.25.25-20.7,31.04v-.25l-2.46-3.94c-36.71-61.84-53.71-79.09-75.64-79.09h-.25l.49-33.26h.25c24.39,0,44.84,11.83,69.23,42.87h.01Z"/>
  <path class="st1" d="M116.84,428.54l-.49,33.26h-.25c-12.32,0-23.65,8.87-32.77,22.67l-28.83-15.52v-.25c15.77-24.15,37.45-39.91,62.09-40.16h.25Z"/>
  <path class="st1" d="M83.34,484.47c-8.62,13.06-15.28,30.3-18.72,48.78v.49l-32.28-7.64v-.25c4.19-21.19,11.83-40.9,22.17-56.91v-.25l28.83,15.77h0Z"/>
  <path class="st1" d="M64.61,533.75c-1.81,9.36-2.71,18.89-2.71,28.58v2.22l-33.01-2.96v-.25c0-11.83,1.23-23.65,3.45-35.23v-.25l32.28,7.39v.49h-.01Z"/>
  <path class="st1" d="M63.13,575.14l-32.28,7.39c-.16,0-.25-.08-.25-.25-1.15-6.73-1.72-13.63-1.72-20.7v-.25l33.01,2.96v.25c.16,3.45.57,6.9,1.23,10.35v.25h.01Z"/>
  <path class="st1" d="M70.77,592.14l-25.62,22.17c-.16,0-.25-.08-.25-.25-6.9-7.88-11.83-18.72-14.04-31.54-.16,0-.25-.08-.25-.25l32.52-7.39v.25c1.23,7.39,3.94,13.06,7.39,17h.25Z"/>
  <path class="st1" d="M181.89,524.14c-9.12,16.26-22.42,39.67-22.42,39.67-32.03,55.93-50.02,67.75-75.15,67.75-16.51,0-29.81-6.16-39.17-17.25-.16,0-.25-.08-.25-.25l25.62-21.93h.25c3.94,4.19,8.87,6.41,14.78,6.41,14.54,0,23.65-9.12,49.52-49.77,0,0,11.83-18.72,31.29-48.54,4.68,6.9,9.86,14.78,15.52,23.9h0Z"/>
  <path class="st1" d="M218.6,468.95l-.25.25c-5.42,5.67-11.33,13.3-17.25,22.91-5.26-7.72-10.27-14.62-15.03-20.7,4.6-6.24,9.53-12.24,14.78-17.99l.25-.25,17.49,15.77h0Z"/>
  <path class="st1" d="M295.72,450.47l-20.2,17.99h-.25c-8.62-8.87-18.48-13.8-28.83-13.8s-18.72,4.68-27.84,14.29l-.25.25-17.49-15.77.25-.25c13.8-14.54,29.07-24.64,47.31-24.64,17.25,0,33.51,8.13,47.06,21.68l.25.25h0Z"/>
  <path class="st1" d="M334.89,557.4l-29.32-.25v-.25c-.99-37.94-12.81-70.71-30.06-88.45h-.25l20.2-18.23.25.25c22.91,23.16,38.19,62.58,39.17,106.44v.49h.01Z"/>
  <path class="st1" d="M334.89,560.36c0,20.7-4.19,37.45-12.07,49.77-.16,0-.25.08-.25.25l-21.68-22.67v-.25c3.2-6.16,4.68-14.54,4.68-24.88v-5.67h29.32v3.45h0Z"/>
  <path class="st1" d="M322.82,610.12c-.16,0-.25.08-.25.25-.16.16-.33.41-.49.74-.33.33-.57.74-.74,1.23-4.43,5.91-10.1,10.84-16.75,14.29-.16,0-.33.08-.49.25-.49.16-.9.33-1.23.49-1.15.49-2.38.99-3.7,1.48l-10.1-31.29c5.17-1.48,9.12-4.93,11.83-9.86v-.25l21.93,22.67h0Z"/>
  <path class="st1" d="M289.31,597.56l10.1,31.29c-5.67,1.72-11.58,2.71-17.25,2.71-6.9,0-13.06-.99-18.72-2.96l10.1-31.78c2.96,1.23,6.16,1.72,9.36,1.72,2.14,0,4.27-.33,6.41-.99h0Z"/>
  <path class="st1" d="M274.03,596.82l-10.35,32.03c-8.62-2.96-16.51-8.38-24.64-17,0-.16-.08-.25-.25-.25l23.41-24.39.25.25c4.19,4.93,7.64,7.88,11.58,9.36h0Z"/>
  <path class="st1" d="M262.45,587.46l-23.41,24.39c0-.16-.08-.25-.25-.25-9.61-10.35-19.46-25.13-31.78-45.33l-12.57-21.19v-.25l20.45-31.04.25.25,17.74,29.57c13.8,21.93,22.42,35.48,29.32,43.61l.25.25h0Z"/>
</svg>