<?xml version="1.0" encoding="UTF-8"?>
<svg id="Layer_1" xmlns="http://www.w3.org/2000/svg" version="1.1" viewBox="0 0 1080 1080">
  <!-- Generator: Adobe Illustrator 30.0.0, SVG Export Plug-In . SVG Version: 2.1.1 Build 123)  -->
  <defs>
    <style>
      .st0 {
        fill: #fff;
      }
    </style>
  </defs>
  <path class="st0" d="M706.77,438.14h175.75v32.58h-69.79v170.87h-34.89v-170.87h-71.07v-32.58ZM416.84,438.14v32.58h-141.11v52.34h113.66v32.33h-113.66v53.88h141.11v32.33h-175.75v-203.46h176.26-.51ZM504.85,438.14h-45.67l163.69,203.71h45.93l-82.1-101.86,82.1-101.6h-45.93l-59.01,73.38-59.01-73.38v-.26ZM551.8,583.62l-23.09-28.22-69.53,86.46h45.67l46.95-58.24Z"/>
  <path class="st0" d="M242.38,641.6l-164.2-203.46h-43.62v203.46h34.89v-159.84l128.8,159.84h44.13ZM890.47,640.57c-2.57,0-4.62-1.03-6.41-2.57-1.8-1.54-2.82-4.11-2.82-6.67s.77-4.62,2.57-6.41,4.11-2.57,6.67-2.57,4.62.77,6.41,2.57c3.1,2.83,3.75,7.46,1.54,11.03-1.63,2.73-4.52,4.47-7.7,4.62h-.26ZM949.99,554.62h15.39v59.78c0,5.39-1.03,10.26-3.34,14.11-2.31,3.87-5.7,6.99-9.75,8.98-4.11,2.05-8.98,3.34-14.62,3.34-5.13,0-9.49-1.03-13.6-2.57s-7.18-4.62-9.49-8.21c-2.31-3.34-3.59-7.7-3.59-12.83h15.39c.26,2.05.77,4.11,1.8,5.64s2.57,3.08,4.11,3.85c1.8,1.03,3.85,1.28,6.16,1.28,2.57,0,4.62-.51,6.16-1.54,1.81-1.08,3.24-2.69,4.11-4.62.77-2.05,1.28-4.62,1.28-7.7v-59.52ZM1029.27,577.97c-.32-3.46-2.21-6.59-5.13-8.47-3.31-2.03-7.15-3.02-11.03-2.82-3.34,0-6.16.51-8.47,1.28-2.31,1.03-4.11,2.57-5.13,4.11-2.39,2.92-2.69,7.02-.77,10.26.77,1.28,1.8,2.31,3.34,3.08l4.62,2.57,5.13,1.28,8.21,2.05c3.34.77,6.41,1.8,9.49,3.08,2.94,1.14,5.71,2.7,8.21,4.62,5.02,4.06,7.86,10.22,7.7,16.68,0,5.13-1.28,9.49-3.85,13.08-2.83,4.01-6.74,7.13-11.29,8.98-4.62,2.05-10.52,3.08-17.45,3.08s-12.57-1.03-17.45-3.08c-5.13-2.05-8.72-5.13-11.55-8.98-2.85-4.25-4.37-9.25-4.36-14.37h15.39c.19,5.44,3.79,10.17,8.98,11.8,2.57,1.03,5.64,1.54,8.72,1.54,3.34,0,6.41-.51,8.98-1.54s4.62-2.57,6.16-4.36c1.33-1.78,2.05-3.94,2.05-6.16s-.51-4.11-1.8-5.64c-1.65-1.4-3.46-2.61-5.39-3.59l-8.21-2.57-9.75-2.57c-7.18-1.8-12.83-4.36-16.93-8.21-4.15-3.7-6.41-9.07-6.16-14.62-.04-4.65,1.5-9.17,4.36-12.83,2.76-3.97,6.58-7.09,11.03-8.98,5.13-2.05,10.26-3.08,16.42-3.08s11.29,1.03,15.91,3.08,8.21,5.13,11.03,8.72c2.57,3.59,3.85,7.7,3.85,12.83h-14.88v-.26Z"/>
</svg>