<?xml version="1.0" encoding="UTF-8"?>
<svg id="Layer_1" xmlns="http://www.w3.org/2000/svg" version="1.1" viewBox="0 0 1080 1080">
  <!-- Generator: Adobe Illustrator 30.0.0, SVG Export Plug-In . SVG Version: 2.1.1 Build 123)  -->
  <defs>
    <style>
      .st0 {
        fill: #fff;
      }
    </style>
  </defs>
  <path class="st0" d="M300.05,681.8h-87.51l-69.65-96.34h-23.28v96.14H42.53v-289.03h110.39c63.63,0,115.61,43.35,115.61,96.54,0,32.52-19.87,61.62-50.18,79.28l81.69,113.4M191.46,489.12c.2-26.7-21.48-48.37-48.17-48.57h-23.68v96.74h23.89c26.49-.2,47.97-21.68,47.97-48.17h0Z"/>
  <path class="st0" d="M505.58,568.4c.2,65.43-52.39,118.62-117.82,119.02-65.43.4-118.62-52.39-119.02-117.82-.4-65.43,52.39-118.62,117.82-119.02h.2c65.23-.4,118.42,52.39,118.62,117.62.2,0,.2.2.2.2M386.96,506.58c-20.47,0-37.73,27.7-37.73,62.02s17.26,62.02,37.73,62.02,38.14-27.7,38.14-62.02-17.26-62.02-38.14-62.02Z"/>
  <path class="st0" d="M686.62,455.4l-88.72,88.92v-89.12h-77.07v226.41h77.07v-91.93l92.73,91.93h96.95l-117.82-117.82,97.55-97.55v134.48c0,44.56,26.7,85.71,94.34,85.71,32.11,0,61.42-18.27,75.87-34.72l34.72,29.91h16.46v-226.21h-77.07v146.52c-8.63,15.05-20.87,24.69-39.54,24.69s-27.7-11.24-27.7-47.17v-124.04h-157.76Z"/>
  <path class="st0" d="M1022.22,482.29c-8.43,0-15.25-6.82-15.25-15.25s6.82-15.25,15.25-15.25,15.25,6.82,15.25,15.25-6.82,15.25-15.25,15.25h0ZM1022.22,453.39c-7.63,0-13.65,6.22-13.65,13.65s6.22,13.65,13.65,13.65,13.65-6.22,13.65-13.65c.2-7.63-6.02-13.65-13.65-13.65Z"/>
  <path class="st0" d="M1015.79,459.21h6.82c1.61,0,3.21.4,4.42,1.61.8.8,1.41,2.01,1.2,3.41h0c0,2.21-1.41,4.22-3.61,4.62l4.22,5.82h-3.21l-3.81-5.42h-3.41v5.42h-2.61v-15.46h0ZM1022.42,467.04c2.01,0,3.21-1,3.21-2.61h0c0-1.61-1.2-2.61-3.21-2.61h-4.01v5.22h4.01Z"/>
</svg>