<?xml version="1.0" encoding="UTF-8"?>
<svg id="Layer_1" xmlns="http://www.w3.org/2000/svg" version="1.1" viewBox="0 0 1080 1080">
  <!-- Generator: Adobe Illustrator 29.8.3, SVG Export Plug-In . SVG Version: 2.1.1 Build 3)  -->
  <g>
    <path id="s" d="M377.13,556.53c-8.97-4.96-13.69-8.97-13.69-14.63,0-7.32,6.37-11.8,16.52-11.8,11.8,0,22.19,4.96,22.19,4.96l8.26-25.26s-7.55-5.9-29.98-5.9c-31.16,0-52.87,17.94-52.87,42.96,0,14.16,10.15,25.02,23.6,32.81,10.86,6.14,14.63,10.62,14.63,17,0,6.85-5.43,12.27-15.58,12.27-15.11,0-29.27-7.79-29.27-7.79l-8.73,25.26s13.22,8.73,35.17,8.73c32.1,0,55-15.81,55-44.14.47-15.58-11.33-26.44-25.26-34.46Z" fill="#fff"/>
    <path id="h" d="M505.07,503.42c-15.81,0-28.09,7.55-37.77,18.88l-.47-.24,13.69-71.76h-35.88l-34.7,182.46h35.64l11.8-62.32c4.72-23.6,16.76-38,28.09-38,8.03,0,11.09,5.43,11.09,13.22,0,4.96-.47,10.86-1.65,15.81l-13.45,71.52h35.64l13.93-73.65c1.65-7.79,2.6-17,2.6-23.37.47-20.54-9.91-32.57-28.56-32.57Z" fill="#fff"/>
    <path id="o" d="M614.83,503.42c-42.96,0-71.52,38.71-71.52,81.91,0,27.62,17,50.04,49.1,50.04,42.25,0,70.58-37.77,70.58-81.91.24-25.73-14.63-50.04-48.15-50.04ZM597.36,607.75c-12.27,0-17.23-10.39-17.23-23.37,0-20.54,10.62-53.82,29.98-53.82,12.75,0,16.76,10.86,16.76,21.48,0,22.19-10.62,55.71-29.51,55.71Z" fill="#fff"/>
    <path id="p" d="M754.56,503.42c-24.08,0-37.77,21.24-37.77,21.24h-.47l2.12-19.12h-31.63c-1.65,12.98-4.48,32.57-7.32,47.44l-24.78,130.3h35.64l9.91-52.87h.71s7.32,4.72,21.01,4.72c42.02,0,69.4-42.96,69.4-86.39,0-23.84-10.62-45.32-36.82-45.32ZM720.57,608.46c-9.21,0-14.63-5.19-14.63-5.19l5.9-33.28c4.25-22.19,15.81-37.06,28.09-37.06,10.86,0,14.16,10.15,14.16,19.59,0,22.9-13.69,55.94-33.52,55.94Z" fill="#fff"/>
    <path id="dot" d="M842.37,452.2c-11.33,0-20.54,8.97-20.54,20.77,0,10.62,6.61,17.94,16.76,17.94h.47c11.09,0,20.77-7.55,21.01-20.77.24-10.62-6.85-17.94-17.7-17.94Z" fill="#fff"/>
    <polygon id="i" points="792.33 632.77 828.21 632.77 852.52 506.25 816.41 506.25 792.33 632.77" fill="#fff"/>
    <path id="f" d="M943.16,506.02h-24.78l1.18-5.9c2.12-12.27,9.21-23.13,21.24-23.13,6.37,0,11.33,1.89,11.33,1.89l7.08-27.85s-6.14-3.07-19.36-3.07-25.26,3.54-34.93,11.8c-12.27,10.39-17.94,25.26-20.77,40.36l-.94,5.9h-16.52l-5.19,26.91h16.52l-18.88,99.85h35.64l18.88-99.85h24.55l4.96-26.91Z" fill="#fff"/>
    <path id="y" d="M1029.08,506.25s-22.42,56.18-32.34,86.86h-.47c-.71-9.91-8.73-86.86-8.73-86.86h-37.53l21.48,116.13c.47,2.6.24,4.25-.71,5.9-4.25,8.03-11.09,15.81-19.36,21.48-6.61,4.96-14.16,8.03-20.06,10.15l9.91,30.21c7.32-1.65,22.19-7.55,34.93-19.36,16.29-15.34,31.39-38.71,46.74-70.81l43.67-93.71s-37.53,0-37.53,0Z" fill="#fff"/>
  </g>
  <g>
    <path d="M189.24,424.11s-3.3.94-8.73,2.6c-.94-3.07-2.36-6.61-4.25-10.39-6.14-11.8-15.34-18.18-26.2-18.18h0c-.71,0-1.42,0-2.36.24-.24-.47-.71-.71-.94-1.18-4.72-5.19-10.86-7.55-18.18-7.32-14.16.47-28.33,10.62-39.66,28.8-8.03,12.75-14.16,28.8-15.81,41.31-16.29,4.96-27.62,8.5-27.85,8.73-8.26,2.6-8.5,2.83-9.44,10.62-.71,5.9-22.42,172.08-22.42,172.08l178.45,30.92v-258.47c-1.42,0-2.12.24-2.6.24ZM147.93,436.86c-9.44,2.83-19.83,6.14-29.98,9.21,2.83-11.09,8.5-22.19,15.11-29.51,2.6-2.6,6.14-5.67,10.15-7.55,4.01,8.5,4.96,20.06,4.72,27.85ZM128.58,399.56c3.3,0,6.14.71,8.5,2.12-3.78,1.89-7.55,4.96-11.09,8.5-8.97,9.68-15.81,24.78-18.65,39.18-8.5,2.6-17,5.19-24.78,7.55,5.19-22.66,24.31-56.89,46.03-57.36ZM101.19,529.39c.94,15.11,40.84,18.41,43.2,54.05,1.65,28.09-14.87,47.21-38.71,48.62-28.8,1.89-44.61-15.11-44.61-15.11l6.14-25.96s15.81,12.04,28.56,11.09c8.26-.47,11.33-7.32,11.09-12.04-1.18-19.83-33.75-18.65-35.88-51.22-1.89-27.38,16.05-55,55.71-57.59,15.34-.94,23.13,2.83,23.13,2.83l-8.97,33.99s-10.15-4.72-22.19-3.78c-17.47,1.18-17.7,12.27-17.47,15.11ZM157.37,434.02c0-7.08-.94-17.23-4.25-25.73,10.86,2.12,16.05,14.16,18.41,21.48-4.25,1.18-8.97,2.6-14.16,4.25Z" fill="#fff"/>
    <path d="M197.26,681.87l74.12-18.41s-31.87-215.51-32.1-216.92c-.24-1.42-1.42-2.36-2.6-2.36s-21.95-.47-21.95-.47c0,0-12.75-12.27-17.47-17v255.16Z" fill="#fff"/>
  </g>
</svg>