<?xml version="1.0" encoding="UTF-8"?>
<svg id="Layer_1" xmlns="http://www.w3.org/2000/svg" version="1.1" viewBox="0 0 1080 1080">
  <!-- Generator: Adobe Illustrator 30.0.0, SVG Export Plug-In . SVG Version: 2.1.1 Build 123)  -->
  <defs>
    <style>
      .st0 {
        fill: #fff;
      }
    </style>
  </defs>
  <g id="LOGOS">
    <path class="st0" d="M207.53,466.63c-16.65-10.82-26.64-29.25-26.7-49.05h-42.1l-.06,168.75c-.77,19.5-17.18,34.72-36.69,34.01s-34.72-17.24-34.01-36.75c.71-19.03,16.35-34.01,35.38-34.01,3.57,0,7.08.54,10.46,1.66v-42.99c-3.45-.48-6.96-.71-10.46-.77-42.69,0-77.48,34.78-77.48,77.48s34.66,77.48,77.48,77.48,77.48-34.66,77.48-77.48v-85.56c17.06,12.25,37.58,18.85,58.57,18.85v-42.1c-11.3,0-22.36-3.27-31.87-9.51Z"/>
    <path class="st0" d="M279.66,476.38h132.71l-12.19,37.94h-34.49v140.44h-42.87v-140.44l-43.17.06v-37.99Z"/>
    <path class="st0" d="M629.87,476.38h135.81l-12.19,37.94h-37.46v140.44h-42.99v-140.44l-43.17.06v-37.99Z"/>
    <polygon class="st0" points="420.52 533.1 463.03 533.1 463.03 654.76 420.75 654.76 420.52 533.1"/>
    <path class="st0" d="M479.92,475.84h42.51v83.06l42.16-41.32h50.72l-53.28,51.73,59.7,85.44h-46.85l-39.84-59.28-12.61,12.25v46.97h-42.51v-178.85h0Z"/>
    <path class="st0" d="M912.25,475.84h42.51v83.06l42.16-41.32h50.78l-53.28,51.73,59.7,85.44h-46.85l-39.84-59.28-12.61,12.25v46.97h-42.51v-178.85h-.06Z"/>
    <circle class="st0" cx="441.74" cy="497.78" r="21.41"/>
    <path class="st0" d="M822.1,509.08c-40.19,0-72.84,32.58-72.84,72.78s32.58,72.84,72.78,72.84,72.84-32.58,72.84-72.78h0c.06-40.19-32.52-72.78-72.78-72.84ZM822.1,617.3c-19.56,0-35.38-15.82-35.38-35.38s15.82-35.38,35.38-35.38,35.38,15.82,35.38,35.38h0c.06,19.56-15.82,35.38-35.38,35.38Z"/>
  </g>
</svg>