<?xml version="1.0" encoding="UTF-8"?>
<svg id="Layer_1" xmlns="http://www.w3.org/2000/svg" version="1.1" viewBox="0 0 1080 1080">
  <!-- Generator: Adobe Illustrator 30.0.0, SVG Export Plug-In . SVG Version: 2.1.1 Build 123)  -->
  <defs>
    <style>
      .st0 {
        fill: #fff;
      }
    </style>
  </defs>
  <path class="st0" d="M409.41,490.82l-22.88,87.88-22.88-87.88h-23.04l5.32,18.85-20.09,71.98-21.97-90.83h-22.13l31.15,114.77h24.26l18.69-61.4,17.46,61.4h24.18l32.79-114.77h-20.9.03ZM642.15,524.1c-5-1.16-10.11-1.79-15.25-1.88-27.88,0-43.13,18.61-43.13,45.92s15.25,39.51,33.2,39.51c9.55-.31,18.74-3.67,26.24-9.59v7.54h19.1v-114.77h-20.17v33.28h0ZM642.15,582.14c-6.56,5.99-12.71,9.26-19.18,9.26-11.15,0-18.28-7.38-18.28-24.68,0-18.69,8.86-28.45,24.26-28.45,4.51,0,9.02.91,13.11,2.55v41.31h.08ZM545.74,537.55h-.73v-13.45h-18.85v81.49h20.25v-48.53c6.31-11.97,14.02-15.9,26.89-15.9h2.05v-17.54c-1.83-.2-3.66-.31-5.5-.33-10.99,0-18.53,4.27-24.1,14.34v-.08h-.01ZM468.84,522.04c-27.88,0-40.99,18.04-40.99,42.87s13.11,42.63,40.99,42.63,41.15-17.88,41.15-42.63-13.45-42.87-41.23-42.87h.08ZM468.84,591.24c-13.11,0-20.17-8.52-20.17-26.32s7.06-26.4,20.25-26.4,20.01,8.52,20.01,26.4-6.96,26.32-20.17,26.32h.08ZM799.3,537.45h-.65v-13.37h-18.94v81.49h20.17v-48.53c6.31-11.97,14.02-15.9,26.89-15.9h2.05v-17.54c-1.83-.2-3.66-.31-5.5-.33-10.9,0-18.45,4.27-24.1,14.34h.08v-.16h0ZM724.87,490.82h-37.55v114.77h21.64v-39.93h15.82c24.52,0,42.3-13.19,42.3-37.87s-17.8-36.98-42.3-36.98h.09ZM725.03,548.86h-16.07v-41.07h15.98c13.11,0,19.52,7.22,19.52,20.01s-5.99,21.06-19.52,21.06h.09ZM1020.33,546.96c0-6.15,6.72-8.52,13.94-8.52,7.63.08,15.25,1.31,22.54,3.52v-16.73c-7.87-2.23-16.01-3.27-24.18-3.12-19.52,0-33.2,9.26-33.2,24.34,0,29.27,40.34,21.73,40.34,35.99,0,6.96-6.31,8.86-15.58,8.86-6.56,0-16.97-2.45-24.52-5.16v16.65c7.58,3.03,15.62,4.67,23.77,4.84,19.02,0,37.14-5.66,37.14-25.99.24-28.28-40.17-20.98-40.17-34.68h-.08ZM876.86,522.12c-26.07,0-39.59,20.25-39.59,42.3,0,30.33,15.9,43.21,41.81,43.21,10.15.03,20.25-1.56,29.92-4.67v-16.81c-8.44,3.12-16.15,5-24.34,5-15.09,0-25.17-4.1-25.67-21.89h52.14c.49-4.02.73-8.03.65-11.97,0-17.22-9.1-35.16-35-35.16h.08,0ZM859.16,555.9c1.23-11.31,7.38-18.53,17.46-18.53,10.82,0,14.1,8.6,14.1,18.53h-31.56ZM946.88,546.96c0-6.15,6.64-8.52,13.86-8.52,7.63.08,15.25,1.31,22.54,3.52v-16.73c-7.84-2.21-15.95-3.27-24.1-3.12-19.52,0-33.28,9.26-33.28,24.34,0,29.27,40.42,21.73,40.42,35.99,0,6.96-6.39,8.86-15.58,8.86-6.56,0-16.97-2.45-24.6-5.16v16.65c7.56,3.03,15.62,4.67,23.77,4.84,19.02,0,37.22-5.66,37.22-25.99.16-28.28-40.26-20.98-40.26-34.68h.01ZM33.53,540c0,36.64,21.32,68.21,52.14,83.21l-44.1-120.84c-5.3,11.83-8.03,24.67-8.03,37.63h-.01ZM126,632.47c10.74,0,21.06-1.88,30.75-5.24l-.65-1.23-28.45-77.88-27.71,80.58c8.2,2.45,16.97,3.78,26.07,3.78h0ZM138.71,496.63l33.44,99.45,9.26-30.83c3.94-12.79,6.96-21.97,6.96-29.92,0-11.47-4.1-19.34-7.54-25.41-4.75-7.71-9.1-14.18-9.1-21.73,0-8.52,6.39-16.39,15.58-16.39h1.15c-17.03-15.65-39.34-24.3-62.47-24.26-31.11,0-60.14,15.65-77.22,41.65l5.9.16c9.67,0,24.6-1.23,24.6-1.23,5.08-.24,5.66,7.06.65,7.63,0,0-5,.65-10.66.91l33.78,100.18,20.25-60.67-14.43-39.51c-3.23-.17-6.46-.45-9.67-.81-5-.33-4.43-7.95.57-7.71,0,0,15.25,1.23,24.34,1.23,9.67,0,24.6-1.23,24.6-1.23,5-.24,5.66,7.06.65,7.63,0,0-5,.57-10.66.91v-.03ZM172.48,619.93c28.47-16.55,45.98-47,46-79.93,0-16.07-4.1-31.15-11.31-44.35,1.47,14.53-.73,29.17-6.39,42.63l-28.28,81.65h-.01ZM126,646.57c-58.85,0-106.57-47.72-106.57-106.57s47.72-106.57,106.57-106.57,106.57,47.72,106.57,106.57-47.72,106.57-106.57,106.57Z"/>
</svg>