<?xml version="1.0" encoding="UTF-8"?>
<svg id="Layer_1" xmlns="http://www.w3.org/2000/svg" xmlns:xlink="http://www.w3.org/1999/xlink" version="1.1" viewBox="0 0 1117.09 1117.09">
  <!-- Generator: Adobe Illustrator 30.0.0, SVG Export Plug-In . SVG Version: 2.1.1 Build 123)  -->
  <defs>
    <linearGradient id="linear-gradient" x1="146.94" y1="883.97" x2="1360.94" y2="847.97" gradientUnits="userSpaceOnUse">
      <stop offset="0" stop-color="#004b94"/>
      <stop offset="1" stop-color="#5f84ff"/>
    </linearGradient>
    <linearGradient id="linear-gradient1" x1="147.6" y1="906.26" x2="1361.6" y2="870.26" xlink:href="#linear-gradient"/>
    <linearGradient id="linear-gradient2" x1="147.7" y1="909.54" x2="1361.7" y2="873.54" xlink:href="#linear-gradient"/>
    <linearGradient id="linear-gradient3" x1="147.59" y1="905.72" x2="1361.59" y2="869.72" xlink:href="#linear-gradient"/>
    <linearGradient id="linear-gradient4" x1="147.14" y1="890.49" x2="1361.14" y2="854.49" xlink:href="#linear-gradient"/>
    <linearGradient id="linear-gradient5" x1="411.08" y1="502.78" x2="723.47" y2="502.78" xlink:href="#linear-gradient"/>
    <linearGradient id="linear-gradient6" x1="341.04" y1="435.32" x2="855.66" y2="435.32" xlink:href="#linear-gradient"/>
  </defs>
  <g style="isolation: isolate;">
    <g id="Layer_11">
      <g>
        <g style="mix-blend-mode: multiply; opacity: .07;">
          <g>
            <path d="M195.57,975.32c-11.47,0-20.94-.39-28.41-1.17-7.47-.78-13.47-2.08-17.99-3.91-4.52-1.82-8-4.26-10.43-7.3-2.44-3.04-4.17-6.91-5.21-11.6-1.91-7.3-3.26-16.07-4.04-26.33-.78-10.25-1.17-22.24-1.17-35.97,0-12.34.39-23.5,1.17-33.5.78-9.99,2.04-18.64,3.78-25.94,1.56-6.08,4.21-10.99,7.95-14.73,3.74-3.74,9.6-6.43,17.6-8.08,7.99-1.65,19.03-2.48,33.11-2.48,17.55,0,31.41,2.09,41.58,6.26s17.38,9.64,21.64,16.42c4.26,6.78,6.39,14.08,6.39,21.9,0,8.69-1.43,15.69-4.3,20.99s-7.26,9.69-13.16,13.16c-1.74,1.22-3.09,2.18-4.04,2.87-.96.7-1.43,1.48-1.43,2.35,0,1.39,1.82,2.7,5.47,3.91,7.99,3.13,13.95,7.43,17.86,12.9,3.91,5.47,5.87,12.9,5.87,22.29,0,8.17-2.44,15.9-7.3,23.2-4.87,7.3-12.6,13.25-23.2,17.86-10.6,4.61-24.5,6.91-41.71,6.91h-.03ZM192.96,937c6.95,0,12.51-1.43,16.68-4.3s6.26-7.08,6.26-12.64c0-5.04-2.35-8.9-7.04-11.6-4.69-2.69-12.08-4.04-22.16-4.04-4.69,0-7.73.61-9.12,1.83-1.39,1.22-2.09,3.48-2.09,6.78,0,2.09.09,4.17.26,6.26.17,2.08.26,4.26.26,6.52,0,3.13.43,5.52,1.3,7.17.87,1.65,2.48,2.74,4.82,3.26s5.95.78,10.82.78v-.02h0ZM186.7,873.39c8.51,0,14.99-1.43,19.42-4.3s6.65-6.3,6.65-10.3c0-5.04-1.82-8.73-5.47-11.08-3.65-2.35-9.04-3.52-16.16-3.52-6.09,0-10,.57-11.73,1.69-1.74,1.13-2.7,3.87-2.87,8.21-.18,1.56-.31,3.22-.39,4.95-.09,1.74-.13,3.65-.13,5.74,0,3.3.69,5.56,2.09,6.78,1.39,1.22,4.26,1.83,8.6,1.83h0Z"/>
            <path d="M332.94,975.84c-13.38,0-24.59-2.13-33.63-6.39s-16.34-9.82-21.9-16.68-9.56-14.25-11.99-22.16c-2.44-7.91-3.65-15.42-3.65-22.55s1.08-14.34,3.26-22.16c2.17-7.82,5.78-15.21,10.82-22.16,5.04-6.95,11.64-12.6,19.81-16.94,8.17-4.34,18.33-6.52,30.5-6.52s22.29,2.17,30.37,6.52c8.08,4.35,14.12,10.43,18.12,18.25s6,16.94,6,27.37c0,8.69-1.91,15.08-5.73,19.16-3.82,4.09-9.65,6.13-17.47,6.13s-15.56-.04-23.72-.13c-8.17-.09-14.95-.13-20.33-.13-1.91,0-3.22.35-3.91,1.04s-1.04,1.74-1.04,3.13c0,1.56.39,3.13,1.17,4.69s2.09,3.04,3.91,4.43,4.17,2.57,7.04,3.52c2.87.96,6.39,1.43,10.56,1.43,3.47,0,6.86-.22,10.17-.65,3.3-.43,6.73-.82,10.3-1.17,3.56-.35,7.51-.52,11.86-.52,5.73,0,10.04,1.48,12.9,4.43,2.87,2.96,4.3,7.04,4.3,12.25,0,7.47-3.74,13.64-11.21,18.51-7.47,4.86-19.64,7.3-36.5,7.3h-.01ZM326.95,893.73c4.69,0,8.12-.17,10.3-.52,2.17-.35,3.65-1.04,4.43-2.09.78-1.04,1.17-2.35,1.17-3.91,0-3.65-1.39-6.86-4.17-9.64s-6.87-4.17-12.25-4.17c-3.65,0-6.82.74-9.52,2.22-2.7,1.48-4.78,3.35-6.26,5.6-1.48,2.26-2.22,4.61-2.22,7.04,0,1.39.43,2.48,1.3,3.26s2.61,1.35,5.21,1.69c2.61.35,6.6.52,11.99.52h.02Z"/>
            <path d="M408.54,974.8c-6.78,0-11.95-1.3-15.51-3.91s-6.22-6.08-7.95-10.43c-2.26-6.6-3.87-14.47-4.82-23.59-.96-9.12-1.43-18.72-1.43-28.81,0-12.68.43-23.16,1.3-31.41s2.17-15.16,3.91-20.72c2.09-5.21,4.82-8.95,8.21-11.21,3.39-2.26,7.34-3.39,11.86-3.39s7.99.87,10.95,2.61c2.95,1.74,5.21,4.35,6.78,7.82,1.73,3.65,3.56,5.47,5.47,5.47,1.56,0,3.39-1.3,5.47-3.91,3.82-4.52,8.08-7.82,12.77-9.91,4.69-2.09,10.51-3.13,17.46-3.13,9.73,0,17.6,2.57,23.59,7.69,6,5.13,10.38,12.08,13.16,20.85,2.78,8.78,4.17,18.64,4.17,29.59,0,11.64-.31,22.72-.91,33.24-.61,10.52-1.96,19.68-4.04,27.5-1.39,5.04-3.74,8.91-7.04,11.6-3.3,2.69-8.34,4.04-15.12,4.04-7.82,0-13.38-2.13-16.68-6.39s-4.95-9.08-4.95-14.47c-.18-6.78-.13-14.9.13-24.37s.39-18.29.39-26.46c0-5.21-1.04-9.29-3.13-12.25-2.09-2.95-5.04-4.43-8.86-4.43-1.56,0-3.17.35-4.82,1.04-1.65.7-3.22,1.87-4.69,3.52-1.48,1.65-2.7,3.74-3.65,6.26-.96,2.52-1.43,5.6-1.43,9.25,0,8,.26,15.73.78,23.2.52,7.47.78,15.21.78,23.2s-2.22,13.42-6.65,16.81-9.6,5.08-15.51,5.08v.02h.01Z"/>
            <path d="M514.38,1009.21c-6.78,0-11.73-1.74-14.86-5.21-3.13-3.48-4.69-7.65-4.69-12.51,0-4.52.52-8.3,1.56-11.34,1.04-3.04,2.3-6.04,3.78-8.99,1.47-2.95,2.78-6.21,3.91-9.78,1.13-3.56,1.69-8.04,1.69-13.42v-49.79c0-8.51.26-16.25.78-23.2s1.3-12.94,2.35-17.99c1.56-5.04,4.17-8.95,7.82-11.73,3.65-2.78,8.51-4.17,14.6-4.17s11.21,1.83,14.86,5.47c3.65,3.65,6.08,8.95,7.3,15.9,1.21,5.91,2.04,12.73,2.48,20.46.43,7.73.65,16.55.65,26.46v34.15c0,14.25-1.69,26.29-5.08,36.1-3.39,9.82-8.21,17.21-14.47,22.16-6.26,4.95-13.82,7.43-22.68,7.43ZM530.54,830.64c-6.61,0-11.73-1.61-15.38-4.82-3.65-3.21-5.47-7.51-5.47-12.9,0-5.74,1.83-10.25,5.47-13.56,3.65-3.3,8.77-4.95,15.38-4.95,6.95,0,12.25,1.65,15.9,4.95s5.47,7.82,5.47,13.56c0,5.39-1.82,9.69-5.47,12.9-3.65,3.22-8.95,4.82-15.9,4.82Z"/>
            <path d="M584.24,974.8c-5.21,0-9.47-.91-12.77-2.74-3.3-1.83-5.91-4.56-7.82-8.21-1.39-3.13-2.48-7.38-3.26-12.77-.78-5.38-1.3-11.73-1.56-19.03s-.39-15.21-.39-23.72.13-15.94.39-23.33c.26-7.38.74-13.95,1.43-19.68.69-5.74,1.82-10.17,3.39-13.29,1.91-3.65,4.52-6.39,7.82-8.21s7.56-2.74,12.77-2.74c9.91,0,16.68,3.74,20.33,11.21,1.74,3.13,2.95,7.52,3.65,13.16.69,5.65,1.13,12.12,1.3,19.42s.26,15.12.26,23.46-.13,16.42-.39,23.72-.74,13.64-1.43,19.03c-.7,5.39-1.92,9.82-3.65,13.29-3.3,6.95-10,10.43-20.07,10.43h0ZM583.98,830.9c-6.61,0-11.73-1.61-15.38-4.82s-5.47-7.51-5.47-12.9c0-5.74,1.83-10.25,5.47-13.56,3.65-3.3,8.77-4.95,15.38-4.95,6.95,0,12.25,1.65,15.9,4.95s5.47,7.82,5.47,13.56c0,5.39-1.82,9.69-5.47,12.9-3.65,3.22-8.95,4.82-15.9,4.82Z"/>
            <path d="M678.6,975.32c-11.47,0-20.94-.39-28.41-1.17-7.47-.78-13.47-2.08-17.99-3.91-4.52-1.82-8-4.26-10.43-7.3-2.44-3.04-4.17-6.91-5.21-11.6-1.91-7.3-3.26-16.07-4.04-26.33-.78-10.25-1.17-22.24-1.17-35.97,0-12.34.39-23.5,1.17-33.5.78-9.99,2.04-18.64,3.78-25.94,1.56-6.08,4.21-10.99,7.95-14.73,3.73-3.74,9.6-6.43,17.6-8.08,7.99-1.65,19.03-2.48,33.11-2.48,17.55,0,31.41,2.09,41.58,6.26,10.17,4.17,17.38,9.64,21.64,16.42,4.26,6.78,6.39,14.08,6.39,21.9,0,8.69-1.43,15.69-4.3,20.99s-7.26,9.69-13.16,13.16c-1.74,1.22-3.09,2.18-4.04,2.87-.96.7-1.43,1.48-1.43,2.35,0,1.39,1.83,2.7,5.47,3.91,7.99,3.13,13.95,7.43,17.86,12.9,3.91,5.47,5.87,12.9,5.87,22.29,0,8.17-2.44,15.9-7.3,23.2-4.87,7.3-12.6,13.25-23.2,17.86-10.6,4.61-24.5,6.91-41.71,6.91h-.03ZM676,937c6.95,0,12.51-1.43,16.68-4.3s6.26-7.08,6.26-12.64c0-5.04-2.35-8.9-7.04-11.6-4.69-2.69-12.08-4.04-22.16-4.04-4.69,0-7.73.61-9.12,1.83-1.39,1.22-2.09,3.48-2.09,6.78,0,2.09.09,4.17.26,6.26.17,2.08.26,4.26.26,6.52,0,3.13.43,5.52,1.3,7.17.87,1.65,2.48,2.74,4.82,3.26s5.95.78,10.82.78v-.02h0ZM669.74,873.39c8.51,0,14.99-1.43,19.42-4.3s6.65-6.3,6.65-10.3c0-5.04-1.82-8.73-5.47-11.08-3.65-2.35-9.04-3.52-16.16-3.52-6.08,0-10,.57-11.73,1.69-1.74,1.13-2.7,3.87-2.87,8.21-.18,1.56-.31,3.22-.39,4.95-.09,1.74-.13,3.65-.13,5.74,0,3.3.69,5.56,2.08,6.78,1.39,1.22,4.26,1.83,8.6,1.83h0Z"/>
            <path d="M809.46,975.84c-12.17,0-23.16-2.78-32.98-8.34s-17.64-13.51-23.46-23.85c-5.83-10.34-8.73-22.55-8.73-36.63s2.91-26.33,8.73-36.24,13.6-17.47,23.33-22.68c9.73-5.21,20.76-7.82,33.11-7.82s23.46,2.61,33.37,7.82,17.86,12.73,23.85,22.55c6,9.82,8.99,21.86,8.99,36.1s-3,26.29-8.99,36.63c-6,10.34-13.95,18.34-23.85,23.98-9.91,5.65-21.03,8.47-33.37,8.47h0ZM809.46,930.22c6.08,0,11.03-2.26,14.86-6.78,3.82-4.52,5.74-10.34,5.74-17.47s-1.91-12.47-5.74-16.55c-3.82-4.08-8.78-6.13-14.86-6.13-5.74,0-10.47,2.04-14.21,6.13-3.74,4.09-5.61,9.69-5.61,16.81s1.83,12.9,5.47,17.33,8.43,6.65,14.34,6.65h.01Z"/>
            <path d="M887.93,975.32c-6.26,0-11.6-1.56-16.03-4.69-4.43-3.13-6.65-8.34-6.65-15.64,0-5.91,2.13-12.12,6.39-18.64s11.08-14.47,20.46-23.85c.87-.87,1.61-1.73,2.22-2.61.61-.87.91-1.65.91-2.35,0-1.56-.96-3.3-2.87-5.21-3.65-3.47-7.04-7.04-10.17-10.69s-5.83-7.17-8.08-10.56c-2.26-3.39-4.04-6.69-5.34-9.91-1.3-3.21-1.96-6.13-1.96-8.73,0-6.43,2.09-11.64,6.26-15.64s9.73-6,16.68-6c3.47,0,6.65.57,9.51,1.69,2.87,1.13,5.51,2.83,7.95,5.08,2.61,2.44,4.99,5.47,7.17,9.12,2.17,3.65,4.13,7.34,5.87,11.08,1.73,3.74,3.39,7,4.95,9.78.87,1.22,1.61,2.22,2.22,3s1.34,1.17,2.22,1.17c.69,0,1.34-.39,1.96-1.17.61-.78,1.26-1.78,1.96-3,1.56-2.78,3.26-6.04,5.08-9.78,1.82-3.74,3.78-7.43,5.87-11.08,2.08-3.65,4.43-6.69,7.04-9.12,2.43-2.26,5.04-3.95,7.82-5.08s5.82-1.69,9.12-1.69c7.12,0,12.64,2,16.55,6s5.87,9.12,5.87,15.38c0,2.96-.65,5.96-1.96,8.99-1.3,3.04-3.09,6.22-5.34,9.51-2.26,3.3-4.87,6.69-7.82,10.17-2.96,3.48-6.08,6.95-9.38,10.43-1.22.87-2.13,1.83-2.74,2.87s-.91,2.09-.91,3.13c0,.87.39,1.78,1.17,2.74.78.96,1.69,1.96,2.74,3,9.03,8.86,15.6,16.6,19.68,23.2,4.08,6.61,6.13,12.69,6.13,18.25,0,7.65-2.35,13.03-7.04,16.16-4.69,3.13-10.17,4.69-16.42,4.69-4.52,0-8.34-.74-11.47-2.22-3.13-1.47-5.74-3.34-7.82-5.61-3.13-3.65-5.61-7.21-7.43-10.69-1.83-3.47-3.48-6.86-4.95-10.17-1.48-3.3-3.17-6.52-5.08-9.64-.7-1.39-1.35-2.43-1.96-3.13-.61-.69-1.26-1.04-1.96-1.04s-1.35.35-1.96,1.04c-.61.7-1.26,1.74-1.96,3.13-2.09,3.13-3.78,6.39-5.08,9.78s-2.78,6.78-4.43,10.17c-1.65,3.39-4.04,6.82-7.17,10.3-2.09,2.44-4.78,4.39-8.08,5.87-3.3,1.47-7.21,2.22-11.73,2.22h0Z"/>
          </g>
        </g>
        <g>
          <path d="M188.57,968.32c-11.47,0-20.94-.39-28.41-1.17-7.47-.78-13.47-2.08-17.99-3.91-4.52-1.82-8-4.26-10.43-7.3-2.44-3.04-4.17-6.91-5.21-11.6-1.91-7.3-3.26-16.07-4.04-26.33-.78-10.25-1.17-22.24-1.17-35.97,0-12.34.39-23.5,1.17-33.5.78-9.99,2.04-18.64,3.78-25.94,1.56-6.08,4.21-10.99,7.95-14.73,3.74-3.74,9.6-6.43,17.6-8.08,7.99-1.65,19.03-2.48,33.11-2.48,17.55,0,31.41,2.09,41.58,6.26s17.38,9.64,21.64,16.42c4.26,6.78,6.39,14.08,6.39,21.9,0,8.69-1.43,15.69-4.3,20.99-2.87,5.3-7.26,9.69-13.16,13.16-1.74,1.22-3.09,2.18-4.04,2.87-.96.7-1.43,1.48-1.43,2.35,0,1.39,1.82,2.7,5.47,3.91,7.99,3.13,13.95,7.43,17.86,12.9,3.91,5.47,5.87,12.9,5.87,22.29,0,8.17-2.44,15.9-7.3,23.2-4.87,7.3-12.6,13.25-23.2,17.86-10.6,4.61-24.5,6.91-41.71,6.91h-.03ZM185.96,930c6.95,0,12.51-1.43,16.68-4.3s6.26-7.08,6.26-12.64c0-5.04-2.35-8.9-7.04-11.6-4.69-2.69-12.08-4.04-22.16-4.04-4.69,0-7.73.61-9.12,1.83-1.39,1.22-2.09,3.48-2.09,6.78,0,2.09.09,4.17.26,6.26.17,2.08.26,4.26.26,6.52,0,3.13.43,5.52,1.3,7.17.87,1.65,2.48,2.74,4.82,3.26s5.95.78,10.82.78v-.02h0ZM179.7,866.39c8.51,0,14.99-1.43,19.42-4.3s6.65-6.3,6.65-10.3c0-5.04-1.82-8.73-5.47-11.08-3.65-2.35-9.04-3.52-16.16-3.52-6.09,0-10,.57-11.73,1.69-1.74,1.13-2.7,3.87-2.87,8.21-.18,1.56-.31,3.22-.39,4.95-.09,1.74-.13,3.65-.13,5.74,0,3.3.69,5.56,2.09,6.78,1.39,1.22,4.26,1.83,8.6,1.83h0Z" style="fill: url(#linear-gradient);"/>
          <path d="M325.94,968.84c-13.38,0-24.59-2.13-33.63-6.39s-16.34-9.82-21.9-16.68-9.56-14.25-11.99-22.16c-2.44-7.91-3.65-15.42-3.65-22.55s1.08-14.34,3.26-22.16c2.17-7.82,5.78-15.21,10.82-22.16,5.04-6.95,11.64-12.6,19.81-16.94,8.17-4.34,18.33-6.52,30.5-6.52s22.29,2.17,30.37,6.52c8.08,4.35,14.12,10.43,18.12,18.25s6,16.94,6,27.37c0,8.69-1.91,15.08-5.73,19.16-3.82,4.09-9.65,6.13-17.47,6.13s-15.56-.04-23.72-.13c-8.17-.09-14.95-.13-20.33-.13-1.91,0-3.22.35-3.91,1.04s-1.04,1.74-1.04,3.13c0,1.56.39,3.13,1.17,4.69s2.09,3.04,3.91,4.43,4.17,2.57,7.04,3.52c2.87.96,6.39,1.43,10.56,1.43,3.47,0,6.86-.22,10.17-.65,3.3-.43,6.73-.82,10.3-1.17,3.56-.35,7.51-.52,11.86-.52,5.73,0,10.04,1.48,12.9,4.43,2.87,2.96,4.3,7.04,4.3,12.25,0,7.47-3.74,13.64-11.21,18.51-7.47,4.86-19.64,7.3-36.5,7.3h-.01ZM319.95,886.73c4.69,0,8.12-.17,10.3-.52,2.17-.35,3.65-1.04,4.43-2.09.78-1.04,1.17-2.35,1.17-3.91,0-3.65-1.39-6.86-4.17-9.64s-6.87-4.17-12.25-4.17c-3.65,0-6.82.74-9.52,2.22-2.7,1.48-4.78,3.35-6.26,5.6-1.48,2.26-2.22,4.61-2.22,7.04,0,1.39.43,2.48,1.3,3.26s2.61,1.35,5.21,1.69c2.61.35,6.6.52,11.99.52h.02Z" style="fill: url(#linear-gradient1);"/>
          <path d="M401.54,967.8c-6.78,0-11.95-1.3-15.51-3.91s-6.22-6.08-7.95-10.43c-2.26-6.6-3.87-14.47-4.82-23.59-.96-9.12-1.43-18.72-1.43-28.81,0-12.68.43-23.16,1.3-31.41s2.17-15.16,3.91-20.72c2.09-5.21,4.82-8.95,8.21-11.21,3.39-2.26,7.34-3.39,11.86-3.39s7.99.87,10.95,2.61c2.95,1.74,5.21,4.35,6.78,7.82,1.73,3.65,3.56,5.47,5.47,5.47,1.56,0,3.39-1.3,5.47-3.91,3.82-4.52,8.08-7.82,12.77-9.91,4.69-2.09,10.51-3.13,17.46-3.13,9.73,0,17.6,2.57,23.59,7.69,6,5.13,10.38,12.08,13.16,20.85,2.78,8.78,4.17,18.64,4.17,29.59,0,11.64-.31,22.72-.91,33.24-.61,10.52-1.96,19.68-4.04,27.5-1.39,5.04-3.74,8.91-7.04,11.6-3.3,2.69-8.34,4.04-15.12,4.04-7.82,0-13.38-2.13-16.68-6.39s-4.95-9.08-4.95-14.47c-.18-6.78-.13-14.9.13-24.37s.39-18.29.39-26.46c0-5.21-1.04-9.29-3.13-12.25-2.09-2.95-5.04-4.43-8.86-4.43-1.56,0-3.17.35-4.82,1.04-1.65.7-3.22,1.87-4.69,3.52-1.48,1.65-2.7,3.74-3.65,6.26-.96,2.52-1.43,5.6-1.43,9.25,0,8,.26,15.73.78,23.2.52,7.47.78,15.21.78,23.2s-2.22,13.42-6.65,16.81-9.6,5.08-15.51,5.08v.02h.01Z" style="fill: url(#linear-gradient2);"/>
          <path d="M507.38,1002.21c-6.78,0-11.73-1.74-14.86-5.21-3.13-3.48-4.69-7.65-4.69-12.51,0-4.52.52-8.3,1.56-11.34,1.04-3.04,2.3-6.04,3.78-8.99,1.47-2.95,2.78-6.21,3.91-9.78,1.13-3.56,1.69-8.04,1.69-13.42v-49.79c0-8.51.26-16.25.78-23.2s1.3-12.94,2.35-17.99c1.56-5.04,4.17-8.95,7.82-11.73,3.65-2.78,8.51-4.17,14.6-4.17s11.21,1.83,14.86,5.47c3.65,3.65,6.08,8.95,7.3,15.9,1.21,5.91,2.04,12.73,2.48,20.46.43,7.73.65,16.55.65,26.46v34.15c0,14.25-1.69,26.29-5.08,36.1-3.39,9.82-8.21,17.21-14.47,22.16-6.26,4.95-13.82,7.43-22.68,7.43ZM523.54,823.64c-6.61,0-11.73-1.61-15.38-4.82s-5.47-7.51-5.47-12.9c0-5.74,1.83-10.25,5.47-13.56,3.65-3.3,8.77-4.95,15.38-4.95,6.95,0,12.25,1.65,15.9,4.95s5.47,7.82,5.47,13.56c0,5.39-1.82,9.69-5.47,12.9-3.65,3.22-8.95,4.82-15.9,4.82Z" style="fill: url(#linear-gradient3);"/>
          <path d="M577.24,967.8c-5.21,0-9.47-.91-12.77-2.74-3.3-1.83-5.91-4.56-7.82-8.21-1.39-3.13-2.48-7.38-3.26-12.77-.78-5.38-1.3-11.73-1.56-19.03s-.39-15.21-.39-23.72.13-15.94.39-23.33c.26-7.38.74-13.95,1.43-19.68.69-5.74,1.82-10.17,3.39-13.29,1.91-3.65,4.52-6.39,7.82-8.21s7.56-2.74,12.77-2.74c9.91,0,16.68,3.74,20.33,11.21,1.74,3.13,2.95,7.52,3.65,13.16.69,5.65,1.13,12.12,1.3,19.42s.26,15.12.26,23.46-.13,16.42-.39,23.72-.74,13.64-1.43,19.03c-.7,5.39-1.92,9.82-3.65,13.29-3.3,6.95-10,10.43-20.07,10.43h0ZM576.98,823.9c-6.61,0-11.73-1.61-15.38-4.82s-5.47-7.51-5.47-12.9c0-5.74,1.83-10.25,5.47-13.56,3.65-3.3,8.77-4.95,15.38-4.95,6.95,0,12.25,1.65,15.9,4.95s5.47,7.82,5.47,13.56c0,5.39-1.82,9.69-5.47,12.9-3.65,3.22-8.95,4.82-15.9,4.82Z" style="fill: url(#linear-gradient4);"/>
          <path d="M671.6,968.32c-11.47,0-20.94-.39-28.41-1.17-7.47-.78-13.47-2.08-17.99-3.91-4.52-1.82-8-4.26-10.43-7.3-2.44-3.04-4.17-6.91-5.21-11.6-1.91-7.3-3.26-16.07-4.04-26.33-.78-10.25-1.17-22.24-1.17-35.97,0-12.34.39-23.5,1.17-33.5.78-9.99,2.04-18.64,3.78-25.94,1.56-6.08,4.21-10.99,7.95-14.73,3.73-3.74,9.6-6.43,17.6-8.08,7.99-1.65,19.03-2.48,33.11-2.48,17.55,0,31.41,2.09,41.58,6.26,10.17,4.17,17.38,9.64,21.64,16.42,4.26,6.78,6.39,14.08,6.39,21.9,0,8.69-1.43,15.69-4.3,20.99s-7.26,9.69-13.16,13.16c-1.74,1.22-3.09,2.18-4.04,2.87-.96.7-1.43,1.48-1.43,2.35,0,1.39,1.83,2.7,5.47,3.91,7.99,3.13,13.95,7.43,17.86,12.9,3.91,5.47,5.87,12.9,5.87,22.29,0,8.17-2.44,15.9-7.3,23.2-4.87,7.3-12.6,13.25-23.2,17.86-10.6,4.61-24.5,6.91-41.71,6.91h-.03ZM669,930c6.95,0,12.51-1.43,16.68-4.3s6.26-7.08,6.26-12.64c0-5.04-2.35-8.9-7.04-11.6-4.69-2.69-12.08-4.04-22.16-4.04-4.69,0-7.73.61-9.12,1.83-1.39,1.22-2.09,3.48-2.09,6.78,0,2.09.09,4.17.26,6.26.17,2.08.26,4.26.26,6.52,0,3.13.43,5.52,1.3,7.17.87,1.65,2.48,2.74,4.82,3.26s5.95.78,10.82.78v-.02h0ZM662.74,866.39c8.51,0,14.99-1.43,19.42-4.3s6.65-6.3,6.65-10.3c0-5.04-1.82-8.73-5.47-11.08-3.65-2.35-9.04-3.52-16.16-3.52-6.08,0-10,.57-11.73,1.69-1.74,1.13-2.7,3.87-2.87,8.21-.18,1.56-.31,3.22-.39,4.95-.09,1.74-.13,3.65-.13,5.74,0,3.3.69,5.56,2.08,6.78,1.39,1.22,4.26,1.83,8.6,1.83h0Z" style="fill: #fff;"/>
          <path d="M802.46,968.84c-12.17,0-23.16-2.78-32.98-8.34s-17.64-13.51-23.46-23.85c-5.83-10.34-8.73-22.55-8.73-36.63s2.91-26.33,8.73-36.24,13.6-17.47,23.33-22.68c9.73-5.21,20.76-7.82,33.11-7.82s23.46,2.61,33.37,7.82,17.86,12.73,23.85,22.55c6,9.82,8.99,21.86,8.99,36.1s-3,26.29-8.99,36.63c-6,10.34-13.95,18.34-23.85,23.98-9.91,5.65-21.03,8.47-33.37,8.47h0ZM802.46,923.22c6.08,0,11.03-2.26,14.86-6.78,3.82-4.52,5.74-10.34,5.74-17.47s-1.91-12.47-5.74-16.55c-3.82-4.08-8.78-6.13-14.86-6.13-5.74,0-10.47,2.04-14.21,6.13-3.74,4.09-5.61,9.69-5.61,16.81s1.83,12.9,5.47,17.33,8.43,6.65,14.34,6.65h.01Z" style="fill: #fff;"/>
          <path d="M880.93,968.32c-6.26,0-11.6-1.56-16.03-4.69-4.43-3.13-6.65-8.34-6.65-15.64,0-5.91,2.13-12.12,6.39-18.64s11.08-14.47,20.46-23.85c.87-.87,1.61-1.73,2.22-2.61.61-.87.91-1.65.91-2.35,0-1.56-.96-3.3-2.87-5.21-3.65-3.47-7.04-7.04-10.17-10.69s-5.83-7.17-8.08-10.56c-2.26-3.39-4.04-6.69-5.34-9.91-1.3-3.21-1.96-6.13-1.96-8.73,0-6.43,2.09-11.64,6.26-15.64s9.73-6,16.68-6c3.47,0,6.65.57,9.51,1.69,2.87,1.13,5.51,2.83,7.95,5.08,2.61,2.44,4.99,5.47,7.17,9.12,2.17,3.65,4.13,7.34,5.87,11.08,1.73,3.74,3.39,7,4.95,9.78.87,1.22,1.61,2.22,2.22,3s1.34,1.17,2.22,1.17c.69,0,1.34-.39,1.96-1.17.61-.78,1.26-1.78,1.96-3,1.56-2.78,3.26-6.04,5.08-9.78,1.82-3.74,3.78-7.43,5.87-11.08,2.08-3.65,4.43-6.69,7.04-9.12,2.43-2.26,5.04-3.95,7.82-5.08s5.82-1.69,9.12-1.69c7.12,0,12.64,2,16.55,6s5.87,9.12,5.87,15.38c0,2.96-.65,5.96-1.96,8.99-1.3,3.04-3.09,6.22-5.34,9.51-2.26,3.3-4.87,6.69-7.82,10.17-2.96,3.48-6.08,6.95-9.38,10.43-1.22.87-2.13,1.83-2.74,2.87s-.91,2.09-.91,3.13c0,.87.39,1.78,1.17,2.74.78.96,1.69,1.96,2.74,3,9.03,8.86,15.6,16.6,19.68,23.2,4.08,6.61,6.13,12.69,6.13,18.25,0,7.65-2.35,13.03-7.04,16.16-4.69,3.13-10.17,4.69-16.42,4.69-4.52,0-8.34-.74-11.47-2.22-3.13-1.47-5.74-3.34-7.82-5.61-3.13-3.65-5.61-7.21-7.43-10.69-1.83-3.47-3.48-6.86-4.95-10.17-1.48-3.3-3.17-6.52-5.08-9.64-.7-1.39-1.35-2.43-1.96-3.13-.61-.69-1.26-1.04-1.96-1.04s-1.35.35-1.96,1.04c-.61.7-1.26,1.74-1.96,3.13-2.09,3.13-3.78,6.39-5.08,9.78s-2.78,6.78-4.43,10.17c-1.65,3.39-4.04,6.82-7.17,10.3-2.09,2.44-4.78,4.39-8.08,5.87-3.3,1.47-7.21,2.22-11.73,2.22h0Z" style="fill: #fff;"/>
        </g>
      </g>
    </g>
  </g>
  <g>
    <path d="M705.55,464.56c-11.28-10.95-28.95-11.97-42.92-12.69-5.95-.51-12.18-1.19-17.25-4.39l-.1-.06c-12.23-7.79-13.38-31.77-17.7-45.98-4.99-20.45-16.92-45.23-35.33-53.92-23.98-11.91-46.45,5.59-59.12,25.8-5.51,8.34-9.74,17.57-14.08,26.29-6.53,12.57-11.51,22.04-23.92,26.34-23.44,6.24-42.43-3.38-62.24,18.65-20.81,24.04-26.19,70.08-18.42,100.04,9.03,35.3,39.38,55.19,66.66,75.94,14.75,10.91,27.5,23.37,43.32,32.41,23.86,14.12,54.97,10.64,77.95-4.48,8.77-5.43,16.78-12.28,24.72-18.73,7.97-6.53,16.11-12.42,24.91-17.64,16.04-9.7,34.05-17.35,47.27-31.06,25.7-25.41,35.53-90.11,6.25-116.52h0ZM502.91,481.65c-2.78,19.9-24.93,27.59-42.3,20.68-28.55-10.3-33.38-50.85-1.4-58.85l.2-.05c23.35-5.51,47.05,14.12,43.5,38.22h0ZM694.26,517.53c-12.36,11.99-34.75,13.61-47.28,1.27-17.84-18.19-4.29-47.56,19.18-52.73l.2-.05c32.54-7.69,51.74,27.21,27.9,51.51Z" style="fill: url(#linear-gradient5);"/>
    <path d="M829.14,414.94c-15.38,61.63-15.33,127.64-33.69,188.09-10.71,35.49-31.83,70.62-57.95,96.03-11.98,11.87-27.3,23.52-14.39,1.89,20.25-32.49,47.81-68.41,57.87-107.11,15.63-56.34,17.09-116.61,31.35-173.56,11.61-55.78,42.77-143.72,17.84-196.16-22.4-34.85-67.25,17.36-88.06,34.51-17.55,15.82-36.16,29.93-58.33,38.01-51.48,18.29-140.45,9.94-185.57-22.39-30.17-20.09-51.36-59.63-78.01-83.55-69.89-56.77-42.08,125.11-46.41,156.64-1.06,55.8-15.58,110.48-16.43,166.44-.66,28.48,4.18,57,13.05,83.99,5.85,20.75,17.86,46.42,20.1,64.83-.03.64-.35,1.47-.87,1.47-1.72.31-6.18-4.79-12.24-14.55-8.48-13.85-18.27-34.01-23.84-51.62-24.26-68.9-7.34-142.4,1.46-212.27,5.71-43.95,1.75-88.15.91-132.27-.07-28.53,1.4-65.05,18.18-85.47,13.96-17.52,36.87-10.08,51.36,2.9,31.22,27.42,53.45,72.2,91.98,93.21l.16.09v.04h.01c58.69,31.18,139.34,37.35,195.3-3.69,32.31-22.22,57.08-59.51,96.52-69.05,30.54-4.35,41.64,24.07,45.22,53.21,5.54,56.73-13.2,115.17-25.52,170.34h0Z" style="fill: url(#linear-gradient6);"/>
  </g>
</svg>