<?xml version="1.0" encoding="UTF-8"?>
<svg id="Layer_1" xmlns="http://www.w3.org/2000/svg" xmlns:xlink="http://www.w3.org/1999/xlink" version="1.1" viewBox="0 0 1080 1080">
  <!-- Generator: Adobe Illustrator 29.8.2, SVG Export Plug-In . SVG Version: 2.1.1 Build 3)  -->
  <defs>
    <filter id="drop-shadow-1" x="101" y="86" width="911" height="908" filterUnits="userSpaceOnUse">
      <feOffset dx="0" dy="0"/>
      <feGaussianBlur result="blur" stdDeviation="6"/>
      <feFlood flood-color="#000" flood-opacity=".6"/>
      <feComposite in2="blur" operator="in"/>
      <feComposite in="SourceGraphic"/>
    </filter>
  </defs>
  <g filter="url(#drop-shadow-1)">
    <path d="M661.82,675.12" fill="#1abd7f" stroke="#1abd7f" stroke-miterlimit="10"/>
    <line x1="663.87" y1="667.39" x2="663.87" y2="667.49" fill="#1abd7f" stroke="#1abd7f" stroke-miterlimit="10"/>
    <path d="M663.88,660.06" fill="#1abd7f" stroke="#1abd7f" stroke-miterlimit="10"/>
    <path d="M435.01,602.68c-.32-.33-.56-.72-.72-1.16.27.26.5.64.72,1.16Z" fill="#0c45b5"/>
    <path d="M435.01,602.68c-.32-.33-.56-.72-.72-1.16.27.26.5.64.72,1.16Z" fill="#0a69f4"/>
    <path d="M435.01,602.68c-.32-.33-.56-.72-.72-1.16.27.26.5.64.72,1.16Z" fill="#1e6dda"/>
    <polygon points="581.86 398.62 531.48 398.62 528.78 442.92 583.32 442.43 581.86 398.62" fill="#f7f1e4"/>
    <g id="aJr0A5">
      <g>
        <path d="M818.52,190.88c2.55,2.72,5.86,9.85,7.8,11.45,2.87,2.37,12.25,4.31,17.23,8,9.57,7.07,12.79,18.41,17.99,23.17,4.62,4.22,12.16,6.13,17.87,12.66s6.42,13.76,10.11,19.1c2.57,3.72,13.74,10.15,18.4,16.12,5.84,7.5,5.38,13.4,8.71,19.17,2.5,4.32,12.62,9.94,17.12,18.73,3.51,6.84,3.81,18.74,5.01,20.89.45.8,9.17,8,11.92,12.62,7.4,12.42,4.79,18.26,7.97,29.21,1.79,6.17,12.84,14.11,14.35,26.81,1.99,16.67,2.66,13.95,7.66,28.19,4.38,12.46,1.03,17.17,2.02,27.41.69,7.09,7.3,16.06,7.64,26.69.22,6.82-2.88,13.39-2.63,18.53.28,5.92,5.18,13.19,5.31,21.32s-3.93,15.05-4.15,21.3c-.28,8.18,4.12,17.56,2.61,29.06-.72,5.52-5.76,12.7-6.14,16.21-.48,4.46,2.59,10.79,1.89,18.06-1.09,11.36-8.88,18.64-10.19,25.66-1.52,8.13,1.02,14.9-2.09,24.47-2.04,6.29-10.05,15-10.97,18.24-1.94,6.86.08,13.89-3.61,22.94-3.45,8.47-10.4,12.09-13.17,17.37s-3.06,14.88-6.89,22.32-10.35,10.59-13.07,14.81c-4.06,6.3-3.88,16.15-10.8,25.05-4.56,5.88-12.2,8.96-15.19,12.69-4.99,6.23-6.45,17.3-14.58,25.25-4.16,4.07-11.47,6.33-13.9,8.67-3.29,3.17-5.98,13.91-11.27,19.27-6.17,6.25-15.73,8.51-20.68,12.52-3.45,2.79-6.56,11.96-13.26,17.28-7.87,6.24-15.5,5.88-21.07,9.47-5.15,3.32-10.1,13.26-18.15,17.69-7.22,3.97-14.36,3.02-19.79,5.43-3.77,1.68-11.52,12.19-18.75,15.77-9.02,4.46-15.47,2.92-22.84,5.04-1.61.46-6.67,5.95-9.53,7.73-13.49,8.41-18.47,5.34-31.62,8.21-4.78,1.04-11.48,7.88-19.46,9.74-7.68,1.79-13.79-.12-20.32.9s-13.19,6.61-20.35,7.55c-6.71.88-14.32-.67-21.02.23-6.54.88-13.92,5.06-21.43,5.24-6.76.16-13.58-3.75-18.49-3.83s-14.77,3.75-21.12,3.65c-9.05-.14-16.75-5.42-23.01-6.23-4.31-.56-12.05,2.49-16.9,2.43-9.98-.13-18.6-6.07-25.8-7.29-4.95-.84-13.11,1.13-20.14.01-10.45-1.65-16.51-8.58-23.77-10.75-5.96-1.78-12.84-.05-20.27-2.3-7.92-2.4-16.17-10.19-22.5-12.02-12.74-3.67-17.07-1.04-29.62-10.21s-11.35-6.91-24.58-12.6c-12.38-5.33-14.88-14.42-22.21-19.29-5.36-3.57-14.13-4.36-21.51-10.01-6.28-4.81-9.18-11.96-13.48-15.73-8.01-6.99-18.78-8.16-27.03-19.44-2.16-2.94-4.17-9.21-6.11-11.15s-8.54-4.32-11.79-6.8c-11.24-8.58-12.13-18.01-19.41-27.06-8.55-10.62-15.2-11.05-22.51-26.62-5.97-12.71-5.14-8.79-13.31-18.55-9.45-11.3-6.97-19.5-12.03-29.13-1.6-3.05-7.82-8.03-10.41-12.16-7.55-12.02-4.69-18.07-7.74-29.44-1.03-3.83-8.11-10.9-10.35-17.53-3.46-10.24-1.01-16.77-2.63-25.25-.57-2.98-6.96-10.6-8.63-16.6-3.26-11.78.62-18.28-.71-27.15-.74-4.96-5.65-11.27-6.46-17.46-1.41-10.74,2.81-20.61,2.48-27.66-.41-8.9-5.2-15.33-3.9-27.98.63-6.12,4.97-12.85,5.07-17.24.15-6.63-3.28-13.63-2.41-22.6.75-7.75,5.6-13.85,6.54-20.01,1.44-9.5-.94-18,2.05-28.49,1.81-6.35,7.37-12.13,8.35-16.87,2.4-11.63-1.6-17.56,5.37-30.48,1.95-3.61,6.35-7.45,7.47-9.79,3.23-6.75,2.59-18.13,7.13-27.39,3.08-6.28,9.13-10.74,11.43-15.12,3.51-6.67,2.83-16.06,8.46-24.73,3.7-5.7,11.23-10.24,14.1-15.11,5.1-8.65,4.76-17.16,13.47-26.36,3.55-3.75,9.73-6.42,12.56-10.01,9.2-11.7,5.27-16.81,21.32-29.13,11.07-8.5,8.44-7.88,16.59-17.93,9.38-11.57,16.83-10.16,25.75-16.73,5.47-4.03,8.84-13.37,17.92-19.26,6.94-4.51,15.15-4.9,19.24-7.31,1.42-.84,7.52-9.49,10.63-11.95,11.29-8.93,16.85-6.9,28.31-10.19,2.12-.61,11.22-10.55,17.27-13.26,9.9-4.44,18.07-2.9,26.53-5.33,4.15-1.2,11.25-8.47,19.8-10.73,7.93-2.1,16.47-.02,21.28-1.19,5.92-1.43,11.96-8.93,23.07-10.23,7.18-.84,17.17,1.88,22.09.95,5.65-1.06,12.12-6.66,20.4-7.59,11.25-1.26,16.58,3.24,23.99,3.51,3.29.12,14.55-5.23,21.49-5.52,10.2-.43,17.83,4.95,23.39,5.28,10.05.6,16.96-4.92,31.29-1.48,12.78,3.06,9.54,4.61,24.45,4.65,17.53.04,24.68,9.66,33.34,10.7,7.01.84,13.1-1.29,22.4,1.38,8.57,2.46,17.83,11.82,21.58,12.94,5.07,1.51,11.79-.02,18.95,2.29,9.91,3.21,16.15,12.27,21.3,14.55,4.74,2.1,13.31,1.55,20.39,4.83,8.94,4.15,13.56,13.17,19.51,16.34,9.9,5.27,17.61,4.15,27.32,14.5Z" fill="#654a32"/>
        <path d="M823.95,251.83c1.11.92,6.38,11.26,8.96,14.27,5.39,6.29,16.88,11.92,19.91,15.94,2.33,3.09,3.69,9.6,6.22,13.7,4.9,7.95,14.49,12.34,17.97,17.21,1.89,2.64,3.98,12.74,6.82,17.75,3.98,7.02,11.2,11.44,14.06,16.47,2.62,4.6,3.67,12.41,6.71,18.52,2.82,5.66,10.82,13.34,11.96,15.92,1.57,3.56,1.25,12.87,2.94,18.3,2.26,7.26,9.08,13.08,10.43,17.45,1.5,4.85.29,11.67,1.19,17.4,1.34,8.58,8.38,16.84,9.3,22.35.81,4.84-1.22,14.17-.46,20.59.8,6.78,7.03,17.66,7.25,21.36.33,5.67-2.86,15.45-2.13,23.98.46,5.39,3.85,12.22,3.86,15.88.01,4.66-5.09,14.48-5.19,21.32-.08,6.06,3.33,15.27,2.68,21.04-.48,4.24-4.48,10.46-5.15,16.21-.76,6.53,1.37,14.89.82,19.62-.25,2.14-6.88,12.47-8.27,18.06-1.95,7.83-.84,15.17-2.26,21.64-.9,4.08-7.91,11.95-10.04,17.84-5.63,15.58-3.04,14.82-12.55,29.93-7.01,11.13-5.75,17.32-9.69,26.16-1.21,2.72-10.7,10.61-13.67,15.54-3.67,6.12-4.33,13.65-7.03,18.2-2.03,3.42-11.31,9.34-15,14.21s-8.02,17.06-10.43,19.45c-2.02,2.01-10.35,5.35-14.27,8.97-6.37,5.89-8.77,14.41-13.17,18.69-3.85,3.74-13.92,6.57-19.31,11.22-4.15,3.58-7.43,10.78-10.81,13.09-5.72,3.91-15.23,5.84-22.18,11.01-4.57,3.39-8.7,10.47-11.58,12.32-5.11,3.3-16.4,3.55-24.28,8.91-3.68,2.5-8.89,9.84-11.54,11.03-5.25,2.35-15.21,2.26-22.52,5.37-5.15,2.19-11.99,8.85-15.56,9.66-8.16,1.85-16.05-.07-25.92,3.29-4.69,1.6-11.57,6.9-15.02,7.55-5.35,1-12.52-.47-18.39.2-7.82.89-15.03,6.48-20.65,7.25-5.22.71-14.07-1.41-20.64-.74-5.37.55-11.37,3.9-15.92,3.98s-10.92-2.77-15.89-2.71c-5.07.06-14.65,4.02-18.48,3.65-3.43-.34-9.95-5.34-16.26-6.12-8.55-1.05-18.38,1.77-24.95,1.17-4.15-.38-9.81-5.43-15.05-6.31-7-1.18-15.48.87-21.98-.59-4.43-1-12.63-7.86-19.25-9.96s-15-1.69-20.59-3.31c-1.42-.41-10.05-8.03-15.06-10.16-7.26-3.08-17.51-3.62-22.98-6.23-3.43-1.64-9.87-9.45-15.57-12.32-4.84-2.43-14.28-3.89-17.6-6.3-2.96-2.14-8.02-10.45-13.48-14.4-6.84-4.96-14.63-6.12-19.75-9.46-3.25-2.12-7.25-10.2-11.37-13.86-5.57-4.93-15.76-8.05-19.92-11.94-2.78-2.59-5.29-8.89-8.56-12.68-5.39-6.24-13.98-9.71-17.89-13.97-4.18-4.55-7.31-16.2-14.01-23.17-2.58-2.68-11.04-7.72-12.53-10.04-1.72-2.66-2.81-10.63-4.95-14.96-3.61-7.32-14.69-15.79-16.33-19.52-2.6-5.9-2.25-12.1-6.65-19.9-2.21-3.91-10.68-12.93-11.04-14.19-1.48-5.11-.44-13.14-2.52-20.05-2.1-6.98-9.55-15.5-10.7-19.84-2.84-10.72.77-18.05-4.99-32.19-5.62-13.79-2.15-11.89-3.32-25.89-.68-8.17-5.58-15.84-6.35-21.56-.6-4.45,3.13-16.74,2.43-24.98-.44-5.17-3.58-11.43-3.7-14.79s6.02-16.07,6.31-23.77c.21-5.6-3.01-14.88-2.39-19.52.52-3.93,6.44-11.82,7.38-17.87,1.11-7.14-.83-15.67.38-22.19.7-3.78,6.75-10.44,8.57-16.66,2.42-8.26.64-16.38,2.58-22.65.93-3,6.85-9.13,8.95-13.62,3.59-7.67,3.33-16.69,5.77-22.12,2.08-4.62,10.84-12.09,14.14-19.06,2.74-5.8,3.34-13.54,5.84-18.05,2.45-4.4,10.24-9.3,13.62-14.26,4.09-6.01,5.25-15.46,8.12-19.76,2.43-3.64,11.79-8.24,15.96-13.25,4.3-5.16,6.76-14.27,10.06-17.82,4.25-4.58,13.99-7.55,20.55-15.3,3.08-3.64,6.88-12.33,8.26-13.64,2.2-2.09,15.29-6.67,20.94-11.6,3.37-2.95,9.88-12.91,10.97-13.59,3.25-2.04,14.68-3.68,20.46-6.77,6.57-3.51,14.37-14.07,17.7-15.49,8.84-3.76,18.27-1.65,29.11-9.4,2.72-1.94,6.53-7.58,8.98-8.28,4.69-1.35,12.39-.85,18.69-2.55,7.25-1.95,17.26-9.72,20.03-10.31,4.68-1.01,13.87.54,21.46-1.3,5.8-1.4,15.52-7.87,18.07-8.29,4.76-.78,15.89,2.14,23.61.84,5.04-.85,11.77-4.92,16.13-5.12,5.42-.24,13.1,2.96,21.21,2.62,6.08-.26,16.34-3.87,21-3.62,6.12.33,15.53,5.03,24.09,5.02,4.95,0,13.11-2.93,17.05-2.36,2.26.33,8.94,4.55,12.8,5.59,10.25,2.76,19.83.33,28.3,2.24,3.38.76,8.96,5.38,14.22,7.03,8.32,2.6,17.14,1.79,24.25,3.63,2.97.77,9.89,6.86,13.95,8.62,7.49,3.25,16.99,3.28,23.19,6.02,4.28,1.88,10.76,9.11,17.11,12.1s14.1,3.68,18.9,6.32c5.29,2.91,10.83,10.99,18.18,15.01,4.64,2.54,12.21,4.07,15.83,6.74s6.85,10.12,12.09,14.47c5.59,4.64,16.4,7.9,19.45,10.42Z" fill="#f7f0e3"/>
        <path d="M580.86,125.82l13.74,19.44c-22.83,2.54-36.4-12.14-50.42-27.21,12.24-6.63,27.07-1.12,36.68,7.77Z" fill="#f7f1e4"/>
        <path d="M352.96,194.41c-14.41,18.88-37.39,10.22-57.08,9.27-2.68-2.34,11.95-12.13,14.1-13.1,15.8-7.09,27.62.49,42.98,3.83Z" fill="#f7f1e4"/>
        <path d="M390.13,175.82c-6.89,8.58-20.74,10.26-31.06,9.14-2.67-.29-25.08-5.56-26.03-6.51-2.07-2.06,1.11-2.48,1.7-3.02,20.3-18.27,33.65-7.09,55.39.39Z" fill="#f7f1e4"/>
        <path d="M283.91,243.53c-7.59,21.09-33.14,19.58-51.77,19.9,9.79-22.55,30.05-23.17,51.77-19.9Z" fill="#f8f1e4"/>
        <path d="M347.65,908.69c-24.94-4.78-28.14-27.54-29.2-49.11,22.35,7.53,24.22,29.44,29.2,49.11Z" fill="#f7f0e3"/>
        <path d="M428.64,162.52c-18.13,10.34-38.92,3.88-55.73-5.96,16.38-16.86,40.14-6.81,55.73,5.96Z" fill="#f8f1e4"/>
        <path d="M540.94,129.89c5.42,7.01,19.76,13.51,2.58,14.12-18.88.67-31.39-12.59-44.51-23.96,16.01-5.27,30.24-2.26,41.93,9.83Z" fill="#f7f1e4"/>
        <path d="M129.92,548.89c-6.3-24.1,10.04-38.18,27.86-50.45,3.64,24.48-10.81,36.71-27.86,50.45Z" fill="#f8f1e4"/>
        <path d="M620.68,127.16c5.84,5.77,9.91,16.2,15.07,22.77-22.02,4.31-35.6-15.71-46.46-31.2,10.66-3.07,23.54.67,31.39,8.43Z" fill="#f7f1e4"/>
        <path d="M675.58,159.87c-11.74.47-22.81-5.43-29.76-14.71l-12.72-21.13c23.34-2.18,36,16.19,42.47,35.83Z" fill="#f8f2e5"/>
        <path d="M788.44,212.97c-22.09-3.77-26.87-27.97-30.53-46.45,23.19,3.44,28.25,26.58,30.53,46.45Z" fill="#f7f1e5"/>
        <path d="M715.42,174.47c-23.36-2.88-31.14-22.45-39.82-41.15,23.32.88,35.68,20.33,39.82,41.15Z" fill="#f8f2e5"/>
        <path d="M205.59,299.28c4.12-14.22,15.31-23.45,30.03-25.06,6.38-.7,13.1,1.1,19.08-1.49-5.26,22.28-30.11,23.64-49.11,26.55Z" fill="#f7f1e4"/>
        <path d="M229.47,305.93c-5.67,22.96-27.75,26.9-47.79,30.52,6.46-24.23,25.97-27.51,47.79-30.52Z" fill="#f7f1e4"/>
        <path d="M155.13,542.25v20.58c0,7.71-16.67,23.85-20.59,31.2-12.17-18.83,1.36-38.12,16.59-49.79,1.34-1.02,1.67-2.56,3.99-1.98Z" fill="#f8f2e5"/>
        <path d="M969,434.71c9.08,20.59,1.73,34.33-12.17,49.55-1.18,1.3-1.22,2.83-3.74,2.22-5.85-14.69-2.36-27.36,5.53-40.26,1.14-1.86,8.49-12.93,10.37-11.52Z" fill="#f7f1e4"/>
        <path d="M820.3,238.21c-22.53-9.11-20.69-30.89-26.54-50.44,23.37,6,28.31,29,26.54,50.44Z" fill="#f7f1e4"/>
        <path d="M850.84,266.09c-11.81-2.39-18.47-20.44-19.75-31.36-.8-6.83.88-13.75-1.49-20.41,7.56,2.65,16.03,9.92,19.27,17.23,5.19,11.73,1.15,22.3,1.96,34.53Z" fill="#f7f1e5"/>
        <path d="M755.25,912.7c-14.54,18.34-34.3,12.04-51.82,1.96-1.35-.78-3.34.06-2.63-2.62.2-.75,7.08-4.21,8.57-4.73,18.15-6.36,28.83,1.4,45.87,5.39Z" fill="#f7f1e4"/>
        <path d="M208.23,341.78c-5.3,21.98-25.91,28.69-45.13,34.5,4.14-24.58,22.93-31.36,45.13-34.5Z" fill="#f8f2e5"/>
        <path d="M175.03,665.74c9.45,17.7,4.38,33.44-3.37,50.43-.48,1.05-.3,3.79-2.57,2.67s-7.48-11.71-8.06-14.52c-2.64-12.81,3.12-26.94,10.98-36.9.84-1.06-.04-2.45,3.01-1.67Z" fill="#f7f1e4"/>
        <path d="M945.13,446.66c-8.99-20.64-1.66-36.47,8.61-54.43,16.65,18.08,5.49,39.17-8.61,54.43Z" fill="#f7f1e4"/>
        <path d="M753.93,193.06c-23.18-4.37-29.49-25.54-35.83-45.13,24.33,3.7,30.63,24.24,35.83,45.13Z" fill="#f7f1e4"/>
        <path d="M315.78,216.97c-2,6.82-12.98,12.81-19.32,14.52-11.72,3.17-21.87-1.04-33.77.07-1.45-1.29,9.13-11.51,10.58-12.64,11.61-8.94,29.08-3.6,42.51-1.95Z" fill="#f7f1e5"/>
        <path d="M509.62,145.26c-21.43,5.58-37.39-3.03-53.08-16.59,17.29-11.54,38.11.04,51.06,12.64,1.3,1.26,2.51,1.74,2.01,3.95Z" fill="#f7f1e5"/>
        <path d="M175.05,417.46c-1.71,9.52-3.09,17.8-9.93,25.24l-27.25,18.55c.13-24.3,15.8-36.46,37.17-43.79Z" fill="#f8f2e5"/>
        <path d="M976.97,605.99c2.82,23.99-16.89,33.89-34.5,43.81-1.23-21.62,16.31-36.26,34.5-43.81Z" fill="#f8f1e5"/>
        <path d="M311.8,884.79c-14.77-3.81-23.26-16.67-25.05-31.36-.78-6.4.78-12.76-1.48-19.08,21.72,8.59,23.17,30.38,26.54,50.44Z" fill="#f7f0e3"/>
        <path d="M828.28,864.9c-11.95,21.25-34.76,16.66-54.43,10.59,14.2-18.39,34.48-12.67,54.43-10.59Z" fill="#f7f0e3"/>
        <path d="M899.96,332.48c-17.1-13.19-13.56-34.31-10.6-53.1,22.74,9.44,15.78,34.4,10.6,53.1Z" fill="#f7f1e4"/>
        <path d="M386.15,927.28c-24.12-1.15-31.25-23.27-33.19-43.79,21.48,5.42,27.05,25.21,33.19,43.79Z" fill="#f7f1e4"/>
        <path d="M143.17,636.52c-2.36,2.47-5.77-7.86-6.04-9.22-3.68-18.78,7.41-31.3,19.32-43.89,8.77,21.74-1.65,32.06-12.02,48.42-1.05,1.66-1.09,4.51-1.26,4.68Z" fill="#f7f1e4"/>
        <path d="M414.04,141.27c17.7-15.54,39.27-2.63,54.41,9.97-19.81,10.74-37.14-.5-54.41-9.97Z" fill="#f8f1e5"/>
        <path d="M425.98,941.89c-23.59-.21-32.59-19.64-37.16-39.82,22.18,2.59,30.27,21.26,37.16,39.82Z" fill="#f7f0e3"/>
        <path d="M838.91,826.38c-3.42-3.54,15.76-17.98,19.59-19.56,9.81-4.04,20.74-2.76,30.84-5.66-3.41,10.08-15.19,22.3-25.99,23.78-7.88,1.08-16.45-1.07-24.44,1.44Z" fill="#f7f1e4"/>
        <path d="M216.19,793.19c-20.46-13.2-14.64-33.01-10.6-53.1,1.85-2.12,8.94,7.7,9.86,9.38,8.3,15.13,2.41,27.88.74,43.73Z" fill="#f7f1e4"/>
        <path d="M967.68,648.48c-.4,23.64-19.42,34.44-39.82,39.82,3.74-21.86,21.06-31.9,39.82-39.82Z" fill="#f8f2e5"/>
        <path d="M164.42,458.62c-1.92,5.38-1.23,10.57-3.03,16.21-4.5,14.15-18.83,20.72-28.82,30.25-3.94-23.88,11.46-38.34,31.85-46.46Z" fill="#f8f1e5"/>
        <path d="M935.8,405.5c-2.33,2.18-5.9-7.71-6.25-8.99-5.27-19.13,2.11-28.1,6.29-45.44,9.64,7.85,12.43,21.44,10.02,33.27-1.55,7.58-8.34,13.65-10.06,21.16Z" fill="#f7f1e5"/>
        <path d="M148.51,418.78c.57-24.4,19.02-33.8,39.8-39.83-1.01,22.97-23.08,30.14-39.8,39.83Z" fill="#f8f1e5"/>
        <path d="M277.27,856.91c-11.65-2.86-21.47-16.95-22.57-28.54-.7-7.38,2.3-14.49,1.34-21.91,19.79,10.45,19.82,30.76,21.22,50.45Z" fill="#f7f1e4"/>
        <path d="M506.98,935.27c8.85-2.62,18.37.48,25.65,5.53,2.83,1.96,20.76,20.17,20.79,21.67.06,2.64-9.25,2.14-11.25,1.97-17.83-1.45-26.74-15.35-35.19-29.18Z" fill="#f7f1e5"/>
        <path d="M164.42,625.9c7.98,19.97.16,35.41-11.28,51.75-10.31-14.23-7.56-28.19,1.69-42.1,1.15-1.73,7.62-11.46,9.58-9.66Z" fill="#f8f1e5"/>
        <path d="M954.41,690.97c-3.62,24.29-22.79,29.9-43.81,34.5,3.95-21.76,25.25-28.84,43.81-34.5Z" fill="#f7f1e4"/>
        <path d="M468.47,953.83c-23.26,2.36-35.52-17.51-41.15-37.16,22.21,3.01,31.85,18.86,41.15,37.16Z" fill="#f7f1e5"/>
        <path d="M792.42,890.12c-1.9,7.53-13.63,12.3-20.72,13.12-12.46,1.44-21.92-4.23-33.71-6.5,5.25-6.74,16.31-11.64,24.77-11.83,9.98-.23,19.82,5.61,29.66,5.22Z" fill="#f7f1e5"/>
        <path d="M714.09,931.29c-16.01,15.15-36.23,7.1-51.43-4.95-.81-.64-3.73-1.03-1.68-3.02.52-.51,12.4-3.65,14.09-3.84,15.9-1.77,25.19,6.54,39.02,11.81Z" fill="#f7f1e4"/>
        <path d="M510.95,960.47c-22.66,3.25-36.5-12.41-43.8-31.85,10.4-.23,19.48,4.25,27.77,10.05l16.03,21.8Z" fill="#f7f0e4"/>
        <path d="M244.07,826.38c-21.45-10.89-18.38-31.52-14.58-51.78,19.1,12.41,16.87,31.79,14.58,51.78Z" fill="#f7f1e4"/>
        <path d="M919.87,366.99c-2.02,1.93-5.88-6.18-6.46-7.46-7.84-17.34-1.68-28.34,1.18-45.63,7.33,1.88,12.71,15.02,13.29,21.91.38,4.53-5.72,29.01-8.01,31.19Z" fill="#f7f1e4"/>
        <path d="M951.77,608.64c-2.74-21.83,13.03-35.35,29.18-46.47,6.37,24.91-12.08,34.23-29.18,46.47Z" fill="#f7f1e4"/>
        <path d="M957.08,527.65c-6.94-21.66,6.95-36.74,19.89-51.78,8.54,21.63-3.55,38.79-19.89,51.78Z" fill="#f8f2e5"/>
        <path d="M858.81,835.68c-6.78,21.8-32.39,21.68-50.45,15.28,4.04-5.47,18.08-15.28,24.56-15.28h25.89Z" fill="#f7f0e4"/>
        <path d="M861.47,244.85c21.76,11.87,20.02,31.95,14.59,53.11-5.89-3-14.59-17.33-14.59-23.23v-29.87Z" fill="#f7f1e4"/>
        <path d="M192.3,757.34c-1.91,2.24-8.79-7.96-9.54-9.7-7-16.22-.48-27.91,4.25-43.4,17.45,14.12,8.8,35.1,5.29,53.1Z" fill="#f7f1e4"/>
        <path d="M672.93,944.57c2.98,4-13.07,7.38-15.47,7.45-13.51.41-24.95-11.04-34.95-18.75,16.84-9.84,32.15.31,46.02,9.75,1.44.98,4.26,1.36,4.4,1.55Z" fill="#f7f1e4"/>
        <path d="M955.75,568.81c-4.73-20.46,10.53-37.11,25.2-49.12,7.26,23.56-9.64,35.77-25.2,49.12Z" fill="#f7f1e4"/>
        <path d="M934.49,730.8c-3.11,22.72-24.58,27.65-43.81,30.52,5.85-20.19,24.84-27.18,43.81-30.52Z" fill="#f7f1e5"/>
        <path d="M914.58,767.98c-6.75,21.47-27.94,24.68-47.8,25.2,8.67-19.44,28.29-23.97,47.8-25.2Z" fill="#f7f1e4"/>
        <path d="M631.77,953.87c.13,1.43.57,1.81-.78,2.71-1.69,1.13-10.18,3.18-12.49,3.35-14.28,1.06-25.89-13.87-34.52-23.33,20.25-6.35,32.73,7.07,47.79,17.27Z" fill="#f7f1e4"/>
        <path d="M593.27,963.13c-21.11,6.85-34.01-8.88-45.14-23.87,16.71-5.94,33.56,7.42,43.16,19.89,1.02,1.33,2.57,1.69,1.98,3.98Z" fill="#f7f0e4"/>
        <path d="M565.74,358.68l38.85,28.19c9.35,15.64-10.98,8.97-12.66,10.66-1.81,1.82,2.87,37.39,1.28,43.07,8.41,4,17.4-3.47,18.58,9.55.72,7.91-7.44,14.1-11.22,20.5,4.81,56.64,12.2,113.7,19.14,170.34l61.81,15.5c38.46-.1,74.77-20.68,113.56-8l-5.57,10.33c-12.52-.34-26.4-2.26-38.9-1.04-13.1,1.28-27.88,8.18-41.53,10.25-40.92,6.21-70.34-14.4-108.56-11.64-23.24,1.68-44.07,13.82-69.05,13.39-26.63-.45-50.79-14.2-78.33-13.39-21.95.64-43.01,11.8-65.01,13.31-24.58,1.68-44.86-6.63-68.34-11.29-1.32-2.25-10.01-11.99-7.98-13.92,27.63,3,52.63,15.21,81.31,11.6,10.49-1.32,22.2-7.19,32.58-9.9,22.23-5.82,42.96-6.12,65.34-.37l20.85-172.23c-3.61-11.28-14.13-13.85-11.55-27.6,1.13-6.04,12.4-2.37,17.26-3.31l2.65-43.82c-5.56,1.08-18.24-.04-15.77-8.36,1.18-3.98,36.58-27.33,41.6-32.85l8.7-45.08,10.96,46.11Z" fill="#614730"/>
        <path d="M779.15,671.05c-5.68,15.51-12.39,10.53-24.54,11.96-19.67,2.31-37.82,12.02-58.38,13.32-26.6,1.68-39.54-5.95-63.34-11.14-41.84-9.11-70.93,15.15-113.15,10.91-18.43-1.85-35.29-12.06-54.53-13.18-34.02-1.98-57.15,16.17-92.98,13.32-17.58-1.4-30.67-5.52-39.2-21.87,13.55,2.12,26.88,7.28,40.68,8.45,33.31,2.81,56.82-14.06,88.84-13.16,18.47.52,36.71,10.08,54.75,12.96,37.78,6.03,61.01-13.97,96.55-12.9,25.98.78,49.54,15.23,75.75,14.66,30.01-.66,58.62-20.75,89.55-13.33Z" fill="#644931"/>
        <path d="M757.9,697.61l-18.28,15.55c-40.44,19.58-67.65,7.54-106.47-.35-40.02-8.13-60.6,10.61-96.24,11.39-32.21.71-58.05-16.36-91.66-13.31-19.52,1.77-41.69,15.65-61.13,13.28-5.74-.7-14.71-8.55-19.21-12.65-.32-3.66.81-1.07,2.3-.98,38.6,2.42,63.81-15.84,100.57-12.92,19,1.51,36.52,11.36,54.62,13.09,36.09,3.46,61.7-15.66,98.15-13.18,23.12,1.58,44.06,14.66,67.65,14.4,24.04-.26,45.83-13.19,69.7-14.32Z" fill="#654a32"/>
        <path d="M659.65,762.67l-17.53,7c-62.62,20.37-145.59,19.5-204.95-10.88-.94-.48-4.43-.63-1.89-2.77.59-.5,13.37-2.48,15.29-2.64,35.48-2.91,60.25,16.01,94.29,13.3,23.52-1.87,45.67-16,70.37-14.69,14.32.76,30.22,8.18,44.41,10.68Z" fill="#644932"/>
        <path d="M708.78,737.44l-6.36,6.59c-6.55.61-14.99,7.83-20.87,8.09-13.63.61-38.71-10.54-53.43-13.03-38.42-6.5-63.61,15.08-100.63,13.01-29.79-1.67-48.19-16.98-82.12-13.2-6.35.71-24.4,7.87-27.84,7.51-2.53-.27-11.69-7.98-14.12-10.29,22.43-7.36,43.09-12.57,67.09-10.68,17.51,1.37,34.47,11.41,51.89,13.16,44.04,4.42,67.87-21.25,117.61-10.07,23.27,5.23,43.42,15.43,68.76,8.92Z" fill="#654a32"/>
        <path d="M383.31,328.32c-7.41,3.54-15.1,16.21-24.03,14.52-11.96-2.27-30.08-18.73-39.48-4.39,5.12,4.5,16.44,18.58,23.21,18.07,2.83-.21,5.13-2.88,6.45-2.65.75.13,3.48,2.92,3.49,3.16.02,1.74-22.34,20.75-24.61,24.49-2.39,3.61-6.61.47-5.24-2.59.76-1.71,3.65-1.96,3.36-5.86-.18-2.41-6.03-8.7-7.94-10.75-6.64-7.12-27.65-28.28-34.67-33.08-1.66-1.14-5.41-3.44-7.23-3.36-1.69.08-8.7,6.04-8.66-.73.02-2.88,29.6-33.29,33.91-36.5,14.16-10.53,32.87-6.11,35.07,12.72.47,3.99-1.58,11.69.04,13.16,2.1,1.9,29.51,10.51,33.21,10.68,5.44.25,14.15-5.81,13.14,3.09Z" fill="#654a32"/>
        <path d="M281.28,463.9c-.94-1.2,1.81-5.82.38-8.9-1.23-2.66-5.92-4.72-8.53-6.18-9.78-5.51-36.45-18.59-46.54-21.16-9.4-2.4-9.92,3.05-11.04,3.05-.3,0-2.92-2.64-3.09-3.49-.56-2.76,18.97-41.49,22.57-46.05,14.12-17.86,33.78-17.25,52.44-6.43,23.37,13.55,21.44,33.83,13.38,56.32-1.54,4.29-14.35,34.06-16.24,34.12-.18,0-3.21-1.14-3.32-1.28Z" fill="#644931"/>
        <path d="M785.8,343.1c6.08-5.88,29.48-27.95,29.31-35.22-.06-2.65-6.69-12.12.35-9.72,1.26.43,15.86,14.96,17.47,17.05,7.14,9.24-9.16-.23-12.56,4.73l-48.71,50.82c-3.31-.24-6.1-2.11-5.87-5.69l4.13-50.46-.07-28.6c-3.16,2.17-6.04,5.13-8.64,7.95-5.81,6.3-18.97,19.79-22.99,26.13-1.05,1.66-2.78,4.55-2.79,6.42-.01,5.14,8.37,7.4,3.2,11.28-2.38.62-24.19-17.74-24.53-19.28-.26-1.21,1.14-3.05,2.03-3.29,3.91-1.02,6.1,5.64,13.56.46,3.61-2.51,15.67-16.1,19.6-20.36,3.58-3.87,19.55-21.2,20.89-24.26,3.01-6.88-5.1-9.07.34-14.23,3.77,4.72,18.19,12.57,19.22,17.93-1.51,22.74-1.54,45.83-3.94,68.35Z" fill="#654a32"/>
        <path d="M421.76,782.88c58.82-2.23,56.63,85.19.92,86.08-55.15.88-55.03-84.03-.92-86.08Z" fill="#664b33"/>
        <path d="M789.77,734.8c-3.93,7.87-6.59,3.1-12.61,2.62-8.17-.64-13.12.71-19.26,5.97-1.38,1.18-5.51,4.74-5.21,6.47.23,1.35,16.66,20.44,18.02,20.66s9.79-7.87,10.41-9.22c1.92-4.15-2.45-12.43,1.37-13.25,2.19-.47,18.88,18.55,19.07,20.77.52,5.92-10.36-1.01-16.17.74-1.34.4-8.51,7.51-8.57,8.33-.13,1.58,19.3,23.52,21.39,23.14,10.33-8.63,19.74-13.14,18-28.33-.3-2.59-4.4-9.02-.53-10.05,4.49-1.2,11.98,14.71,14.93,17.93-5.35,5.49-46.02,44.93-49.29,44.37-7.52-1.29.97-8.17.3-10.87-.65-2.64-9.96-13.97-12.41-16.94-8.69-10.55-19.25-19.94-27.32-31.1-3.69-5.43-13.27,4.47-13.24-2.75.02-5.03,38.23-35.88,44.8-40.34,4.79-1.28,10.81,11.48,16.32,11.82Z" fill="#644931"/>
        <path d="M885.2,401.33c-.5.85-15.72,10.46-17.08,9.48-2.19-7.04,4.8-9.51,3.71-17.56-.5-3.67-8.3-21.14-12.12-20.75-1.3.13-21.72,12.63-22.02,13.9-.35,1.48,5.67,11.56,7.09,12.57,3.06,2.18,17.45.19,8.64,7.12-1.86,1.46-11.75,8.62-13.19,9.38-8.04,4.25-2.68-8.23-2.95-11.65-.15-1.86-4.5-12.81-5.87-13.03-2.63-.41-26.37,13.75-26.92,15.59-1.38,4.61,13.53,21.73,18.54,23.62,3.28,1.24,7.21.78,10.54,2.08,2.41,3.41-14.61,10.37-16.6,13.23l-30.58-51.68c-2.13-1.76-3-10.35.72-8.7,3.03,1.34,2.55,6.16,9.33,4.1l49.52-28.87c9.59-6.77-.3-9.66,6.87-15.68,7.37,10.43,14.52,21.15,20.81,32.28,1.99,3.52,12.83,22.43,11.55,24.6Z" fill="#634831"/>
        <path d="M718.07,791.86c-6.89.62-12.33-4.07-19.25-4.07-6.56,0-11.93,3.58-17.92,5.42l11.92,27.3c1.36.82,9.87-4.37,11.38-6.01,4.3-4.68,1.8-9.66,6.58-13.31,1.28.02,11.57,20.61,12.04,22.49,2.43,9.66-8.14-.31-8.73-.58-4-1.84-16.22.92-17.95,4.56-1.22,2.56,10.82,23.21,11.45,27.85,2.09,1.53,20.19-7.42,22.47-9.83,6.21-6.55,1.43-14.72,7.27-20.58,2.45,0,6.7,17.6,8.31,20.61l-58.67,28.42c-6.4-5.69,3.63-4.93,2.96-12.21-.59-6.4-13.21-32.84-16.77-40.4-2.09-4.43-7.82-19.19-11.82-20.17-2.29-.56-10.3,3.18-8.28-3.44.85-2.8,47.91-18.89,53.75-23.28,3.21.06,13.58,14.92,11.25,17.24Z" fill="#634931"/>
        <path d="M474.02,216.67c-.4-.18-3.73-4.72-6.44-6.11-5.57-2.86-23.61-3.99-25.56,1.96-.46,1.39,6.8,27.38,7.99,28.23,3.28,2.34,13.52-4.41,15.09-7.89,1.18-2.62,2.76-14.92,7.46-4.72.64,1.4,6.5,22.65,6.55,23.88.04.97-3.21,1.91-4.05,1.53-1.77-.8-2.9-4.96-4.51-6.14-4.04-2.94-13.04-.78-17.48,1.36-.93,1.16,7.55,26.7,8.86,28.49,3.5,4.77,12.94-1.4,11.82,7.39-5.2,0-31.59,10.84-33.65,10.43-7.89-1.6,1.57-7.01,2.51-9.12,2.5-5.65-15.72-53.57-17.91-63.08-1.97-8.02-9.93-3.26-11.99-9.23l57.59-17.74c3.34,2.7,11.83,19.03,6.76,21.05-1.1.09-2.01.19-3.07-.29Z" fill="#654a32"/>
        <path d="M635.74,805.16c-1.1,3.86,7.87,19.98,1.99,21.22-1.96.41-10.93-10.49-16.19-11.67-3.09-.69-19.75-.63-20.4,1.84l4.09,29.75c4.37-1.21,11.17-1.53,14.53-4.72,3.54-3.36,2.68-13.13,8.1-9.31,1.57,1.11,3.89,24.48,3.9,28.61-6.12,1.25-4.72-4.18-6.53-7.07-2.74-4.37-14.2-1.16-18.69-.89,3.17,10.85-.89,34.64,15.95,31.87v5.3c-8.27-2.11-30.44,6.41-36.41,5.14-1.75-.37-2.58-2.77-2.06-4.43.9-2.86,7.75-.3,8.06-9.33.33-9.57-4.77-42.62-7.17-52.72-1.93-8.08-3.24-11.43-12.88-10.36.25-1.37-.43-4.63.1-5.21,2.15-2.38,56.02-6.64,63.61-8.04Z" fill="#644a32"/>
        <path d="M550.78,834.34c-7.45-.02-7.4-10.64-14.11-14.42-2.6-1.47-19.1-5.53-20.41-4.17.86,5.24-4.27,27.46-2.46,30.36,1.69,2.7,15.61,2.05,18.29-1.92,1.7-2.5.56-8.9,5.49-5.27,3.26,2.4-1.87,22.18-.08,27.3-7.81,1.18-4.13-1.76-6.28-6.32-2.45-5.17-12.48-6.1-17.59-5.62.78,10.65-8.33,29.87,4.91,34.19,3.75,1.83,2.35,4.94-1.96,4.78-7.71-.27-20.87-2.07-28.78-3.26-2.32-.35-6.18-1.89-6.01-4.53.18-2.93,7.43.68,10.23-6.99,3.03-8.3,4.8-29.73,5.66-39.48.44-4.98,1.96-16.9,1.05-20.95-1.77-7.84-9.58-3.67-7.67-11.56l59.82,7.21c3.65,2.54-1.61,16.13-.09,20.66Z" fill="#664b33"/>
        <path d="M335.41,729.81c11.22-.94,21.61,3.17,30.19,10.24,8.14,6.7,11.95,16,20.53,21.94-2.81,1.83-10.31,15.26-12.59,15.24-4.85-.02-1.83-9.92-1.87-12.58-.2-11.87-13.14-23.3-24.68-23.35-23.62-.1-47.04,37.27-31.22,56.55,3.28,3.99,14.14,10,19.27,9.97,3.06-.01,15.79-5.91,16.58-2.01.22,1.09-13.16,13.53-14.12,13.71-3.32.64-22.79-11.44-26.33-14.43-30.17-25.4-13.9-72.11,24.25-75.3Z" fill="#654a32"/>
        <path d="M646.3,198.47c1.91,8.44-3.66,3.57-8.33,6.45-5.03,3.1-13.88,55.47-16.59,64.38,7.42,6.01,19.67,8.21,28.12,3.24,3.37-1.98,6.84-8.62,10.8-7.77,2.6.56,1.23,2.45,1.04,3.63-1.02,6.26-5.91,12.41-7.14,18.78l-62.25-13.13c-1.93-9.63,6.48-1.6,10.73-9.85,2.77-5.38,13.7-51.96,14.22-58.93.19-2.51.3-3.84-1.18-6.09-1.85-2.82-7.64-2.98-6.49-5.43,1.2-2.57,4.83-2.12,7.12-1.91,9.34.83,20.27,6.1,29.96,6.63Z" fill="#624831"/>
        <path d="M577.34,187.76c.73-.07,3.1-2.41,5.31-1.34-.71,3.24,5.82,26.63.67,26.54-1.48-.03-5.15-7.66-6.59-9.31-4.02-4.59-18.85-11.03-23.28-6.59-1.25,21.75-1.25,42.11,0,61.07,2.34,6.56,1.88,10.45,10.62,9.3.22,1.39-.39,3.02-1.32,3.98-11.5.73-23.01,1.06-34.54.99-1.79-.29-3.17-1.83-2.64-3.64,2.62-2.19,6.11-1.43,7.68-2.95.27-.26,2.94-6.63,2.94-7.01v-61.07c0-5.81-18.23,1.72-21.95,5.93-3.59,4.06-5.98,15.88-10.69,7.41l2.12-18.64c.18-.66.72-.73,1.32-.67.46,1.13.89.05,1.3-3.25,21.85,2.16,47.78,3.54,69.07-.74Z" fill="#644a32"/>
        <path d="M737.94,234.29c4.43,6.71-9.38,2.94-10.63,6.23-7.92,15.51-17.7,30.62-24.78,46.53-1.95,4.38-5.82,10.38-3.7,14.87.42.89,8.98,8.02,2.62,9.32-1.82.37-28.73-15.27-32.5-17.94.82-5.87,5.57-1.54,8.37-2.18,3.55-.8,15.41-24.88,17.99-29.86s14.14-25.99,14.61-29.34c.73-5.17-9.24-7.16-3.11-12.29,3.77,2.68,30.17,13.24,31.12,14.68Z" fill="#634931"/>
        <path d="M423.28,304.53c-6.1.37-28.97,16.88-32.45,16-5.12-1.29,1.24-6.05,1.7-7.57,2.15-7.04-6.64-21.05-10.13-27.84-3.45-6.73-14.68-28.53-18.79-32.99-5.27-5.73-10.87-1.06-11.98-1.97-.16-.13-1.05-3.43-.74-3.99,1.07-1.89,28.42-16.46,30.55-15.91,5.65,1.44-3.28,7.48-2.96,11.05.14,1.57,2.55,5.26,3.47,7.09,8.63,17.14,20.48,33.21,29.36,50.29,4.36,5.18,12.77-3.78,11.98,5.85Z" fill="#644a32"/>
        <path d="M379.06,380.42l121.04,25.98c5.22.45,6.34,7.51.86,8.44l-119.88-26.17c-4.54.08-6.21-6.88-2.02-8.24Z" fill="#644a32"/>
        <path d="M577.34,187.76c3.33,2.02-6.85,2.7-7.25,2.71-17.43.62-37.11.57-54.56.01-5.05-.16-8.16-4.09-7.26,2.62-.61-.18-1.1-1.34-1.3-1.36-.25-8.33,4.43-2.82,9.89-2.59,17.19.71,43.39.24,60.47-1.39Z" fill="#3e200a"/>
        <path d="M553.44,258.13c-.02.83.64,5.55-1.33,3.32,1.23-19.43-1.6-40.67-.07-59.86.17-2.16-.36-2.76,1.41-4.53-.38,20.32.52,40.76,0,61.07Z" fill="#371903"/>
        <path d="M525.56,268.75c1.26,2.52,1.84,2.56,4.52,2.75,10.54.73,22.01-.72,32.65-.09-3.66,3.75-28.6-.67-35.27,2.21-1.55-1-3.89-3.21-1.91-4.87Z" fill="#341604"/>
        <path d="M564.06,580.76v59.75c-7.03,10.65-45.41,16.71-57.17,9.85l4.24-52.16,52.93-17.44Z" fill="#f7f0e3"/>
        <path d="M573.91,477.25c3.72.36,7.55-.53,11.25.09.54,5.13,4.21,19.62,1.57,23.19l-65.81,27.12,4.65-50.45c6.4-.34,12.94.41,19.34.04h28.99Z" fill="#f7f0e3"/>
        <path d="M564.06,526.32c1.11,12.59,1.11,26.67,0,39.83-15.57,4.76-33.03,14.85-48.62,18.45-2.53.58-1.62-.03-1.84-1.83l4.3-40.2c14.88-5.92,31.43-10.32,46.16-16.25Z" fill="#f7f0e3"/>
        <path d="M581.01,398.25l2.31,44.18c-7.66-.66-15.2-.3-22.59-.4-1.76-.02-3.03-1.38-3.21-1.38l-.81-3.03,10.01-13.26c0-.95-9.73-15.8-10.63-15.52-1.23.38-14.62,17.81-7.25,19.82,4.52,4.37,6.54,8.37,6.03,12-.17,0-1.46,1.39-3.21,1.38-7.78-.03-15.58-.09-23.35-.06v-43.71" fill="#f7f1e4"/>
        <path d="M574.68,377.64l-38.49,2.62c2.85-2.35,16.99-12.76,19.24-12.79,3.43-.05,14.53,9.55,19.25,10.17Z" fill="#f7f3eb"/>
        <path d="M582.65,453.3c-22.99-.15-46.05.11-69.04,0h69.04Z" fill="#3a1c06"/>
        <path d="M564.06,640.5v-59.75,59.75Z" fill="#341704"/>
        <path d="M306.16,299.53c16.63-3.29,24.48,24.79,7.55,32.9l-21.72-22.04c-.6-3.42,11.12-10.25,14.17-10.85Z" fill="#f8f1e4"/>
        <path d="M290.43,435.94l-60.37-26.4c11-50,87.06-16.35,60.37,26.4Z" fill="#f7f1e4"/>
        <path d="M442.79,797.62c12,12.04,2.07,40.99-6.94,52.57-13.69,17.6-39.78,8.29-39.16-13.87.55-19.81,24.3-60.59,46.1-38.7Z" fill="#f8f1e3"/>
        <path d="M555.52,441.02c-2.19-1.83-12.59-16.11-12.48-17.35.2-2.49,11.39-19.53,13.72-19.52,1.15,0,12.3,18.33,12.4,19.48.19,2.07-10.3,15.09-12.61,17.38-.89,0-.14,0-1.02,0Z" fill="#61462f"/>
      </g>
    </g>
    <path d="M599.25,453.25h-83.58c-.69,0-1.1.77-.72,1.35l8.33,12.34c.16.24.43.38.72.38h67.79c.3,0,.58-.16.74-.42l7.46-12.34c.35-.58-.07-1.31-.74-1.31Z" fill="#f7f2e8"/>
    <path d="M378.03,459.64l121.04-25.98c5.22-.45,6.34-7.51.86-8.44l-119.88,26.17c-4.54-.08-6.21,6.88-2.02,8.24Z" fill="#644a32"/>
    <path d="M729.99,380.73l-121.04,25.98c-5.22.45-6.34,7.51-.86,8.44l119.88-26.17c4.54.08,6.21-6.88,2.02-8.24Z" fill="#644a32"/>
    <path d="M731.02,459.94l-121.04-25.98c-5.22-.45-6.34-7.51-.86-8.44l119.88,26.17c4.54-.08,6.21,6.88,2.02,8.24Z" fill="#644a32"/>
  </g>
</svg>