<?xml version="1.0" encoding="UTF-8"?>
<svg id="Layer_1" xmlns="http://www.w3.org/2000/svg" xmlns:xlink="http://www.w3.org/1999/xlink" version="1.1" viewBox="0 0 1080 1080">
  <!-- Generator: Adobe Illustrator 30.0.0, SVG Export Plug-In . SVG Version: 2.1.1 Build 123)  -->
  <defs>
    <style>
      .st0 {
        fill: url(#linear-gradient2);
      }

      .st1 {
        fill: url(#linear-gradient1);
      }

      .st2 {
        fill: url(#linear-gradient3);
      }

      .st3 {
        fill: url(#linear-gradient6);
      }

      .st4 {
        fill: url(#linear-gradient7);
      }

      .st5 {
        fill: url(#linear-gradient5);
      }

      .st6 {
        fill: url(#linear-gradient4);
      }

      .st7 {
        fill: url(#linear-gradient);
      }

      .st8 {
        fill: #fff;
      }

      .st9 {
        fill: #f8e9ff;
      }
    </style>
    <linearGradient id="linear-gradient" x1="243.66" y1="467.06" x2="1250.64" y2="398.46" gradientUnits="userSpaceOnUse">
      <stop offset="0" stop-color="#d9ceff"/>
      <stop offset="1" stop-color="#f7931e"/>
    </linearGradient>
    <linearGradient id="linear-gradient1" x1="424.38" y1="401" x2="1230.19" y2="378.91" xlink:href="#linear-gradient"/>
    <linearGradient id="linear-gradient2" x1="265.55" y1="279.29" x2="938.8" y2="297.9" xlink:href="#linear-gradient"/>
    <linearGradient id="linear-gradient3" x1="264.87" y1="303.86" x2="938.13" y2="322.46" xlink:href="#linear-gradient"/>
    <linearGradient id="linear-gradient4" x1="264.99" y1="299.62" x2="938.24" y2="318.23" xlink:href="#linear-gradient"/>
    <linearGradient id="linear-gradient5" x1="263.38" y1="357.86" x2="936.63" y2="376.46" xlink:href="#linear-gradient"/>
    <linearGradient id="linear-gradient6" x1="263.57" y1="350.86" x2="936.83" y2="369.47" xlink:href="#linear-gradient"/>
    <linearGradient id="linear-gradient7" x1="250.52" y1="567.62" x2="1257.49" y2="499.02" xlink:href="#linear-gradient"/>
  </defs>
  <g>
    <path class="st7" d="M321.35,213.72c9.91-10.32,23.91-16.69,38.11-18.37h304.08c30.46,2.12,53.36,27.83,56.49,57.44v399.68c-2.73,24.76-19.98,43.26-44.01,48.94-105.89,3.44-212.43.46-318.57,1.51-29.9-2.2-51.46-23.53-53.5-53.45V253.79c1.48-14.7,7.08-29.34,17.39-40.07ZM702,428.16v-177.33c0-6.71-8.9-21.27-13.99-25.98-12.12-11.22-20.24-11.08-35.46-11.43-49.36-1.14-98.63.31-148.11-.01l-139.66-.77c-16.6-1.26-42.78,21.15-42.78,37.2v178.33h104c3.53-48.54,44.45-81.72,92.55-78.97,41.16,2.35,77.52,37.52,79.45,78.97h104ZM581,428.16c-6.02-42.69-47.43-70.54-89.52-57.96-24.98,7.47-46.11,31.45-47.48,57.96h137ZM416.35,484.46c-57.11,54.49-53.84,147.89,5.67,198.94l176.54.58c1.6.2,2.65-.23,3.99-1.01,1.72-.99,10.03-9.88,11.96-12.03,52.71-58.9,43.81-151.04-20.18-197.65-52.79-38.45-130.57-34.06-177.98,11.17Z"/>
    <path class="st1" d="M581,428.16h-137c1.37-26.5,22.5-50.49,47.48-57.96,42.09-12.58,83.5,15.27,89.52,57.96Z"/>
    <path class="st0" d="M510.76,242.54c7.02-1.01,9.7,4.12,10.27,10.25,1.51,16.16,1.56,50.87-.05,66.96-1.21,12.1-13.29,13.49-17.04,3.06,2.06-23.09-2.57-50.43.03-73,.48-4.17,2.54-6.66,6.79-7.27Z"/>
    <path class="st2" d="M418.66,270.67c1.57-.05,3.09.49,4.58.89l39.98,62.97c3.55,9.2-7.5,16.15-14.21,9.2-10.17-19.88-28.27-40.7-37.4-60.53-2.9-6.29-.23-12.28,7.05-12.53Z"/>
    <path class="st6" d="M604.78,270.53c6.74-.26,10.21,6.61,7.44,12.5l-37.2,60.74c-9.13,7.15-19-.92-13.2-11.19l36.72-59.23c1.09-1.7,4.29-2.75,6.24-2.82Z"/>
    <path class="st5" d="M422.68,384.89c-2.2,2.4-6.47,3.12-9.4,1.53l-62.63-36.33c-6.68-6.8-1.17-17.23,8.38-14.37l64.43,38.53c2.52,2.82,1.62,8.03-.78,10.64Z"/>
    <path class="st3" d="M674.71,348.96l-64.69,37.79c-8.81,2.66-13.62-8.61-7.37-14.38l61.63-36.32c8.52-3.51,14.57,5.38,10.43,12.92Z"/>
    <path class="st4" d="M463.37,611.37c8.45-8.33,17.09-16.64,25.62-24.91.78-.76,2.59-1.28,2.8-1.64.86-1.45-.97-7.53-.87-10.3.28-7.75,5.66-13.64,12.09-17.18l.04-82.66c1.4-8.44,16.5-10.37,17.96,1.92,3.04,25.5-3.08,56.33.9,82.02,17.78,11.39,10.48,38.01-10.53,39.29-2.44.15-4.96-1.91-7.37-.4l-37.97,37.01c-4.83,1.51-9.56.43-11.92-4.17-4.25-8.27,4.1-13.9,9.24-18.97Z"/>
  </g>
  <path class="st8" d="M266.94,928.05h61.55v-41.8c0-5.05-5.95-13.89-11.93-13.34v-2.73s45.01,0,45.01,0v2.74c-6.35.16-10.86,5.58-11.86,11.58,1.6,31.7-2.41,65.93-.12,97.33.35,4.76,1.6,10.61,6.12,13.17,2.16,1.22,6.08.5,5.86,3.79h-45.93c2.18-3.81,6.04-2.21,9.19-5.97,1.34-1.59,3.67-7.37,3.67-9.19v-49.15h-61.55v49.15c0,3.78,3.47,9.58,6.84,11.54,1.9,1.1,5.42.57,5.11,3.62h-45.93c2.47-3.74,6.95-3.17,9.61-7.39,1.82-2.89,2.13-6.26,2.37-9.57,2.27-30.83-1.77-64.44-.05-95.57-.33-4.52-2.71-9.29-6.45-11.92-1.97-1.38-5.69-1.14-5.47-4.17h44.55l.93,1.84c-2.78,1.9-5.96,2.85-8.07,5.72-.94,1.28-3.43,7.34-3.43,8.51v41.8Z"/>
  <path class="st9" d="M464.44,856.39l-1.37-2.28c6.97-2.76,10.25-7.24,11.01-14.72-1.94-30.29,2.62-63.83.04-93.72-.4-4.7-1.9-10.54-5.6-13.69-2.56-2.18-6.34-1.51-5.46-5.11,17.43.67,35.51-.89,52.87-.05,14.25.69,28.85,2.37,39.02,13.34,19.81,21.37,5.3,52.11-21.15,57.89,11.55,13.35,19.88,31.85,31.26,44.99,4.03,4.65,9.03,9.51,15.54,9.73l.06,3.61-32.68-.85-37.6-56.1h-14.24v41.8c0,5.31,6.25,12.46,11.94,12.41.53.71-.88,2.75-1.38,2.75h-42.26ZM511.3,732.37c-4.87-.43-10.23.31-15.16,0v60.63h16.08c2.21,0,10.6-1.78,12.9-2.72,18.06-7.37,21.84-39.62,6.39-51.47-4.83-3.71-14.21-5.91-20.21-6.43Z"/>
  <path class="st8" d="M675.74,998.79c.66-3.44,5.5-3.6,7.67-6.66,2.32-3.26,2.55-7.45,3.34-11.26-1.36-28.91,1.85-59.51.06-88.22-.47-7.48-.77-12.16-6.45-17.43-2.33-2.16-5.45-1.43-4.62-5.03,20.08.65,41.04-1.28,60.98,1.03,23.13,2.69,39.91,14.39,37.31,39.83-1.62,15.85-16.29,25.98-31.22,27.57l34.93,49.58c1.99,2.34,4.35,4.32,7.04,5.82,2.83,1.58,7.49,1.65,7.63,4.77h-33.53l-38.6-56.94-12.39-.93v43.64c0,3.33,4.26,9.48,7.41,10.96,2.01.95,5.73-.17,5.45,3.28h-45.01ZM707.89,935.4h16.99c3.82,0,13.68-3.65,16.94-6.03,12.02-8.78,12.46-34.25,2.81-44.95-8.68-9.63-25.14-7.13-36.74-8.73v59.71Z"/>
  <path class="st8" d="M444.98,867.68c44.77-1.25,80.16,38.51,69.2,82.99-13.89,56.37-90.98,68.69-124.51,22.31-31.84-44.05,2.97-103.84,55.31-105.3ZM439.46,874.12c-55.88,5.35-53.13,129.56,19.86,119.99,51.79-6.79,43.45-126.05-19.86-119.99Z"/>
  <path class="st9" d="M300.93,726.86l5.97,28.47c-1.57.2-2.04.15-3.19-.93-1.69-1.58-4.79-8.25-7.36-11.01-4.96-5.35-14.67-11.01-22.06-11.01h-30.32l-1.18,1.38c-.03.37.72.69.72.92v51.44c0,.32-1.63,1.02.46,2.3h21.13c2.6,0,10.03-2.54,12.34-4.2,4.46-3.19,4.63-7.18,7.19-11.16.58-.9-.11-1.63,2.06-1.18v39.5c-3.37-.42-3.81-5.77-5.67-8.57-2.28-3.44-10.1-8.88-14.08-8.88h-22.97l-1.18,1.38c-.03.37.72.69.72.92v52.36c0,.28-1.16.7-.92,1.38h37.21c6.91,0,18.08-9.11,22.48-14.27,1.05-1.23,6.81-11.22,8.29-9.61l-6.43,30.31h-92.32l-1.37-2.28c6.96-2.66,10.24-6.13,11.01-13.8,3.07-30.68-2.3-66.2.05-97.4-.12-3.27-1.65-7.54-3.84-9.94-2.5-2.73-6.79-2.52-7.22-6.1h90.49Z"/>
  <path class="st8" d="M573.31,870.18l.93,1.84c-8.18,3.05-11.53,7.25-12.41,16.08-1.83,18.37-1.44,53.91-.04,72.6,3.13,41.81,71.11,41.33,75.25-.15,2.32-23.19-1.41-49.73,0-73.28-.95-5.96-2.84-9.95-8.26-12.87-2.63-1.42-6.41-.1-5.42-4.23h34.91v2.74c-10.74,1.09-13.13,8.36-13.82,17.89-1.56,21.68,1.67,45.47.07,67.13-4.5,61.04-98.65,53.93-102.91,6.38-2.05-22.86,1.62-48.58.02-71.68-.63-9.07-2.22-18.42-12.89-19.74v-2.73s44.55,0,44.55,0Z"/>
  <path class="st9" d="M452.96,856.39h-47.31l-.49-3.24c12.51-1.52,16.26-3.01,14.62-16.41-4.47-36.6-58.43-42.96-76.64-10.7-5.84,10.34-7.06,25.83,7.83,26.69v3.66s-36.74,0-36.74,0c-.79-3.85,3.01-3.52,5.28-5.28,5.69-4.41,10.23-12.2,13.57-18.58,16.59-31.75,26.9-71.08,43.74-102.33.53-.99.81-2.12,1.71-2.88,3.24-.43,11.82-1.64,13.71,1,13.21,32.47,27.34,64.56,40.94,96.85,3.16,7.49,5.98,21.66,13.37,26.13,2.92,1.77,7.15.73,6.4,5.09ZM376.7,747.99l-26.63,59.7c.91.73,10.18-4.78,12.37-5.54,12.86-4.45,26.73-3.7,39.07,1.87l-24.81-56.03Z"/>
  <path class="st9" d="M721.2,726.86v2.75c-8.68-.17-8.58,6.28-5.97,12.86l36.75,55.1c7.31-11.32,15.04-22.5,21.97-34.05,6.03-10.05,23.02-32.56.53-33.92v-2.75h40.43c-.88,3.35-6.61,3.86-10.04,6.03-17.72,11.2-36.85,56.61-51.29,73.65.78,10.94-1.91,25.86,0,36.31.42,2.3,2.59,6.08,4.34,7.61,2.6,2.28,8.97,2.52,5.1,5.93h-41.34l-1.37-2.28c2.26-2.1,5.43-1.93,7.73-4.22,7.26-7.2,3.42-33.89,3.79-44.06-15.73-18.79-32.77-62.41-53.16-74.53-2.56-1.52-6.18-.48-5.22-4.43h47.77Z"/>
  <path class="st9" d="M638.53,726.86c.44,2.16-.26,1.48-1.18,2.06-2.19,1.39-4.14,1.45-6.18,3.9-.79.95-3.66,6.62-3.66,7.36v110.7c.67.24,1.1-.92,1.38-.92h30.32c8.74,0,22.01-12.18,26.93-19,2.06-2.86,3.86-7.58,5.62-9.82.84-1.07,1.73-.49,2.81-.57l-6.89,35.82h-91.86l-1.37-2.28c6.2-2.92,10.19-5.43,11.02-12.87-2.11-31.73,2.8-67.04.03-98.33-.52-5.88-2.6-8.69-6.93-12.36-1.41-1.2-4.56-.96-4.13-3.67h44.09Z"/>
</svg>