<?xml version="1.0" encoding="UTF-8"?>
<svg id="Layer_1" xmlns="http://www.w3.org/2000/svg" xmlns:xlink="http://www.w3.org/1999/xlink" version="1.1" viewBox="0 0 1080 1080">
  <!-- Generator: Adobe Illustrator 30.0.0, SVG Export Plug-In . SVG Version: 2.1.1 Build 123)  -->
  <defs>
    <style>
      .st0 {
        fill: url(#linear-gradient2);
      }

      .st1 {
        fill: url(#linear-gradient1);
      }

      .st2 {
        fill: url(#linear-gradient9);
      }

      .st3 {
        fill: url(#linear-gradient3);
      }

      .st4 {
        fill: url(#linear-gradient6);
      }

      .st5 {
        fill: url(#linear-gradient8);
      }

      .st6 {
        fill: url(#linear-gradient7);
      }

      .st7 {
        fill: url(#linear-gradient5);
      }

      .st8 {
        fill: url(#linear-gradient4);
      }

      .st9 {
        fill: url(#linear-gradient10);
      }

      .st10 {
        fill: url(#linear-gradient);
      }
    </style>
    <linearGradient id="linear-gradient" x1="396.17" y1="405.43" x2="1023.44" y2="414.56" gradientUnits="userSpaceOnUse">
      <stop offset="0" stop-color="#fff"/>
      <stop offset="1" stop-color="#e6e6e6"/>
    </linearGradient>
    <linearGradient id="linear-gradient1" x1="99.7" y1="773.92" x2="1412.49" y2="734.39" xlink:href="#linear-gradient"/>
    <linearGradient id="linear-gradient2" x1="101.2" y1="823.73" x2="1413.99" y2="784.2" xlink:href="#linear-gradient"/>
    <linearGradient id="linear-gradient3" x1="101.32" y1="827.59" x2="1414.11" y2="788.05" xlink:href="#linear-gradient"/>
    <linearGradient id="linear-gradient4" x1="100.47" y1="799.32" x2="1413.26" y2="759.79" xlink:href="#linear-gradient"/>
    <linearGradient id="linear-gradient5" x1="100.8" y1="810.57" x2="1413.59" y2="771.03" xlink:href="#linear-gradient"/>
    <linearGradient id="linear-gradient6" x1="100.89" y1="813.27" x2="1413.68" y2="773.73" xlink:href="#linear-gradient"/>
    <linearGradient id="linear-gradient7" x1="395.15" y1="475.52" x2="1022.42" y2="484.64" xlink:href="#linear-gradient"/>
    <linearGradient id="linear-gradient8" x1="159.56" y1="585.55" x2="1001.42" y2="598.34" xlink:href="#linear-gradient"/>
    <linearGradient id="linear-gradient9" x1="395.49" y1="452.03" x2="1022.76" y2="461.16" xlink:href="#linear-gradient"/>
    <linearGradient id="linear-gradient10" x1="397.36" y1="323.86" x2="1024.62" y2="332.98" xlink:href="#linear-gradient"/>
  </defs>
  <g id="hMjgkv">
    <g>
      <path class="st10" d="M411,157v-16.5c0-.6,2.66-3.93,3.48-4.52,5.17-3.73,17.25.03,23.29,1.76,51.35,14.73,79.73,63.03,83.23,114.27,19.51.73,37.46,8.84,52.02,21.48,13.66,11.86,21.73,28.04,33.48,41.52,2.46,2.83,5.58,4.27,7.93,7.07,4.96,5.89,5.98,13.68,7.59,20.92,4.38-1.41,16.88-6.58,19.91-2.41,6.87,9.44-19.19,9.01-20.93,13.13-.3.71-1,4.78-.58,5.32,5.47,1.68,14.58,2.83,10.68,10.56-2.46,3.09-11.37.23-15.13,1.86-8.46,19.43-23.76,34.28-42.94,43.04,9.49,9.19,16.69,24.91,28.64,31.34,23.34,12.57,49.13-9.22,68.87-19.83,2.67-12.66-7.01-9.1-14.03-14-17.38-12.13-17.7-44.97.15-55.86,9.91-6.05,23.28-10.64,34.03-16.97,17.55-10.35,36.13-25.09,50.35-39.65,8.38-8.58,24.5-32.75,35.54-34.46,12.8-1.99,23.05,8.73,29.66,18.22,21.02,30.15,39.51,114.48,21.96,147.4-13.14,24.65-40.89,3.18-58.93-3.43-20.69-7.58-42.28-12.17-64.24-14.25.8,1.63.58,5.84,1.19,6.8.37.58,9.75,4.6,12.14,6.36,21.8,16.07,20.71,53.98-3.65,66.01-9.14,4.51-20.47.96-23.65,2.29-1.05.44-3.16,3.4-4.55,4.5-14.44,11.41-27.91,20.6-45.71,26.29-17.12,5.47-36.53,8.26-54.27,4.7-2.39.19-4.24,5.19-5.31,7.35,10.12,20.06,15.55,61.39,38.44,70.55,9.45,3.78,18.04,3.52,27.1,9.9,16.72,11.78,24.27,40.32,5.21,53.67-12.41,8.68-47.07,4.61-61.2-.68-4.7-1.76-13.04-7.77-16.45-8.55-6.56-1.5-17.27,3.27-24.28-.21.08,6.87-4.17,13.66-11.51,14-45.82-3-96.77,4.02-141.98-.01-19.48-1.74-37.72-13.63-49.22-29.01-46.29,2.66-80.76-39.43-69.22-84.4,5.79-22.57,26.03-36.99,48.91-27.57,9.32-38.66,33.94-67.92,63.54-92.98,12.21-10.33,27.95-18.77,35.33-33.67s.92-16.18-3.34-28.38c-9.33-26.69-6-54.57,5.47-79.94-41.58-21.34-76.02-60.92-87.7-106.83-5.59-21.94-12.18-67.56,24.52-58.52,16.09,3.96,32,14.1,46.2,22.3ZM356,156v15.5c0,2.53,2.49,11.53,3.28,14.72,10.19,41.08,36.88,70.69,70.8,94.2,4.76,3.3,18.95,9.71,20.48,14.54s-4.25,11.75-6.42,16.69c-9.93,22.59-8.48,54.06,4.44,75.28,2.81,4.62,13.03,15.03,13.42,18.67.99,9.4-10.1,7.96-15.96,5.41-8.81,23.43-31.76,35.44-49.51,51.03-44.82,39.35-69.36,96.58-44.01,154.96,6.73,15.5,26.5,40.01,44.99,40.01h102.5c1.76-6.37-9.25-13.95-3.96-18.46,8.85-7.53,17.06,12.88,20.95,17.96l14,.49c-7.17-27.31-24.7-33.36-51.05-28.55-6.65,1.21-35.79,13.94-32.77-.72.84-4.09,14.15-12.33,17.87-16.19,30.54-31.66,15.18-93.11-33.51-96.59-5.78-.41-28.3,2.97-22.31-9.2,5.46-11.09,31.42-9.78,41.55-7.03,43.5,11.79,59.33,69.4,41.22,107.27l9.41-9.08c6.11-8.75,9.62-17.87,10.2-28.59.27-4.93-3.17-16.91,4.35-18.9,5.47-1.45,9.81,7.06,12.21,10.9,17.66,28.33,21.29,58.23,48.82,81.18,5.37,4.48,24.04,15.49,30.51,15.49h16.5c.22-5-8.31-11.65-5.09-15.59,5.35-6.55,17.71,9.63,20.59,13.57,4.33-3.86,2.16-10.47-.1-14.88-6.63-12.95-25.09-12.07-36.72-19.28-24.76-15.36-31.51-61.42-43.82-87.18-7.49-15.68-18.79-25.46-26.27-38.73-5.13-9.09-2.96-20.86,8.35-13.35,12.51,8.32,20.58,22.15,28.83,34.13.61.88-.16,1.85,2.22,1.3,9.34-22.54,9.34-48.41-.81-70.67-2.08-4.55-13.39-23.09-17.19-24.81-4.16-1.88-15.22.32-21.05-.95-5.05-1.09-10.51-6.2-5.95-11.1,2.88-3.09,23.36-6.23,30-8.99,5-2.07,10.29-4.98,14-8.98-6.14-4.04-13.54-6.77-17.98-13-3.37-4.73-5.45-12.43,2.53-12.55,5.85-.09,4.91,3.72,7.81,6.71,3.58,3.7,15.84,9.04,20.63,6.83,5.03-2.32,9.58-12.75,13-16.99-18.71-9.75-25.38-24.37,2.51-24.49.95-.07.6-1.7.35-2.35-.94-2.48-11.16-11.01-13.82-14.18-6.86-8.18-11.76-18.05-19-26-21.12-23.19-53.09-29.32-83.04-21.98-3.86.94-11.43,5.36-14.36,3.42s-7.43-17.13-9.46-21.58c-15.58-34.07-37.01-65.55-69.26-85.74-10.64-6.67-22.24-12.39-34.92-13.58ZM783,412.99c-10.41-23.72-18.43-49.55-20.99-75.5-.95-9.66-.5-19.36-1.01-29.01-.06-1.13.65-2.75-.99-2.48-4.05,6.27-10.82,12.84-16.49,18.02-13.83,12.62-30.17,24.85-46.46,34.07l6.94,37.91c11.82-1.99,25.46.84,37.18,3.3,14.45,3.03,28.29,7.91,41.81,13.68ZM789.01,375c21.23-6.16,15.5-40.04-8.01-35.99l8.01,35.99ZM709.66,470.66c7.12-7.17,8.99-26.4-2.09-30.74-6.11-2.39-17.59-1.16-18.36,6.81-.62,6.39,5.34,6.33,5.83,9.82.74,5.34-9.35,10.11,0,15.89,4.54,2.81,10.86,1.99,14.61-1.79ZM596,512h15.5c6.84,0,25.31-5.98,32.18-8.82,5.69-2.36,32.93-16.98,33.24-22.6l-3.93-34.58c-21.43,14.2-48.73,28.79-74.98,20,2.41,15.18.84,30.94-2,45.99ZM335,624.99c-7.45-17.71-10.46-36.41-11.98-55.51-.59-7.38,2.54-13.17-6-17-18.65-8.35-21.09,22.14-19.99,33.99,1.86,20.12,17.84,36.59,37.98,38.51Z"/>
      <path class="st1" d="M225,751h40.5c3.83,0,5.01-6.66,5.12-9.67.39-11.11-1.28-23.41-.64-34.87.3-5.41.54-14.38,6.28-16.69,3.09-1.25,21.3-1.3,25.18-.7,4.98.77,6.46,4.79,6.6,9.4-3.22,45.71,4.15,97.04,0,142.09-.33,3.6-1.22,6.57-4.81,8.19-4.01,1.8-19.9,1.84-24.64,1.17-5.08-.72-7.03-3.39-7.62-8.38-1.56-13.2,1.02-29.43.06-43.06-.17-2.38-.94-9.27-2.45-10.54-1.55-.94-3.29-1.29-5.07-1.38-4.19-.22-34.95.02-36.53.95-1.39.82-1.83,3.45-2.01,4.99-1.66,14.61,1.43,32.24.06,47.06-.93,10.03-6.47,9.99-15.5,10.5-8.37.47-23.25,1.16-22.58-10.5l.28-142.8c.49-3,2.77-6.4,5.71-7.29,3.06-.93,22-.98,25.34-.24,2.62.58,6.71,4.82,6.71,7.29v54.5Z"/>
      <path class="st0" d="M483,884.5c-.54,4.49-2.45,9.64-7.56,10.44-3.74.59-19.24.62-22.73-.15-2.54-.57-4.93-2.94-5.5-5.5l-.25-144.82c1.09-7.51.69-12.47,9.54-13.46,3.93-.44,16.23-.58,19.79.21,5.15,1.15,5.72,6.73,7.21,10.78,21.3-21.75,56.02-15.89,71.31,9.7,14.85,24.85,13.53,60-5.29,82.31-18.16,21.54-49.71,26.04-67.02.99-1.64.76.5,2.32.5,2.5,0,14.06,1.61,33.73,0,47ZM500.74,759.24c-25.97,4.43-25.3,56.37-.99,60.52,39.65,6.78,38.49-66.92.99-60.52Z"/>
      <path class="st3" d="M610,836v51.5c0,9.32-20.36,8.18-26.5,7.5-6.7-.75-8.14-3.43-9.24-9.76,2.45-45.4-4.15-95.96-.3-140.77.89-10.34,3.4-12.63,13.55-13.45,9.34-.75,23.36-1.01,21.49,11.99,23.84-24.57,58.96-15.71,74.51,12.98,11,20.29,10.98,47.88.34,68.38-14.74,28.38-52.48,39.12-73.86,11.64ZM628.76,759.27c-29.54,4.08-27.55,62.19,3.64,61.62,32.71-.59,31.61-66.49-3.64-61.62Z"/>
      <path class="st8" d="M369.78,729.28c85.68-9.68,89.74,118.27,12.71,123.71-78.15,5.52-84.67-115.58-12.71-123.71ZM376.79,759.2c-29.44,2.32-29.97,64.36,2.55,63.42,31.33-.9,30.35-66.01-2.55-63.42Z"/>
      <path class="st7" d="M736.5,800c-3.33.99.53,9.27,1.68,11.32,7.12,12.79,24.54,15.74,37.15,9.5,6.51-3.22,10.97-11.97,18.01-8.66,4.27,2,15.42,10.07,14.51,15.1-.98,5.43-17.09,17.21-22.49,19.6-42.12,18.57-86.52-9.8-86.36-56.36.25-70.56,93.83-84.93,109.71-19.71,1.66,6.81,4.81,23.9-2.97,27.45-.63.29-5.92,1.76-6.24,1.76h-63ZM777,775c-2.81-25.84-38.11-25.16-42,0h42Z"/>
      <path class="st4" d="M858.01,752.99l7.01-11.47c4.23-8.63,28.85-17.21,30.92-3.96.57,3.66.58,20.33-.39,23.49-2.19,7.18-10.33,4.41-15.95,5.05-8.11.93-16.12,6.02-19.48,13.52-5.33,11.91-.83,43.88-2.09,58.91-.34,4.05-.79,8.3-4.77,10.23-4.18,2.03-24.18,2.2-27.8-.74-2.51-2.04-3.27-9.13-3.51-12.49-1.75-24.33-.55-58.26.02-83.09.11-4.84.39-16.3,4.04-18.93,3.12-2.24,23-2.25,26.72-.76,7.14,2.87,4.98,14.11,5.27,20.23Z"/>
      <path class="st6" d="M596,512c2.85-15.05,4.42-30.81,2-45.99,26.25,8.79,53.56-5.8,74.98-20l3.93,34.58c-.31,5.62-27.54,20.24-33.24,22.6-6.87,2.84-25.34,8.82-32.18,8.82h-15.5Z"/>
      <path class="st5" d="M335,624.99c-20.14-1.92-36.11-18.39-37.98-38.51-1.1-11.85,1.35-42.34,19.99-33.99,8.54,3.82,5.41,9.62,6,17,1.52,19.1,4.53,37.79,11.98,55.51Z"/>
      <path class="st2" d="M709.66,470.66c-3.76,3.78-10.07,4.6-14.61,1.79-9.35-5.78.74-10.55,0-15.89-.49-3.49-6.45-3.43-5.83-9.82.77-7.97,12.25-9.2,18.36-6.81,11.08,4.34,9.21,23.57,2.09,30.74Z"/>
      <path class="st9" d="M508.73,309.23c21.83-4.49,26.52,36.52,1.84,32.7-15.97-2.47-16.47-29.69-1.84-32.7Z"/>
    </g>
  </g>
</svg>