<?xml version="1.0" encoding="UTF-8"?>
<svg id="Layer_1" xmlns="http://www.w3.org/2000/svg" xmlns:xlink="http://www.w3.org/1999/xlink" version="1.1" viewBox="0 0 1080 1080">
  <!-- Generator: Adobe Illustrator 30.0.0, SVG Export Plug-In . SVG Version: 2.1.1 Build 123)  -->
  <defs>
    <linearGradient id="linear-gradient" x1="579.03" y1="462.93" x2="583.25" y2="462.93" gradientUnits="userSpaceOnUse">
      <stop offset="0" stop-color="#fff"/>
      <stop offset="1" stop-color="#dce8ff"/>
    </linearGradient>
    <linearGradient id="linear-gradient1" x1="364.2" y1="421.54" x2="715.8" y2="421.54" xlink:href="#linear-gradient"/>
    <linearGradient id="linear-gradient2" x1="294.48" y1="987.18" x2="295.62" y2="901.17" xlink:href="#linear-gradient"/>
    <linearGradient id="linear-gradient3" x1="407.82" y1="988.69" x2="408.97" y2="902.68" xlink:href="#linear-gradient"/>
    <linearGradient id="linear-gradient4" x1="499.54" y1="989.91" x2="500.69" y2="903.91" xlink:href="#linear-gradient"/>
    <linearGradient id="linear-gradient5" x1="631.91" y1="991.67" x2="633.06" y2="905.67" xlink:href="#linear-gradient"/>
    <linearGradient id="linear-gradient6" x1="767.34" y1="993.48" x2="768.48" y2="907.48" xlink:href="#linear-gradient"/>
  </defs>
  <g>
    <path d="M583.25,461.28l-3.68,4.2-.22-.39c-.21-.36-.32-.77-.32-1.18v-1.12c0-2.19,2.75-3.26,4.15-1.58.01.01.02.03.04.04l.03.03Z" style="fill: url(#linear-gradient);"/>
    <g>
      <path d="M712.56,616.74l-127.51-153.3c-.94-1.13-2.68-1.16-3.65-.05l-1.83,2.09-.22-.39c-.21-.36-.32-.78-.32-1.19v-1.13c0-2.22,2.77-3.22,4.19-1.52h0s.03.03.03.03l129.07-147.19c5.1-5.81,4.52-14.66-1.29-19.75-5.82-5.1-14.66-4.52-19.76,1.29l-108.04,123.21c-1.46,1.66-4.2.63-4.2-1.58v-246.85c0-2.15-2.61-3.21-4.11-1.68l-122.53,125.31c-.44.45-.68,1.05-.68,1.68v124.1c0,1.32-1.07,2.4-2.4,2.4h-82.7c-1.32,0-2.4,1.07-2.4,2.4v20.2c0,1.32,1.07,2.4,2.4,2.4h92.31c9.82,0,17.79-7.96,17.79-17.79v-123.51c0-.63.25-1.23.68-1.68l72.53-74.19c1.5-1.54,4.11-.47,4.11,1.68v180.24c0,2.46-3.25,3.32-4.48,1.19l-14.22-24.79c-3.44-6.91-10.97-10.74-18.64-9.37-7.96,1.43-13.84,8.06-14.3,16.13l-3.69,64.52c-.1,1.69-1.88,2.78-3.4,2.03-2.05-1-4.26-1.67-6.55-1.99-6.12-.82-12.36,1.01-17.11,5.03-1.25,1.06-2.76,1.8-4.35,2.14l-12.52,2.68c-1.11.24-1.9,1.21-1.9,2.34v82.18c0,.65.26,1.26.72,1.72l121.37,118.58c1.52,1.48,4.07.41,4.07-1.72v-166.03c0-2.24,2.81-3.26,4.24-1.53l107.76,129.54c2.77,3.33,6.76,5.05,10.78,5.05,3.15,0,6.33-1.06,8.94-3.24,5.95-4.94,6.76-13.77,1.81-19.72ZM549.96,615.01l-71.37-69.73c-.46-.45-.72-1.07-.72-1.72v-52.25c0-.94.54-1.8,1.4-2.18,1.52-.67,2.99-1.45,4.41-2.32.91-.56,2.07-.44,2.86.27,5.48,4.98,13.08,6.84,20.52,4.76,9.17-2.55,15.45-10.35,15.99-19.85l2.39-41.8c.14-2.38,3.29-3.12,4.47-1.06l23.82,41.5c.21.36.32.77.32,1.19v141.46c0,2.12-2.55,3.2-4.07,1.72Z" style="fill: url(#linear-gradient1);"/>
      <path d="M583.25,461.28l-3.68,4.2-.22-.39c-.21-.36-.32-.77-.32-1.18v-1.12c0-2.19,2.75-3.26,4.15-1.58.01.01.02.03.04.04l.03.03Z" style="fill: url(#linear-gradient);"/>
    </g>
  </g>
  <g>
    <path d="M319.66,874.73l-48.67-57.69c.16,25.57.66,48.67.66,53.1,0,4.92-4.75,5.9-28.35,5.9-1.97,0-3.11-1.15-3.11-2.95,0-6.06.66-32.45.66-62.11s-.82-52.6-.82-56.7c0-4.92,4.1-6.23,28.52-6.23,2.13,0,3.11,1.31,3.11,3.28,0,4.59-.66,25.73-.66,55.23,16.72-18.68,32.78-37.69,47.52-55.88,1.8-2.46,2.62-3.11,4.75-3.11,9.34,0,27.53,2.95,27.53,5.57,0,2.95-23.6,28.51-50.64,57.19,27.2,30.81,53.42,59.16,53.42,61.29,0,1.97-15.73,5.9-29.01,5.9-1.8,0-3.11-.49-4.92-2.79Z" style="fill: url(#linear-gradient2);"/>
    <path d="M366.86,871.29c0-11.96.66-35.07.66-58.83,0-27.53-.82-53.26-.82-58.18s4.1-6.23,28.35-6.23c2.13,0,3.11,1.31,3.11,3.28,0,6.39-.66,36.71-.66,61.78,0,12.29.16,24.09.16,35.89,20.98,0,36.87-.33,53.42-.33,1.8,0,2.79,1.15,2.79,2.95,0,17.7-1.31,23.43-5.41,23.43h-77.68c-2.62,0-3.93-1.31-3.93-3.77Z" style="fill: url(#linear-gradient3);"/>
    <path d="M488.3,872.6c0-3.11.16-19.67.33-40.15-21.3-32.12-51.13-78.33-51.13-80.46,0-2.62,8.19-4.1,29.99-4.1,1.97,0,3.44.82,4.75,3.28l32.12,57.36,30.97-56.87c1.64-2.79,2.95-3.77,5.41-3.77,21.8,0,27.2,1.31,27.2,3.77,0,2.29-29.66,49-48.84,79.15.16,20.16.33,36.54.33,39.33,0,4.92-5.08,5.9-27.7,5.9-2.29,0-3.44-1.15-3.44-3.44Z" style="fill: url(#linear-gradient4);"/>
    <path d="M578.6,873.09c0-13.77.66-38.02.66-60.31,0-27.53-.82-53.59-.82-60.8,0-1.48,1.15-2.79,2.79-2.95,14.42-1.31,31.3-1.64,46.38-1.64,37.69,0,55.23,11.47,55.23,39.66,0,19.83-9.5,31.79-25.89,37.53,16.88,22.12,33.27,43.26,33.27,46.21,0,3.44-19.5,6.72-27.2,6.72-1.64,0-3.11-.66-4.59-2.95-9.01-13.44-18.85-28.19-29.17-42.94h-.82c-6.39,0-12.78-.16-19.17-.16.16,13.11.66,29.17.66,38.68,0,4.92-4.92,5.9-28.35,5.9-1.8,0-2.95-1.15-2.95-2.95ZM609.41,770.67c-.16,11.96-.33,24.42-.33,39.5,6.88.16,14.42.16,21.14.16,15.73,0,23.6-7.38,23.6-21.3,0-12.95-7.87-18.52-25.57-18.52-6.39,0-12.78,0-18.85.16Z" style="fill: url(#linear-gradient5);"/>
    <path d="M699.54,813.28c0-45.07,29.83-67.52,71.78-67.52,39.17,0,68.67,18.85,68.67,64.08s-29.33,68.34-71.94,68.34c-39,0-68.5-19.17-68.5-64.9ZM808.36,811.8c0-26.38-15.4-40.64-39-40.64-25.24,0-38.18,15.4-38.18,40.64,0,26.55,15.57,40.81,39,40.81,25.4,0,38.18-15.9,38.18-40.81Z" style="fill: url(#linear-gradient6);"/>
  </g>
</svg>