<?xml version="1.0" encoding="UTF-8"?>
<svg id="Contours" xmlns="http://www.w3.org/2000/svg" version="1.1" viewBox="0 0 1169.58 1169.58">
  <!-- Generator: Adobe Illustrator 30.0.0, SVG Export Plug-In . SVG Version: 2.1.1 Build 123)  -->
  <path d="M721.92,412.68c17.92,4.96,35.73,12.05,49.73,24.55,21.88,20.07,31.9,53.69,29.05,82.56-.79,7.01-2.26,14.31-3.14,21.15-1.69,11.6-.58,21.59,4.73,32.11,10.69,19.44,20.66,33.78,20.91,57.36,1.24,39.68-15.38,82.03-51.51,101.6-39.44,21.7-87.57,22.7-130.54,11.95-26.46-6.4-61.84-13.74-67.02-45.19-2.61-14.28.5-29.41,3.2-43.64,3.16-16.16,5.69-32.44,7.03-48.87,1.83-32.37,5.8-64.44,9-96.66,1.91-20.27.83-42.81,7.49-61.67,17.47-46.04,80.57-47.28,120.88-35.31M737.44,609.69c-13.84-8.79-34.09-10.23-50.65-9.9-30.12,1.47-33.13,25.89-35.67,50.88-3.62,30.24,13.28,38.71,39.88,38.06,15.82-.24,33.07-4.95,44.3-15.88,16.53-15.46,24.71-48.9,2.28-63.06M707.81,470.1c-10.83-5.11-26.6-7.22-34.97,2.97-8.52,10.38-8.52,34.66-7.48,49.53,1.43,13.95,10.35,16.93,23.03,14.47,13.73-3.06,30.55-9.17,36.86-22.27,8.54-16.95-.71-36.78-17.27-44.62l-.17-.08h0Z" style="fill: #fff;"/>
  <path d="M917.2,643.21c-5.14,10-8.42,21.68-14.56,31.24-5.86,9.31-14.74,16.94-25.57,19.46-17.77,4.43-36.18-6.02-41.22-23.62-5.43-17.7-.94-36.49,2.67-54.88,2.07-9.98,4.11-19.98,6.23-29.95,8.01-36.58,15.98-73.1,23.18-109.84,4.8-21.19,7.5-44.34,15.57-64.19,9.01-22.37,29.56-36.39,53.83-28.96,21.09,6.62,35.03,26.84,47.19,44.51,27.7,41.85,57.2,82.76,83.78,125.43,15.5,26.64,29.36,54.23,41.28,82.58,6.62,16.62,7.78,38.01-8.19,48.85-11.06,7.94-27.89,7.44-39.73.33-11.8-6.73-20.12-17.78-27.4-30.14-15.27-27.73-28.21-41.24-61.91-39.61-22.86,1.01-44.69,6.62-55.07,28.64M968.82,531.75c-3.65-6.43-9.69-14.11-15.12-18.82-8.03-7.18-13.54-4.09-16.89,5.1-6,17.16-6.03,38.51,17.36,38.8,6.45.13,14.96-2.34,17.76-7.85,2.42-5.05.73-10.19-3-17.03l-.11-.19h0Z" style="fill: #fff;"/>
  <path d="M86.58,767.43c-12.65-20.64-14.31-47.14-16.52-71.01-2.47-33.69-4.54-67.44-7.6-101.02-2.26-23.89-4.23-47.79-6.04-71.74-1.14-15.91-2.04-32.92,1.65-48.28,5.16-24.95,27.26-42.5,52.34-34.28,28.32,8.46,31.85,49.92,50.16,39.08,14.66-9.36,26.99-25.6,45.07-31.41,19.7-7.42,43.05.55,49.72,21.46,16.87,55.08-83.19,102.75-51.2,140.97,7.44,9.48,23.85,17.95,36.48,24.48,25.61,14.72,64.46,28.37,76.27,56.81,5.95,14.18.56,30.84-12.54,39.03-32.74,19.3-70.88-5.01-101.26-19.49-15.76-7.21-31.8-13.17-36.49,6.09-3.59,16.69-1.83,37.81-12.04,52.88-16.96,26.53-52.42,22.69-67.91-3.41l-.09-.15h0Z" style="fill: #fff;"/>
  <path d="M386.76,731.11c-47.43-17.08-82.92-62.92-89.52-112.7-6.69-50.94,6.94-107.35,45.7-142.89,30.76-27.96,73.3-44.77,115.01-36.93,56.3,8.57,97.41,56.03,110.02,109.89,7.05,29.34,4.09,60.4-4.96,89.15-23.73,74.05-100.8,119.24-176.08,93.54M466.1,648.08c22.59-25.28,27.32-66.23,15.49-97.75-7.23-19.04-22.18-36.43-42.59-39-30.11-3.42-50.82,26.57-56.95,52.84-6.94,27.77-2.31,59.96,15.98,82.57,18.59,22.74,48.1,23.42,67.95,1.48l.13-.14h0Z" style="fill: #fff;"/>
</svg>