<?xml version="1.0" encoding="UTF-8"?>
<svg id="Layer_1" xmlns="http://www.w3.org/2000/svg" version="1.1" viewBox="0 0 1080 1080">
  <!-- Generator: Adobe Illustrator 30.0.0, SVG Export Plug-In . SVG Version: 2.1.1 Build 123)  -->
  <g>
    <path d="M631.8,850.49c-6.41,2.63-16.67,1.42-20.65-4.95-5.15-8.23-2.58-31.98-.99-41.7,2.26-13.84,6.44-27.39,9.17-41.13.3-1.53-1.46-2.67-2.68-1.7-3.07,2.42-5.14,6.2-7.68,8.68-8.71,8.49-24.45,22.8-37.03,22.16-7.42-.38-12.26-4.89-13.25-11.45-.2-1.34-1.84-1.89-2.84-.96-5.82,5.42-9.91,13.61-16.5,17.6-32.41,19.61-46.13-2.83-46.13-2.83l-2.16-10.42c-.27-1.29-1.84-1.8-2.81-.91-2.35,2.15-3.73,4.86-5.85,7.21-19.88,22.09-42.6,45.15-73.16,51.82-61.13,13.35-76.43-38.03-64.94-87.93s47.51-103.12,97.24-116.84c28.35-7.83,48.98,1.33,46.45,33.53-1.08,13.78-7.45,28.21-20.44,34.56-11.14,5.45-28.01,1.89-19.43-12.43,3.97-6.62,8.01-1.17,11.64-.76,5.78.64,11.06-15.98,10.81-20.83-.91-17.23-17.93-20.58-31.56-15.51-48.15,17.9-81.01,94.51-74.9,142.87.36,2.86,2.22,7.85,3.7,10.3,4.01,6.62,9.88,10.76,17.23,12.77,42.34,11.6,76.41-31.25,103.34-57.05,1.33-1.27,6.92-5.01,7.34-5.68.7-1.1.98-3.88,1.79-6.72,6-21.09,23.84-42.53,43.19-53.81,10.58-6.17,28.73-10.81,38.38-1.71.74.7,1.91.65,2.53-.16,5.39-7.06,17.11-10.77,15.2,2.78-.01.09-.03.17-.05.26-5.85,20.8-18.32,45.9-19.28,67.35-.21,4.67-.57,8.36,5.79,7.1,11.95-2.37,31.29-30.33,41.8-38.53.26-.2.46-.47.56-.78,13.24-38,18.35-94.83,42.07-127.25,1.62-2.22,7.68-9.19,8.99-10.29,15-12.61,36.43-7.76,34.94,14.38-2.48,36.66-32.9,75.21-54.97,103.31-.59.75-2.1,1.16-3.07,2.4-2.2,2.81-8.82,11.34-9.56,15.33-.11.57.07,1.16.48,1.57,2.68,2.68,8.15,2.3,11.99,2.04,6.33-.42,15.39-2,21.74-3.27s26.82-6.16,31.14-8.86c3.24-2.03,5.41-14.47,7.16-18.84,9.78-24.48,38.42-64.89,69.16-49.2,4.19,2.14,6.24,6.27,7.12,10.96,4.42,23.55-24.02,46.3-42.11,56.4-3.55,1.98-18.61,8.05-20.16,9.84-4.73,5.45,2.07,18.61,7.9,21.05,10.88,4.54,27.29-3.41,36.06-10.09,5.11-3.9,11.12-10.83,15.47-15.77s5.15-11.12,12.45-10.1c5.03.71,7.39,3.91,6.45,9.16-.44,2.46-11.89,17.03-14.33,19.75-11.56,12.88-27.54,23.33-44.95,25.46-19.21,2.36-33.75-2.27-39.13-22.41-1.06-3.95,1.18-8.51-3.75-9.79-.26-.07-.55-.06-.81,0l-45.86,11.24c-1.65,1.17-.58,1.06-.19,2.14,1.38,3.76,3.31,6.83,3.92,11.1,3.36,23.46-5.48,65.47-23.82,80.73M695.17,607.9c-.2-.29-.5-.52-.84-.63-6.39-2.16-10.85,3.55-14.15,8.59-6.01,9.17-11.53,27.95-15.06,38.88-3.91,12.11-6.74,24.59-10.56,36.69-.54,1.72,1.62,2.99,2.85,1.67.71-.77,1.29-1.44,1.53-1.71,9.54-10.71,23.01-32.66,28.92-45.84,2.65-5.92,11.16-32.1,7.32-37.64ZM775.04,671.93c-.17-.33-.47-.59-.81-.73-8.55-3.57-18.85,3.36-24.16,9.78-7.43,9-12.31,20.85-16.71,31.83-.58,1.44.92,2.83,2.32,2.15,5.71-2.76,16.17-9.12,18.09-10.46,6.45-4.52,20.47-17.39,22.03-25.04.51-2.5.45-5.25-.74-7.53ZM558.76,707.4c-21.58,3.06-48.11,48.29-47.42,68.85.37,10.99,5.66,15.49,16.03,10.81,15.81-7.13,35.63-44.16,40.34-60.66,2.64-9.23,5.59-21.06-8.95-19ZM625.54,812.11l-.03.16c-.78,4.74-1.85,14.74.23,18.67,2.78,5.26,9.06-3.96,10.79-6.21,10.2-13.29,17.57-40.83,11.97-57.07-.96-2.79-5.04-8.08-8.45-7.42-.62.12-1.11.62-1.27,1.23l-13.23,50.64Z" style="fill: #5a4123;"/>
    <path d="M725.71,408.03c-14.23-17.02,16.45-20.74,27.83-26.35.6-.3,1.05-.83,1.25-1.47l11.43-37.31c1.66-7.96,13.14-20.86,18.99-9.42,3.57,6.99-11.61,41.14-9.2,43.7.69.73,16.4-5.72,18.98-6.51,13.44-4.09,28.83-9.05,42.6-11.4,1.45-.25,6.57-.79,9.28-.48.88.1,1.62.71,1.94,1.53l2.5,6.47c.22.58.23,1.23-.02,1.8-3.58,7.99-12.35,8.92-20.3,11.13-4.81,1.33-11.26,2.04-17.21,3.75-14.28,4.12-28.1,10.15-42.55,13.8-.34.09-.66.24-.93.47l-.59.49c-.42.34-.71.81-.83,1.34l-21.22,93.31c-.03.13-.05.27-.05.4-.42,9.6-4.13,22.86,2.94,30.85,6.59,7.43,12.46,1.59,18.45-3.43,5.03-4.22,28.69-27.21,30.32-31.68,2.31-6.33,3.23-14.9,5.38-21.61,6.51-20.28,18.97-45.91,38.58-56.42,17.21-9.23,42.91-9.77,41.74,15.75-1.2,26.45-24.2,47.23-46.34,58.66-8.37,4.32-20.69,3.23-18.21,14.93.05.21.12.43.22.62,20.32,40.84,71.63-9.69,84.26-34.88.2-.4.49-.74.87-.97,5.31-3.26,11.44-2.44,9.98,5.17-.02.12-.06.25-.1.37-13.77,41.59-85.78,95.64-112.55,39.36-.79-1.65-3.05-1.88-4.14-.4-14.67,19.97-39.55,49.12-64.95,31.01-6.26-4.95-8.01-11.97-8.93-19.29-.28-2.2-3.1-2.93-4.39-1.12-13.54,18.94-33.74,53.17-58.11,37.83-6.84-4.1-6.79-10.06-6.44-14.77.17-2.38-2.83-3.55-4.32-1.69-.32.4-.64.78-.94,1.13-8.66,10.16-31.71,35.55-44.69,38.26-13.96,2.91-23.65-8.18-24.37-21.27-.03-.48.02-.96.09-1.43.4-2.45-2.67-3.86-4.26-1.95-1.23,1.49-2.38,2.92-2.73,3.4-12.51,17.21-25.86,38.53-47.58,45.42-15.14,4.8-27.58,2.23-35.18-12.69-1.04-2.04-1.19-7.66-3.73-7.93-3.3-.35-18.47,9.1-22.63,4.05-8.87-10.75,15.25-13.45,22.26-18.29.57-.39.95-1,1.04-1.69,3.53-27.1,14.76-55.66,38.01-71.58.04-.03.08-.06.11-.09,11.28-9.36,29.2-11.37,36.34,3.71.09.18.15.37.2.57,2.64,11.74-2.18,22.3-7.85,32.51-10.25,18.45-28.7,30.29-47.08,39.69-.89.46-1.41,1.41-1.31,2.41.86,8.7,3.1,17.44,13.88,16.44,14.5-1.35,36.98-28.99,45.48-40.56,7.32-9.97,12.98-20.88,18.93-31.69.09-.16.16-.34.21-.52l17.02-61.62c.45-1.62-.84-3.21-2.52-3.07-8.35.69-16.26,4.88-24.77,5.26-.75.03-1.47-.32-1.96-.91-16.01-19.22,25.8-20.58,34.52-26.83.41-.3.71-.71.88-1.19l14.87-43.9c.06-.17.14-.35.23-.5,3.97-6.56,9.05-7.93,15.49-4.56.73.38,1.24,1.11,1.31,1.93,1.02,12.95-5.86,24.47-7.81,36.97-.26,1.68,1.28,3.1,2.94,2.72,8.69-1.98,23.41-10,28.73-5.12,3.44,3.15,3.51,8.43.8,12.02-.11.15-.24.28-.38.41-9.98,8.75-26.85,9.25-38.67,15.32-.57.29-1,.81-1.19,1.43-3.03,9.6-4.33,19.8-6.87,29.48-.02.08-.03.15-.05.23-2,14.37-29.15,80.08-10.76,85.02.55.15,1.14.12,1.67-.12,17.66-8,40.11-36.18,51.22-51.91,8.1-10.93,10.05-61.11,30.38-54.52.24.08.48.19.68.34,3.98,2.9,2.52,8.56,1.43,12.57-.02.06-.03.11-.05.17-11,31.13-40.89,114.42,15.13,48.01,21.65-28.55,21.82-46.81,29.88-80.18l8.04-28.7c.48-1.72-.99-3.35-2.76-3.05-.03,0-.05,0-.08.01M859.45,421.74c-15.13,2.29-26.29,22.45-31.87,35.32-.04.09-.07.18-.1.28-.92,3.19-5.73,12.24-6.17,17.39-.16,1.84,1.74,3.19,3.42,2.41,15.17-7,31.62-18.3,39.71-33.02,4.45-8.1,10.19-24.69-4.99-22.39ZM510.19,553.76c-.51,2.12,1.83,3.76,3.68,2.6,13.6-8.56,28.64-23.47,33.88-37.98,5.71-18.05-8.17-15.63-17.78-5.72s-16.33,26.75-19.79,41.1Z" style="fill: #5a4123;"/>
    <path d="M814.66,917.84c-1.98,4.05-10.26,14.29-14.32,17.19-25.15,17.93-47.18,19.8-75.87,25.66-6.62,1.35-14.08,3.92-21.27,5.2-25.3,4.51-50.8,5.89-76.08,9.68-55.45,8.31-113.3,11.52-169.27,14.2-37.16,1.78-74.69,3.13-111.35.49-11.25-.81-21.14-.71-31.06-5.02-9.1-3.95-24.71-15.03-25.18-25.82-.52-12.09,11.2-25.51,21.2-31.28,31.94-18.44,75.93-32.69,112.27-38.74,18.53-3.08,28.67-3.84,47.23-1.65,20.32,2.4,39.67-6.78,59.55-9.56,26.99-3.77,57.71-2.98,84.38-.61,20.76,1.85,41.25-4.23,61.43-6.5,23.22-2.61,53.11-3.52,76.24-.38s60.58,9.02,63.47,37c.23,2.24-.36,8.07-1.37,10.13ZM686,882.2c-3.98-.66-7.23,2.07-10.47,4.02s-7.92,5.5-10.99,8.01c-1.57,1.29-4.8,2.82-4.54,4.96,8.83-1.52,14.88-11.83,23.99-13.01l-2.99-1.48,4.99-2.49ZM729,883.2c-8.93,2.82-20.01.28-28.55,2.94-8.97,2.79-23.58,13.41-32.79,18.21-9.4,4.9-19.55,9.28-29.13,13.88-1.35.06-3.12.53-2.51-1.52,2.49-8.48,25.32-27.31,33.98-31.02-9.13,1.02-19.71,2.16-27.72,7.23s-14.48,19.72-24.79,22.26c-1.65-5.33,7.54-13.22,11.6-16.4,1.37-1.07,13.56-8.07,12.92-8.57-5.04.52-10.26,3.21-14.47,6.02-4.74,3.17-8.22,7.92-12.3,10.98-10.47,7.85-28.4,16.1-41.25,19.55-1.84.49-8.45,1.31-10.48,1.41-1.6.08-1.67.3-1.52-1.49.23-1.22,2.1-4.22,3.09-4.92,5.44-3.82,22.59-4.77,29.17-9.83l30.75-21.73c-6.91,1.06-14.81-1.66-21.33-.62-2.03.32-4.39,2.1-6.59,2.14-1.46.02-2.62-1.51-4.52-1.58-21.95-.79-23.49,7.26-39.8,17.36-6.4,3.97-11.87,5.8-18.54,8.41-10.15,3.96-19.99,8.03-30.26,11.74-2.95,1.06-9.32,1.6-9.78,1.81-.18.08-.13,1.61-.76,1.77-7.47,1.82-2.61-8.35-.65-11.77,1.62-2.83,10.21-12.81,12.74-15.25,4-3.87,9.72-5.96,13.49-10-10.33,1.61-20.74,7.06-28.53,13.96-4.91,4.35-11.24,14.68-17.08,15.93-1.51.32-1.63.13-1.41-1.41,1.05-7.12,16.11-18.04,22.01-22-4.07-.87-11.98,4.37-15.61,6.9-11.67,8.16-22.37,18.79-36.11,24.39-5.07,2.06-11.41,4.96-16.28,2.2-.18-.22,1.44-2.96,2.04-3.45,4.45-3.61,18.7-8.63,25.27-12.73,4.42-2.76,8.07-6.37,11.91-9.06s8.17-4.37,11.78-7.25c-17.14-4.93-32.98.8-47.86,9.14-10.03,5.62-16.8,13.52-25.79,19.2-2.03,1.28-6,1.95-7.33,2.83-3.81,2.55-6.04,8.29-12.53,8.32,0-2.08,1.02-6.16,1.93-7.98,5.29-10.6,15.17-21.21,25.58-26.51-6.04-1.02-15.76,4.76-20.49,8.5-6.11,4.82-10.64,10.54-17.73,16-1.97,1.52-5.12,6.8-7.77,5.51,5.01-3.25,6.72-8.21,10.48-12.51,3.32-3.79,7.72-6.8,11.51-9.98-6.92.92-15.01,6.35-20.22,10.99-1.77,1.58-2.61,4.15-4.08,5.72-1.38,1.47-4.88.67-4.79,5.21l-2.91-.42c2.66-3.04,4.3-6.98,7-10,1.28-1.43,8.39-5.74,6.98-7.51l-15.26,3.05c-18.17,8.97-29.88,13.29-42.71,30.19-3.04,4-8.58,4.98-1.52,11.76,16.8,16.15,46.82,14.89,69.01,15.07,4.46.04,11.31-.08,15.59-.71,1.08-.16,3.16.2,2.9-1.35-7.11-.02-14.3-.87-21.38-.91-1.28,0-2.73,1.02-4.1.91-3.14-.26-3.13-3.97-4.1-4.04-.83-.07-3.07,1.09-4.88,1.1-5.46.01-8.94-.94-14.53.93l1.05-6.44c-1.41-1.05-2.6.05-2.05-2.55,8.12.7,14.54-5.19,22.99-5-3,4.24-6.79,5.41-11.28,7.21-1.22.49-3.13,1.9-.23,1.79l23.5-8c.99,4.12-4.08,3.92-5.99,6.5,3.24.82,10.77-.84,13.94-2.06,4.13-1.59,16.36-11.97,18.54-11.45,1.45,1.18,1.62,1.26,1.11,3.07-.63,2.23-13.2,9.69-16.59,9.94,1.45,3.47,10.23.45,12.88-.62,5.98-2.43,9.61-8.56,13.59-10.53,1.71-.85,3.07.06,3.35-.11.52-.32,1.87-3.82,4.17-3.75.47,6.51-5.6,10.35-8.99,14.99.52.42,7.34-2.27,8.27-2.96,1.27-.94,1.66-2.98,3.2-4.06,3.52-2.45,7.65-4.26,11.04-6.97,3.1,4.25-6.79,11.21-10.32,13.7-1.58,1.11-2.5,1.65.23,1.23,6.58-1.02,19.47-13.14,25.84-17.18,1.33-.84,2.45-2.02,4.23-1.77,1.11,1.63-2.38,5.54-3.46,6.54-3.16,2.93-11.4,5.11-12.05,8.95-.26,1.54.01,1.74,1.52,1.53,6.77-.96,23.03-18,26.01-18.03,6.23-.06-.62,5.64-1.53,6.78-.97,1.21-1.43,3.15-2.55,4.18-2.29,2.12-7.84,3.45-9.44,7.05,9.09-1.26,17.36-7.53,24.91-12.58,3.95-2.64,3.66-5.16,9.77-6.25,1.45-.26,1.6-.35,1.33,1.34l-12.01,15.49c10.13.53,16.47-10.29,24.52-14.98,2.08-.29,1.27.16,1.49,1.51.76,4.57-2.01,3.27-4.04,5.94-2.48,3.26-4.17,9.67-8.98,9.54l1.02,2.98-7,1,.99-2.99c-7.79-.72-12.22,2.53-18.52,4.98-2.69,1.04.71-3.62-1.97-1.98-1.22.75-2.1,2.46-3.76,3.23-5.13,2.38-4.2-.67-5.47-1.19-1.05-.43-2.85.34-4.32-.55-.78-.47-.71-2.56-1.52-2.57-2.01-.02-9.59,4.57-10.44,7.06,8.6,1.42,16.98-.81,25.44-1.01,16.43-.41,32.35,1.18,48.95-1.09,12.54-1.72,24.13-5.12,37.11-5.81,19.15-1.02,33.02-1.28,52.05-4.02,22.94-3.3,45.98-4.49,68.52-7.67,20.97-2.96,46.4-7.94,67.16-12.65,16.4-3.72,48.76-13.11,56.65-29.41,2.39-4.94-1.27-7.81-3.29-11.41-1.25-2.23-2.4-6.54-5.39-7.86-1.84-.82-12.08-4.08-13.72-4.06-4.48.05-18.13,5.26-19.97,5.01-3.1-.42,1.45-4.43,1.83-4.64.87-.47,9.93-2.28,7.64-4.36-.64-.58-12.31,1.56-14.18,2.32-4.82,1.98-8.69,6.18-13.81,7.67-.7-6.14,6.01-8.5,9.99-11.5-14.68-5.41-24,8.79-35.47,14.51-3.09-1.82.39-5.19,1.97-7.01,3.73-4.32,9.1-5.48,12.51-9.98ZM540,896.19l-11,3,2.99,2.48c-1.06,1.13-11.35,8.08-9.99,9.5l17.99-14.99ZM555,896.2c-8.05,2.82-16.86,7.96-23,13.98l16.31-8.18,6.69-5.8ZM521,901.19c-7.82,3.53-14.42,9.26-18,16.98,2.41,1.91,10.88-8.29,12.48-10.04,2.01-2.2,4.81-2.87,5.52-6.94ZM420,908.19c-8.61,3.83-16.55,11.18-23,17.98,5.1-.49,7.88-9.35,12.99-6.98-1.44-5.42,7.42-6.37,10-11ZM421,975.18l-.52-2.99c-2.85.67-4.79.82-5.48,3.98l12.99,1.01c.86-3.94-5.35-1.15-6.99-2.01Z" style="fill: #5a4123;"/>
    <path d="M640.42,120.77c3.09,3.51,2.71,4.65,4.57,8.98,2.34.7,4.7-.37,7.1.03,8.19,1.39,7.06,4.84,11.97,8.83,4.22,3.43,11.05,3.98,15.66,6.34,16.28,8.32,39.78,30,37.33,49.77-.4,3.19-4.1,6.35-3.6,8.54.6,2.67,6.44,7.47,7.97,9.99,9.26,15.36,12.52,49.67,3.66,65.51-1.31,2.34-3.19,2.76-4.44,5.49-4.96,10.77-5.39,17.81-13.65,28.4-5.97,7.65-23.44,22.95-32.97,25.03-10.65,2.32-21.99-3.7-26.41-13.61-3.7-8.28-3.65-20.3-7.11-28.89l-20.44-13.56c-3.36-9.3-11.01-5.06-18.86-7.14-4.39-1.16-15.73-8.91-16.68-8.97-1.34-.08-4.7,2.61-7.88,2.56-3.79-.06-18-3.34-22.65-4.37-3.86-.86-24.48-6.22-26.22-7.51-1.63-1.21-2.3-3.98-4.83-5.44-6.54-3.77-11.52.93-17.37.9-4.18-.02-14.93-3.64-16.92-3.26-1.3.25-5.83,4.9-7.91,5.99-4.75,2.47-11.74,3.99-16.65,7.35-8.97,6.14-12.59,17.78-24.66,23.34-6.6,3.04-12.33,2.92-19.12.31-1.39-.54-7.28-4.58-7.97-5.53-5.76-7.88-6.08-24.83-4.26-34.13.59-3.02,3.62-7.53,3.7-10.23.07-2.49-2.86-8.31-2.84-12.82.1-21.91,20.62-42.31,36.94-54.17,6.74-4.9,5.17-6.73,10.17-12.81,10.63-12.93,36.85-26.79,52.94-31.07,1.34-.36,4.75-.33,4.95-.54.27-.26.23-4.39,2.66-6.84,2.57-2.58,20.2-9.53,24.4-10.6,10.03-2.55,26.21-3.88,36.45-3.42,2.86.13,8.37,2.42,12.2,2.81,17.48,1.77,37.85.04,50.79,14.72ZM542.96,211.73c.2,3.39.63,13.49,1.26,15.74.23.81.87,1.71,1.78,1.71.47-6.2-1.8-11.23,1.02-16.99,1.46.18,1.69,4.36,1.86,5.62.88,6.3.69,12.62,1.07,18.93.21,3.53,3.12,5.03-.9,9.96.62,1.14,1.48,1.12,2.5,1.45,4.39,1.4,16.45,5.12,20.35,5.53,1.08.11,2.04-.18,3.02-.59.11-15.27-.45-29.01,3.59-43.91,4.04-14.89,11.57-28.35,19.7-41.3,8.28-13.17,18.4-31.14,33.81-35.7-1.65-6.23-10.22-8.78-15.92-10.35-10.47-2.89-30.23-3.99-41.59-4.62-22.57-1.25-49.33-1.31-56.23,24.75-7.2,27.16-1.84,57.34,7.03,83.46.51,1.5,7.02,19.76,9.71,16.78.02-8.5-4.27-16.43-5.72-24.77-2.37-13.58-2.96-30.55,2.74-43.22l.87,9.38,2.03,33.3c.58,3.27,1.06,4.67,1.61,7.3,1.35,6.5,4.87,14.09,1.49,19.96l8.99,3.05-1.01-10.99-2.95,3.36c-.29.34-.82.3-1.08-.06-3.94-5.38-1.48-12.54-2.06-18.61-1.01-10.42-5.3-23.85-2.44-34.13.29-1.03,1.09-3.79,2.53-3.55l2.97,28.53ZM483.58,224.6c7.36,8.49,10.1,13,22.93,13.64s6.13-5.24,3.99-11.05c-4.33-11.73-6.31-36.11-6.54-48.54-.28-14.85-.83-29.04,4.04-43.46-3.43,1.76-7.33,2.93-10.7,4.79-7.45,4.09-27.15,14.85-31.24,20.99-3.73,5.61-5.01,13.96-5.11,20.68-.23,15.48,13,31.83,22.64,42.96ZM648.7,144.48c-3.91-4.72-11.78-.11-15.94,2.69-1.13.76-11.35,9.46-11.64,10.18-.38.92,1.02,2.39.81,2.74-.09.15-2.11.5-2.97,1.53-9.79,11.75-24.3,34.95-28.43,49.59-1.16,4.11-1.41,9.49-2.08,13.94-.16,1.05-1.34,3.26.54,3.03,3.07-5.31,2.89-11.46,4.48-17.02,1.68-5.86,14.83-24.03,19.49-28.5,2.52-2.42,4.58-3.62,8.04-2.46.11,1.57-2.04,1.21-3.04,2.44-3.7,4.57-14.74,20.54-16.69,25.31-1.83,4.49-1.8,9.45-3.32,13.68-2.24,6.25-9.06,18.51-9.93,24.14-.29,1.9-.04,7.25,2.98,6.41.87-13.41,8.35-30.2,17.49-40.01.8-.86,4.48-5.05,5.51-3.98l-10.18,18.31c-1.56,8.23-8.23,19.25-8.76,27.33-.28,4.29,6.02,7.2,9.72,8.11,6.51,1.6,4.54-3.26,6.68-7.81,8.34-17.77,40.94-40.77,58.53-49.47,10.69-5.28,21.77-10.33,34.03-9.48,1.38-7.46-1.92-9.68-4.56-14.95-1.3-2.59-1.71-5.75-3.06-7.98-1.8-2.96-19.92-15.61-23.7-17.25-6.85-2.97-11.84,1.69-19.13,2.24l-18.55,8.94c-1.32-1.19.48-5.98,1.76-6.98,3.47-2.7,22.14-6.34,22.21-7.51.16-2.66-7.83.72-9.05-.96-1.62-1.03.7-3.92-1.23-6.24ZM462.49,232.19l2.48,2c2.64-7.59,7.66-.07,9.03,4.49-1.94,2.07-7.13-5.56-8-4.49-1.02,2.5,2.8,3.98,2.97,4.73.29,1.26-.38,3.23.15,4.13,1.37,2.33,6.99-.27,6.7-3.16-.83-8.38-17.25-25.7-21.71-35.31-1.76-3.8-4.27-13-4.91-17.14-.47-3.06,1.38-5.36-.71-7.22-10.37,7.79-31.72,33.46-28.85,46.75,2.22,10.29,25.97,15.89,35.03,20.06,2.12.98,3.76,2.81,5.83,3.85,7.36-3.03,5.35-5.74,2.14-11.33-.79-1.37-4.14-1.8-2.64-6.35,0,0,.45-.95,2.49-.99ZM705,215.18c.71-8.4-16.35-2.26-21.22-.71-14.21,4.5-34.29,17.55-45.31,27.69-13.06,12.03-22.58,27.44.85,34.82,21.04-11.62,53.25-20.59,74.17-4.84,6.46-3.95,3.25-12.12,4.51-17.28.19-.77,1.97-.64,2-1.25.12-2.2-4.29-22.64-5.29-25.65-4.34-13-9.83-3-17.18-3.8-1.72-.19-2.83-1.89-6.02-2.07-5.84-.31-10.87,3.32-16.52,4.08-2.98-3.1,9.61-7.49,11.45-8.04,5.8-1.74,12.49-2.64,18.55-2.96ZM435.31,264.86c-.92-.41-2.18-3.19-6.31-1.68.39-9.09,6.84-1.5,10.67-1.21,2.34.18,6.85-4.56,5.33,3.21l4.95-4.56c.9-3.99-18.4-7.75-21.65-9.24-4.66-2.14-6.52-6.36-11.31-7.18.86,5.46-.46,10.53.25,16.24,2.26,18.11,13.52,21.25,25.7,8.27l-1.97-3.5c-2.68.96-5.67-.33-5.67-.33ZM664.16,326.08c16.13-1.18,30.38-14.73,38.26-27.97,1.43-2.4,5.29-8.15,3.68-10.46-4.92-7.07-18.58-9.47-26.58-9.51-10.15-.06-19.89,3.27-29.52,6.06-.53,2.14,1.85,2.6,2.46,4.03,5.03,11.86,3.16,27.24,11.7,37.85Z" style="fill: #5a4123;"/>
    <path d="M339.58,272.77c-10.03,12.9-25.18,25.1-39.54,32.96-3.82,2.09-17.28,7.02-18.49,9.51l-9.25,36.75-23.33,65.64c13.31,7.06,23.76,17.42,38.05,23.05,7.7,3.03,20.76,6.78,28.87,7.92s16.84-.29,25.18.02c16.15,8.66-7.75,14.88-15.82,16.32-33.5,5.97-58.85-14.76-85.6-30.67-1.33.23-12.85,14.94-15.69,17.38-11.06,9.53-33.37,17.94-47.64,12.74-17.29-6.3-18.3-27.28-8.29-40.67,5.11-6.82,13.03-12.26,21.02-14.98,13.8-4.69,28.72-2.31,42.84-.66l26.11-84.39c-18.44-1.29-43.46,4.7-59.32-7.66-7.69-5.99-9.7-10.35.78-14.89,1.4,2.55,4.67,4.45,7.33,5.78,14.64,7.29,37.23,5.91,53,2.06,3.13-9.84,5.21-20.05,8.74-29.76,9.75-26.77,35.8-81.43,72.02-72.06,12.54,3.24,16.5,10.98,16.52,23.54.03,16.57-7.71,29.51-17.48,42.08ZM328.57,266.79c8.97-11.25,16.24-25.23,14.45-40.12-1.1-9.17-10.34-9.21-16.97-4.93-5.72,3.69-12.1,14.68-15.23,20.77-8.58,16.74-14.6,36.12-22.79,53.19,1.2,1.53,1.25,1.49,3.01,1.06,2.26-.56,15.55-9.58,18.2-11.6,5.2-3.96,15.26-13.27,19.33-18.36ZM224,424.2c-13.75-5.01-37.4-5.18-44.18,10.31-7.81,17.81,10.65,19.66,22.92,12.97,1.94-1.06,10.51-8.9,12.26-10.79,1.02-1.1,9.56-11.95,9.01-12.48Z" style="fill: #5a4123;"/>
    <path d="M514.28,486.48c-24.05,25.18-48.65,34.58-79.74,45.75-4,15.91-6.81,32.07-9.78,48.22-1.81,9.86-5.32,39.96-15.71,43.29-13.05,4.18-13.76-10-11.98-18.97.47-2.38,2-4.27,2.47-6.53,4.26-20.33,9.41-40.4,14.22-60.59-.44-2.46-10.18-1.17-13.03-1.7-2.47-.46-9.23-3.63-9.74-6.25-2.66-13.76,9.44-8.37,18.36-9.66,3.09-.44,7.8-.83,9.44-3.55l20.7-95.3c-10.55,9.38-18.58,21.1-25.91,33.09-1.99,3.25-2.01,8.11-6.64,10.35-14.31,6.95-13.53-6.83-10.42-16.42,4.46-13.74,23.73-36.82,35.56-45.44,26.74-19.49,85.62-41.93,107.75-5.92,18.5,30.08-3.44,68.15-25.55,89.63ZM439,511.17c1.36,1.74,12.32-2.86,14.69-3.79,9.22-3.63,20.58-9.59,28.62-15.38,20.38-14.7,53.57-56.26,43.2-82.83-3.65-9.35-25.3-15.75-34.26-11.22-11,.52-21.11,6.3-30.74,11.26-3.25,12.67-4.41,25.78-7.02,38.53-4.88,20.98-9.53,42.62-14.49,63.44Z" style="fill: #5a4123;"/>
    <path d="M348.94,409.71c9.36,2.26,19.08-.73,26.98-5.1,12.45-6.9,21.41-18.01,29.9-29.1,2.95-3.85,7.81-14.83,13.43-14.13,13.97,1.73.22,18.9-4.3,25.02-15.52,21-44.02,44.56-71.99,39.34-14.61-2.73-26.86-20.89-26-35.49-7.12,1.27-11.95-.85-18.76-2.24-3.34-12.04,12.09-9.31,19.8-10.82.15-5.31,2.05-11.6,3.72-16.78,5.95-18.37,14.7-32.26,30.97-43.03,11.12-7.36,26.38-13.1,36.86-1.23,9.2,10.41.37,30.44-7.58,39.52-6.86,7.84-23.71,18.88-33.08,23.92-5.86,3.15-13.55,1.98-12.86,11,0,0,.04,16.03,12.91,19.14ZM375.01,325.6c-4.87-1.7-9.13.38-12.94,3.15-11.68,8.48-19.03,28.07-23.06,41.43,12.64-6.84,41.05-25.51,37.96-42.28-.17-.93-1.06-1.99-1.95-2.3Z" style="fill: #5a4123;"/>
    <g>
      <path d="M810.78,594.86c-.42,4.12-4.04,8.88-9.57,14.57-.95.98-1.95,1.98-3.01,3.02l-.45.44c-.84.82-1.6,1.56-2.22,2.19h-.01c-.11.11-.21.21-.31.31-3.06,3.08-5.88,5.77-8.53,8.13-1.03.92-2.03,1.79-3.01,2.62h-.01l-.76.64c-.79.66-1.57,1.29-2.33,1.89-6.75,5.26-12.13,7.91-16.36,8.07h-.29c-3.07,0-5.59-1.75-6.92-4.8-1.98-4.58-.99-11.72,2.07-14.99l6.04-6.6,1.01-1.1,4.45-4.84,5.89-6.42,5.41-5.9,10.58-11.54.51-.3c1.46-.87,3.03-1.3,4.67-1.3,3.03,0,6.1,1.55,8.65,4.37,3.05,3.38,4.86,8.01,4.5,11.54Z" style="fill: #5a4123;"/>
      <polygon points="770.56 604.4 770.57 604.41 766.12 609.25 770.56 604.4" style="fill: red;"/>
      <path d="M786.72,623.56l-3.05,2.58c.98-.83,1.98-1.7,3.01-2.62l.04.04Z" style="fill: red;"/>
      <path d="M781.09,623.08c-5.87,4.96-12.43,9.49-17.03,9.66-5.22.19-4.89-10.05-2.07-13.06l8.45-9.22,10.65,12.62Z" style="fill: #bd0015; opacity: .81;"/>
      <path d="M780.57,628.67c.76-.6,1.54-1.23,2.33-1.89l-2.29,1.93-.04-.04Z" style="fill: #fff;"/>
      <path d="M801.26,609.48l-3.06,2.97c1.06-1.04,2.06-2.04,3.01-3.02l.05.05Z" style="fill: #fff;"/>
      <path d="M795.4,609.6c-1.18,1.15-2.23,2.17-3.02,2.96-2.49,2.51-6.68,6.65-11.29,10.52l-10.65-12.62,11.7-12.75,13.26,11.89Z" style="fill: #fff; opacity: .81;"/>
      <path d="M797.75,612.89l-2.22,2.19c.62-.63,1.38-1.37,2.22-2.19Z" style="fill: #314573;"/>
      <path d="M806.8,594.45c-.42,4.12-6.85,10.68-11.4,15.15l-13.26-11.89,12.86-14.02c5.79-3.43,12.3,5.85,11.8,10.76Z" style="fill: #314573; opacity: .81;"/>
    </g>
    <path d="M683.95,419.72c-.11-.31-.21-2.47-.35-3.93-.79-8.32,5.07-23.15,14.46-23.21,14.28-.09,9.86,34.14-9.14,30.71-4.22-.76-3.96-.68-4.97-3.57Z" style="fill: #5a4123;"/>
    <path d="M278.65,566.45c.36,5.46-45.67,35.24-52.74,35.12-3.26-.07,1.12-4.26,2.31-5.5,8.58-8.73,33.54-24.83,45.63-29.05,1.45-.42,3.67-1.51,4.79-.6l.02.03Z" style="fill: #5a4123;"/>
    <path d="M559.34,301.52c-12.55,13.78-29.47,24.96-43.33,35.67-1.15-8.59,54.67-51.55,43.33-35.67Z" style="fill: #5a4123;"/>
    <path d="M292.81,574.28c2.12,3.87-46.49,36.45-45.83,29.68,3.01-6.61,39.82-31.69,45.81-29.71l.02.03Z" style="fill: #5a4123;"/>
    <path d="M542.27,334.23c-10.11,5.35-1.64-2.99,1.27-5.82,3.76-3.63,9.16-7.79,13.13-10.29,1.03-.59,6.94-4.54,6.95-2.54-.86,2.3-2.72,4-5.02,6.38-4.05,4.04-11.47,9.82-16.15,12.19l-.17.09Z" style="fill: #5a4123;"/>
    <path d="M241.74,564.85c-.25,4.34-23.38,24.16-28.46,24.77-3.87-1.46,25.82-27.18,28.44-24.8l.02.04Z" style="fill: #5a4123;"/>
    <path d="M523.99,301.19c-4.32,6.47-16.74,17.32-22.99,21.99,1.94-7.95,15.1-19.49,22.99-21.99Z" style="fill: #5a4123;"/>
    <path d="M312.04,574.81c.79,4.05-22,16.93-24.57,15.66-.81-.57.29-1.65,1.06-2.58,3.58-3.95,18.73-14.31,23.47-13.12l.04.04Z" style="fill: #5a4123;"/>
    <path d="M308.54,563.48c.64-3.62,11.87-9.57,15.63-11.65,1.5-.66,5.79-3.17,6.46-2.07-.76,3.27-19.32,16.01-22.07,13.78l-.02-.05Z" style="fill: #5a4123;"/>
    <path d="M330.2,574.23c.53,3.13-15.47,13.89-18.95,13.56-1.48-.44.83-2.71,1.43-3.36,3.16-3.17,13.89-11.02,17.48-10.23l.04.04Z" style="fill: #5a4123;"/>
    <path d="M504.93,301.43c-1.94,5.82-9.64,12.14-15.76,14.28-4.16,1.54,3.7-7.36,4.86-8,2.39-2.08,5.05-4.03,7.82-5.47,2.3-1.16,3.14-1.55,3.09-.86v.06Z" style="fill: #5a4123;"/>
    <path d="M583,320.2c-3.54,4.84-9.66,7.83-16,8.98,2.27-2.08,13.44-10.91,16-8.98Z" style="fill: #5a4123;"/>
    <path d="M289.95,546c1.65,1.83-6.3,14.18-8.64,11.64-1.02-2.36,5.45-12.46,8.58-11.7l.06.05Z" style="fill: #5a4123;"/>
    <path d="M646.99,936.19c1.27,5.58-6.54,5.57-7.54,6.98-.65.91-.11,2.78-.7,3.77-.37.62-2.12.79-2.77,1.7-1,1.4-1.22,3.65-2.42,4.69-1.55,1.35-3.34-.42-4.54.32-1.38.86-1.26,3.58-4.75,4.35-4.62,1.03-6.3-1.52-8.82-1.79-.42-.05-.28,1.71-1.15,1.95-4.04,1.13-10.3-.19-13.83,3.03-1.65-4.45-7.76-1.29-10.96.04l-.53-2.04c-1.66-.42-.54,1.45-1.44,1.8-.24.09-4.62.32-5.08.28-1.91-.16-1.29-1.67-1.97-1.86-.89-.24-5.03,0-5.5,1.27l1.99,1.49c-3.83-1.41-7.17.36-10.26.72-4.16.48-8.04-.05-12.24.19-3,.17-7.27,5.05-8.98.1-5.63,4.66-12.57,2.6-19,4.01v-3s-7.5,2-7.5,2l3.99,1.98-5.56-.87c-1.55,4.29-7.71.57-11.43.87-.31-.25,3.66-5.98,4.34-6.64,1.12-1.08,12.11-8.69,13.32-9.19,4.54-1.86.84,4.53-.23,5.77-1.63,1.87-5.63,2.8-5.42,6.07,1.14,1.08,12.62-3.77,14.26-4.96,1.09-.79,1.41-2.48,2.76-3.48,4.98-3.69,9.56-5.49,12.47-11.55,4.63,6.03-5.15,11.84-8.5,16.5,3.07-.07,8.75-1.57,11.75-3.27,3.53-2.01,5.48-7.97,8.97-10.22,2.44-1.58,6.55-1.82,8.79-4.01,1.83,4.06-5.51,9.22-6.5,11.51-1.62,3.76,6.17-.67,6.91-1.1,3.89-2.26,8.64-8.77,7.09.58,5.4-2.47,11.63-3.06,16.63-6.36,1.99-1.31,4.86-5.72,7.88-6.62,1.4-.42,1.78.1,1.47,1.47l-7.99,9.5c8.63.44,15.27-5.97,22.52-9.98,2.17-.86,1.68,3.27,2.51,4.39-.5.24-6.29,4.47-2.55,4.58,11.29-3.11,19.68-12.39,30.51-14.98Z" style="fill: #5a4123;"/>
    <path d="M749,922.2c-3.62,6.53-11.09,9.89-17.02,14.46-3.6,2.78-1.31,2.29-6.19,4.59-1,.47-.72,1.69-1.26,1.74-3.04.32-7.47-1.61-8.53,4.18l-1-3.99-2.98,2v-3.35s-3-.65-3-.65l1.99,2.49c-.33.6-5.22,3.92-5.92,4.07-1.49.31-2.87-1.51-5.3-1.36-5.95.37-18.81,5.61-25.27,6.84l-1.11-2.11-18.39,3.06-.52-3-13.48,4.01c-1.02-2.64.32-8.4,2.42-10.08.68-.55,14.31-6.25,16.13-6.86,1.64-.56,8.05-1.51,5.97.96-.78.92-2.82.44-2.51,1.97,4.46,1.74,8.59-2.49,12.29-4.22,1.2-.56,2.79.42,3.7-.24s.51-3.25,2.49-2.52c3.59,1.33-1.25,5.98-2.48,7.5-.16.75.98.65,1.48.48,2.75-.91,17.52-11,19.51-8.98l-.93,3.57,1.94.92-1.99,2.02c-.31,1.36.08,1.9,1.47,1.47,4.06-1.25,12.61-8.86,16.02-11.97,4.56,4.52-1.42,7.62-3.48,11.49l2.45,1.48c10.6-7.34,19.03-21.28,33.53-19.98Z" style="fill: #5a4123;"/>
    <path d="M365,953.2l-.1,3.83c-3.89,2.2-8.54,2.34-12.59,3.98-4.97,2.01-10.6,7.26-15.29,8.73-.26.08-5.16.48-5.43.44-.72-.09-.39-3.31-2.6-1.98-.13.08,1.3,2.28-.5,2.97-1.73-2.3-3.51-3.28-6.47-3.01-1.24-13.71,9.44-.39,11.97-2.96v-4.01c2.59-.33,2.59-.03,3.48,2.01,8.56-5.1,17.39-9.34,27.52-10Z" style="fill: #5a4123;"/>
    <path d="M784,917.19c1.22,6.13-1.7,4.64-3.65,6.35-6.88,6.05-7.1,5.93-15.21,9.27-5.31,2.19-11.05,6.45-16.13,3.36l27.96-17.57,7.03-1.42Z" style="fill: #5a4123;"/>
    <path d="M744,937.18l1.99,1-7.51,3c-3.12-3.14,4.53-8.55,7.3-10.94,3.32-2.86,10.34-9.44,13.22-11.54,1.51-1.1,8.97-3.72,10.95-4.08,5.9-1.07,1.12,4.93-1.43,6.61-5.24,3.45-10.92,7.12-16.4,10.6-2.77,1.76-6.68,2.05-8.13,5.36Z" style="fill: #5a4123;"/>
    <path d="M682,918.19c3.36,2.9-14.56,9.11-16.99,7.99,1.53-2.46,15.46-9.31,16.99-7.99Z" style="fill: #5a4123;"/>
    <path d="M316.01,953.18l6.99-2.99c1.35,1.31-8.84,9-9.5,8.97-3.9-.2.28-9.9,3.01-10.97l-.5,4.99Z" style="fill: #5a4123;"/>
    <path d="M728.77,910.4c.2.09,2.94,3,2.22,3.77-5.66-.16-8.65,3.35-14,4,.51-3.64,9.14-8.92,11.77-7.77Z" style="fill: #5a4123;"/>
    <path d="M773.74,908.92c-2.38,2.14-11.32,1.38-14.73,2.26-.72-2.2,2.68-2.86,4.12-3.36,3.24-1.13,8.16-1.03,11.39-2.62,1.28.48-.27,3.27-.78,3.72Z" style="fill: #5a4123;"/>
    <path d="M334.99,936.19c.06,4.04-3.7,6.88-6.5,8.99l-.5-3.99-4.97,1.5c1.31-1.65,10.65-7.77,11.97-6.49Z" style="fill: #5a4123;"/>
    <path d="M540.99,929.19c.14,5.17-8.29,9.63-10.49,5l-3.5,1.99c2.96-4.64,9.34-4.91,13.99-6.99Z" style="fill: #5a4123;"/>
    <path d="M320,959.18c5.18-3.51,2.37-9.37,6.99-11.99l2.01,7.48-9,4.51Z" style="fill: #5a4123;"/>
    <path d="M746.99,907.19c2.94,2.95-9.16,7.42-10.99,7.99.16-2.12,4.49-5.46,6.05-6.44,1.05-.66,4.13-2.37,4.94-1.55Z" style="fill: #5a4123;"/>
    <path d="M340,953.19c.64,4.37-3.99,5.38-6.99,6.99l1.13-6.86,5.86-.13Z" style="fill: #5a4123;"/>
    <path d="M701,911.19c2.8,3.98-7.04,5.21-8.99,4.99-1.67-1.41,7.2-7.53,8.99-4.99Z" style="fill: #5a4123;"/>
    <path d="M559,925.2c-.87,3.26-8.82,6.2-11,3.98-1.85-1.89,1.57-1.98,2.2-2.24,2.78-1.14,5.73-2.02,8.8-1.74Z" style="fill: #5a4123;"/>
    <path d="M556.01,206.19c2.64,1.67,1.59,6.84,2.06,9.44.24,1.31,1.44,2.35,1.55,3.26.48,3.98,1.5,28.19-3.11,28.27-3.28-2.33-.4-5.75-.5-8.48-.07-1.96-1-3.82-1.05-5.96-.21-8.93.45-17.69,1.06-26.53Z" style="fill: #5a4123;"/>
    <path d="M563.01,169.18c-3.49-3.67,9.18-22.88,11.51-26.97,1.83-3.2,1.72-7.17,5.47-8.02.28,9.25-6.47,16.68-10.18,24.31-1.78,3.67-1.7,11.37-6.8,10.69Z" style="fill: #5a4123;"/>
    <path d="M568.99,250.18c-.11.13-2.57-1.01-2.99-1.75-1.06-1.9-2.46-22.73-2.08-25.81.21-1.65,2.94-1.69,2.09-4.43,1.47-.08,1.76,3.57,1.87,4.61.47,4.14,1.81,12.6,1.78,16.08-.03,3.31-2.45,7.2-.68,11.3Z" style="fill: #5a4123;"/>
    <path d="M581,154.17l11.49-20.99,2.08,3.06c-1.37,3.33-8.33,21.68-13.58,17.93Z" style="fill: #5a4123;"/>
    <path d="M605.99,134.19c2.03,2.08-7.03,17.45-11.99,13.98,1.2-2.3,8.63-17.43,11.99-13.98Z" style="fill: #5a4123;"/>
    <path d="M572,133.19c.83.75-8.2,13-9.29,16.59-.12.4-.4.75-.74.99l-1.96,1.41c1.95-4.13,3.91-9.64,5.94-13.54.7-1.34,3.97-7.32,6.05-5.45Z" style="fill: #5a4123;"/>
    <path d="M545.01,139.19l-.67-3.07c-3.39.78-4.03-.76-4.34-3.91l9.99-3.02-4.98,10Z" style="fill: #5a4123;"/>
    <path d="M626,213.19l-1.71.91c-.14.08-.26.19-.35.33l-21.85,37.2c-.15.25-.41.41-.71.43l-1.52.09c-.49.03-.91-.36-.93-.85-.07-1.39.16-2.64.63-4.05,1.62-4.77,10.38-20.16,13.61-24.39,2.72-3.56,8.13-10.19,12.82-9.67Z" style="fill: #5a4123;"/>
    <path d="M665.06,163c.94-1.09,2.21-.3,1.94-1.81-1.88-.48-3.03.4-4.55.94-3.42,1.21-14.78,5.91-17.4,7.6-1.96,1.27-10.95,12.54-10.05,13.44,3.81,1.93,6.09-2.85,8.79-4.93,3.91-3.01,13.99-11.62,17.66-13.17l3.61-2.07Z" style="fill: #5a4123;"/>
    <path d="M660,177.18c3.15-2.97,5.69-6.72,9.52-8.98,1.28-.75,2.55-.82,2.46.49-.07,1.02-9.33,9.31-11.98,8.49Z" style="fill: #5a4123;"/>
    <path d="M659.39,257.87l-1.88,1.97c-.11.11-.23.2-.38.25-1.86.69-4.14.76-5.71,2.04-2.38,1.95-.01,3.83-5.27,2.38-.57-.16-1.13.21-1.26.79-.63,2.9-3.29,4.33-6.15,5.15-4.91,1.42-1.79-2.84.24-4.79,5.24-5.02,12.28-9.11,19.65-9.49.89-.05,1.36,1.04.75,1.69Z" style="fill: #5a4123;"/>
    <path d="M650.95,248.22c3.67,2.96-5.07,6.09-6.87,7.55-1.45,1.18-10.95,11.67-12.07,10.41-2.66-6.04,16.66-19.8,18.94-17.96Z" style="fill: #5a4123;"/>
    <path d="M697,232.17c2.9-5.52,6.68-5.1,12.23-5.31,1.49-.06,2.3-1.5,3.76.83.84,4.18-13.45,3.96-15.99,4.48Z" style="fill: #5a4123;"/>
    <path d="M707,246.19h-15c2.26-5.16,13.72-6.18,15,0Z" style="fill: #5a4123;"/>
    <path d="M704,257.17c-4.85,1.64-9.97.88-15,1.01v-2.98c.64-.98,14.03-1.86,15,1.98Z" style="fill: #5a4123;"/>
    <path d="M481.99,197.19c.84,3.89,3.15,7.95,5.23,11.31s14.76,17.69,8.27,20.68c-1.68-.06-3.44-3.34-4.31-4.67-4.04-6.13-10.41-15.65-11.18-22.82-.21-1.96-.92-5.33,1.99-4.5Z" style="fill: #5a4123;"/>
    <path d="M497.99,197.19c3.35,11.87,10.28,22.86,11.14,35.39.04.64,1.42,3.73-.63,3.58-.8-.06-3.08-3.32-3.57-4.41-2.28-5.12-7.54-22.64-8.7-28.3-.37-1.8-1.49-7.26,1.75-6.26Z" style="fill: #5a4123;"/>
    <path d="M484,164.18c-.4,3.05.49,6.18.4,9.13-.03,1,.12,4.15-1.38,3.87-1.36-4.85-4.35-7.29-3-13h3.99Z" style="fill: #5a4123;"/>
    <path d="M490.99,166.18c-3.97-1.9-2.94-7.19-.49-9.98,2.98,2.62,1.19,6.8.49,9.98Z" style="fill: #5a4123;"/>
    <path d="M459.01,221.72c-.8-4.54-5.14-6.31-7.44-9.61-2.42-3.47-4.76-9.82-7.12-12.42-.6-.66-.28-1.77-.94-1.51-4.32,5.65.64,12.99,4.09,17.91.8,1.14,9.73,11.98,10.4,11.09,0,0,1.35-3.56,1.02-5.46Z" style="fill: #5a4123;"/>
    <path d="M689,291.17l-8.68-1c-.68-.08-1.37-.1-2.05-.05l-1.27.08-10.54,1.95-3.45-4.44c.52-2.41,9.07-2.61,11.34-2.45,4.88.35,11.87,1.59,14.66,5.92Z" style="fill: #5a4123;"/>
    <path d="M665.99,304.19l1.05,12.31-4.04,1.68c1.95-4.58-3.71-12.75,2.99-13.99Z" style="fill: #5a4123;"/>
    <path d="M676.34,307.9c.99.75,3.19-.28,3.38,2.81l-3.21,3.18c-3.66-.82-4.92-5.45-3.5-8.7,2.39-.61,2.19,1.84,3.34,2.71Z" style="fill: #5a4123;"/>
  </g>
  <path d="M781.09,623.08" style="fill: none;"/>
  <path d="M781.09,623.08" style="fill: none;"/>
  <path d="M880.88,650.59" style="fill: #5a4123;"/>
  <path d="M880.88,650.59" style="fill: none;"/>
</svg>