<?xml version="1.0" encoding="UTF-8"?>
<svg id="Layer_1" xmlns="http://www.w3.org/2000/svg" xmlns:xlink="http://www.w3.org/1999/xlink" version="1.1" viewBox="0 0 1080 1080">
  <!-- Generator: Adobe Illustrator 30.0.0, SVG Export Plug-In . SVG Version: 2.1.1 Build 123)  -->
  <defs>
    <linearGradient id="linear-gradient" x1="312.23" y1="578.24" x2="717.71" y2="567.95" gradientUnits="userSpaceOnUse">
      <stop offset="0" stop-color="#fff"/>
      <stop offset="1" stop-color="#dff3ff"/>
    </linearGradient>
    <linearGradient id="linear-gradient1" x1="312.56" y1="565.66" x2="720.8" y2="555.29" xlink:href="#linear-gradient"/>
    <linearGradient id="linear-gradient2" x1="312.1" y1="562.87" x2="721.76" y2="552.46" xlink:href="#linear-gradient"/>
    <linearGradient id="linear-gradient3" x1="311.85" y1="566.55" x2="721.63" y2="556.15" xlink:href="#linear-gradient"/>
    <linearGradient id="linear-gradient4" x1="314.31" y1="579.33" x2="721.2" y2="568.99" xlink:href="#linear-gradient"/>
    <linearGradient id="linear-gradient5" x1="323.6" y1="594.31" x2="724.5" y2="584.12" xlink:href="#linear-gradient"/>
    <linearGradient id="linear-gradient6" x1="318.23" y1="783.86" x2="725.05" y2="773.53" xlink:href="#linear-gradient"/>
    <linearGradient id="linear-gradient7" x1="318.12" y1="782.31" x2="725.02" y2="771.97" xlink:href="#linear-gradient"/>
    <linearGradient id="linear-gradient8" x1="318.16" y1="782.08" x2="725.54" y2="771.73" xlink:href="#linear-gradient"/>
    <linearGradient id="linear-gradient9" x1="317.96" y1="782.67" x2="726.34" y2="772.3" xlink:href="#linear-gradient"/>
    <linearGradient id="linear-gradient10" x1="316.87" y1="783.84" x2="727.51" y2="773.41" xlink:href="#linear-gradient"/>
    <linearGradient id="linear-gradient11" x1="316.79" y1="786.54" x2="726.78" y2="776.13" xlink:href="#linear-gradient"/>
    <linearGradient id="linear-gradient12" x1="318.71" y1="789.59" x2="725.74" y2="779.25" xlink:href="#linear-gradient"/>
    <linearGradient id="linear-gradient13" x1="318.02" y1="795.6" x2="725.85" y2="785.25" xlink:href="#linear-gradient"/>
    <linearGradient id="linear-gradient14" x1="320.45" y1="801.45" x2="726.34" y2="791.14" xlink:href="#linear-gradient"/>
    <linearGradient id="linear-gradient15" x1="320.73" y1="851.66" x2="727.17" y2="841.34" xlink:href="#linear-gradient"/>
    <linearGradient id="linear-gradient16" x1="307.43" y1="356.72" x2="714.32" y2="346.38" xlink:href="#linear-gradient"/>
    <linearGradient id="linear-gradient17" x1="306.99" y1="338.01" x2="714.18" y2="327.67" xlink:href="#linear-gradient"/>
  </defs>
  <g>
    <path d="M239.9,687.97c-2.45-.23-3.47-.77-4.62-2.58-5.8-8.95-26.98-41.6-47.63-71.5-20.67-30.2-40.81-57.65-44.95-63.15-1.72-2.73-1.12,2.53-1.25,5.03.06,21.54.17,64.21.2,84.03.03,6.35.21,12.07,1.64,18.8,3.54,16.63,11.79,11.36,17.67,20.73,2.2,4.13,1.87,9.83-1.17,11.89-2.85,1.7-5.87,1.5-9.13,1.97-5.93.61-12.52,1.36-18.7,2.03-4.8.53-9.43,1.06-13.17,1.49-4.34.5-7.34.87-8.97-.46-2.64-2.37-2.29-6.74-.53-10.79,1.67-3.88,5.08-6.55,8.21-9.29,9.27-7.2,10.32-19.16,10.23-29.44.02-26.71-.11-63.35-.14-89.14-.13-8.08.38-14.94-.92-22.43-1.22-6.91-3.62-14.81-9.71-17.41-3.03-1.33-6.46-1.99-8.3-4.92-3.12-4.33-2.36-12.25,4.28-14.11,11.84-3.27,30.56-8.77,41.91-10.39,13.47,11.21,66.88,91.55,79.76,109.86.65.73,1.22,2.19,1.91,2.09.81-.49.19-7.31.36-12.06-.07-12.63-.11-27.26-.18-40.22-.52-16.24,1.56-31.92-3.81-45.87-2.3-6.66-8.1-8.25-12.79-11.77-3.74-3.1-5.38-12.14-1.1-15.6,2.72-2.01,5.64-2.12,8.78-2.84,5.63-1.08,11.95-2.3,17.83-3.36,4.51-.82,8.87-1.6,12.41-2.22,4.45-.78,7.46-1.24,9.07.35,3.37,3.64,1.48,11.3-2.12,16.53-2,2.85-4.64,4.93-6.81,7.62-5.3,6.33-6.66,16.02-7.27,23.67-.66,31.26.47,138.04.4,167.95.62,6.16-6.73,5.43-11.29,5.53-.04,0-.07,0-.11,0Z" style="fill: url(#linear-gradient);"/>
    <path d="M348.99,674.65c-1.48-3.88-.19-11.08,3.17-14.53,2.69-3.13,6.66-4.54,8.37-8.17,3.1-7.52-1.2-19.16-3.04-26.38-1.97-6.95-5.03-9.11-11.46-8.36-7.55.51-20.19,1.45-27.74,2.1-5.93.32-9.48,2.88-11.11,10-1.62,7.19-4.02,15.56-1.84,22.6,1.91,6.03,8.46,7.41,11.34,12.6,1.94,3.34,2.85,8.05,1.17,11.9-1.07,2.4-3.3,3.05-7.01,3.3-6.17.41-15.38.99-22.25,1.46-2.44.17-4.83.33-7.23.5-4.85.34-8.01.65-9.5-1.41-2.54-3.96-1.38-10.35.69-14.57,1.26-2.42,3.23-3.9,5.11-5.67,8.08-7.28,13.31-24.93,16.66-36.56,6.79-25.31,35.93-140.78,42.97-168.83.41-1.66.85-2.87,2.4-3.67,3.08-1.38,6.94-1.9,10.09-1.27,2.18.55,2.16,2.37,3.1,5.43,12.66,43.43,38.85,143.51,49.41,177.48,2.75,7.69,5.62,14.81,9.94,18.86,2.33,2.18,5.3,3.15,6.98,6.2,2.43,4.2,4.28,16.23-1.98,16.9-8.44.61-22.11.77-36.96,1.53-7.64.32-13.97.63-20.42.93-3.86-.09-9.85,1.64-10.82-2.26-.01-.04-.03-.08-.04-.12ZM331.15,533.32c-.64.08-1.42,3.74-3,9.72-4.05,15.72-11.04,42.47-13.69,52.82-.41,2-1.34,4.62.83,5.2,4.01.6,8.66-.37,13.8-.64,5.68-.58,14.41-.85,18.95-1.83,2.64-.56,2.15-2.92,1.55-5.11-2.77-9.65-10.68-36.06-15.2-51.19-1.71-5.6-2.56-9.05-3.21-8.97,0,0-.02,0-.03,0Z" style="fill: url(#linear-gradient1);"/>
    <path d="M437.37,593.33c6.18-2.7,12.13,6.55,13.42,13.79,1.73,7.38,3.48,14.26,6.46,20.97,3.03,6.91,7.32,14.09,12.29,19.22,19.53,20.12,42.59.87,37.9-27.55-4.46-22.09-26.81-32.21-40.83-44.6-11.68-10.09-22.1-20.83-27.42-36.55-14.19-40.1,6.05-103.88,45.71-99.5,4.9.62,9.68,2.41,14.11,5.3,4.36,2.8,7.57,6.46,11.18,7.04,1.9.19,3.15-1.12,4.7-2.97,2.13-2.62,5.43-6.28,8.66-6.36,4.72-.27,5.43,5.26,5.26,9.71.01,12.04.02,35.38.01,47.42.64,9.87-4.97,13.1-11.26,5.09-1.52-1.98-2.82-4.55-3.87-7.45-4.31-15.08-12.34-31.22-22.05-35.47-13.79-6.69-25.89,5.47-26.75,22.18-1.84,19.16,10.97,30.19,24.31,39.45,18.37,12.76,37.74,25.13,46.11,49.18,20.68,55.37-16.83,130.7-67.28,97.61-4.54-2.93-9.77-9.67-13.12-11.61-2.27-1.43-3.85-.05-5.3,2.9-.99,1.85-2.28,4.16-3.94,5.84-2.73,2.9-7.13,4.53-9.64,1.47-1.46-1.98-1.23-5.09-1.29-7.75-.03-14.92-.14-47.45-.13-60.39-.02-2.76.42-5.82,2.67-6.93.03-.02.07-.04.1-.05Z" style="fill: url(#linear-gradient2);"/>
    <path d="M566.27,591.41c6.22-2.38,12.1,7.18,13.38,14.53,1.71,7.49,3.43,14.48,6.4,21.35,3.01,7.06,7.27,14.44,12.23,19.78,19.47,20.86,42.57,2.49,37.97-25.88-4.39-22.13-26.69-33.34-40.68-46.51-11.64-10.72-22.05-22.14-27.32-38.29-14.06-41.31,6.31-104.04,45.84-96.56,4.89.98,9.68,3.12,14.1,6.31,4.41,3.14,7.67,7.14,11.32,7.99,1.9.34,3.15-.87,4.71-2.58,2.14-2.43,5.44-5.81,8.67-5.63,4.71.1,5.41,5.63,5.22,10.02-.02,11.91-.09,35.02-.13,46.93.61,9.8-5,12.64-11.26,4.28-1.52-2.07-2.81-4.7-3.85-7.65-4.26-15.25-12.23-31.88-21.92-36.87-13.76-7.73-25.9,3.5-26.81,20.2-1.9,19.08,10.88,31,24.18,41.07,18.32,13.89,37.62,27.32,45.92,51.54,20.49,55.49-17.18,128.58-67.54,94.11-4.53-3.1-9.74-10.04-13.09-12.12-2.27-1.53-3.85-.19-5.31,2.71-.99,1.82-2.29,4.1-3.96,5.73-2.74,2.81-7.14,4.3-9.65,1.14-1.45-2.05-1.22-5.18-1.27-7.86.02-15.04,0-47.83.05-60.88-.01-2.79.44-5.85,2.7-6.85.03-.02.07-.03.1-.05Z" style="fill: url(#linear-gradient3);"/>
    <path d="M753.79,675.91c-1.45-4.01-.1-11.03,3.29-14.04,2.72-2.77,6.68-3.69,8.42-7.05,3.16-7.01-1.05-19.01-2.82-26.41-1.91-7.13-4.95-9.73-11.38-9.93-7.54-.6-20.19-1.52-27.75-1.98-1.68-.08-3.46-.06-4.95.33-3.66.96-4.95,3.83-6.25,8.21-1.4,5.41-2.9,11.67-2.85,17.46,0,10,6.47,11.75,11.22,18.13,2.53,3.8,3.86,9.38,1.93,13.61-1.09,2.31-3.33,2.72-7.04,2.57-3.22-.12-7.52-.34-12.09-.54-5.79-.26-11.69-.5-17.45-.73-4.87-.19-8.03-.22-9.52-2.54-1.85-3.02-1.54-7.17-.84-10.59.84-4.64,3.58-7.43,6.81-9.77,8.16-6.56,13.55-24.02,16.99-35.46,7.02-25.71,37.14-136.86,44.39-162.4.43-1.55.88-2.65,2.43-3.06,3.09-.6,6.95-.14,10.08,1.28,2.17,1.09,2.14,2.89,3.05,6.15,12.28,46.61,37.55,148.75,47.82,182.25,2.68,7.75,5.49,14.91,9.75,19.3,2.31,2.36,5.25,3.64,6.91,6.73,2.39,4.27,4.14,15.86-2.09,15.82-8.41-.32-22.03-1.64-36.84-2.51-7.63-.51-13.94-.89-20.39-1.29-3.85-.51-9.85.56-10.78-3.42-.01-.04-.03-.08-.04-.12ZM737.12,532.14c-.64-.04-1.45,3.46-3.08,9.16-4.18,14.97-11.39,40.76-14.13,50.85-.43,1.96-1.38,4.47.79,5.41,4.01,1.25,8.67,1.01,13.81,1.56,5.68.32,14.41,1.44,18.95,1.18,2.64-.14,2.17-2.55,1.58-4.82-2.69-9.98-10.37-37.64-14.76-53.71-1.66-5.94-2.49-9.57-3.13-9.62,0,0-.02,0-.03,0Z" style="fill: url(#linear-gradient4);"/>
    <path d="M980.63,504.94c1.91,4.59.21,9.98-3.22,12.87-3.02,2.4-7.25,3.19-9.62,6.51-4.7,6.38-4.76,16.82-4.87,25.68.01,13.35-.08,35.76-.08,51.65.11,17.53-.31,34.05-4.19,49.83-9.78,53.62-84.08,59.43-110.77,5.61-9.3-18.38-10.64-39.5-10.47-59.86.02-19.26.23-42.36.29-65.68-.51-14.19,2.26-27.48-5.61-40.17-2.74-3.68-6.73-5.27-9.35-8.45-4.89-5.47-6.16-19.16,3.02-16.07,15.49,2.88,53.47,9.64,67.24,13.7,5.56,3.38,3.12,12.91-.74,15.48-2.21,1.65-5.1,1.92-7.59,3.08-4.65,2-6.54,7.8-7.54,13.28-2.09,22.52-.52,60.87-1.16,82.62.1,24.83-1.76,56.85,20.88,73.24,26.46,17.36,51.43-8.27,51.46-36.59,1.29-28.7.62-62.31.73-90.23-.39-8.78-1.86-19.5-8.03-27.3-3.2-4.15-8.18-6.32-10.76-11.01-3.97-7.44-2.9-15.84,5.66-12.78,9.48,2.3,28.62,7.32,37.92,9.94,2.58.77,5.48,1.61,6.76,4.5.02.04.04.08.05.12Z" style="fill: url(#linear-gradient5);"/>
    <path d="M157.82,845.42c-8.33-4.85-17.08-43.12-26.6-48.24-7.43-4.12-9.22,2.8-9.15,9.96.18,7.37-.72,15.27,1.59,22.25,1.22,5.17,12.07,10.57,8.91,15.67-1.48,1.67-3.51,1.89-6.01,2-2.18.06-4.9.03-7.88.05-2.89,0-6.02.01-9.12.02-4.23.01-8.41.02-11.84.03-3.53.02-6.2,0-7.88-.91-6.16-3.85,3.98-9.92,6.15-13.55,3.85-5.46,2.94-11.82,3.1-18-.28-19.43.54-43.2-.41-60.92-.56-6.87-5.76-9.35-9.55-13.77-4.42-6.88,9.36-7.97,14.22-8.36,5.07-.52,10.06-1.07,15.11-1.54,12.25-.69,29.71-3.44,39.51,4.03,13.85,11.05,13.92,36.87.15,49.56-6.44,6.46-2.68,9.69,1.24,16.62,1.61,2.87,3.15,5.86,4.63,8.83,4.56,9.08,8.97,19.57,16.18,26.06,3.62,3.61,5.28,8.92.07,10.78-3.25,1.3-7.35.94-11.76,1.01-3.52-.09-7.36.04-10.55-1.51l-.12-.06ZM127.37,784.8c5.38-.21,11.71-2.68,14.2-8.23,3.8-8.36,4.84-24.04-1.49-31.71-3.59-3.97-10.45-5.79-15.34-3.65-2.96,1.83-2.67,5.46-2.78,8.66.01,8.35.02,19.55.06,27.41-.06,3.75.61,7.8,5.2,7.53.05,0,.1,0,.15,0Z" style="fill: url(#linear-gradient6);"/>
    <path d="M257.52,727.01c38.33,30.11,26.62,129.08-30.12,122.26-14.96-1.32-27.33-10.97-34.7-24.45-19.88-35.07-7.43-96.91,33.86-104.75,10.74-2.15,22.31.16,30.81,6.82.05.04.1.08.15.12ZM213.79,748.92c-5.46,17.48-4.53,49.25-1.34,66.23,5.02,25.93,29.78,31.74,37.96,3.81,4.43-18.71,3.48-46.57.54-64.71-1.55-9.57-6.25-19.94-15.27-22.39-10.29-2.78-18.61,6.69-21.82,16.85-.02.07-.04.13-.07.2Z" style="fill: url(#linear-gradient7);"/>
    <path d="M364.9,722.1c38.39,32.14,26.51,133.92-30.2,127.12-14.96-1.38-27.33-11.51-34.72-25.75-19.93-37.12-7.54-102.43,33.88-109.38,10.77-1.96,22.37.76,30.89,7.88.05.04.1.08.15.13ZM321.06,744c-5.47,18.22-4.51,51.61-1.32,69.44,5.03,27.26,29.79,33.26,37.99,4.24,4.44-19.45,3.51-48.43.57-67.36-1.55-9.99-6.25-20.89-15.3-23.66-10.32-3.16-18.66,6.56-21.87,17.15-.02.07-.04.14-.07.2Z" style="fill: url(#linear-gradient8);"/>
    <path d="M467.41,745.69c-5.49,2.78-9.5-16.35-15.14-18.61-3.69-2.36-8.26-2.4-12.43-2.43-5.4,0-8.86,1.6-9.11,7.12-.35,7.34-.03,16.03-.1,23.53,0,4.5-.03,8.23.69,10.67,1.74,6.58,9.2,4.1,12.09-.37,1.25-1.82,2.28-3.86,3.48-5.74,3.37-6.03,6.85-5.47,7.15,4.19.1,5.61.04,11.43.07,17.11-.3,7.34,1,12.11-1.87,16.68-4.36,3.75-7.55-12.61-12.88-13.56-2.96-1.28-5.9-.7-7.29,2.33-2.17,4.89-1.06,15.18-1.3,21.32.11,15.42-.33,18.64,9.41,29.37,7.07,10.14-5.22,9.49-11.3,9.33-6.47,0-14.69,0-20.93.01-5.51.12-12.9.2-10.05-7.11,1.84-3.79,5.43-6.85,7.48-10.6,3.8-8.1,2.16-14.16,2.51-24.23-.04-13.8-.08-28.47-.13-42.2-.46-11,1.12-19.1-1.57-28.9-1.51-4.67-5.68-7.88-8.04-11.38-2.57-3.2-2.61-7.96,2.03-8.41,14.3-.75,52.06-1.35,64.12-1.52,1.67.05,3.24.1,4.05,1.83,1.64,6.09.86,15.34,1.22,22.3.03,4.6-.76,8.05-2.09,9.2-.03.02-.05.04-.07.06Z" style="fill: url(#linear-gradient9);"/>
    <path d="M473.96,715.15c1.4-2.64,5.09-3.05,7.75-3.12,9.62.15,23.76-.94,33.6.16,6.52,1.7,4.12,6.73.58,10.91-2.67,3.5-5.62,6.78-6.61,11.18-1.11,4.55-.93,9.28-.97,13.99,0,16.69.04,44.27.05,62.84-.31,18,3.04,16.21,10.63,28.78,1.72,4.56-1.66,6.2-6.07,6.59-9.16.27-19.95.04-29.26.11-3.61-.17-7.55.33-9.55-3.33-1.2-2.98,2.53-7.07,5.59-11.52,5.16-6.12,4.93-14.83,4.84-22.89-.03-17.15-.03-47.71-.11-64.87-.08-4.51-.3-9.09-2.24-13.05-1.78-4.52-10.06-11.14-8.29-15.69.01-.03.03-.06.04-.1Z" style="fill: url(#linear-gradient10);"/>
    <path d="M605.58,848.39c-1.93-.51-3.64-1.98-4.79-4.01-9.52-16.2-44.59-77.38-53.41-92.03-1.01-1.39-1.19-.3-1.24,3.96-.04,9.78,0,20.04-.02,30.03.17,10.73-.43,21.81.46,31.21.46,3.97,1.42,8.12,3.36,11.44,3.19,5.19,11.93,13.17,4.67,16.6-4.45,1.92-9.91,1.01-14.78,1.22-4.36.07-11.8.3-12.98-4.4.07-7.21,7.5-11.38,9.27-18.03,1.08-3.22,1.42-6.7,1.52-10.11.17-7.15.05-19.01.08-28.23,0-8.75,0-17.76,0-26.5-.12-9.68.42-14.51-1.07-22.14-.69-10.03-18.36-21.23-5.87-25.26,3.3-1,8.85-.62,13.21-.69,4.34.29,9.65-.79,12.46,2.88,10.18,15.45,36,63.34,46.5,77.95.92-.84.57-10.48.64-14.03-.26-12.62.77-27.9-.75-39.22-.69-4.62-2.53-8.93-5.15-12.44-8.77-11.03-4.85-14.84,5.55-14.71,5.48.49,22.49-2.21,18.07,8.79-2.06,4.57-5.82,8.59-7.39,13.67-3.24,11.28-1.44,23.48-1.92,35.64-.04,23.22-.1,57.84-.12,71.46.4,4.73-1.98,8.22-6.2,6.98-.03,0-.06-.02-.09-.03Z" style="fill: url(#linear-gradient11);"/>
    <path d="M722.42,789.02c1.36,2.73-.92,6.7-2.86,11.12-1.34,2.96-2.64,5.86-3.08,9.22-1.71,8.51,1.73,26.98-4.42,31.26-3.59,2.25-11.48,2.79-16.4,4.59-78.34,33.34-90.4-122.98-25.44-133.77,5.58-.61,11.06.31,16.11,2.9,4.1,2.03,8.12,5.78,11.1,6.65,3.05,1.15,5.49-1.84,7.48-4.09,2.18-2.72,4.11-2.66,5.11,1.2,1.24,4.66.71,14.88.96,21.17.17,7.3,1.3,27.97-8.01,12.3-3.56-6.24-5.57-13.68-10.28-18.83-7.06-8.49-18.73-9.6-26.59-1.77-7.06,6.95-9.03,18.03-10.13,28.34-1.2,11.41-1.53,27.35-.76,40.58.91,12.62,2.6,28.56,13.47,34.44,5.05,2.69,11.79,2.43,16.67-1.05,8.75-6.04,9.21-23.65,3.44-32.89-2.46-4.49-5.48-8.62-4.55-11.46,2.21-4.51,7.44-3.13,11.52-3.37,5.48.09,12.47.2,17.65.3,2.98-.09,7.97.56,8.95,3.06.02.03.03.07.05.1Z" style="fill: url(#linear-gradient12);"/>
    <path d="M844.28,800.65c1.91,1.12,2.24,5.34,2.24,8.09.01,4.46-.03,9.54-.05,14.16-.28,6.37.67,15.74-1.11,19.91-2.62,5.53-7.61-4.95-11.6-3.97-2.87.15-6.96,4.29-11.53,6.69-28.33,14.09-53.46-11-57.89-48.06-4.38-31.17,6.44-73.6,34.76-79.8,7.34-1.62,15.37-.79,22.16,3.01,5.09,2.63,8.38,7.39,12.62,7.42,3.37.33,7.85-7.31,10.08-1.84,1.35,3.51.94,7.62,1.13,13.58.09,6.29.22,13.09.27,19.28.14,9.01-3.16,11.46-8.04,1.34-2.01-3.95-3.39-9.09-5.26-13.22-2.79-6.51-7.68-13.25-13.5-15.85-17.03-7.28-27.07,11.13-28.54,28.14-1.19,9.33-1.53,22.45-1.15,34,.72,16.89,2.67,34.77,15.39,41.03,11.38,5.59,23.19-2.42,28.64-14.33,2.74-5.14,3.72-11.94,6.78-16.65,1.56-2.4,3.24-3.63,4.52-2.97.02.01.05.03.07.04Z" style="fill: url(#linear-gradient13);"/>
    <path d="M934,734.57c37.96,32.93,25.77,119.52-30.97,114.73-14.95-1.26-27.24-10.88-34.5-24.75-19.61-36.41-6.61-100.06,34.66-100.86,10.73-.54,22.24,3.39,30.66,10.75.05.04.1.09.15.13ZM890.21,750.28c-5.59,16.63-4.91,48.4-1.86,65.28,4.8,26,29.53,31.22,37.91,5.07,4.56-17.55,3.81-43.71,1-61.18-1.48-9.2-6.08-19.58-15.07-23.12-10.24-4.05-18.62,4.07-21.91,13.76-.02.06-.05.12-.07.19Z" style="fill: url(#linear-gradient14);"/>
    <path d="M992.11,835.16c.41,8.64-7.42,18.9-16.3,13.71-8.79-5.58-9.09-21.97-.34-27.85,8.91-5.42,17.01,5.05,16.64,13.92,0,.07,0,.15,0,.22Z" style="fill: url(#linear-gradient15);"/>
  </g>
  <path d="M330.73,434.21c62.45-63.02,134.62-121.29,215.78-172.47,79.1,51.5,149.4,109.74,210.22,172.47-140.93-24.6-285.07-24.6-426,0ZM506.79,352.29c10.92-.31,21.84-.48,32.76-.52-.01-.5-.03-1-.04-1.5-.03-10.5-.07-21-.1-31.5-.54,0-1.08,0-1.62,0-10.64.05-21.29.22-31.93.52.31,11,.62,21.99.94,32.99ZM588.06,352.52c.33-10.99.66-21.99.99-32.99-.5-.02-1-.03-1.49-.05-11-.36-22-.59-33.01-.68,0,.5,0,1-.01,1.5-.09,10.5-.17,21-.26,31.5,11.26.09,22.52.33,33.77.71ZM540.66,393.27c-.02-9.83-.05-19.67-.07-29.5-.52,0-1.05,0-1.57,0-10.63.04-21.27.21-31.9.51.31,11,.62,21.99.94,32.99,10.95-.31,21.91-.48,32.87-.5-.09-1.17-.18-2.33-.26-3.5ZM554.19,363.81c-.09,11-.18,22-.27,33,0,.18,2.37.02,2.55.02,9.51.1,19.02.3,28.53.61.51.02,1.02.03,1.53.05.37-10.99.75-21.99,1.12-32.98,0-.18-2.43-.08-2.61-.09-10.28-.33-20.56-.54-30.85-.62Z" style="fill: url(#linear-gradient16);"/>
  <path d="M253.73,444.99c84.52-85.13,182.08-163.87,291.72-233.1,108.37,68.6,204.92,146.49,288.71,230.66-.64.73-1.28,1.46-1.91,2.19-15.22-2.64-30.47-5.07-45.74-7.29-71.38-67.47-151.41-130.4-239.51-187.05-.88-.19-1.77-.38-2.65-.57-89.17,56.65-170.16,119.73-242.38,187.47-16.1,2.33-32.18,4.9-48.22,7.7Z" style="fill: url(#linear-gradient17);"/>
</svg>