<?xml version="1.0" encoding="UTF-8"?>
<svg id="Layer_1" xmlns="http://www.w3.org/2000/svg" xmlns:xlink="http://www.w3.org/1999/xlink" version="1.1" viewBox="0 0 1080 1080">
  <!-- Generator: Adobe Illustrator 30.0.0, SVG Export Plug-In . SVG Version: 2.1.1 Build 123)  -->
  <defs>
    <linearGradient id="linear-gradient" x1="55.81" y1="734.03" x2="1470.93" y2="797.98" gradientUnits="userSpaceOnUse">
      <stop offset="0" stop-color="#fff"/>
      <stop offset="1" stop-color="#b3b3b3"/>
    </linearGradient>
    <linearGradient id="linear-gradient1" x1="62.78" y1="579.86" x2="1477.9" y2="643.82" xlink:href="#linear-gradient"/>
    <linearGradient id="linear-gradient2" x1="61.64" y1="605.05" x2="1476.76" y2="669.01" xlink:href="#linear-gradient"/>
    <linearGradient id="linear-gradient3" x1="69.35" y1="434.43" x2="1484.47" y2="498.38" xlink:href="#linear-gradient"/>
    <linearGradient id="linear-gradient4" x1="62.41" y1="587.99" x2="1477.53" y2="651.95" xlink:href="#linear-gradient"/>
    <linearGradient id="linear-gradient5" x1="63.01" y1="574.73" x2="1478.13" y2="638.68" xlink:href="#linear-gradient"/>
    <linearGradient id="linear-gradient6" x1="63.26" y1="569.25" x2="1478.38" y2="633.21" xlink:href="#linear-gradient"/>
    <linearGradient id="linear-gradient7" x1="62.22" y1="592.4" x2="1477.33" y2="656.35" xlink:href="#linear-gradient"/>
    <linearGradient id="linear-gradient8" x1="63.15" y1="571.66" x2="1478.27" y2="635.62" xlink:href="#linear-gradient"/>
    <linearGradient id="linear-gradient9" x1="74.35" y1="323.95" x2="1489.46" y2="387.9" xlink:href="#linear-gradient"/>
    <linearGradient id="linear-gradient10" x1="74.26" y1="325.78" x2="1489.38" y2="389.73" xlink:href="#linear-gradient"/>
    <linearGradient id="linear-gradient11" x1="73.26" y1="348.05" x2="1488.37" y2="412.01" xlink:href="#linear-gradient"/>
    <linearGradient id="linear-gradient12" x1="73.57" y1="341.19" x2="1488.68" y2="405.15" xlink:href="#linear-gradient"/>
    <linearGradient id="linear-gradient13" x1="71.5" y1="387.05" x2="1486.61" y2="451.01" xlink:href="#linear-gradient"/>
    <linearGradient id="linear-gradient14" x1="74.58" y1="318.81" x2="1489.7" y2="382.76" xlink:href="#linear-gradient"/>
    <linearGradient id="linear-gradient15" x1="72.58" y1="363.04" x2="1487.7" y2="426.99" xlink:href="#linear-gradient"/>
    <linearGradient id="linear-gradient16" x1="72.51" y1="364.54" x2="1487.63" y2="428.5" xlink:href="#linear-gradient"/>
    <linearGradient id="linear-gradient17" x1="73.97" y1="332.4" x2="1489.08" y2="396.35" xlink:href="#linear-gradient"/>
    <linearGradient id="linear-gradient18" x1="74.61" y1="318.03" x2="1489.75" y2="381.98" xlink:href="#linear-gradient"/>
    <linearGradient id="linear-gradient19" x1="74.62" y1="317.99" x2="1489.73" y2="381.94" xlink:href="#linear-gradient"/>
    <linearGradient id="linear-gradient20" x1="73.92" y1="333.47" x2="1489.03" y2="397.42" xlink:href="#linear-gradient"/>
    <linearGradient id="linear-gradient21" x1="67.59" y1="473.53" x2="1482.7" y2="537.49" xlink:href="#linear-gradient"/>
    <linearGradient id="linear-gradient22" x1="67.53" y1="474.71" x2="1482.65" y2="538.66" xlink:href="#linear-gradient"/>
    <linearGradient id="linear-gradient23" x1="68.77" y1="447.37" x2="1483.89" y2="511.32" xlink:href="#linear-gradient"/>
    <linearGradient id="linear-gradient24" x1="68.72" y1="448.56" x2="1483.83" y2="512.52" xlink:href="#linear-gradient"/>
  </defs>
  <path d="M808.07,720.92l-185.4,84.9-18.89.07-144.36-10,85.9-37-12.49-1.98-20.51-.6-99.45,36.5-150.26-7.92c-.41-2.26.1-1.6,1.27-2.23,6.02-3.27,20.57-6.73,27.93-9.03,65.06-20.26,131.18-37.18,196.18-57.63l156.78.84,163.3,4.06ZM629.75,721.91c-6.96.24-14.01,0-20.98,0-.58,0-8.63,3.64-10.73,4.26-20.29,6.08-40.23,13.29-60.7,18.75l15.43,2.04c6.74-.49,13.67.83,20.34-.73,13.62-3.19,41.23-15.85,54.81-22.14,1.33-.62,2.72-1.17,3.83-2.17,1-2.73-1.84-.01-2.01,0Z" style="fill: url(#linear-gradient);"/>
  <path d="M523.35,584.41c.88,2.89,5.6.57,7.5.5,7.6-.26,15.16.6,22.53.56l.79-1.2-.39-51.33c-5.71-4.53-12.19-15.23-1.01-16.07,9.63-.72,31.96-1.23,41.05,0,12.53,1.69-.52,15.87-1.57,21.53,2.84,39.86-3.7,84.81-.02,124.06.75,7.98,8.81,13.4,7.87,18.71-1.27,7.19-12.71,3.77-17.28,3.71-7.54-.1-27.05,1.48-32.8-.17-11.55-3.33,4.28-16.76,4.28-18.29v-54l-1.5-1.5h-27.97l-1.5,1.5v52c0,4.68,15.75,13.6,4.28,20.29-14.56-1.19-31.48,3.09-45.69,1.12-5.38-.75-5.55-6.3-3.79-10.65,2.72-6.72,6.46-5.79,7.27-16.71,2.94-39.35-2.31-82.33-.02-122.07-.76-6.78-14.32-13.52-4.52-19.48l47.75.2c9.22,5.34-5.29,15.69-5.29,19.3v48Z" style="fill: url(#linear-gradient1);"/>
  <path d="M185.93,698.66c-1.47-1.27-1.51-6.09-1.01-8.01.96-3.66,6.14-6.51,7.62-9.37,3.27-6.3-2.62-21.72-3.09-29.16l-32.09-.26c-1.83.42-5.08,23.13-4.67,26.57.92,7.86,8.05,9.64,9.56,14.41s.41,9.1-5.1,10c-8.38,1.37-22,.86-30.9,1.07-3.71.09-7.8,2.4-11.83.07-5.77-7.99,3.64-13.09,7.17-18.74,1.87-2.99,2.57-6.18,3.48-9.52,11.83-43.57,15.86-91.64,27.37-135.6,3.78-10.87-7.57-15.09-6.53-24.53l2.27-2.26,52.01.54,32.53,156.44c.46,9.56,14.74,12.8,11.71,22.87-.45,1.51-1.77,2.52-3.33,2.66-16.62.26-33.47,3.66-50.02,3.93-1.18.02-4.39-.49-5.14-1.14ZM171.71,562.92l-11.74,63.54c.54,2.99,6.3.54,8.24.46,3.23-.13,15.61,1.11,16.39-1.63l-12.9-62.37Z" style="fill: url(#linear-gradient2);"/>
  <polygon points="696.18 506.91 655.72 506.91 538.68 423.08 420.95 508.91 350.02 508.91 348.53 506.42 454.47 415.43 458.65 415.11 496.43 424.49 537.84 393.8 695.25 503.35 696.18 506.91" style="fill: url(#linear-gradient3);"/>
  <path d="M405.61,631.05c.96,11.16-2.91,28.76,2.65,38.57,3.19,5.63,15.87,13.71,1.73,18.31-15.34-1.46-31.92,2.53-47.03,1.04-13.9-1.37,0-14.85,1.77-19.34,3.25-8.24.78-13.55.72-21.18-.12-15.27.29-30.85.4-45.91.14-19.08,2.89-44.83.69-63.15-.69-5.77-4.21-7.15-6.66-11.33-8.64-14.76,10.65-10.68,19.16-11.1,47.97-2.37,98.4-3.38,94.41,60.5-1.39,22.22-11.09,40.35-32.74,48.23-12.02,4.38-22.9,3.69-35.1,5.37ZM405.47,604.91c16.27-1.42,26.56-3.55,28.85-21.62,1.73-13.65,1.63-37.31-16.36-39.38-3.41-.39-10-.75-12.49,1.5v59.5Z" style="fill: url(#linear-gradient4);"/>
  <path d="M643.93,517.11c14.13,1.06,32.16-2.08,45.81-.24,2.52.34,3.57.91,4.68,3.32l30.82,143.15c-1.14,6.22,18.47,20.42,8.92,25.08-4.51,2.2-20.76-.37-26.44-.55-5.99-.19-24.34,1.45-28.07-1.9-6.52-5.85,3.98-11.27,6.03-14.08,4.06-5.54-1.52-21.24-3.44-27.52-4.89-.19-30.35-1.69-32.54.51-2.31,2.33-3.99,17.87-3.41,21.47.95,5.91,10.93,9.8,6.81,16.94-3.34,5.79-9.28,2.65-14.29,2.61-7.26-.06-17.33.92-24.1.05-5.09-.65-5.38-4.69-3.9-9,1.49-4.33,7.85-7.95,10.38-15.6,12-36.35,13.7-81.92,24.75-119.21,4.58-10.29-11.07-17.79-2.02-25.03ZM677.2,619.91l-11.49-60.01-11.49,60.01h22.98Z" style="fill: url(#linear-gradient5);"/>
  <path d="M948.17,567.68c-1.62-1.63-3.72-12.34-5.04-15.46-4.33-10.22-10.48-10.81-20.77-8.41l-1.37,2.63c.44,29.65-.66,59.37-.07,89.01.18,9.13.11,42.24,2.83,48.17,2.5,5.46,13.02,12.16,3.5,18.08-17.77.13-35.58-2.44-53.26-4.27-8.08-8.36,5.36-13.78,6.04-22l-.3-128.79c.28-8.16-14.01-3.66-17.36-.4-4.76,4.63-5.07,17.03-8.78,20.71-3.12,3.08-14.14,2.93-16.03-1.04-1.22-2.57-.65-22.08-.5-26.58.11-3.34,1.01-20.43,1.5-21.43.72-1.47,2.4-2.04,3.95-2.04l122.49.48c.75.52,1.83,15.03,1.94,17.99.23,5.93,1.07,27.68-.2,31.88-1.49,4.96-15.57,4.46-18.56,1.46Z" style="fill: url(#linear-gradient6);"/>
  <path d="M288.36,511.19c11.2-1.27,20.51.47,31.2,3.21,3.14.8,6.56,3.21,9.6,3.47,3.62.31,9.44-2.48,12.46,1.44,2.61,3.4.27,38.78.42,45.6-1.93,3.87-14.25,2.86-16.99-.01-4.91-5.16-1.7-24.95-15.47-29.51-21.16-7.02-32.53,14.96-19.41,32.43,21.62,28.8,60.11,27.96,59.82,77.36-.29,47.33-40.92,54.12-78.98,47.82-4.81-.8-11.4.94-15.42-3.57-5.65-6.32-2.86-35.91-5.89-45.17-.08-8.61,14.94-10.38,19.11-3.07,6.79,11.88,4.02,24.95,22.53,27.44,17.1,2.3,25.93-5.59,22.98-23s-38.69-33.99-51.22-48.73c-25.2-29.62-17.61-80.87,25.26-85.73Z" style="fill: url(#linear-gradient7);"/>
  <path d="M745.84,516.11l47.77-.28c11.99,4.06-1.78,14.12-2.55,20.55-2.54,21.23.15,52.59.07,75.06-.04,10.86.14,21.99,0,33.01-.05,3.91-2.28,20.29-.07,21.97,1.94,1.48,22.06,2.85,25.41,2.39,15.16-2.09,12.09-20.93,18.51-27.47,4.17-4.26,14.68-.07,15.1,6.01-.77,13.33.48,28.97-1.04,42.07-.51,4.38-2.09,5.87-6.49,6.31-30.97-4.12-63.06-2.19-93.95-5.8-15.85-1.85,1.73-16.26,1.57-23.47l-.02-130.08c-.8-6.7-12.57-14-4.32-20.27Z" style="fill: url(#linear-gradient8);"/>
  <path d="M454.92,374.91l-1.39-2.36c5.53-7.91,2.99-20.4,1.75-29.49-1.74-.33-3.61-.26-5.38-.18-2.95.14-9.88.5-10.47,3.54-.45,2.34,1.34,19.45,2.28,21.72s3.55,3.56,3.73,6.25c-.68,1.08-1.36,1.26-2.53,1.49-4.31.85-13.83,1.95-18.1,1.99-1.86.02-2.84-.45-3.91-1.97,1.06-4.77,2.74-5.82,2.61-11.53-.19-8.68-2-42.29-4.35-48.66-1.01-2.74-7-7.74-1.19-8.79,3.47,1.18,18.94-1.67,20.53-.56,2.44,1.71-.78,5.97-1.12,8.98-.67,5.92,1.58,11.68,1.06,17.58,1.82-.03,3.66.14,5.49-.02,2.42-.2,10.79-.89,11.36-2.63.81-2.46-.22-12.89-.94-15.78-.97-3.87-6.57-8.76.54-9.63,2.78-.34,14.73-1.24,17.04-1.04,7.14.61,1.1,5.24.54,8.64-1.32,8.11.77,16.91.99,24.91.33,11.88-2.67,25.08,4.98,35.07l-1.52,2.48h-21.98Z" style="fill: url(#linear-gradient9);"/>
  <path d="M697.42,388.68l-6.63-26.87c-.62-.57-1.38-.72-2.17-.88-.87-.18-2.63-.31-3.3.11-1,.62-2.5,16.06-2.17,18.42.39,2.75,2.65,4.43,2.04,7.44l-24.97-4.01c-.4-3.48,2.94-3.97,4.22-6.24,1.93-3.42,7.58-45.07,7.8-51.3.15-4.32-2.2-6.4-2.03-10.45,19.24.93,62.71,3.83,49.46,34-2.8,6.38-7.21,8.28-12.13,12.46-.22,1.85,6.23,20.32,7.58,23.09,1.36,2.8,4.09,3.77,4.05,6.93-1.09,1.66-1.51,1.21-3.01,1.12-2-.12-17.99-3.23-18.73-3.84ZM686.19,349.89c9.93,3.89,19.52-2.54,17.95-13.41-.86-5.92-9.17-10.51-14.49-7.61l-3.46,21.02Z" style="fill: url(#linear-gradient10);"/>
  <path d="M348.67,390.82c-2.18-4.09-10.34-22.67-13.82-23.74-8.17-2.51-4.12,9.93-2.82,14.84s2.44,6.34,5.46,10.38c-.4,2.42-13.9,5.05-16.72,5.34-1.74.18-4.56.97-5.79-.69,0-4,.82-7.21.45-11.43-.92-10.65-5.53-36.23-8.72-46.26-1.1-3.46-6.12-8.7-3.15-10.87,21.77-7.72,57.21-17.67,52.96,19.02-.76,6.59-6.86,9.85-5.82,14.77.28,1.33,11.31,16.81,12.81,18.23s6.46,3.04,5.99,4.98c-.5,2.1-17.91,4.49-20.83,5.42ZM327.64,356.8c19.71,1.56,15.9-32.53-4.09-21.86l4.09,21.86Z" style="fill: url(#linear-gradient11);"/>
  <path d="M778.76,336c3.1-.96,28.15,7.31,32.21,9.52,28.77,15.67,18.14,62.42-11.39,65.38-9.19.92-27.94-3.59-36.45-7.49-7-3.21-.92-4.66,1.01-6.98,2.22-2.67,14.67-46.49,14.94-51.18.17-3.07-4.3-8.01-.32-9.25ZM795.09,351.91l-11.76,45.55c23.35,13.5,40.15-45.3,11.76-45.55Z" style="fill: url(#linear-gradient12);"/>
  <path d="M243.55,420.84l-11.84,2.58-31.03-30.51c3.03,9.3,4.99,23.68,9.52,31.96,1.05,1.92,4.32,2.84,3.45,6.03-3.87.28-13.95,6.63-17.02,4.57-1.3-.88.15-7.58-.41-10.6-1.2-6.46-13-44.72-15.87-48.61-.97-1.31-5.85-2.58-3.21-6.39.83-1.2,16.07-6.21,17.84-5.79l26.66,24.84c-2.12-6.74-3.62-18.85-6.74-24.74-1.38-2.61-4.7-2.7-5.2-5.67.64-2.99,13.66-5.23,16.46-7.56l17.39,69.89Z" style="fill: url(#linear-gradient13);"/>
  <path d="M624.02,308.17c18.19-2.67,34.52,8.63,36.19,27.26,2.33,26-12.42,51.65-41.74,42.78-31.47-9.51-24.38-65.64,5.56-70.04ZM636.9,321.25c-7.94-7.84-15.32,1.54-17.19,9.6-1.92,8.24-4.69,35.43,6.27,37.86,8.45,1.87,10.96-5.43,12.59-11.98,2.05-8.27,4.72-29.17-1.67-35.48Z" style="fill: url(#linear-gradient14);"/>
  <path d="M272.38,335.18c32.63-3,44.73,59.51,14.57,71.6-44.83,17.96-64.58-67.01-14.57-71.6ZM271.95,395.57c6,5.78,13.14,1.06,14.4-6.4,1.51-8.94-3.29-34.98-10.7-40.8-4.84-3.8-11.37-1.91-13.26,3.82-3.06,9.24,2.46,36.55,9.56,43.38Z" style="fill: url(#linear-gradient15);"/>
  <path d="M852.29,433.66c-4.51-3.67,2.74-4.57,3.69-6.54.77-1.61,1.86-10.31.45-11.32l-15.73-4.79c-4.15,4.39-6.82,8.85-4.65,14.9-1.43,2.01-20.76-5.22-19.98-8.48,1.45-1.75,3.84-2.08,5.5-3.51,3.28-2.83,32.84-45.66,33.41-48.55.45-2.29-1.27-6.61,1.55-6.47s20.59,6.61,21.32,8.68l-3.88,59.79c-1.85,5.26,4.28,10.77.55,14.51l-22.23-8.22ZM861.02,381.92c-2.61-.64-1.75.84-2.58,1.88-1.64,2.07-12.16,17.06-11.41,18.09l10.98,3.02,3-23Z" style="fill: url(#linear-gradient16);"/>
  <path d="M407.36,309.02l4.06,17.83c-6.26,3.47-11.01-8.72-17.87-2.31,2.87,14.05,2.5,29.67,5.21,43.59.34,1.74.55,4.29,1.26,5.74,1.27,2.57,7.62,5.53-.3,7.79-2.01.57-17.72,3.34-18.64,3.13-4.63-1.05,1.85-7.85,1.34-10.24l-5.92-48.64c-7.39-.32-10.18,4.73-12.98,10.58l-3.39-.49c-1.48-3.51-2.86-18.9-.62-20.6,1.67-1.27,36.63-6.06,41.49-6.46,2.1-.17,4.29-.15,6.38.09Z" style="fill: url(#linear-gradient17);"/>
  <path d="M527.35,315.91v17h14.99c.03,3.25.56,6.99-1.99,9.5-4.42,1.23-8.53,1.35-12.99.49.7,6.63-.99,15.08.05,21.45.26,1.61,5.26,8.55,1.45,8.55h-23.48c-1.32-3.93,2.57-5.05,3.48-7.01,1.62-3.49.36-25.6.47-31.53.17-9.1,4.29-21-2.52-28.43l1.06-2.03h37.96c2.61,0,4.61,16.09,2.57,17.57-4.97,2.16-6.34-4.36-10.77-5.36-3.2-.72-6.99.05-10.28-.21Z" style="fill: url(#linear-gradient18);"/>
  <path d="M555.32,304.91c.75-.77,18.97.56,21.48,1,6.11,1.05-.91,6.61-1.45,9.55l-1.95,46.81c.96,2.93,10.69,1.85,13.26.52,2.89-1.49,4.37-6.63,8.69-4.45,2.42,1.76-.36,15.76-3.05,17.09-6.38,3.15-29.28-3.16-37.47-1.52-6.09-1.13.31-6.47,1.22-8.76,2.85-7.17,1.02-26.91,1.23-35.77.11-4.8,1.77-9.68,1.09-15.01-.46-3.59-3.9-5.5-3.05-9.45Z" style="fill: url(#linear-gradient19);"/>
  <path d="M740.15,327.92c1.15-1.09,24.61,4.22,24.97,5.52-.24,3.59-3.3,4.5-4.73,8.23-2.65,6.87-10.96,40.94-11.28,47.79-.15,3.24,3.27,9.68.43,10.4-3.55-1.27-22.56-3.97-23.35-6.52s3.18-4.57,4.42-6.47c2.05-3.16,11.91-47.24,11.61-51.44-.2-2.84-2.34-4.66-2.07-7.5Z" style="fill: url(#linear-gradient20);"/>
  <path d="M542.39,504.86c-.68-6.25-1.45-12.43.88-18.51,3.83-.29,17.05-1.7,19.14.97,1.43,1.81,1.51,17.08-.03,18.16l-19.99-.62Z" style="fill: url(#linear-gradient21);"/>
  <path d="M535.34,485.91v19c-6.83,2.07-13,.24-19.84-.13-1.47-.89-1.65-14.88-.65-16.88,2.24-4.49,16.01-2.52,20.5-1.98Z" style="fill: url(#linear-gradient22);"/>
  <path d="M542.33,461.41c1.15-3.58,17.45-2.28,19.58-.6,2.53,2,2.18,18.1-1.1,18.1h-16.98l-1.5-1.5v-16Z" style="fill: url(#linear-gradient23);"/>
  <path d="M516.86,478.91c-3.6-1.01-3.42-16.3-1.1-18.1,2.68-2.08,16.71-2.56,19.58.6v16l-1.5,1.5h-16.98Z" style="fill: url(#linear-gradient24);"/>
</svg>