<?xml version="1.0" encoding="UTF-8"?>
<svg id="Layer_1" xmlns="http://www.w3.org/2000/svg" version="1.1" viewBox="0 0 1080 1080">
  <!-- Generator: Adobe Illustrator 30.0.0, SVG Export Plug-In . SVG Version: 2.1.1 Build 123)  -->
  <defs>
    <style>
      .st0 {
        fill: #b07141;
      }

      .st1 {
        fill: #ce8d52;
      }

      .st2 {
        fill: #be804a;
      }

      .st3 {
        fill: #d19055;
      }

      .st4 {
        fill: #8a4b2d;
      }

      .st5 {
        fill: #5d3623;
      }

      .st6 {
        fill: #753d29;
      }

      .st7 {
        fill: #73442d;
      }

      .st8 {
        fill: #935737;
      }

      .st9 {
        fill: #8e4c30;
      }

      .st10 {
        fill: #9e4822;
      }

      .st11 {
        fill: #b97944;
      }

      .st12 {
        fill: #be6e3d;
      }

      .st13 {
        fill: #894b2d;
      }

      .st14 {
        fill: #9a5a35;
      }

      .st15 {
        fill: #b06a3c;
      }

      .st16 {
        fill: #b27341;
      }

      .st17 {
        fill: #653524;
      }

      .st18 {
        fill: #d2854c;
      }

      .st19 {
        fill: #df9959;
      }

      .st20 {
        fill: #efac63;
      }

      .st21 {
        fill: #5f3729;
      }

      .st22 {
        fill: #c88c51;
      }

      .st23 {
        fill: #905130;
      }

      .st24 {
        fill: #985435;
      }

      .st25 {
        fill: #cc7f46;
      }

      .st26 {
        fill: #dd9352;
      }

      .st27 {
        fill: #d79053;
      }

      .st28 {
        fill: #864f32;
      }

      .st29 {
        fill: #ae6c3a;
      }

      .st30 {
        fill: #89543d;
      }

      .st31 {
        fill: #f5b46b;
      }

      .st32 {
        fill: #d58248;
      }

      .st33 {
        fill: #d09157;
      }

      .st34 {
        fill: #8b4c2e;
      }

      .st35 {
        fill: #a0683f;
      }

      .st36 {
        fill: #4c2c21;
      }

      .st37 {
        fill: #7b412c;
      }

      .st38 {
        fill: #fbbd72;
      }

      .st39 {
        fill: #dd9453;
      }

      .st40 {
        fill: #de8e50;
      }

      .st41 {
        fill: #7e4429;
      }

      .st42 {
        fill: #f9ba6f;
      }

      .st43 {
        fill: #703b28;
      }

      .st44 {
        fill: #462623;
      }

      .st45 {
        fill: #7d432d;
      }

      .st46 {
        fill: #713722;
      }

      .st47 {
        fill: #cb9355;
      }

      .st48 {
        fill: #8f6040;
      }

      .st49 {
        fill: #9d633a;
      }

      .st50 {
        fill: #8f502d;
      }

      .st51 {
        fill: #9e4923;
      }

      .st52 {
        fill: #583623;
      }

      .st53 {
        fill: #5d3023;
      }

      .st54 {
        fill: #6f3c27;
      }

      .st55 {
        fill: #633425;
      }

      .st56 {
        fill: #a4603a;
      }

      .st57 {
        fill: #9d4822;
      }

      .st58 {
        fill: #8c4e2e;
      }

      .st59 {
        fill: #c47741;
      }

      .st60 {
        fill: #7b4c32;
      }

      .st61 {
        fill: #78442c;
      }

      .st62 {
        fill: #512c1e;
      }

      .st63 {
        fill: #673c24;
      }

      .st64 {
        fill: #b66a3c;
      }

      .st65 {
        fill: #f9b565;
      }

      .st66 {
        fill: #d1884d;
      }

      .st67 {
        fill: #7b442b;
      }

      .st68 {
        fill: #783f2a;
      }

      .st69 {
        fill: #c77742;
      }

      .st70 {
        fill: #ca7943;
      }

      .st71 {
        fill: #93603e;
      }

      .st72 {
        fill: #49281e;
      }

      .st73 {
        fill: #d88b4d;
      }

      .st74 {
        fill: #f0e7d6;
      }

      .st75 {
        fill: #814c2e;
      }

      .st76 {
        fill: #f6b368;
      }

      .st77 {
        fill: #c69155;
      }

      .st78 {
        fill: #40241b;
      }

      .st79 {
        fill: #a6613a;
      }

      .st80 {
        fill: #dd9756;
      }

      .st81 {
        fill: #d38a4c;
      }

      .st82 {
        fill: #b36a40;
      }

      .st83 {
        fill: #d89154;
      }

      .st84 {
        fill: #b2613e;
      }

      .st85 {
        fill: #6b3722;
      }

      .st86 {
        fill: #d89153;
      }

      .st87 {
        fill: #9a5e37;
      }

      .st88 {
        fill: #aa633a;
      }

      .st89 {
        fill: #b96a3a;
      }

      .st90 {
        fill: #582f23;
      }

      .st91 {
        fill: #865b4b;
      }

      .st92 {
        fill: #7d4730;
      }

      .st93 {
        fill: #714530;
      }

      .st94 {
        fill: #8e4f32;
      }

      .st95 {
        fill: #e39b57;
      }

      .st96 {
        fill: #c07946;
      }

      .st97 {
        fill: #5b3023;
      }

      .st98 {
        fill: #f6b46a;
      }

      .st99 {
        fill: #5d3221;
      }

      .st100 {
        fill: #d3954e;
      }

      .st101 {
        fill: #9e4922;
      }

      .st102 {
        fill: #a75e37;
      }

      .st103 {
        fill: #a7673d;
      }

      .st104 {
        fill: #c38b57;
      }

      .st105 {
        fill: #543125;
      }

      .st106 {
        fill: #d99255;
      }

      .st107 {
        fill: #834330;
      }

      .st108 {
        fill: #b4713f;
      }

      .st109 {
        fill: #a67545;
      }

      .st110 {
        fill: #804728;
      }

      .st111 {
        fill: #48291e;
      }

      .st112 {
        fill: #f7b86f;
      }

      .st113 {
        fill: #f2af65;
      }

      .st114 {
        fill: #703d29;
      }

      .st115 {
        fill: #ad6539;
      }

      .st116 {
        fill: #83462e;
      }

      .st117 {
        fill: #432615;
      }

      .st118 {
        fill: #522e20;
      }

      .st119 {
        fill: #8f4f31;
      }

      .st120 {
        fill: #e19d5b;
      }

      .st121 {
        fill: #e19b59;
      }

      .st122 {
        fill: #f8b96e;
      }

      .st123 {
        fill: #da8d4b;
      }

      .st124 {
        fill: #924f32;
      }

      .st125 {
        fill: #ab5f37;
      }

      .st126 {
        fill: #6e4429;
      }

      .st127 {
        fill: #764327;
      }

      .st128 {
        fill: #c58047;
      }

      .st129 {
        fill: #ab633b;
      }

      .st130 {
        fill: #a7663b;
      }

      .st131 {
        fill: #9d5630;
      }

      .st132 {
        fill: #f8ba71;
      }

      .st133 {
        fill: #48271f;
      }

      .st134 {
        fill: #6c3826;
      }

      .st135 {
        fill: #673525;
      }

      .st136 {
        fill: #9d4923;
      }

      .st137 {
        fill: #4e2b21;
      }

      .st138 {
        fill: #a35d37;
      }

      .st139 {
        fill: #c27b44;
      }

      .st140 {
        fill: #b97344;
      }

      .st141 {
        fill: #e39d5b;
      }

      .st142 {
        fill: #c47641;
      }

      .st143 {
        fill: #c57b46;
      }

      .st144 {
        fill: #a65f3b;
      }

      .st145 {
        fill: #efab66;
      }

      .st146 {
        fill: #c99154;
      }

      .st147 {
        fill: #915435;
      }

      .st148 {
        fill: #bd703e;
      }

      .st149 {
        fill: #824b2b;
      }

      .st150 {
        fill: #b96f40;
      }

      .st151 {
        fill: #955034;
      }

      .st152 {
        fill: #b38a4e;
      }

      .st153 {
        fill: #bf7c48;
      }

      .st154 {
        fill: #955836;
      }

      .st155 {
        fill: #77432e;
      }

      .st156 {
        fill: #b16b3d;
      }

      .st157 {
        fill: #5e2f1e;
      }

      .st158 {
        fill: #583224;
      }

      .st159 {
        fill: #603326;
      }

      .st160 {
        fill: #ac6c3f;
      }

      .st161 {
        fill: #5e3426;
      }

      .st162 {
        fill: #a86038;
      }

      .st163 {
        fill: #6a3726;
      }

      .st164 {
        fill: #cc7d43;
      }

      .st165 {
        fill: #a3693d;
      }

      .st166 {
        fill: #c48149;
      }

      .st167 {
        fill: #4d2c21;
      }

      .st168 {
        fill: #cc8249;
      }

      .st169 {
        fill: #7b4325;
      }

      .st170 {
        fill: #ca7446;
      }

      .st171 {
        fill: #c9824a;
      }

      .st172 {
        fill: #4b2a1f;
      }

      .st173 {
        fill: #4d2f21;
      }

      .st174 {
        fill: #8c4e31;
      }

      .st175 {
        fill: #d59458;
      }

      .st176 {
        fill: #623a29;
      }

      .st177 {
        fill: #bd7a43;
      }

      .st178 {
        fill: #9d4821;
      }

      .st179 {
        fill: #cb8b50;
      }

      .st180 {
        fill: #f1af65;
      }

      .st181 {
        fill: #945932;
      }

      .st182 {
        fill: #b6693c;
      }

      .st183 {
        fill: #9b5638;
      }

      .st184 {
        fill: #d79154;
      }

      .st185 {
        fill: #8e4d30;
      }

      .st186 {
        fill: #af6237;
      }

      .st187 {
        fill: #a06137;
      }

      .st188 {
        fill: #77422d;
      }

      .st189 {
        fill: #d99354;
      }

      .st190 {
        fill: #322117;
      }

      .st191 {
        fill: #995637;
      }

      .st192 {
        fill: #d69052;
      }

      .st193 {
        fill: #cd864d;
      }

      .st194 {
        fill: #915b37;
      }

      .st195 {
        fill: #bb7a45;
      }

      .st196 {
        fill: #5e3c24;
      }

      .st197 {
        fill: #7f5337;
      }

      .st198 {
        fill: #ae6c3d;
      }

      .st199 {
        fill: #754130;
      }

      .st200 {
        fill: #4c2a1d;
      }

      .st201 {
        fill: #43281d;
      }

      .st202 {
        fill: #9d6038;
      }

      .st203 {
        fill: #ce965c;
      }

      .st204 {
        fill: #784129;
      }

      .st205 {
        fill: #4b2b20;
      }

      .st206 {
        fill: #5c3624;
      }

      .st207 {
        fill: #cc824b;
      }

      .st208 {
        fill: #dd9555;
      }

      .st209 {
        fill: #573423;
      }

      .st210 {
        fill: #8f5d37;
      }

      .st211 {
        fill: #d48b4e;
      }

      .st212 {
        fill: #bc7f49;
      }

      .st213 {
        fill: #cc8147;
      }

      .st214 {
        fill: #512b1f;
      }

      .st215 {
        opacity: .1;
      }

      .st216 {
        fill: #512d22;
      }

      .st217 {
        fill: #543321;
      }

      .st218 {
        fill: #fabe73;
      }

      .st219 {
        fill: #502a20;
      }

      .st220 {
        fill: #ce824b;
      }

      .st221 {
        fill: #804c30;
      }

      .st222 {
        fill: #fefefe;
      }

      .st223 {
        fill: #966a46;
      }

      .st224 {
        fill: #975933;
      }

      .st225 {
        fill: #d1874c;
      }

      .st226 {
        fill: #895735;
      }

      .st227 {
        fill: #643b28;
      }

      .st228 {
        fill: #572f23;
      }

      .st229 {
        fill: #8a5f41;
      }

      .st230 {
        fill: #c67c46;
      }

      .st231 {
        fill: #ae6f40;
      }

      .st232 {
        fill: #522c21;
      }

      .st233 {
        fill: #ab6138;
      }

      .st234 {
        fill: #e7a15f;
      }

      .st235 {
        fill: #885a3e;
      }

      .st236 {
        fill: #d0884d;
      }

      .st237 {
        fill: #925032;
      }

      .st238 {
        fill: #753d2b;
      }

      .st239 {
        fill: #e89f60;
      }

      .st240 {
        fill: #f9bb6f;
      }

      .st241 {
        fill: #6c3c25;
      }

      .st242 {
        fill: #914f31;
      }

      .st243 {
        fill: #d3854a;
      }

      .st244 {
        fill: #a8693e;
      }

      .st245 {
        fill: #76492f;
      }

      .st246 {
        fill: #8f4e2f;
      }

      .st247 {
        fill: #f5b068;
      }

      .st248 {
        fill: #8b5033;
      }

      .st249 {
        fill: #99693f;
      }

      .st250 {
        fill: #532d20;
      }

      .st251 {
        fill: #c57640;
      }

      .st252 {
        fill: #bf723f;
      }

      .st253 {
        fill: #5b3224;
      }

      .st254 {
        fill: #69412c;
      }

      .st255 {
        fill: #6b4027;
      }

      .st256 {
        fill: #f9bb70;
      }

      .st257 {
        fill: #562f22;
      }

      .st258 {
        fill: #5a3123;
      }

      .st259 {
        fill: #8e5b37;
      }

      .st260 {
        fill: #593225;
      }

      .st261 {
        fill: #e1a15d;
      }

      .st262 {
        fill: #b67644;
      }

      .st263 {
        fill: #eeaa64;
      }

      .st264 {
        fill: #755233;
      }

      .st265 {
        fill: #3d271e;
      }

      .st266 {
        fill: #904e31;
      }

      .st267 {
        fill: #cb8349;
      }

      .st268 {
        fill: #522e23;
      }

      .st269 {
        fill: #de9a5b;
      }

      .st270 {
        fill: #e29b59;
      }

      .st271 {
        fill: #533022;
      }

      .st272 {
        fill: #7e5533;
      }

      .st273 {
        fill: #f8b86e;
      }

      .st274 {
        fill: #ca8148;
      }

      .st275 {
        fill: #814f33;
      }

      .st276 {
        fill: #874b35;
      }

      .st277 {
        fill: #8a4a32;
      }

      .st278 {
        fill: #4b2b21;
      }

      .st279 {
        fill: #9f5734;
      }

      .st280 {
        fill: #513222;
      }

      .st281 {
        fill: #b06d40;
      }

      .st282 {
        fill: #cb8f51;
      }

      .st283 {
        fill: #442822;
      }

      .st284 {
        fill: #eca75d;
      }

      .st285 {
        fill: #9e673a;
      }

      .st286 {
        fill: #ad643a;
      }

      .st287 {
        fill: #7c4128;
      }

      .st288 {
        fill: #a8603c;
      }

      .st289 {
        fill: #d48d51;
      }

      .st290 {
        fill: #743c28;
      }

      .st291 {
        fill: #4a261e;
      }

      .st292 {
        fill: #a27e58;
      }

      .st293 {
        fill: #9a5934;
      }

      .st294 {
        fill: #eca75f;
      }

      .st295 {
        fill: #d08448;
      }

      .st296 {
        fill: #a76c40;
      }

      .st297 {
        fill: #bc7742;
      }

      .st298 {
        fill: #a36c3b;
      }

      .st299 {
        fill: #cc8349;
      }

      .st300 {
        fill: #fdfdfd;
      }

      .st301 {
        fill: #5b3426;
      }

      .st302 {
        fill: #4c2b20;
      }

      .st303 {
        fill: #754229;
      }
    </style>
  </defs>
  <rect class="st222" x="33.72" y="28" width="1" height="1024"/>
  <path class="st57" d="M802.39,284.58c197.03,209.68,75.64,559.61-208.88,598.26-273.95,37.22-483.21-242.1-374.14-495.51,99.82-231.91,409.65-287.25,583.01-102.75Z"/>
  <path class="st74" d="M773.65,776.65c-202.19,190.25-539.78,58.34-562.09-218.16-22.72-281.46,285.01-461.93,520.4-306.91,179.06,117.92,196.95,378.98,41.69,525.07Z"/>
  <g id="Generative_Object" class="st215">
    <g>
      <path class="st300" d="M829.01,359.36c-1.75-.27-2.45-.85-2.59-.86l2.59-2.59c-.26.88.17,2.39,0,3.45Z"/>
      <g>
        <path class="st300" d="M869.54,463.71l.86,4.31c-.73-.17-5.33-.83-6.04-.86.65-2.7,3.88-2.63,5.17-3.45Z"/>
        <g>
          <path class="st167" d="M748.81,577.55c42.77-.2,85.73.29,128.5,0-1.25,4.77-3.5,6.8-7.76,9.49-.92.58-3.95.44-4.31,2.59-70.23-3.31-145.64.06-216.46,0-7.46,0-14.96,0-22.42,0-89.4-.05-178.83.4-268.21.86-44.51.23-91.36-2.21-135.4-.86.16-.98-.82-.82-.86-.86-3.84-4.24-5.64-3.68-7.76-9.49,178.23.94,356.5-.91,534.69-1.72Z"/>
          <path class="st116" d="M879.89,545.64c-.29,8.2-.67,24.55-2.59,31.91-42.77.29-85.73-.2-128.5,0l-.86-6.9c39.37-1.07,78.27-1.44,117.29-7.33-17.71-3.96-35.31,3.3-53.04,4.74-20.28,1.65-43.6,1.2-64.25,1.72l-2.16-13.8-183.69,4.31c5.74-3.35,74.11-1.06,73.74-4.74-.1-.98-3.87.35-3.02-1.29,33.92-3.56,68.52-1.01,102.63-1.72,12.51-.26,26.37-1.62,37.51-2.59.95-.08,1.75,2.06,3.02-1.72l103.92-2.59Z"/>
          <path class="st45" d="M875.58,475.78c1.01,4.37,1.09,8.58,1.72,12.94-1.17,1.74-6.58,2.55-8.19,2.59-33.47.85-72.4,3.4-104.35,3.45-10.45.01-20.15,1.74-30.62,0-5.19-.86-17.27-4.82-20.7-8.62,23.11-.75,45.96-1.26,69.42-2.59,30.91-1.74,61.78-6.01,92.71-7.76Z"/>
          <path class="st37" d="M879.89,530.11c.12,3.98.09,8.09,0,12.07-1.67,1.15-1.69,1.47-3.88,1.72-35.53,4.09-80.49.21-116.86.86-2.35-2.29-8.74-1.01-10.78-1.72-3.31-1.17-1.65-3.83-2.59-4.31-.4-.21-7.53-.7-9.06-.86l76.75-6.9c22.13-.31,44.25.58,66.41-.86Z"/>
          <path class="st237" d="M870.41,468.02c1.09.25,2.66-.17,3.88,0,.98.71.1,2.56.43,3.45-54.23,7.82-109.25,7.19-163.86,10.35-3.46-1.21-4.21-8.29-2.59-9.92.86-.86,11.7,2.31,8.62-3.02,47.73-.31,100.34-3.79,147.47-1.72.7.03,5.31.7,6.04.86Z"/>
          <path class="st119" d="M879.89,514.59c.09,4.01-.13,8.07,0,12.07-26.68,2.17-53.45,1.62-80.2,1.72l-5.61-1.72c-1.66-.87,1.38-2.88,1.29-3.02-4-6.75-7.32,1.85-7.33-3.02-2.06,5.36-8.2-.45-9.49,0-.2.07-1.72,3.52-2.59,3.45-.49-.04-7.38-5.98-7.33-6.47.12-1.07,3.16-.49,3.45-2.59l-5.17-3.02c37.64,1.07,75.37,3.94,112.98,2.59Z"/>
          <path class="st105" d="M210.67,523.21c.04-1.43-.05-2.89,0-4.31,20.43-1.22,41.18-1.11,61.66-2.59,11.93-.86,23.69-6.74,36.22-4.31l88.4,16.82c-10.76,2.27-24.04,1.58-34.93.43-11.97-1.27-25.9-6.67-37.08-7.76-35.7-3.49-77.92,3.21-114.27,1.72Z"/>
          <path class="st216" d="M875.58,475.78c-30.93,1.75-61.8,6.02-92.71,7.76-23.47,1.32-46.31,1.84-69.42,2.59-21.34.69-39.82-1.72-61.23.86v-2.59c19.57-1.14,39.14-1.46,58.64-2.59,54.6-3.16,109.63-2.53,163.86-10.35.76,2.04.51,2.79.86,4.31Z"/>
          <path class="st185" d="M652.22,484.41v2.59c-25.84,3.11-52.14,6.16-78.05,9.49-30.52,3.91-61.08,11.3-91.85,11.64,6.86.26,3.68-4.81,4.31-9.92,3.79-.57,6.24-1.06,9.49-1.72s7.57-4,9.06-4.31c11.26-2.4,41.64.73,56.06,0,30.44-1.54,60.81-6,90.98-7.76Z"/>
          <path class="st243" d="M813.49,530.98l-76.75,6.9c-26.64-2.78-60.43.29-88.4-.86-26.85-1.11-53.81-4.47-80.64-6.04,81.8-2.65,163.8,1.15,245.79,0Z"/>
          <g>
            <path class="st186" d="M716.9,468.88c3.08,5.33-7.76,2.16-8.62,3.02-1.63,1.62-.87,8.71,2.59,9.92-19.5,1.13-39.08,1.45-58.64,2.59-30.17,1.76-60.55,6.22-90.98,7.76-14.41.73-44.8-2.4-56.06,0-1.48.32-5.97,3.68-9.06,4.31-52.32,1.72-105.05,3.52-157.39,6.9-19.38,1.25-73.3,2.39-88.83,6.9-.36.1-2.04,1.32-2.59,1.72-.82,2.42,5.29,1.77,6.9,1.72,17.08-.52,37.03-4.87,54.33-6.04,56.93-3.85,122.57-1.07,178.09-9.49-.63,5.1,2.54,10.18-4.31,9.92,30.77-.35,61.32-7.73,91.85-11.64,25.91-3.32,52.21-6.37,78.05-9.49,21.41-2.58,39.89-.17,61.23-.86,3.43,3.81,15.51,7.76,20.7,8.62l-130.65,13.8c91.1-12.36,183.04-13.12,274.68-12.07.17,1.53.79,1.9.86,2.59l-20.7,1.29c-.21,1.03,19.2.8,20.7-.43.41,4.15,1.31,9.88,0,13.8-58.98-2.05-118.04-5.6-177.22-4.31,20.93,3.27,43.58,1.98,65.11,2.59l5.17,3.02c-.29,2.1-3.33,1.51-3.45,2.59-.05.49,6.84,6.43,7.33,6.47.87.07,2.38-3.38,2.59-3.45,1.28-.45,7.43,5.36,9.49,0,.01,4.87,3.33-3.73,7.33,3.02.08.14-2.96,2.15-1.29,3.02l5.61,1.72c-104.39.39-208.28-8.23-312.62-10.35-1.33,5.34,9.6,2.09,12.07,4.31l87.1,3.45c-91.64,4.35-182.78,14.52-274.68,13.8-18.14-.33-44.67-3.59-61.66-1.72-.46.05-7.59.77-6.04,2.59h78.91c82.82,1.16,162.56-6.81,244.92-9.49,26.83,1.56,53.78,4.93,80.64,6.04,27.97,1.16,61.76-1.92,88.4.86,1.52.16,8.65.65,9.06.86.94.49-.73,3.14,2.59,4.31,2.04.72,8.43-.56,10.78,1.72-125.57,2.25-252.15,17.05-376.44,17.25-57.09.09-114.16-2.89-171.19-4.31-.38-4.42-.71-8.47-.86-12.94l17.25-3.45c3.88-.28,7.79.18,11.64-.86l-2.59-4.31-26.3.86c-.05-4.73-.12-9.04,0-13.8,36.35,1.48,78.57-5.22,114.27-1.72,11.18,1.09,25.11,6.5,37.08,7.76,10.89,1.15,24.17,1.84,34.93-.43l-88.4-16.82c-12.53-2.43-24.3,3.45-36.22,4.31-20.48,1.48-41.23,1.36-61.66,2.59.29-7.67.95-14.82,1.72-22.42l19.84-1.29-19.84-.43c.6-5.39.59-11.07,1.72-16.39l144.88-.43-144.88-.43c.36-1.58,1.31-7.33,2.16-7.76,2.44.8,5.59-.75,7.33-.86,15.32-.96,35.5,1.7,51.31,1.72,147.57.21,294.68-.76,441.98-1.72Z"/>
            <g>
              <path class="st260" d="M799.69,528.39c26.75-.1,53.53.45,80.2-1.72.04,1.14-.03,2.31,0,3.45-22.15,1.44-44.28.55-66.41.86-81.98,1.15-163.98-2.65-245.79,0-82.36,2.67-162.11,10.65-244.92,9.49-3.93-.06-7.76-.8-11.21-.86,91.9.72,183.04-9.45,274.68-13.8l-87.1-3.45c-2.47-2.22-13.4,1.03-12.07-4.31,104.34,2.11,208.23,10.74,312.62,10.35Z"/>
              <path class="st257" d="M879.89,545.64l-103.92,2.59c-1.27,3.79-2.06,1.64-3.02,1.72-16.76-2.79-35.65-2.01-53.04-1.72-94.54,1.55-188.27,12.54-282.87,14.66-75.23,1.69-150.38-2.01-225.52-3.45-.06-.56.05-1.16,0-1.72,57.03,1.42,114.1,4.4,171.19,4.31,124.29-.2,250.87-14.99,376.44-17.25,36.37-.65,81.33,3.22,116.86-.86,2.19-.25,2.21-.58,3.88-1.72-.03,1.14.04,2.31,0,3.45Z"/>
              <path class="st159" d="M878.17,496.48c-91.63-1.05-183.57-.28-274.68,12.07l130.65-13.8c10.47,1.74,20.16.01,30.62,0,31.95-.05,70.88-2.6,104.35-3.45,1.62-.04,7.02-.85,8.19-2.59.38,2.66.57,5.11.86,7.76Z"/>
              <path class="st40" d="M879.03,513.73l.86.86c-37.61,1.35-75.33-1.52-112.98-2.59-21.54-.61-44.19.69-65.11-2.59,59.18-1.29,118.24,2.27,177.22,4.31Z"/>
              <path class="st214" d="M214.11,478.37c.06-.28-.06-.59,0-.86l144.88.43-144.88.43Z"/>
              <path class="st69" d="M227.91,541.32c-5.71.42-11.56,1.72-17.25,0-.04-1.43.02-2.88,0-4.31l26.3-.86,2.59,4.31c-3.85,1.04-7.76.58-11.64.86Z"/>
              <path class="st246" d="M879.03,499.07c.03.28-.03.58,0,.86-1.5,1.23-20.91,1.46-20.7.43l20.7-1.29Z"/>
              <path class="st303" d="M227.91,541.32l-17.25,3.45c-.04-1.14.03-2.31,0-3.45,5.68,1.72,11.54.42,17.25,0Z"/>
              <path class="st155" d="M212.39,496.48c.06-.56-.06-1.17,0-1.72l19.84.43-19.84,1.29Z"/>
              <path class="st253" d="M625.48,476.64c.74.07,4.24.06,1.29.86-19.88.86-40.28,3.18-60.37,4.31-3.3.19-5.5-2.73-10.35-1.72-.32.07-3.17,3.38-4.31,3.45-5.18.3-15.17.65-19.4.86-80.89,4.14-163.19,6.4-244.49,9.49-6.7.25-27.77,1.65-32.77.86-1.28-.2-3.01.43-1.72-1.72,82.23-3.84,164.51-7.68,246.65-11.21.39-.02,2.19-2.57,2.59-2.59.63-.03.23,1.75.86,1.72,34.29-1.46,68.33-2.45,102.63-3.45.96-.03,1.36,0,1.72,0,5.86-.14,11.75-1.43,17.68-.86Z"/>
              <path class="st119" d="M634.11,475.78c1.72,3.09,3.59,3.03,8.62,1.72l-.43,4.31c-1.01.17-4.09-1.78-4.31-1.72-22.79,5.27-51.92,8.85-75.89,8.62-.27,0-.89-2.58-1.72-2.59-1.73-.01-5.71,2.59-6.04,2.59-3.56-.06-2.97-2.57-3.45-2.59-1.21-.04-7.32,1.87-10.35,1.72-.35-.02-1.38-1.71-1.72-1.72-.46-.02-8.97,4.3-6.47-1.72,4.23-.22,14.22-.56,19.4-.86,1.14-.07,3.99-3.38,4.31-3.45,4.85-1.01,7.05,1.91,10.35,1.72,20.09-1.13,40.49-3.45,60.37-4.31,2.94-.8-.56-.79-1.29-.86l1.29-5.17c2.32,7.26,2.49-2.12,6.04,0,1.36,1.61.35,2.61,1.29,4.31Z"/>
              <path class="st268" d="M496.12,496.48c-3.25.66-5.7,1.15-9.49,1.72-55.52,8.42-121.15,5.63-178.09,9.49-17.3,1.17-37.25,5.52-54.33,6.04-1.61.05-7.72.7-6.9-1.72.54-.41,2.23-1.62,2.59-1.72,15.53-4.51,69.45-5.65,88.83-6.9,52.34-3.38,105.07-5.18,157.39-6.9Z"/>
              <path class="st32" d="M311.57,539.6c3.45.06,7.28.81,11.21.86h-78.91c-1.55-1.82,5.58-2.54,6.04-2.59,16.99-1.87,43.53,1.39,61.66,1.72Z"/>
              <path class="st99" d="M444.81,517.18l29.75,1.29c-9.31,1.06-21.43,1.27-29.75-1.29Z"/>
              <path class="st142" d="M506.04,550.81c.98-.06,4.79,1.38,6.47,1.29l-32.77,2.59c7.52-2.18,16.49-1.52,25.44-2.16.67-.05.2-1.69.86-1.72Z"/>
              <path class="st242" d="M757,514.59c8.92,1.4-5.01,5.77-7.33,3.02.53-1.34,6.94-3.08,7.33-3.02Z"/>
              <path class="st54" d="M642.73,477.51c-5.04,1.31-6.91,1.37-8.62-1.72h11.64c.54.6-2.85,1.68-3.02,1.72Z"/>
              <polygon class="st131" points="448.26 554.26 448.26 556.85 445.24 555.55 448.26 554.26"/>
              <path class="st13" d="M756.14,519.76c2.53-.69.55,2.81-.86,3.45-1.06-.34.68-3.4.86-3.45Z"/>
              <path class="st170" d="M238.69,494.75c1.52.17,3.44-.45,4.74.43,0,.43-5.11,1.2-4.74-.43Z"/>
              <path class="st127" d="M587.11,541.32c1.52.17,3.44-.45,4.74.43,0,.43-5.11,1.2-4.74-.43Z"/>
              <path class="st117" d="M596.59,540.46c3.24-.46-.28,3.58-1.29,1.29-.04-.08,1.2-1.28,1.29-1.29Z"/>
              <path class="st204" d="M471.54,479.23c1.07,1.58.34,3.56-.86,1.72-.61-.94.33-1.04.86-1.72Z"/>
              <path class="st169" d="M244.73,485.27c.72.08,2.94-.31,3.02.43.06.54-3.89,1.03-3.02-.43Z"/>
            </g>
          </g>
          <g>
            <path class="st125" d="M772.95,549.95c-11.14.97-25.01,2.32-37.51,2.59-34.1.72-68.7-1.84-102.63,1.72-.85,1.64,2.92.31,3.02,1.29.37,3.69-68,1.39-73.74,4.74l183.69-4.31,2.16,13.8c-59.17,1.5-118.55-.76-177.66,3.02,59.18-.31,118.5-.55,177.66-2.16l.86,6.9c-178.19.82-356.46,2.66-534.69,1.72-.9-2.48-1.21-5.16-1.72-7.76l238.02,1.29-238.02-3.88c-.05-.28.04-.58,0-.86,1.84-3.41,10.74-1.93,9.49-4.74-.21-.48-8.54.16-10.35-1.29-.09-.84.08-1.74,0-2.59,75.14,1.44,150.29,5.14,225.52,3.45,94.6-2.12,188.33-13.11,282.87-14.66,17.38-.29,36.28-1.07,53.04,1.72Z"/>
            <g>
              <path class="st62" d="M212.39,571.51c-.16-.81.14-1.77,0-2.59l238.02,3.88-238.02-1.29Z"/>
              <path class="st34" d="M212.39,568.06c-.3-1.99-.64-4.05-.86-6.04,1.81,1.46,10.14.82,10.35,1.29,1.25,2.81-7.65,1.33-9.49,4.74Z"/>
              <path class="st137" d="M747.94,570.65c-59.16,1.61-118.47,1.85-177.66,2.16,59.11-3.78,118.48-1.52,177.66-3.02,20.64-.52,43.97-.08,64.25-1.72,17.72-1.44,35.33-8.7,53.04-4.74-39.02,5.89-77.92,6.26-117.29,7.33Z"/>
              <path class="st23" d="M224.03,562.88c1.21-.34,9.21,2.65,9.92,3.02l-11.64.43c-1.31-.98,1.32-3.34,1.72-3.45Z"/>
              <path class="st58" d="M236.11,563.75c.83-.27,3.38-.4,3.02,1.29.06.43-6.03-.32-3.02-1.29Z"/>
            </g>
          </g>
        </g>
        <g>
          <path class="st19" d="M602.2,368.84c25.03,7.36,52.19,5.71,78.05,7.76,23.32,1.85,49.31,6.2,74.17,6.9,29.46.83,60.78-2.08,90.12-4.31,3.01,5.83,5.19,11.26,7.76,17.25-103.99.02-208.2.12-312.19,0l-.86-12.07c34.74.11,69.57.92,104.35.86,26.38-.04,53.05,1.1,79.34-1.29-26.41-.56-52.84.47-79.34.43-133.37-.19-266.84-3.49-400.16,0,1.75-3.57,3.24-6.84,5.17-10.35,28.28-.75,56.65-4.02,84.95-4.31,89.56-.94,179.21,8.34,268.64-.86Z"/>
          <path class="st80" d="M406.43,398.16c1.34,1.89,7.8,3.85,9.92,4.31,30.86,6.66,82.7,20.09,112.11,22.42,16.67,1.32,34.98-2.84,51.74-3.45,5.27-.19,44.67-1.35,46.57,0s-2.86,8.33,5.61,7.33l-6.9,2.16c-8.35.2-17.02-.55-25.44,0,7.4,1.6,15.32.82,22.85.86-1.26,4.32-.78,10.08-4.31,12.94-77.63-5.6-171.93-.31-250.96,1.72-.38-2.59,2.31-1.68,3.88-1.72,3.4-.1,22.26.55,23.28,0,.41-.22,1.41-4.2,1.29-5.17,7.28-.27,67.24-1.04,67.27-7.33l-2.59-3.02c8.19.28,16.38.41,24.58.86l-.86-1.72c-20.11-.25-40.29-.76-60.37-1.72-.66-.03-.2-1.69-.86-1.72-3.26-.18-9.17,1.01-12.5,1.72-36.92-2.4-92.39-4.49-127.21-12.94-1.29-.31-3.46-.77-3.02-2.59,13.52.39,52.79,1.22,64.25-.86,1.24-.22,3.02.46,1.72-1.72l-78.91,1.72c-12.05-.78-21.69-3.48-33.63-5.17.91-2.32,2.52-4.68,3.45-6.9,56.31,2.13,112.71.2,169.03,0Z"/>
          <path class="st36" d="M872.13,461.12c-.6,2.32-.78,1.44-2.59,2.59-1.29.82-4.52.75-5.17,3.45-47.13-2.07-99.74,1.41-147.47,1.72-147.3.97-294.41,1.94-441.98,1.72-15.82-.02-36-2.68-51.31-1.72-.46-3.24-4.46-4.13-5.17-6.9h182.83c98.59,0,197.22.04,295.81,0,58.32-.03,116.9.65,175.07-.86Z"/>
          <path class="st20" d="M267.58,410.24c4.25.28,8.71.74,12.94.86-.44,1.81,1.73,2.27,3.02,2.59,34.81,8.45,90.28,10.53,127.21,12.94,16.61,1.08,33.38,2.01,50.02,2.59l2.59,3.02c-.03,6.29-59.98,7.06-67.27,7.33-58,2.13-116.21-.09-174.21,2.59.46-1.3.87-4.42,1.72-5.17l29.75-2.59-28.89,1.72c-1.01-1.19.18-4.62.86-5.17h48.73c-6.53-3.44-14.54-.75-21.56-1.72-.83-.11-.02-2.38-.86-2.59-4.86-1.19-6.14,2.49-6.9,2.59-4.26.55-15.06-.41-18.54.86,1.15-8.38,4.7-17.16,7.76-25.01,11.94,1.7,21.59,4.4,33.63,5.17Z"/>
          <path class="st247" d="M829.01,359.36c1.47.23,3.21-.15,4.74,0,2,.78,5.03,8.8,6.47,11.21-33.82,1.92-67.46-1.36-101.33-1.72-44.78-.49-89.73-2.76-134.54-3.45-63.2-.97-128.26,9.68-191.45,5.17-3.07-.22-8.5-.18-11.21-.86-.83-.21-.06-2.59-.86-2.59-.37,0,1.22,2.06-5.61,2.59l1.29-3.45c-2.83,1.34-4.89-2.54-5.17-2.59-2.66-.45-4.89,2.62-5.17,2.59-.46-.05-2.1-2.51-2.59-2.59-.23-.04-3.37,1.91-4.31,1.72-1.03-.2-1.35-2.52-1.72-2.59-14.47-2.47-33.37-2.18-49.59-2.59,131.77-1.62,263.6.25,395.41,0,32.16-.06,71.85-4,103.06-1.72.14,0,.84.59,2.59.86Z"/>
          <path class="st171" d="M396.08,439.56c.12.98-.88,4.95-1.29,5.17-1.02.55-19.88-.1-23.28,0-1.58.05-4.26-.86-3.88,1.72-48.83,1.26-97.37,5.38-146.18,6.04-.69,2.9,8.49,1.77,10.35,1.72,25.21-.66,52.21-2.89,77.19-2.59.27,0,4.9,1.72,5.17,1.72,36.52.57,73.08,2.37,109.53,3.45,2.78-5.89-3.91-1.35-3.02-6.04l17.25-.86c4.45,2.81-6.23,3.93,2.16,7.76,1.23.56,1.19.57,2.59.86,1.69.35,2.65-2.18,4.31.43-.19,2.1-29.83,1.37-33.2.43l-12.5,2.59h-182.83c-1.15-4.42,1.83-15.25,3.45-19.84,58-2.68,116.2-.46,174.21-2.59Z"/>
          <path class="st184" d="M429.72,384.37c.23,2.24.05,2.74-2.16,3.45-9.53,3.06-26.7,2.13-37.08,4.31l.43,3.45c-50.84-.09-101.79,1.86-152.65,0,1.39-3.24,2.8-6.31,4.31-9.49,62.36-1.25,124.76-1.61,187.14-1.72Z"/>
          <path class="st113" d="M841.08,372.29c1.34,2.36,2.24,4.56,3.45,6.9-29.34,2.23-60.66,5.15-90.12,4.31-24.85-.7-50.85-5.05-74.17-6.9-25.86-2.05-53.02-.4-78.05-7.76,79.35,7.63,159.26,2.3,238.89,3.45Z"/>
          <path class="st121" d="M853.16,398.16c1.33,3.16,3.06,6.21,4.31,9.49l-43.12.86c-60.85-.83-121.72-3.15-182.4-7.76l10.78-2.59c70.11.23,140.32,2.2,210.43,0Z"/>
          <path class="st5" d="M840.22,370.57c.3.5.57,1.21.86,1.72-79.63-1.15-159.54,4.18-238.89-3.45-89.43,9.2-179.08-.08-268.64.86-28.29.3-56.67,3.56-84.95,4.31.29-.53.56-1.21.86-1.72,26.55-.05,53.22-3.78,79.77-4.31,20.55-.41,46.15,3.25,65.97,1.72,6.83-.53,5.23-2.59,5.61-2.59.8,0,.04,2.38.86,2.59,2.71.68,8.14.64,11.21.86,63.2,4.5,128.25-6.14,191.45-5.17,44.8.69,89.76,2.96,134.54,3.45,33.87.37,67.51,3.65,101.33,1.72Z"/>
          <path class="st113" d="M871.27,452.5c.46,2.84,1.61,5.75.86,8.62-58.17,1.51-116.74.84-175.07.86l-6.9-7.76c59.39,3.73,121.45-2.55,181.11-1.72Z"/>
          <path class="st250" d="M390.91,395.58c49.72.09,99.46.8,149.2.86,103.99.12,208.2.02,312.19,0,.27.63.6,1.1.86,1.72-70.1,2.2-140.31.23-210.43,0-78.75-.26-157.58-.28-236.3,0-56.32.2-112.72,2.13-169.03,0,.26-.61.46-1.64.86-2.59,50.86,1.86,101.81-.09,152.65,0Z"/>
          <path class="st301" d="M618.58,444.73c25.68,1.85,51.52,7.28,77.19,8.62,57.46,3.01,117.07-3.99,174.64-3.45.15.78.63,1.17.86,2.59-59.66-.83-121.72,5.46-181.11,1.72-33.91-2.13-68.09-9.31-102.2-10.35-34.81-1.06-69.59,3.74-104.35,4.31-58.19.96-116.73-2.12-174.64,3.45-24.98-.31-51.97,1.92-77.19,2.59-1.85.05-11.04,1.17-10.35-1.72,48.81-.65,97.35-4.78,146.18-6.04,79.03-2.03,173.33-7.32,250.96-1.72Z"/>
          <path class="st193" d="M327.95,360.22c16.22.4,35.11.12,49.59,2.59.37.06.7,2.38,1.72,2.59.94.19,4.08-1.76,4.31-1.72.49.08,2.13,2.54,2.59,2.59.29.03,2.51-3.03,5.17-2.59.29.05,2.34,3.93,5.17,2.59l-1.29,3.45c-19.83,1.53-45.43-2.14-65.97-1.72-26.55.53-53.22,4.27-79.77,4.31,5.51-9.57,2.09-12.03,13.8-12.94.66-.05.95-.13.86-.86.82.49,2.02,1.69,2.16,1.72,11.85,2.77,46.81-.37,61.66,0Z"/>
          <path class="st200" d="M643.59,384.37v.86c-34.78.05-69.61-.75-104.35-.86-36.5-.11-73.04-.07-109.53,0-62.38.12-124.78.47-187.14,1.72.28-.59.58-1.14.86-1.72,133.32-3.49,266.79-.19,400.16,0Z"/>
          <path class="st176" d="M225.33,430.94s-.31-.43.86-.86c3.48-1.27,14.29-.31,18.54-.86.76-.1,2.04-3.78,6.9-2.59.84.21.03,2.47.86,2.59,7.02.97,15.03-1.72,21.56,1.72h-48.73Z"/>
          <path class="st249" d="M223.6,436.97s-.12-1.02.86-.86l28.89-1.72-29.75,2.59Z"/>
          <g>
            <path class="st98" d="M642.73,398.16l-10.78,2.59c60.67,4.61,121.55,6.93,182.4,7.76,14.35.2,28.76-.14,43.12,0,3.47,9.21,6.87,18.06,9.49,27.6l-19.84,1.29,20.7.43c1.03,3.88,1.83,8.12,2.59,12.07-57.57-.54-117.18,6.46-174.64,3.45-25.66-1.34-51.51-6.77-77.19-8.62,3.53-2.86,3.05-8.62,4.31-12.94,65.11.34,130.23-.23,195.34-.86-64.18-1.37-128.56-1.52-192.75,0l6.9-2.16c-8.47,1-3.64-5.94-5.61-7.33s-41.3-.19-46.57,0c-16.77.61-35.08,4.77-51.74,3.45-29.41-2.33-81.25-15.76-112.11-22.42-2.12-.46-8.57-2.42-9.92-4.31,78.72-.28,157.55-.26,236.3,0Z"/>
            <path class="st92" d="M857.47,407.65c.1.25-.09.61,0,.86-14.36-.14-28.77.2-43.12,0l43.12-.86Z"/>
            <path class="st33" d="M866.96,436.11c.21.76.66.96.86,1.72l-20.7-.43,19.84-1.29Z"/>
            <path class="st72" d="M625.48,430.94c64.19-1.52,128.57-1.37,192.75,0-65.1.63-130.22,1.21-195.34.86-7.53-.04-15.45.74-22.85-.86,8.42-.55,17.1.2,25.44,0Z"/>
            <path class="st47" d="M825.13,436.97c.86.09,3.85-.32,3.88.43-.47.57-4.56,1.05-3.88-.43Z"/>
          </g>
          <path class="st31" d="M539.24,384.37l.86,12.07c-49.74-.06-99.48-.77-149.2-.86l-.43-3.45c10.38-2.18,27.55-1.25,37.08-4.31,2.21-.71,2.39-1.21,2.16-3.45,36.49-.07,73.02-.11,109.53,0Z"/>
          <path class="st153" d="M643.59,385.23v-.86c26.5.04,52.93-.99,79.34-.43-26.29,2.4-52.97,1.25-79.34,1.29Z"/>
          <path class="st296" d="M460.76,429.21c-16.64-.57-33.41-1.51-50.02-2.59,3.34-.72,9.25-1.91,12.5-1.72.66.04.2,1.69.86,1.72,20.08.96,40.25,1.47,60.37,1.72l.86,1.72c-8.19-.46-16.39-.58-24.58-.86Z"/>
          <path class="st157" d="M280.52,411.1c-4.22-.12-8.68-.59-12.94-.86l78.91-1.72c1.29,2.19-.49,1.5-1.72,1.72-11.46,2.08-50.73,1.26-64.25.86Z"/>
          <g>
            <path class="st86" d="M690.16,454.22l6.9,7.76c-98.59.04-197.22,0-295.81,0l12.5-2.59c3.38.94,33.01,1.67,33.2-.43-1.67-2.61-2.62-.08-4.31-.43-.34-2.87-1.06-3.05-2.59-.86-8.39-3.83,2.29-4.96-2.16-7.76l-17.25.86c-.89,4.68,5.8.14,3.02,6.04-3.84-1.7-8.41-.59-12.5-.86-1.63-.11-1.53.01-1.72,0-31.75-2.06-63.39-5.23-95.3-2.59-.27,0-4.9-1.72-5.17-1.72,57.91-5.56,116.45-2.49,174.64-3.45,34.76-.58,69.54-5.37,104.35-4.31,34.1,1.03,68.28,8.22,102.2,10.35Z"/>
            <g>
              <path class="st75" d="M423.68,456.81c-36.45-1.08-73.01-2.88-109.53-3.45,31.9-2.64,63.54.53,95.3,2.59.19.01.09-.11,1.72,0,4.09.27,8.67-.84,12.5.86Z"/>
              <path class="st108" d="M442.65,458.53c-1.4-.29-1.35-.3-2.59-.86,1.52-2.18,2.25-2.01,2.59.86Z"/>
              <path class="st297" d="M443.08,451.63l6.04,1.72c1.71.23-.4-3.62,3.88.43-.24,2.43-15.14,2.05-9.92-2.16Z"/>
              <path class="st96" d="M508.63,455.08c1.52.17,3.44-.45,4.74.43,0,.43-5.11,1.2-4.74-.43Z"/>
              <path class="st139" d="M460.33,453.36c1.93,2.15-2.86,2.17-3.02,1.29l3.02-1.29Z"/>
              <path class="st140" d="M529.32,452.5c1.28.39-.33,3.03-1.72,2.59-.95-.3,1.57-2.64,1.72-2.59Z"/>
            </g>
          </g>
        </g>
      </g>
      <g>
        <path class="st205" d="M544.42,197.22c.83,1.79,1.6,1.95,3.45,1.72-1.31,14.98.97,30.69.86,45.71-.24,34.3-1.62,68.71-.86,103.06,2.67.52,20.06.9,20.7,0,2.53-3.56.66-39.32,4.74-46.14l-3.02,46.14h17.25v-151.35c.56.07,1.17-.07,1.72,0l2.16,151.78,29.75-1.29-6.9-146.18c.76.18,1.85-.2,2.59,0l5.61,147.47c1.73-.13,4.64.68,5.61-1.29.82-1.67-2.52-32.08-2.59-37.08-.46-31.77,5.15-70.11,2.59-100.47.83-.1,1.79.16,2.59,0,1.16-.23.8-.79.86-.86.2-.21.81-.83.86-.86.47-.36-1.35-2.17,1.72-2.59l-.43,143.16,10.78-.43v-139.28c.48.13,1.25-.13,1.72,0l-.86,139.28,33.2.43c1.31-.82-1.13-8.08-1.29-9.49-1.38-12.21-3.62-24.34-4.31-36.65-1.39-.92-1.92,2.27-2.16,2.16-2.84-1.36.03-36.14.43-41.83.08-1.06,1.64,1.06,1.72,0,1.1-14.14-.1-28.66,2.59-42.69.61.25,1.64.46,2.59.86-1.69,1.16-2.39,4.71-2.59,6.47-2.97,26.87,2.06,46.05,4.31,71.58,1.44,16.26.9,32.84,1.72,49.16,1.61,1.63,5.5-.5,6.04-.43,1.22.15,1.08-.04,1.72,0,3.05.18,22.11,2.09,23.28.43l-.86-109.96c.72.45,1.93.68,3.45,1.72-4.95,1.61-1.76,5.29-1.72,8.62.16,15.22-.05,30.49,0,45.71,0,3.25-.88,5.74-.86,8.62.11,15.17,1.28,30.5,1.29,45.71l10.78-1.29c-1.77-13.39.48-28.74-.86-41.83-.4-20.01.32-39.38,0-59.07-.83-.55-1.19-1.39-1.72-2.16,2.77.48,4.72,2.86,6.9,4.31,2.11,11.18-3.28,98.01,1.29,100.04,9.45,4.2,4.63-16.22,5.17-21.56,3.5,4.18-.3,16.68,1.29,20.27.91,2.05,11.9,2.3,12.07-.86l5.17-79.77c1.13.9,1.83,1.97,2.59,2.59l-.43,7.76,3.88-5.17c.51.43.78.79.86.86l-6.9,15.95-4.31,59.51c1.21,1.7,16.34-.31,18.97-.43,1.46-.07,2.5.26,5.17,0,.58-.06,5.31,2.57,6.9-.43,1.5-13.89,2.49-28.31,6.04-41.83-.86,7-5.57,34.93-5.17,39.24.15,1.61-.47,2.75,1.29,3.88l21.13-1.29c.62-1.4.46-28.53,0-30.62,2.63,1.22,3.55,3.95,5.17,6.04v25.44l17.25-.43c2.59,4.98,4.38,2.52,2.59,8.62l-2.59,2.59c-31.21-2.28-70.89,1.66-103.06,1.72-131.81.25-263.64-1.62-395.41,0-14.85-.37-49.81,2.77-61.66,0-.13-.03-1.34-1.23-2.16-1.72-.05-.03-.68-.67-.86-.86-4.71-4.98-2.07-5.06,0-9.49l18.11-.43c1.05-9.13,1.19-16.44,0-25.44,2.27-2.97,4.52-5.75,6.9-8.62l.86,34.07c2.76,1.47,3.36-.78,3.88-3.02,1.85,6.11,3.94,2.34,6.47,2.59.96.09,1.64,0,1.72,0,4.47.29,7.55.2,12.07,0,1.27-.06,9.1,2.19,10.35.43l-1.72-43.98c-2.81,9.08-4.02,18.69-6.04,28.03l5.17-51.74c.26-.24.52-.55.86-.86l5.17,68.56,33.2.43,1.29-100.04c1.45-.94,2.88-1.69,4.31-2.59l.86,102.2c.5.71,15.88.71,16.39,0,1.19-1.66,3.74-34.07,5.17-40.53,2.2-9.88,7.25-20.69,9.92-30.62l-2.16,15.09c12.03-13.51,33.3,5.27,22.42,15.09-.1-5.65,2.27-14.16-4.74-17.25-25.58-11.28-26.67,45.15-27.6,58.64l10.78-.43c-2.88-5.52-4.49-11.7-1.72-17.68-.91,11.99,3.7,20.01,16.82,18.11.84-4.88,3.9-7.85,5.61-12.94,2.34-6.96,3.05-14.44,4.74-21.56,1.38,11.08-1.28,23.06-5.61,33.2.71,2.16,12.13,1.22,14.66,1.29,1.42.04,2.89.05,4.31,0,.29-.01.58.01.86,0,1.83-.08,10.59.45,11.21-.43v-140.14c1.08.06,3.73,3.54,6.04,2.59l.86,137.55c.52.87,2.5.25,3.45.43,1,.19,5.59.21,6.04-.43-.34-12.54.65-25,.86-37.51h1.72c-.01,12.12-1.5,24.46-.86,36.65.98,2.2,8.99,1.15,11.21,1.29.29.02.58-.01.86,0,4.26.22,8.67,0,12.94,0,3.72,0,7.5.1,11.21,0,4.73-.13,9.49.09,14.23,0l1.29-5.61,1.72-148.77c.8-.05.92.91,1.72.86l-2.59,153.08h11.21l1.29-68.56-.43,67.7,11.64,1.29.43-155.23c3.43,1.21.85,2.43,1.72,4.31Z"/>
        <path class="st81" d="M321.92,279.15c7.54-6.82,13.43-11.92,21.56-18.11v77.19l.86-78.05c2.87-2.16,5.71-3.99,8.62-6.04l1.72,31.48-.86-32.34c2.59-1.8,5.12-3.45,7.76-5.17l-1.29,100.04-33.2-.43-5.17-68.56Z"/>
        <path class="st266" d="M666.88,216.2c-2.04,12.82-3.27,25.82-4.31,38.81-2.12.43-2.49,8.25-2.59,9.92-1.44,24.91,2.99,53.07,17.25,73.74.16,1.41,2.6,8.67,1.29,9.49l-33.2-.43.86-139.28c7.06,2.01,13.86,5.14,20.7,7.76Z"/>
        <path class="st89" d="M519.41,193.77l-1.72,148.77-1.29,5.61c-4.74.09-9.5-.13-14.23,0-.53-29.77,2.08-59.22,3.45-88.83.05-1.12,1.67-6.18,1.72-7.33.91-18.85-1.26-37.71-.86-56.49,4.22-.47,8.7-1.43,12.94-1.72Z"/>
        <path class="st102" d="M736.73,253.28l-2.16,32.77,3.02-31.91c5.91,4.17,10.68,7.52,16.39,12.07l-5.17,79.77c-.17,3.17-11.16,2.91-12.07.86-1.59-3.59,2.2-16.08-1.29-20.27-.54,5.34,4.27,25.76-5.17,21.56-4.57-2.03.81-88.86-1.29-100.04,2.61,1.73,5.18,3.37,7.76,5.17Z"/>
        <path class="st39" d="M499.57,196.36l-8.62,151.78c-4.27,0-8.68.22-12.94,0,.92-32.76,1.79-65.51,1.72-98.31l4.31-3.02,7.76-49.59c2.52-.42,5.24-.51,7.76-.86Z"/>
        <path class="st124" d="M644.46,208.43v139.28l-10.78.43.43-143.16c2.07-.28,8.1,2.83,10.35,3.45Z"/>
        <path class="st284" d="M503.88,196.36l1.72,62.96c-1.37,29.6-3.98,59.06-3.45,88.83-3.72.1-7.49,0-11.21,0l8.62-151.78c1.96-.27,3.75.07,4.31,0Z"/>
        <path class="st286" d="M804,316.24c.46,2.08.62,29.22,0,30.62l-21.13,1.29c-1.76-1.14-1.14-2.27-1.29-3.88-.4-4.3,4.32-32.24,5.17-39.24.28-1.06,2.15-3.78,1.29-5.17-2.05,1.35-1.07,3.34-1.29,5.17-3.55,13.52-4.54,27.94-6.04,41.83-1.58,3-6.32.38-6.9.43l2.59-56.06c.2-1.13,1.5-2.48.86-4.31,4.85,4.76,25.61,24.23,26.73,29.32Z"/>
        <path class="st218" d="M628.07,209.3c2.56,30.36-3.04,68.7-2.59,100.47.07,5,3.41,35.41,2.59,37.08-.97,1.97-3.87,1.17-5.61,1.29l-5.61-147.47c6.99,1.87,10.46-.28,11.21,8.62Z"/>
        <path class="st26" d="M466.8,202.4c1.53,14.56-.29,29.42-.86,43.98-6-4.41-4.09,12.45-4.31,14.23-2.47,20.11-5.24,40.18-3.45,60.37l2.59-2.16c-1.21,9.68-2.33,19.54-2.59,29.32-.95-.18-2.93.44-3.45-.43l-.86-137.55,1.29-5.17c3.87-.73,7.88-1.51,11.64-2.59Z"/>
        <path class="st150" d="M675.5,219.65c-2.69,14.03-1.49,28.54-2.59,42.69-.08,1.06-1.65-1.06-1.72,0-.4,5.69-3.27,40.47-.43,41.83.24.11.76-3.08,2.16-2.16.69,12.31,2.93,24.45,4.31,36.65-14.26-20.67-18.69-48.82-17.25-73.74.1-1.67.47-9.49,2.59-9.92-.18,2.2-1.63,5.42-.86,8.19,4.49-14.51,2.39-31.77,7.76-46.14,2.08.82,4.01,1.74,6.04,2.59Z"/>
        <path class="st294" d="M581.5,195.5v1.72c-1.86-.56-2.52,5.66-2.59,6.47-1.38,17.66-2.62,35.31-5.17,53.9l-3.45-8.19c4.52-4.42-3.33-6.38-3.45-6.9-.11-.47,1.34-8.15,1.72-9.49l-3.45.86.43-10.78c-2.82,1.46-4.61,13.72-3.88,15.09.53.99,2.93-.13,3.45.86.25.48-1.56,8.37-1.72,10.78-.08,1.24.05,2.23,0,3.45-.09,1.96.02,3.7,0,5.61,0,.7-1.73.34-1.72.43-7.47-3.53-2.32,18.16-6.47,17.25-2.99-.66,2.72-6.14-2.16-6.47,3.91-2.69,3.1-9.38,3.45-14.23,2.64-.26,2.37-23.77,2.59-27.6.65-11.48.79-23.03,1.72-34.5,7.87.18,13.19.97,20.7,1.72Z"/>
        <path class="st88" d="M682.4,222.23c-1.09,1.29-.61,2.27-.86,3.45-1.25,5.99-.11,5.3,0,7.33,2.02,38.13,8.82,75.91,6.04,114.27-.54-.06-4.43,2.06-6.04.43-.82-16.31-.29-32.9-1.72-49.16-2.25-25.53-7.28-44.71-4.31-71.58.19-1.76.9-5.31,2.59-6.47,1.43.61,2.89,1.09,4.31,1.72Z"/>
        <path class="st76" d="M559.08,192.91c.73,11.84-1.21,23.61-1.72,35.36-.41,9.25-.19,18.35-.86,27.6-6.6.64,1.49-15.09-3.02-12.07-.56.37-.66,7.89-4.74.86.1-15.02-2.18-30.73-.86-45.71.07-.83-.17-1.8,0-2.59.2-.94-.46-2.92.43-3.45,3.59,0,7.2,0,10.78,0Z"/>
        <path class="st277" d="M722.07,243.79c.53.77.9,1.6,1.72,2.16.32,19.7-.4,39.07,0,59.07-.28-2.7-1.22-5.8-1.29-8.62l-9.92,6.04c-.02-2.88.87-5.38.86-8.62,4.88-4.78,2.49-14.75,2.59-21.13.02-1.3,0-2,0-2.59-.02-6.94,3.87-18.31-2.59-21.99-.04-3.33-3.22-7.01,1.72-8.62,1.93,1.33,5.47,2.25,6.9,4.31Z"/>
        <path class="st295" d="M491.81,197.22l-7.76,49.59-4.31,3.02c-.03-16.65-.54-33.41,0-50.02,4-.84,8.02-1.91,12.07-2.59Z"/>
        <path class="st55" d="M263.27,348.14c3.79-8.08,12.54-18.57,18.11-25.87,1.19,9,1.05,16.31,0,25.44l-18.11.43Z"/>
        <path class="st134" d="M826.42,347.28l-17.25.43v-25.44c6.23,7.97,12.56,15.98,17.25,25.01Z"/>
        <path class="st7" d="M479.74,199.81c-.54,16.61-.03,33.37,0,50.02.07,32.8-.8,65.55-1.72,98.31-.29-.01-.58.02-.86,0l.86-148.33c.52-.11,1.21.11,1.72,0Z"/>
        <path class="st196" d="M343.48,261.04s.15-.33.86-.86l-.86,78.05v-77.19Z"/>
        <path class="st4" d="M506.47,195.5c-.4,18.78,1.78,37.64.86,56.49-.06,1.15-1.67,6.21-1.72,7.33l-1.72-62.96c.14-.02.62-.64,2.59-.86Z"/>
        <path class="st133" d="M669.47,217.06c-5.37,14.37-3.27,31.63-7.76,46.14-.76-2.78.69-5.99.86-8.19,1.04-12.99,2.28-25.99,4.31-38.81.77.3,1.72.52,2.59.86Z"/>
        <path class="st280" d="M560.8,193.77c-.93,11.46-1.08,23.01-1.72,34.5h-1.72c.52-11.75,2.45-23.52,1.72-35.36,2.15,0,1.63.86,1.72.86Z"/>
        <path class="st241" d="M737.6,254.14l-3.02,31.91,2.16-32.77c.83.58.81.83.86.86Z"/>
        <path class="st275" d="M352.96,254.14s.02-.28.86-.86l.86,32.34-1.72-31.48Z"/>
        <path class="st9" d="M760.02,271.39l-3.88,5.17.43-7.76c.87.71,2.08,1.43,3.45,2.59Z"/>
        <path class="st300" d="M547.87,198.95c-1.84.23-2.62.07-3.45-1.72l3.45-.86c-.17.79.07,1.76,0,2.59Z"/>
        <path class="st300" d="M630.66,209.3l.86-.86c-.07.07.29.63-.86.86Z"/>
        <path class="st300" d="M631.52,208.43s-.11-1.02.86-.86c-.05.04-.66.66-.86.86Z"/>
        <path class="st300" d="M264.13,358.49c.09.73-.2.81-.86.86v-1.72c.19.2.81.83.86.86Z"/>
        <path class="st300" d="M222.74,589.62c-.29,0-.58-.02-.86,0v-.86s1.02-.12.86.86Z"/>
        <path class="st59" d="M418.51,306.75s.12,1.02-.86.86c-3.28-10.91-14.7-8.3-18.11,1.29-.73,2.05.98,5.68.86,6.04-1.07,3.19-7.44,8.61-5.17,14.23-.03.28.02.58,0,.86-2.76,5.98-1.16,12.15,1.72,17.68l-10.78.43c.93-13.49,2.01-69.92,27.6-58.64,7.02,3.09,4.64,11.6,4.74,17.25Z"/>
        <path class="st64" d="M417.64,335.21c-1.71,5.09-4.77,8.06-5.61,12.94-13.12,1.89-17.73-6.12-16.82-18.11.02-.29-.03-.58,0-.86,1.9-16.01,9.34-14.4,22.42-17.25.36,3.06.99,10.73.86,13.37-.1,1.94-4.2,8.43-.86,9.92Z"/>
        <path class="st230" d="M313.29,347.28c.08-5.32,1.48-10.39,2.59-15.52,2.02-9.33,3.23-18.95,6.04-28.03l1.72,43.98c-1.25,1.76-9.08-.49-10.35-.43Z"/>
        <path class="st211" d="M465.08,310.2c-.21,12.51-1.2,24.97-.86,37.51-.45.64-5.03.62-6.04.43.25-9.78,1.38-19.64,2.59-29.32.85-6.84,1.81-13.99,3.45-20.7-.06,3.13.93,8.06.86,12.07Z"/>
        <path class="st164" d="M437.48,312.79c-.19,11.89,1.17,23.44-1.72,35.36-1.42.05-2.89.04-4.31,0,.1-.83-.17-1.79,0-2.59,2.52-11.65,1.65-23.42,1.72-35.36,4.79-1.96.58,2.31,4.31,2.59Z"/>
        <path class="st73" d="M773.82,347.28c-2.68.26-3.72-.07-5.17,0,.04-5.08,1.85-9.74,2.59-14.66,2.06-13.72,2.73-27.74,5.17-41.4l-2.59,56.06Z"/>
        <path class="st183" d="M713.45,293.81c-.05-15.22.16-30.49,0-45.71,6.45,3.68,2.56,15.05,2.59,21.99,0,.59.02,1.29,0,2.59-.1,6.38,2.3,16.34-2.59,21.13Z"/>
        <path class="st232" d="M417.64,307.61c.31,1.02-.16,3,0,4.31-13.08,2.85-20.52,1.23-22.42,17.25-2.26-5.62,4.1-11.04,5.17-14.23.12-.36-1.59-3.98-.86-6.04,3.42-9.59,14.83-12.2,18.11-1.29Z"/>
        <g>
          <path class="st69" d="M437.48,312.79c-3.73-.28.48-4.55-4.31-2.59l-1.72,35.36c-.17.79.1,1.76,0,2.59-2.53-.07-13.95.86-14.66-1.29,4.32-10.15,6.99-22.12,5.61-33.2-1.69,7.12-2.41,14.6-4.74,21.56-3.33-1.49.77-7.98.86-9.92.13-2.64-.5-10.3-.86-13.37-.16-1.31.31-3.29,0-4.31.98.16.82-.82.86-.86,10.88-9.82-10.39-28.6-22.42-15.09l2.16-15.09c-2.67,9.93-7.72,20.74-9.92,30.62-1.44,6.46-3.99,38.87-5.17,40.53-.51.71-15.88.71-16.39,0l-.86-102.2c11.7-7.35,22.87-13.85,35.36-19.84l1.29,16.39-.43-16.39c1.99-.94,3.92-2.5,6.04-3.45l1.29,12.07-.43-12.07c8.63-3.82,17.71-8.47,26.73-11.21,1.27,17.41,3.43,35.59,3.45,53.04.02,16.11-1.47,32.62-1.72,48.73Z"/>
          <g>
            <path class="st272" d="M401.26,225.68c.23-.11.63.11.86,0l.43,16.39-1.29-16.39Z"/>
            <path class="st93" d="M408.16,222.23c.24-.11.62.11.86,0l.43,12.07-1.29-12.07Z"/>
            <path class="st156" d="M385.3,277.43c-2.17,13.1-6.66,25.62-8.62,38.81l3.02-19.4,5.61-19.4Z"/>
            <path class="st14" d="M433.17,310.2c-.08,11.94.8,23.71-1.72,35.36l1.72-35.36Z"/>
            <path class="st154" d="M430.15,287.78c.53,5.99,2.43,12.04,1.72,18.11-2.09-5.08-2.34-12.7-1.72-18.11Z"/>
            <path class="st50" d="M431.87,222.23c.66,0,.67,4.32,0,4.31-.75-.7-.6-4.31,0-4.31Z"/>
          </g>
        </g>
        <g>
          <path class="st240" d="M614.27,200.67l6.9,146.18-29.75,1.29-2.16-151.78c9.43,1.26,15.64,2.05,25.01,4.31Z"/>
          <path class="st91" d="M603.49,218.78c1.07,1.58.34,3.56-.86,1.72-.61-.94.33-1.04.86-1.72Z"/>
        </g>
        <path class="st175" d="M573.74,257.59c-.2,1.46,1.08,5.2.86,6.47-.06.37-2.4.71-2.59,1.72-.38,2.03-2.52,8.05-2.59,8.62-.05.37,4.11.55.43,5.61-1.09.21-2.15-8.05-2.16-9.49,0-.09,1.41.31,1.72-.43-2.32-2.7-1.41.11-1.72.43-1.97,2.02-1.79,4.65-5.17,3.02,4.06-.67.3-4.14,0-6.9-.28-2.53,1.74-3.26,1.72-3.45-.01-.27-2.58-3.65-2.59-3.88,0-.09,1.72.27,1.72-.43.02-1.91-.09-3.64,0-5.61l4.31-3.02-4.31-.43c.16-2.41,1.98-10.3,1.72-10.78-.51-.99-2.92.13-3.45-.86-.73-1.37,1.06-13.63,3.88-15.09l-.43,10.78,3.45-.86c-.38,1.34-1.83,9.02-1.72,9.49.12.52,7.97,2.48,3.45,6.9l3.45,8.19Z"/>
        <g>
          <path class="st42" d="M587.54,196.36v151.35h-17.25l3.02-46.14c-4.08,6.82-2.21,42.58-4.74,46.14-.64.9-18.02.52-20.7,0-.75-34.35.62-68.75.86-103.06,4.09,7.03,4.19-.49,4.74-.86,4.51-3.01-3.58,12.71,3.02,12.07-.35,4.85.46,11.54-3.45,14.23,4.88.33-.83,5.81,2.16,6.47,4.15.91-1-20.78,6.47-17.25,0,.23,2.57,3.61,2.59,3.88.01.19-2,.91-1.72,3.45.3,2.76,4.06,6.23,0,6.9,3.38,1.63,3.21-1,5.17-3.02,0,1.44,1.07,9.69,2.16,9.49,3.68-5.06-.48-5.23-.43-5.61.07-.57,2.21-6.59,2.59-8.62.19-1.01,2.52-1.36,2.59-1.72.22-1.26-1.06-5.01-.86-6.47,2.55-18.59,3.79-36.24,5.17-53.9.06-.81.73-7.03,2.59-6.47,0,5.75-1.32,13.13-1.72,18.97-.83,12.02-.91,24.21-1.72,36.22-.89,13.18-3.06,26.42-3.02,39.67,2.65-12.97,2.91-26.5,3.88-39.67.89-12.06,1.7-24.17,2.59-36.22.5-6.88,1.13-13.78.86-20.7,1.98.21,3.67.68,5.17.86Z"/>
          <g>
            <path class="st52" d="M581.5,216.2h-1.72c.4-5.85,1.72-13.22,1.72-18.97v-1.72c.28.03.58-.03.86,0,.26,6.92-.36,13.82-.86,20.7Z"/>
            <path class="st203" d="M578.91,252.42c-.97,13.17-1.23,26.7-3.88,39.67-.04-13.25,2.13-26.49,3.02-39.67h.86Z"/>
            <path class="st210" d="M581.5,216.2c-.88,12.06-1.7,24.16-2.59,36.22h-.86c.81-12.01.9-24.2,1.72-36.22h1.72Z"/>
            <path class="st71" d="M564.68,275.7c3-.38,2.08,3.26-.86,1.72-.85-.45.68-1.7.86-1.72Z"/>
            <polygon class="st235" points="569 280.88 569.86 281.74 569.86 282.6 569 282.6 569 280.88"/>
          </g>
        </g>
        <g>
          <path class="st12" d="M542.69,192.91l-.43,155.23-11.64-1.29.43-67.7-1.29,68.56h-11.21l2.59-153.08c6.11-.36,15.54-3.85,21.56-1.72Z"/>
          <polygon class="st279" points="537.95 312.79 539.24 313.22 537.95 314.51 537.52 314.08 537.95 312.79"/>
        </g>
        <g>
          <path class="st24" d="M699.65,230.86l1.29,39.67.43-38.81c3.64,1.99,6.83,3.83,10.35,6.04l.86,109.96c-1.17,1.66-20.24-.25-23.28-.43,1.68-40.84-2.78-81.22-7.76-121.6.25-1.18-.23-2.16.86-3.45,5.8,2.59,11.64,5.63,17.25,8.62Z"/>
          <path class="st114" d="M701.37,231.72l-.43,38.81-1.29-39.67c.54.29,1.19.57,1.72.86Z"/>
          <path class="st123" d="M689.3,347.28c-.64-.04-.5.15-1.72,0,2.78-38.36-4.01-76.14-6.04-114.27-.11-2.03-1.25-1.34,0-7.33,4.98,40.38,9.44,80.76,7.76,121.6Z"/>
          <path class="st172" d="M700.94,334.35c1.22.04,1.47,6.69-.86,6.9.19-2.34-1.68-5.02.86-6.9Z"/>
          <path class="st84" d="M700.94,286.91c.62,0,.73,9.11,0,10.35-.67,0-.67-10.35,0-10.35Z"/>
        </g>
        <path class="st95" d="M465.94,246.38c-.38,9.78-.63,19.53-.86,29.32-.18,7.49-.71,14.91-.86,22.42-1.64,6.71-2.6,13.86-3.45,20.7l-2.59,2.16c-1.79-20.19.98-40.25,3.45-60.37.22-1.78-1.69-18.64,4.31-14.23Z"/>
        <g>
          <path class="st213" d="M478.01,199.81l-.86,148.33c-2.22-.14-10.23.91-11.21-1.29-.63-12.19.85-24.53.86-36.65.01-11.45-.72-23.1-1.72-34.5.23-9.79.48-19.54.86-29.32.57-14.56,2.39-29.43.86-43.98,3.67-1.05,7.48-1.76,11.21-2.59Z"/>
          <path class="st87" d="M466.8,310.2h-1.72c.07-4.02-.92-8.95-.86-12.07.15-7.51.68-14.93.86-22.42,1.01,11.4,1.74,23.04,1.72,34.5Z"/>
          <path class="st298" d="M471.54,326.58c.66,0,.67,4.32,0,4.31-.75-.7-.6-4.31,0-4.31Z"/>
          <path class="st285" d="M471.54,321.41c.67,0,.66,3.45,0,3.45s-.66-3.45,0-3.45Z"/>
          <path class="st231" d="M471.54,333.48c1.59-.32,1.76,1.43.86,2.59-.23-.71-1.44-1.98-.86-2.59Z"/>
        </g>
        <g>
          <path class="st233" d="M776.4,286.05l-5.17,46.57c-.74,4.92-2.54,9.58-2.59,14.66-2.64.12-17.77,2.13-18.97.43l4.31-59.51,6.9-15.95c5.46,4.64,10.35,8.78,15.52,13.8Z"/>
          <path class="st188" d="M777.27,286.91c.64,1.83-.66,3.18-.86,4.31-2.45,13.66-3.12,27.68-5.17,41.4l5.17-46.57c.3.29.58.59.86.86Z"/>
          <path class="st149" d="M757.86,333.48c.37.02,1.47,6.14-.86,6.04-.24-.88.47-6.05.86-6.04Z"/>
          <path class="st63" d="M757,341.25c1.07-.74,1.14,3.3,0,2.59-.66-.41-.74-2.08,0-2.59Z"/>
        </g>
        <path class="st61" d="M786.75,305.02c.22-1.84-.75-3.83,1.29-5.17.86,1.39-1.02,4.11-1.29,5.17Z"/>
        <g>
          <path class="st70" d="M447.83,207.57v140.14c-.62.88-9.38.35-11.21.43l1.72-137.12c2.26-.62,6.23-3.64,9.49-3.45Z"/>
          <path class="st227" d="M438.34,211.02l-1.72,137.12c-.29.01-.58-.01-.86,0,2.89-11.92,1.54-23.47,1.72-35.36.25-16.1,1.75-32.62,1.72-48.73-.02-17.45-2.18-35.63-3.45-53.04.7-.21,1.86.2,2.59,0Z"/>
          <path class="st129" d="M444.81,298.13l1.72,31.91c-1.79-2.53-3.33-31.91-1.72-31.91Z"/>
        </g>
        <path class="st259" d="M559.08,228.27c-.22,3.83.05,27.34-2.59,27.6.67-9.25.46-18.35.86-27.6h1.72Z"/>
        <path class="st244" d="M563.39,253.28c.05-1.22-.08-2.21,0-3.45l4.31.43-4.31,3.02Z"/>
        <g>
          <path class="st225" d="M315.88,331.76c-1.11,5.13-2.5,10.21-2.59,15.52-4.52.2-7.6.29-12.07,0,2.1-4.68,5.46,1.2,3.02-6.04-.59-.13-.05,3.46-1.72,2.59s.19-22.65.43-26.73c.41-6.85,1.44-13.85.86-20.7,5.67-5.93,11.22-10.88,17.25-16.39l-5.17,51.74Z"/>
          <path class="st160" d="M307.69,320.55c.51.13,2,4.85-.86,4.31-2.13-.4.59-4.38.86-4.31Z"/>
          <path class="st0" d="M312.86,305.02c.66,0,.67,4.32,0,4.31-.75-.7-.6-4.31,0-4.31Z"/>
          <path class="st11" d="M307.69,343.83c.1-.01,1.74,1.26.86,1.72-2.22,1.18-2.49-1.54-.86-1.72Z"/>
        </g>
        <g>
          <path class="st236" d="M301.22,317.1c-.56,10.03-.25,20.22-1.72,30.18-2.52-.24-4.61,3.52-6.47-2.59-.52,2.23-1.12,4.49-3.88,3.02l-.86-34.07c4.45-5.37,9.11-9.65,13.8-14.66.67,6.08-.53,12.13-.86,18.11Z"/>
          <path class="st217" d="M302.94,317.1h-1.72c.33-5.98,1.53-12.03.86-18.11.11-.11.33-1.13,1.72-2.59.58,6.84-.46,13.84-.86,20.7Z"/>
          <path class="st194" d="M302.94,317.1c-.24,4.09-2.03,25.9-.43,26.73s1.14-2.71,1.72-2.59c2.44,7.24-.91,1.36-3.02,6.04-.09,0-.76.09-1.72,0,1.47-9.96,1.17-20.15,1.72-30.18h1.72Z"/>
          <path class="st49" d="M293.02,330.03c1.93-.46,2.24,3.31.86,4.31l-.86-4.31Z"/>
          <path class="st60" d="M293.02,340.38c1.85-1.33,1.05,3.05,0,2.59-.66-.29-.73-2.06,0-2.59Z"/>
        </g>
        <g>
          <path class="st151" d="M723.8,305.02c1.35,13.09-.91,28.44.86,41.83l-10.78,1.29c-.01-15.21-1.18-30.54-1.29-45.71l9.92-6.04c.08,2.82,1.02,5.92,1.29,8.62Z"/>
          <path class="st163" d="M716.47,308.47c.42-.02.58.76.43,1.29-.49,3.21-1.53-1.23-.43-1.29Z"/>
        </g>
        <path class="st42" d="M567.7,270.53c.31-.32-.6-3.13,1.72-.43-.31.74-1.73.34-1.72.43Z"/>
      </g>
    </g>
    <g>
      <g>
        <path class="st290" d="M526.31,867.31c-3.25-.19-6.29-.58-9.49-.86l1.29-22.42c-2.56,7.19-.5,14.85-3.02,22.42-10.69-1.02-21.37-2.3-31.91-4.31,4.71-28.86-.44-69.59,12.07-95.73,4.53,1.59,6.13-.74,10.35,2.59-2.9,19.51,5.8,47.97,3.45,68.56l.86-20.7c-.32-9.22-5.32-42.32-3.45-48.29.56-1.78,13.44-7.56,12.94-13.8-.04-.49-4.86-7.65-5.61-8.19-6.13-4.42-16.39,5.2-9.92-6.47l-12.07-13.37c-1.58-.24-.62-2.38-.86-3.45v-23.28c2.09.13,13.11-.54,13.8.43.62,15.08.94,28.55,12.5,39.24-5.14-6.78-13.96-32.08-10.78-39.24,1.07-2.41,16.89-1.17,19.84-.86v167.74Z"/>
        <path class="st288" d="M673.78,794.87l-.86,47.43c-6.22,2.5-11.69,4.75-18.11,6.9l.86-150.06c2.71.11,13.63-.93,14.66,1.29-4.38,32.78-5.54,62.36,3.45,94.43Z"/>
        <path class="st82" d="M692.75,833.68c-1.74.82-3.34,1.76-5.17,2.59-.39-4.85-1.96-9.23-3.45-13.8-7.64-40.25-6.56-81.18-7.76-122.03h7.76l8.62,133.24Z"/>
        <path class="st267" d="M655.67,699.14l-.86,150.06c-2.83.95-5.7,2.6-8.62,3.45-.22-48.87.35-97.75.86-146.61.03-2.41.67-4.46,0-6.9,2.81-.13,5.81-.11,8.62,0Z"/>
        <path class="st115" d="M361.59,707.77c2.13,35.03-1.59,70.93,0,106.08-3.29-2.13-6.09-3.68-9.49-6.04,1.5-31.54-3.07-63.32-1.72-94.86,2.85-.31.91-3.12,3.88-5.17,3.74-2.59,4.23,2.78,7.33,0Z"/>
        <path class="st219" d="M505.61,769c.48-3.23,2.5-3.82,6.04-5.61,2.08-2.52-11.78-4.87-12.5-4.74-2.68.47-2.92,5.76-3.88,7.76-12.52,26.14-7.36,66.87-12.07,95.73-1.34-.25-1.83-.71-2.59-.86,2.21-2.67,2.31-8.99,2.59-12.5,3.23-40.64,4.61-81.46,8.62-122.03l12.07,13.37c-6.47,11.67,3.79,2.04,9.92,6.47.75.54,5.57,7.7,5.61,8.19.5,6.24-12.38,12.02-12.94,13.8-1.87,5.97,3.13,39.08,3.45,48.29l-.86,20.7c2.35-20.59-6.35-49.05-3.45-68.56Z"/>
        <path class="st138" d="M301.22,763.83c-2.78-3.11-11.21-9.9-12.07-13.8-2.81-12.62,2.1-35.8,0-49.59h16.39l-4.31,63.39Z"/>
        <path class="st148" d="M449.55,851.79c-4.4,2.78-3.87,1.08-8.62,0-1.62-34.56,3.08-69.03,2.59-103.49-.05-3.86.32-25.24-.86-26.3-3.68-3.31-8.42,3.84-11.21,5.61,3.19-8.37,4.33-13.37,15.09-13.8l2.16,3.88c-.91,44.49-2.51,89.94.86,134.1Z"/>
        <path class="st79" d="M804,746.58c-1.42,1.72-11.95,16.55-13.8,15.52.98-1.69,2.57-2.95,3.45-4.74-.41-19.12-3.48-37.98-.86-57.35,1.58.06,10.52-1.4,11.21.43v46.14Z"/>
        <path class="st53" d="M258.1,700.01c2.44,0,12.67-.46,13.8.43,1.45,1.15.21,15.96,1.29,15.95l.43-15.95h7.76l-.86,39.24c-6.19-7.97-12.8-15.98-18.11-24.58-2.27-3.67-7.86-12.03-6.9-15.09h2.59Z"/>
        <path class="st43" d="M835.05,701.73c-5.21,8.93-10.14,19.12-17.25,26.73-1.49,1.59-5.67,5.92-7.76,6.47.1-4.95-1.13-50.34,3.02-28.03,2.76-.07.26-5.55,1.72-6.9.76-.7,18.69-.96,20.27,1.72Z"/>
        <path class="st191" d="M684.13,822.47c1.49,4.57,3.06,8.95,3.45,13.8-4.98,2.26-9.62,4.01-14.66,6.04l.86-47.43c2.53,9.05,7.39,18.52,10.35,27.6Z"/>
        <path class="st252" d="M440.93,783.66c-1.08,22.4-.62,44.92-2.59,67.27-2.02-.54-4.13-1.99-6.04-2.59l1.72-50.02c.42-2.33,2.91-19.31,6.9-14.66Z"/>
        <path class="st220" d="M371.94,820.74c-1.94-1.14-3.59-2.47-5.17-3.45.25-14.88,0-29.89,0-44.85,4.57-1.38,2.45,4.74,2.16,6.04l3.88-3.88c2.4,9.79-4.09,8.06-4.31,8.62-.85,2.14,4.22,3.14,4.31,3.45.16.55-6.35,5.7-1.29,9.92.09.08,1.62-1.79,1.72-1.72,1.69,1.11,1.09,22.4-1.29,25.87Z"/>
        <path class="st187" d="M781.58,700.01l.86,17.68c2.46-2.12-1.42-13.09,3.45-8.62l4.31,53.04c-.56.97-1.07,1.68-1.72,2.59l-3.88-44.85-3.02,3.88c.41-8.23-5.95-16.82-5.17-23.72,1.71-.08,3.46.04,5.17,0Z"/>
        <path class="st161" d="M440.93,851.79c-.72-.16-1.51-.58-2.59-.86,1.96-22.35,1.51-44.87,2.59-67.27.56-11.72,1.81-23.64,2.59-35.36.49,34.46-4.21,68.92-2.59,103.49Z"/>
        <path class="st94" d="M432.3,848.34c-.95-.3-2.08-.4-3.45-.86l5.17-49.16-1.72,50.02Z"/>
        <path class="st97" d="M516.82,866.45c-.56-.05-1.16.05-1.72,0,2.51-7.58.46-15.23,3.02-22.42l-1.29,22.42Z"/>
        <path class="st66" d="M792.79,700.01c-2.62,19.37.45,38.23.86,57.35-.88,1.8-2.47,3.06-3.45,4.74l-4.31-53.04c-4.87-4.46-.99,6.51-3.45,8.62l-.86-17.68c3.78-.1,7.42-.14,11.21,0Z"/>
        <path class="st251" d="M433.17,700.01c-1.04,6.86-9.39,11-12.5,17.25-2.32.06-3.64-15.92-3.02-18.11,5.36-.02,10.24.5,15.52.86Z"/>
        <path class="st15" d="M361.59,707.77c-3.1,2.78-3.59-2.59-7.33,0-2.97,2.06-1.03,4.87-3.88,5.17.28-6.52-2.22-19.18,9.92-13.8,2.12.94,1.17,6.61,1.29,8.62Z"/>
        <g>
          <path class="st278" d="M841.08,690.52c-1.98,3.77-3.89,7.53-6.04,11.21-1.58-2.69-19.51-2.43-20.27-1.72-1.46,1.35,1.04,6.83-1.72,6.9-4.15-22.31-2.92,23.08-3.02,28.03,2.1-.55,6.28-4.88,7.76-6.47-3.49,6.89-8.97,12.25-13.8,18.11v-46.14c-.69-1.83-9.64-.37-11.21-.43-3.79-.14-7.43-.1-11.21,0-1.71.04-3.46-.08-5.17,0-.58.03-4.46-2.51-6.04.43,1.85,12.14,4.31,25.11,12.94,34.5-4.56-.63-8.93-11.43-10.35-15.52-2.39-6.9-1.26-24.9-11.64-20.27-2.48,1.11,1.27,47.95-.86,54.33l-1.29-53.04-29.32-.86v113.41c-1.72,1.11-3.37,2.33-5.17,3.45v-115.99h-11.21l-1.29,40.96.43-40.96-27.17-.43,10.78,131.95c-1.16.57-2.24,1.15-3.45,1.72l-8.62-133.24h-7.76c1.21,40.85.12,81.78,7.76,122.03-2.96-9.07-7.81-18.55-10.35-27.6-8.99-32.08-7.83-61.65-3.45-94.43-1.03-2.22-11.95-1.18-14.66-1.29s-5.81-.13-8.62,0c-2.61.12-12.82-.92-13.8,1.29l-.86,154.8v-.86c.43-3.35-1.48-3.78-4.31-3.45v-150.49h-7.76c-.04,15.93,5.11,32.61-.43,47.86l-.43-14.23c-.41-1.16-1.73,2.95-2.59.86-2.33-5.68,2.03-27.25,1.72-34.5h-7.76c2.51,13.15,1.98,26.72,1.29,40.1l-2.16-40.1h-24.15c2.74,14.01-4.63,58.14,1.72,68.13,1.34,2.11,3.87,3.28,6.04,4.31-4.3,1.72-8.83-5.91-9.49-9.49-1.79-9.71,1-57.69-2.59-62.96l-32.34-1.29-2.16,168.17c-.37,0-3.17.89-5.17.86l.86-167.74-13.37-1.29-.43,166.88,6.9,2.16c-2.66-.08-6.4-.68-9.49-.86v-167.74c-2.94-.31-18.76-1.55-19.84.86-3.18,7.16,5.64,32.46,10.78,39.24-11.57-10.69-11.89-24.16-12.5-39.24-.69-.97-11.7-.3-13.8-.43-2.84-.18-4.8.09-6.9,0-4.04-.17-27.97-2.62-29.32.43-.24,48.58.32,97.17,0,145.75,0,.3-1.73,3.67-1.72,3.88-1.51-.19-2.32,1.01-3.45,1.72-3.38-44.17-1.78-89.62-.86-134.1l-2.16-3.88c-10.76.42-11.9,5.43-15.09,13.8-.35.91-.44,2.57-1.29,3.45-.27-3.16,2.17-12.39,3.88-15.09,5.69-8.98,18.01-2.1,13.37-15.95-4.68-.26-9.62.32-14.23,0-5.28-.37-10.16-.88-15.52-.86-3.6.01-25.69-.25-26.73,1.29l-6.47,58.21,5.61-58.21-21.99-1.29c-2.19.88-1.25,39.28-1.29,44.85-.05,5.98,0,12.09,0,18.11,0,1.14,0,2.31,0,3.45,0,2,0,4.03,0,6.04,0,.29,0,.57,0,.86,0,14.95.25,29.97,0,44.85-1.86-1.15-3.42-2.31-5.17-3.45-1.59-35.15,2.13-71.04,0-106.08-.12-2.02.82-7.69-1.29-8.62-12.14-5.38-9.64,7.28-9.92,13.8-1.34,31.54,3.22,63.32,1.72,94.86-.83-.58-1.77-1.14-2.59-1.72l-.43-106.08-21.99,1.29-4.31,83.22c-.15-.13-1.22-.49-2.59-1.72l3.02-82.79c-2.44.38-15.16-.69-15.95.43-2.87,4.05-1.85,57.12-3.45,65.97-.8-.87-1.73-1.62-2.59-2.59l4.31-63.39h-16.39c2.1,13.79-2.81,36.97,0,49.59-3.95-2.51-5.88-6.82-8.62-10.35l.86-39.24h-7.76l-.43,15.95c-1.08,0,.15-14.81-1.29-15.95-1.13-.89-11.35-.43-13.8-.43-.11-1.82-2.24-1.49-2.59-1.72-1.63-1.08-3.91-3.54-5.17-5.17,87.06-1.34,174.24-1.87,261.31-2.59,27.81-.23,55.8.3,83.65,0,39.73-.43,73.66,1.84,112.54-5.17,14.02-2.53,26.73-9.7,42.26-6.9,1.24.22,3.02-.46,1.72,1.72l-64.68,10.35h153.94Z"/>
          <path class="st300" d="M632.38,854.38h-5.17c.34-1.07.71-2.33.86-3.45,2.83-.33,4.75.1,4.31,3.45Z"/>
          <path class="st300" d="M258.1,700.01h-2.59c.13-.42-.07-1.17,0-1.72.35.23,2.48-.1,2.59,1.72Z"/>
          <path class="st65" d="M619.01,717.26c1.17,1.38.78,12.94,0,12.94-.72-4.17-.72-8.76,0-12.94Z"/>
        </g>
        <g>
          <path class="st25" d="M417.64,699.14c-.62,2.19.7,18.18,3.02,18.11,3.11-6.24,11.47-10.39,12.5-17.25,4.61.32,9.55-.26,14.23,0,4.64,13.86-7.68,6.97-13.37,15.95-1.71,2.7-4.15,11.93-3.88,15.09.85-.88.94-2.54,1.29-3.45,2.79-1.77,7.53-8.92,11.21-5.61,1.18,1.06.81,22.45.86,26.3-.78,11.72-2.02,23.64-2.59,35.36-3.99-4.65-6.48,12.33-6.9,14.66l-5.17,49.16c-4.54-1.51-8.55-3.43-12.94-5.17l1.29-26.73-2.16,26.73c-4.52-1.83-8.57-4.03-12.94-6.04l.43-77.62-3.02,76.75c-9.94-4.68-18.16-9.09-27.6-14.66,2.38-3.47,2.98-24.76,1.29-25.87-.1-.07-1.63,1.8-1.72,1.72-5.06-4.21,1.45-9.37,1.29-9.92-.09-.31-5.16-1.31-4.31-3.45.22-.56,6.71,1.17,4.31-8.62l-3.88,3.88c.29-1.3,2.42-7.42-2.16-6.04,0-.29,0-.57,0-.86,4.85-.03,3.57-.13.86-2.16l3.45-5.17-4.31,1.29c0-1.14,0-2.31,0-3.45,5.17,1.13,6.4-21.36,0-18.11.05-5.57-.9-43.97,1.29-44.85l21.99,1.29-5.61,58.21,6.47-58.21c1.04-1.54,23.14-1.28,26.73-1.29Z"/>
          <g>
            <path class="st283" d="M402.12,836.27c-.5-.23-1.62-.41-2.59-.86l3.02-76.75-.43,77.62Z"/>
            <path class="st147" d="M415.92,842.3c-.25-.1-.61.1-.86,0l2.16-26.73-1.29,26.73Z"/>
            <path class="st207" d="M366.76,762.1c0-6.02-.05-12.13,0-18.11,6.4-3.25,5.17,19.24,0,18.11Z"/>
            <path class="st18" d="M366.76,771.59c0-2,0-4.03,0-6.04l4.31-1.29-3.45,5.17c2.71,2.02,3.99,2.13-.86,2.16Z"/>
            <path class="st174" d="M424.97,762.1c2.03,6.97-.8,15.42-1.72,22.42l1.72-22.42Z"/>
            <path class="st293" d="M374.09,753.48c1.24.39,1.42,11.15.86,11.21-4.62.53-1.3-8.64-.86-11.21Z"/>
            <path class="st110" d="M373.23,750.89c2.22-1.18,2.49,1.54.86,1.72-.1.01-1.74-1.26-.86-1.72Z"/>
            <path class="st182" d="M420.66,825.92c1.07,1.58.34,3.56-.86,1.72-.61-.94.33-1.04.86-1.72Z"/>
            <path class="st181" d="M371.5,726.74c.42-.02.58.76.43,1.29-.49,3.21-1.53-1.23-.43-1.29Z"/>
            <path class="st224" d="M372.37,731.92c.42-.02.58.76.43,1.29-.49,3.21-1.53-1.23-.43-1.29Z"/>
          </g>
        </g>
        <path class="st135" d="M505.61,769c-4.22-3.33-5.82-1-10.35-2.59.96-2.01,1.2-7.29,3.88-7.76.72-.13,14.59,2.22,12.5,4.74-3.54,1.78-5.56,2.38-6.04,5.61Z"/>
        <g>
          <path class="st68" d="M484.05,700.01c.03,20.42-9.66,64.99-3.45,83.22.09.27,1.29,1.71,1.72.86-3.83-23.61-.46-47.85,3.02-71.15,2.68,1.99,1.15,5.32,1.29,5.61,1.67,3.47,2.39-3.79,4.31,4.74.24,1.07-.71,3.21.86,3.45-4.02,40.57-5.4,81.39-8.62,122.03-.28,3.51-.38,9.83-2.59,12.5-8.95-1.81-18.42-2.73-26.73-6.47.77-1.71-.85-4-.86-4.74,0-.21,1.72-3.58,1.72-3.88.32-48.58-.24-97.17,0-145.75,1.35-3.05,25.29-.6,29.32-.43Z"/>
          <path class="st44" d="M463.35,727.6c.53,1.19,2.09,3.08,2.59,4.74l-3.02,92.71c-1.42-32.42,3.6-65.26.43-97.45Z"/>
          <path class="st258" d="M474.13,794.87c.62,0,.73,8.31,0,9.49-.67,0-.67-9.49,0-9.49Z"/>
          <path class="st44" d="M463.35,727.6c-.26-.59-4.07-2.93-2.16-5.17l2.16,5.17Z"/>
        </g>
        <g>
          <path class="st299" d="M776.4,700.01c-.78,6.9,5.58,15.49,5.17,23.72l3.02-3.88,3.88,44.85c-6.55,8.99-18.18,17.8-26.73,25.01.54-2.74-.73-17.52,0-18.54,1.58-2.23,12.12,3.76,11.21-6.9-.51-5.97-8.26-9.22-11.21-4.31-2.04,3.39-.94,25.1-.86,30.62-2.29,1.9-4.61,3.38-6.9,5.17l-.86-40.1v40.96c-8.19,6.35-14.6,10.77-23.28,16.39v-113.41l29.32.86,1.29,53.04c2.14-6.38-1.62-53.22.86-54.33,10.38-4.63,9.25,13.37,11.64,20.27,1.42,4.1,5.79,14.89,10.35,15.52-8.63-9.39-11.08-22.36-12.94-34.5,1.58-2.94,5.46-.41,6.04-.43Z"/>
          <path class="st271" d="M761.74,789.7c-.07.06-.33.42-.86.86-.08-5.52-1.18-27.23.86-30.62,2.95-4.9,10.7-1.66,11.21,4.31.91,10.66-9.63,4.67-11.21,6.9-.73,1.03.54,15.8,0,18.54Z"/>
          <path class="st30" d="M753.98,795.73s-.2.35-.86.86v-40.96l.86,40.1Z"/>
          <path class="st302" d="M738.03,769c9.84-3.25,11.14,12.35.86,10.35-5.15-1-4.99-8.99-.86-10.35Z"/>
        </g>
        <g>
          <path class="st144" d="M724.66,816.43c-3.77,2.34-7.33,4.7-11.21,6.9l-1.29-80.2-.43,81.07c-5.19,2.89-10.23,5.16-15.52,7.76l-10.78-131.95,27.17.43-.43,40.96,1.29-40.96h11.21v115.99Z"/>
          <g>
            <path class="st21" d="M713.45,823.33c-.52.3-1.2.57-1.72.86l.43-81.07,1.29,80.2Z"/>
            <path class="st276" d="M717.33,781.94l1.72,35.36c-1.17-2.63-3.5-35.36-1.72-35.36Z"/>
            <path class="st28" d="M706.98,746.58c.67,0,.66,3.45,0,3.45s-.66-3.45,0-3.45Z"/>
            <path class="st248" d="M706.98,741.4c.67,0,.66,3.45,0,3.45s-.66-3.45,0-3.45Z"/>
            <path class="st254" d="M706.98,731.92c.67,0,.66,3.45,0,3.45s-.66-3.45,0-3.45Z"/>
          </g>
        </g>
        <g>
          <path class="st274" d="M349.51,806.08c-10.13-7.19-17.48-13.4-26.73-21.56l4.31-83.22,21.99-1.29.43,106.08Z"/>
          <path class="st29" d="M336.15,700.87c1.23.02-.77,11.85-.86,12.94-1.25,0,.21-12.95.86-12.94Z"/>
        </g>
        <g>
          <path class="st6" d="M541.83,868.18c-2-.02-4.04.06-6.04,0l-6.9-2.16.43-166.88,13.37,1.29-.86,167.74Z"/>
          <polygon class="st291" points="537.09 750.03 539.24 791.85 537.95 827.64 537.09 750.03"/>
        </g>
        <g>
          <path class="st143" d="M647.04,699.14c.67,2.44.03,4.49,0,6.9l-2.59,146.61c-1.98.56-11.37,4.8-12.07,2.59l.86-154.8c.98-2.21,11.19-1.18,13.8-1.29Z"/>
          <path class="st111" d="M646.18,852.65c-.47.14-1.25-.13-1.72,0l2.59-146.61c-.51,48.86-1.08,97.74-.86,146.61Z"/>
          <path class="st202" d="M637.13,748.3c.82,0,.58,14.82,0,16.39-.82,0-.58-14.82,0-16.39Z"/>
          <path class="st130" d="M637.13,774.17c.67,0,.67,10.34,0,10.35-.88-.9-.89-10.36,0-10.35Z"/>
        </g>
        <g>
          <path class="st162" d="M320.19,782.8c-5.79-5.22-11.11-10.66-16.39-16.39,1.6-8.86.58-61.93,3.45-65.97.8-1.12,13.52-.05,15.95-.43l-3.02,82.79Z"/>
          <g>
            <path class="st67" d="M315.45,700.87c.79,1.63,1.82,2.27,0,3.45-.7-.8-.71-2.62,0-3.45Z"/>
            <path class="st41" d="M314.59,720.7c.66,0,.67,4.32,0,4.31-.75-.7-.6-4.31,0-4.31Z"/>
            <path class="st85" d="M315.45,706.04c1.07,1.58.34,3.56-.86,1.72-.61-.94.33-1.04.86-1.72Z"/>
            <path class="st17" d="M313.72,726.74c1.07-.74,1.14,3.3,0,2.59-.66-.41-.74-2.08,0-2.59Z"/>
            <path class="st46" d="M315.45,713.81c1.07,1.58.34,3.56-.86,1.72-.61-.94.33-1.04.86-1.72Z"/>
            <path class="st287" d="M315.45,717.26c1.07,1.58.34,3.56-.86,1.72-.61-.94.33-1.04.86-1.72Z"/>
          </g>
        </g>
        <g>
          <path class="st228" d="M490.95,700.01v23.28c-1.92-8.53-2.65-1.27-4.31-4.74-.14-.29,1.38-3.62-1.29-5.61-3.48,23.3-6.85,47.54-3.02,71.15-.43.84-1.63-.59-1.72-.86-6.21-18.23,3.48-62.81,3.45-83.22,2.1.09,4.05-.18,6.9,0Z"/>
          <path class="st238" d="M485.34,703.46c2.26.1,1.35,4.7.86,6.04-2.26-.1-1.35-4.7-.86-6.04Z"/>
          <path class="st107" d="M489.65,709.49c.67,0,.67,6.9,0,6.9-.73-.83-.62-6.9,0-6.9Z"/>
        </g>
        <g>
          <path class="st122" d="M628.07,850.93c-.15,1.12-.52,2.38-.86,3.45-1.71,5.36-4.93,5.38-11.21,5.17l-.43-13.8-.43,14.66c-1.47,1.19-7.51,1.29-9.49,1.72l-.43-50.88-2.16,51.74c-5.65,1.06-11.63,1-17.25,1.72l2.16-65.54-4.74,66.41c-7.97.95-15.29,1.32-23.28,1.72.57-22.79-.97-45.46-3.02-68.13l2.16,68.13c-4.32.2-7.9-.03-12.07,0l2.16-168.17,32.34,1.29c3.58,5.26.8,53.24,2.59,62.96.66,3.58,5.18,11.21,9.49,9.49-2.16-1.03-4.7-2.2-6.04-4.31-6.35-9.99,1.01-54.12-1.72-68.13h24.15l2.16,40.1c.68-13.38,1.21-26.95-1.29-40.1h7.76c.3,7.24-4.05,28.82-1.72,34.5.86,2.09,2.18-2.02,2.59-.86l.43,14.23c5.54-15.26.39-31.94.43-47.86h7.76v150.49Z"/>
          <g>
            <path class="st209" d="M585.81,864.73c-.14.02-.67.63-2.59.86l4.74-66.41-2.16,65.54Z"/>
            <path class="st190" d="M559.94,867.31c-.29.01-.58-.01-.86,0l-2.16-68.13c2.05,22.67,3.59,45.34,3.02,68.13Z"/>
            <path class="st146" d="M605.65,862.14c-1.24.27-1.89.73-2.59.86l2.16-51.74.43,50.88Z"/>
            <path class="st264" d="M616,859.55c.15.99-.76.78-.86.86l.43-14.66.43,13.8Z"/>
            <path class="st48" d="M620.74,749.16l.86,65.54c.86-5.22-4.15-65.51-.86-65.54Z"/>
            <path class="st229" d="M574.17,768.14c.72,21.76,1.04,43.8-.86,65.54-1.18-21.87.69-43.67.86-65.54Z"/>
            <path class="st292" d="M555.2,771.59c.66,0,.67,4.32,0,4.31-.75-.7-.6-4.31,0-4.31Z"/>
            <path class="st179" d="M566.41,712.94h.86c1.7-.14,1.7,1,0,.86l-.86-.86Z"/>
            <g>
              <path class="st90" d="M594.87,748.3c12.49-1.95,11.46,23.4-2.59,16.39-6.01-3-3.79-15.39,2.59-16.39Z"/>
              <path class="st199" d="M593.14,754.34c.42-.02.58.76.43,1.29-.49,3.21-1.53-1.23-.43-1.29Z"/>
            </g>
          </g>
        </g>
      </g>
      <g>
        <path class="st106" d="M659.12,606.87c59.55-1.39,123.78,6.14,184.56,7.76,4.78.13,11.3,2.91,15.52-.86,3.64-.24,7.37-2.05,11.21-.86-.22,5.27-2.95,9.82-4.31,14.66-55.45,1.51-110.99,4.75-166.44,6.9-21.39.83-42.87,1.77-64.25,2.59-2.55.1-4.9-2.67-5.17-2.59-.58.17-.28,3.23-1.72,3.45-5.77.87-10.49-4.61-15.95-6.47,2.54-1.26,7.29-6.12,9.92-6.47,4.05-.53,7.02,3.21,9.92,1.29-7.58-5.29-13.39-.32-20.27,2.16-2.07.74-.13,2.34-.86,2.59-3.13,1.06-14.35,2.97-19.4,4.31-1.76.47-3.86.52-5.17.86-2.74-4.49,5.85-3.91,3.02-8.62l-21.99-6.04c47.06.72,93.94-3.88,141-2.59,3.97.11,13.64,2.72,15.52,0-24.99-3.59-49.56-1.28-74.6-.86l6.04-3.02c.07-1.65-14.92,1.28-10.35-6.9,1.63-2.92,9.45-1.19,13.8-1.29Z"/>
        <path class="st256" d="M420.23,675.86c1.76.64.89,3.18,2.16,3.45,6.04,1.27,19.16-.28,26.3,0,11.15.43,54,1.69,61.66,6.04,2.63,1.49,2,2.83,1.29,5.17-87.07.72-174.25,1.25-261.31,2.59-3.78-4.88-3.71-8.52-6.04-12.94,58.7.13,117.34-2.36,175.93-4.31Z"/>
        <path class="st273" d="M221.88,589.62c.29-.02.58,0,.86,0,44.04-1.34,90.89,1.09,135.4.86-.38,2.42.26,2.23,2.16,2.59,5.52,1.05,12.39.31,18.11,1.72,5.37,6.26,14.89.85,21.13,5.17-.86,0-1.73,0-2.59,0-59.82.59-119.58,3.18-179.38,4.31-.79-4.42-1.15-9.09-2.59-13.37,2.3-.33,4.58-1.16,6.9-1.29Z"/>
        <path class="st38" d="M796.24,608.59c24.68.26,49.48-.17,74.17,1.72-.02.86.04,1.73,0,2.59-3.84-1.19-7.57.62-11.21.86-5.14.34-10.48-.37-15.52.86-60.77-1.62-125-9.15-184.56-7.76v-2.59c3.47-.09,6.54-1.72,6.9-1.72,41.3-.52,86.8,5.58,130.22,6.04Z"/>
        <path class="st83" d="M857.47,655.16c-1.01,2.66-2.39,5.2-3.45,7.76l-85.38-6.9c29.59-.52,59.23-.6,88.83-.86Z"/>
        <path class="st141" d="M600.47,661.2c6.73,1.59,10.84,5.62,18.97,1.72,1.63,4.27,4.53,3.07,8.62,1.72,5.41-1.78,9.8-6.25,16.82-6.04.94.5-2.56,7.55-3.02,8.62-1.92.78-1.83-1.86-2.16-1.72-1.66.69.51,2.89.43,3.02-12.35,20.21-63.32,6.46-83.65,4.74-2.97-4.04-11.23-1.79-15.09-2.59-3.53-.73-3.05-3.3-3.45-3.45-.43-.17-3.68,3.05-6.47-3.02,3.34-3.27,6,.4,6.47.43.28.02,1.45-1.75,1.72-1.72.85.08,1.54,2.67,1.72,2.59.99-.46-.13-2.82.86-3.45.77-.48,7.45.44,7.33-2.59.29.02.58-.03.86,0,3.35.38,7.37.46,8.62,3.88-.29.72-15.76-2.73-11.64,3.88,3.65-.8,8.44-1.22,12.07-.86.81.08.05,2.48.86,2.59,1.08.14,3.64-3.31,6.04,0,.21-3.73,3.14-2.56,6.04-5.17-1.73,2.36,2.95,5.36,3.45,5.17.55-.21,1.17-3.23,1.72-3.45.24-.09,1.16,1.93,2.59,1.72,2.07-.3.47-3.23.86-3.45.81-.46,8.15.31,7.33-6.04,4.05.89,8.03,2.49,12.07,3.45Z"/>
        <path class="st56" d="M591.85,635.33l-.86,3.45c-.25.1-.61-.1-.86,0-2.13.83-3.79,1.47-5.17,3.45-3.72.95-11.26,2.43-12.94,5.61.27,1.51,25.96,10.51,28.46,10.78v2.59c-4.05-.95-8.02-2.56-12.07-3.45-4.76-1.05-41.4-7.11-41.4-10.78,12.2-6.04,26.44-7.3,39.67-10.78,1.31-.35,3.42-.39,5.17-.86Z"/>
        <path class="st206" d="M567.7,621.53c-4.97-.08-10.07.12-15.09,0-.95-2.93,7.3-1.66,9.06-1.72,29.15-1.09,58.78-1.24,87.97-1.72,25.04-.41,49.61-2.73,74.6.86-1.88,2.72-11.55.11-15.52,0-47.06-1.3-93.94,3.3-141,2.59Z"/>
        <path class="st263" d="M436.62,602.55l21.56,6.47-18.97,2.16c-5.79-.44-29.79-4.53-34.07-6.9-2.1-1.16-.24-1.88-.43-3.45,10.51-.08,21.35,1.69,31.91,1.72Z"/>
        <g>
          <path class="st122" d="M396.95,600.83c2.58-.03,5.19.02,7.76,0,.19,1.57-1.67,2.28.43,3.45,4.28,2.37,28.27,6.46,34.07,6.9,12.12.91,25.6-.33,37.95,0,10.63.29,21.09-.54,31.91,0,16.94.85,37.66.94,52.61,8.62-1.76.07-10.01-1.21-9.06,1.72,5.02.12,10.12-.08,15.09,0l21.99,6.04c2.83,4.72-5.76,4.13-3.02,8.62-13.23,3.48-27.47,4.74-39.67,10.78,0,3.67,36.64,9.73,41.4,10.78.82,6.34-6.52,5.58-7.33,6.04-.39.22,1.2,3.15-.86,3.45-1.43.21-2.35-1.82-2.59-1.72-.56.22-1.17,3.24-1.72,3.45-.5.19-5.18-2.81-3.45-5.17-2.9,2.61-5.83,1.44-6.04,5.17-2.39-3.31-4.96.14-6.04,0-.81-.11-.05-2.51-.86-2.59-3.64-.36-8.43.06-12.07.86-4.11-6.61,11.36-3.16,11.64-3.88-1.25-3.42-5.28-3.5-8.62-3.88l12.94-1.29c-90.76,2.04-181.61,9.17-272.52,9.06-17.72-.02-35.73-1.69-53.47-.86-2.2-5.2-4.11-10.22-6.04-15.52l43.98-2.16-44.85.43c-2.39-6.74-5.27-13.47-6.04-20.7l291.49-9.92-292.36,9.06c-2.53-7.31-3.72-14.84-5.17-22.42,59.55.54,119.02-3.7,178.52-4.31Z"/>
          <g>
            <polygon class="st78" points="224.46 628.43 223.6 627.56 515.96 618.51 224.46 628.43"/>
            <path class="st201" d="M396.95,599.97v.86c-59.5.61-118.97,4.85-178.52,4.31-.01-.06-.65.32-.86-.86,59.8-1.13,119.56-3.72,179.38-4.31Z"/>
            <path class="st265" d="M231.36,650.85c-.24-.67-.62-1.05-.86-1.72l44.85-.43-43.98,2.16Z"/>
            <path class="st255" d="M469.82,637.05c7.96-1.17,6.51,11.92-1.72,6.9-3.16-1.93-1.39-6.44,1.72-6.9Z"/>
            <path class="st104" d="M339.59,649.99c2.88-1.04,27.04,2.23,32.34,1.29l-33.2.43c-.84-.43.58-1.62.86-1.72Z"/>
            <path class="st120" d="M562.96,661.2c1.3.57-.04,4.59-.86,4.31-1.29-.44.3-3.47.86-4.31Z"/>
            <path class="st152" d="M290.44,612.04c1.07,1.58.34,3.56-.86,1.72-.61-.94.33-1.04.86-1.72Z"/>
          </g>
        </g>
        <path class="st180" d="M648.77,589.62c-5.07,7.39-16.74-.1-6.9,13.8-6.59.27-13.22.61-19.84.86l-3.02-1.72c4.84-1.26,1.58-5.88,4.31-7.76.93-.64,3.36,3.65,3.02-5.17,7.46,0,14.96,0,22.42,0Z"/>
        <g>
          <path class="st189" d="M767.78,656.02c.19,3.53-8.6,2.1-8.62,3.02,31.2,2.24,63.34,1.84,94.86,4.74-3.88,9.33-8.26,17.82-12.94,26.73h-153.94l64.68-10.35c1.29-2.19-.49-1.5-1.72-1.72-15.53-2.8-28.24,4.37-42.26,6.9-38.88,7.02-72.82,4.74-112.54,5.17,5.9-3.01,30.4,1.12,34.07-.86,3.51-1.89-7.27-3.28-8.19-3.45-6.44-1.22-13.34-1.88-19.84-2.59-1.33-1.25-.86-1.9-.86-3.45,15.15.45,34.54,3.14,41.4-12.94,3.75-1.52,5.49-8.01,7.33-8.62,39.51-.6,79.09-1.89,118.58-2.59Z"/>
          <path class="st103" d="M854.02,662.92c-.1.25.1.62,0,.86-31.52-2.9-63.67-2.5-94.86-4.74.02-.92,8.81.51,8.62-3.02.29,0,.58,0,.86,0l85.38,6.9Z"/>
          <path class="st8" d="M674.21,669.82c1.25-.02,3.23-.59,3.02,1.29.52,4.64-38.68,12.59-43.98,13.8.89-1.36,1.45-2.31,3.02-3.02,2.63-1.19,35.96-12.04,37.95-12.07Z"/>
        </g>
        <path class="st221" d="M699.65,634.46l.86.86c-11.98.46-24.19,2.07-36.22,2.59-4.29.19-8.65-.14-12.94,0-6.53.22-15.01-.78-21.13,0-1.22.16-6.85.65-6.47,2.59-.34-.42-1.33,1.4-2.16.86-.54-.35,1.37-5.26-3.88-1.29,11.99,13-1.28,18.45-13.37,21.13,12.56,7.21,28.39-9.62,19.4-20.7,7.45,4.32,2.11,19.34-4.31,22.42-8.13,3.89-12.24-.14-18.97-1.72v-2.59c8.51.91,26.8-3.62,18.97-15.09-5.05-7.39-26.92-3.23-34.5-1.29,1.39-1.98,3.05-2.62,5.17-3.45l11.64-.86c.54-.95.35-1.03,1.29-1.72,4.28,3.27,12.06,1.5,17.25,1.29-1.65-.02-9.37-4.71-9.92-4.74-1.72-.11-1.51,2.5-2.59,2.59-.2.02-1.59-1.31-3.88-.86-4.3.83-8.86,2.7-12.94,4.31l.86-3.45c5.05-1.35,16.27-3.25,19.4-4.31.73-.25-1.2-1.84.86-2.59,6.88-2.47,12.68-7.44,20.27-2.16-2.9,1.92-5.86-1.83-9.92-1.29-2.63.34-7.38,5.21-9.92,6.47,5.47,1.86,10.19,7.34,15.95,6.47,1.44-.22,1.15-3.28,1.72-3.45.28-.08,2.63,2.68,5.17,2.59,21.38-.82,42.86-1.76,64.25-2.59Z"/>
        <path class="st128" d="M859.2,613.77c-4.22,3.77-10.74.99-15.52.86,5.04-1.23,10.39-.52,15.52-.86Z"/>
        <path class="st168" d="M664.29,637.91l6.04,9.06c-1.56,4.2-3.58.62-6.04,2.16-2.34-1.64-3.76-.82-6.04,0l-6.9-11.21c4.29-.14,8.65.19,12.94,0Z"/>
        <g>
          <path class="st27" d="M865.23,630.15c-2.62,8.86-4.48,15.37-7.76,24.15l-192.75,1.72c1.01-4.66,11.99-2.26,15.95-3.88l-16.39-3.02c2.46-1.54,4.48,2.05,6.04-2.16l-6.04-9.06c12.03-.52,24.24-2.13,36.22-2.59,54.88-2.11,109.88-2.11,164.72-5.17Z"/>
          <g>
            <path class="st301" d="M664.29,649.12l16.39,3.02c-3.97,1.62-14.94-.78-15.95,3.88l192.75-1.72c-.09.25.1.61,0,.86-29.59.27-59.24.34-88.83.86-.29,0-.58,0-.86,0-39.49.69-79.07,1.99-118.58,2.59-1.84.61-3.58,7.1-7.33,8.62.46-1.07,3.96-8.13,3.02-8.62-7.02-.21-11.4,4.25-16.82,6.04,4.12-7.58,15.63-6.38,21.13-8.62,2.92-1.19,5.41-5.58,9.06-6.9,2.27-.82,3.69-1.64,6.04,0Z"/>
            <path class="st158" d="M866.09,627.56c-.26.92-.63,1.81-.86,2.59-54.84,3.07-109.84,3.07-164.72,5.17l-.86-.86c55.46-2.15,110.99-5.39,166.44-6.9Z"/>
            <path class="st166" d="M715.6,651.71l3.88.43c-1.35.9-4.01,2.34-3.88-.43Z"/>
            <path class="st262" d="M711.29,651.71c.3-.2,1.9-.14,2.16.43.65,1.43-4.93,1.45-2.16-.43Z"/>
            <path class="st195" d="M723.37,651.71c.86.09,3.85-.32,3.88.43-.47.57-4.56,1.05-3.88-.43Z"/>
            <path class="st197" d="M726.82,642.23c1.31-.47,1.9,1.27.86,1.72-1.26.55-1.9-1.35-.86-1.72Z"/>
          </g>
        </g>
        <path class="st173" d="M796.24,606.87v1.72c-43.42-.45-88.93-6.56-130.22-6.04l.86-1.72c45.31,4.26,83.99,5.54,129.36,6.04Z"/>
        <g>
          <path class="st273" d="M865.23,589.62c1.65.08,3.66-.25,5.17,0,1.13.18,3.66-.47,4.31.43,1.5,2.64-1.66,6.74-1.72,7.33.02-1.45-3.49-.97-3.45-.43.85.83,2.31.31,3.45.43-.28,2.44-.21,10.12-1.72,12.07-24.92-1.94-49.98-2.31-75.03-2.59-45.37-.49-84.05-1.77-129.36-6.04-5.3-.5-10.48-2.42-15.95-1.72l12.94,2.59c2.55,2.64-20.1,1.65-21.99,1.72-9.84-13.9,1.83-6.41,6.9-13.8,70.83.06,146.23-3.31,216.46,0Z"/>
          <g>
            <path class="st109" d="M871.27,609.45c-.09.12.13,1.01-.86.86-24.69-1.9-49.49-1.47-74.17-1.72v-1.72c25.05.27,50.11.64,75.03,2.59Z"/>
            <path class="st300" d="M869.54,587.03l.86,2.59c-1.51-.25-3.52.08-5.17,0,.36-2.15,3.39-2.01,4.31-2.59Z"/>
            <path class="st22" d="M767.35,594.79c23.65.76,47.57-.25,71.15,2.16l-34.07-.43-37.08-1.72Z"/>
            <path class="st282" d="M839.79,595.66c9.61.4,19.46-.59,28.89,1.29-9.06.02-20.3,2.23-28.89-1.29Z"/>
            <path class="st261" d="M752.69,593.93c1.64.04,5.93,1.4,8.19,1.29,0,1.17-21.68.46-23.28,0,4.76.22,10.51-1.41,15.09-1.29Z"/>
            <path class="st100" d="M872.99,597.38c-1.14-.12-2.6.4-3.45-.43-.04-.54,3.47-1.01,3.45.43Z"/>
          </g>
        </g>
        <path class="st145" d="M444.38,674.13c3.56.41,5.12,1.35,4.31,5.17-7.15-.28-20.26,1.27-26.3,0-1.26-.27-.4-2.81-2.16-3.45,6.25-.21,19.37-2.27,24.15-1.72Z"/>
        <g>
          <path class="st112" d="M549.59,659.47c.12,3.02-6.56,2.1-7.33,2.59-1,.63.12,2.99-.86,3.45-.19.09-.87-2.51-1.72-2.59-.28-.03-1.44,1.74-1.72,1.72-.46-.03-3.12-3.7-6.47-.43,2.79,6.07,6.04,2.85,6.47,3.02.4.15-.08,2.72,3.45,3.45,3.86.79,12.12-1.45,15.09,2.59-68.12-5.73-124.62.65-191.89,3.45-40.34,1.68-80.84.86-121.17,2.59-2.05-4.04-3.38-7.12-5.17-11.21,17.52-.05,35.09.06,52.61,0,27.13-.1,54.37-.14,81.5-.86,54.74-1.45,124.64-11.26,177.22-7.76Z"/>
          <g>
            <path class="st118" d="M641.87,667.24c-6.85,16.08-26.24,13.39-41.4,12.94-9.9-.3-18.74-1.7-28.46-2.59-5.4-.49-11.01-2.13-16.39-2.59-37.5-3.2-73.61-3.16-111.25-.86-4.77-.55-17.89,1.52-24.15,1.72-58.59,1.95-117.23,4.44-175.93,4.31-.03-.05-.3.25-.86-.86,40.33-1.73,80.83-.91,121.17-2.59,67.27-2.8,123.77-9.18,191.89-3.45,20.33,1.71,71.3,15.47,83.65-4.74.08-.13-2.09-2.33-.43-3.02.33-.14.24,2.5,2.16,1.72Z"/>
            <path class="st223" d="M290.87,667.24v.86c-17.52.06-35.09-.05-52.61,0-.13-.29-.5-.88-.86-1.72,17.74-.83,35.75.84,53.47.86Z"/>
            <path class="st245" d="M550.45,659.47c-.28-.03-.58.02-.86,0-52.59-3.49-122.49,6.31-177.22,7.76-27.13.72-54.36.76-81.5.86v-.86c90.91.12,181.76-7.02,272.52-9.06l-12.94,1.29Z"/>
            <path class="st269" d="M527.6,662.92c3.56-.68,3.96,2.48,2.59,3.45-2.87,2.03-6.67-2.67-2.59-3.45Z"/>
            <path class="st77" d="M267.15,670.69c.4-.02,7.33.84,7.33,2.16l-11.64-.43c-.11-.66,4.08-1.71,4.31-1.72Z"/>
            <path class="st3" d="M510.35,664.65c.27-.09,4.96.74,5.61,1.29l-6.47.43c-.85-.43.6-1.64.86-1.72Z"/>
            <path class="st1" d="M517.25,664.65c1.09.15,7.33-.38,7.33.43-1.37-.04-7.21,2.15-7.33-.43Z"/>
          </g>
        </g>
        <g>
          <path class="st270" d="M626.35,589.62c.34,8.82-2.09,4.53-3.02,5.17-2.73,1.88.53,6.5-4.31,7.76l3.02,1.72c-19.46.74-38.91.77-58.21,2.59,31.87,1.2,63.55-1.8,95.3-2.59v2.59c-4.35.1-12.16-1.63-13.8,1.29-4.57,8.18,10.41,5.25,10.35,6.9l-6.04,3.02c-29.18.48-58.81.63-87.97,1.72-14.95-7.68-35.66-7.78-52.61-8.62l24.58-4.31-30.18,2.59c-1.3-3.55-1.15-.02-1.72,0-6.26.25-12.88-.95-18.97-.86-.31,0-6.39.86-5.61,2.59-12.35-.33-25.83.91-37.95,0l18.97-2.16-21.56-6.47c18.15.05,39.51.78,57.35-.86,1.87-.17,11.54-.81,7.76-3.45-33.72,5.14-68.17,1.41-102.2,1.72-6.24-4.33-15.76,1.08-21.13-5.17-5.72-1.41-12.59-.68-18.11-1.72-1.9-.36-2.54-.17-2.16-2.59,89.38-.47,178.81-.91,268.21-.86Z"/>
          <g>
            <path class="st126" d="M436.62,602.55c-10.56-.03-21.4-1.8-31.91-1.72-2.58.02-5.19-.03-7.76,0v-.86c.86,0,1.73,0,2.59,0,34.03-.31,68.48,3.42,102.2-1.72,3.78,2.64-5.89,3.28-7.76,3.45-17.84,1.64-39.2.92-57.35.86Z"/>
            <path class="st16" d="M509.06,611.18c-10.82-.54-21.28.29-31.91,0-.78-1.73,5.3-2.58,5.61-2.59,6.09-.09,12.71,1.11,18.97.86.57-.02.43-3.55,1.72,0l30.18-2.59-24.58,4.31Z"/>
            <path class="st35" d="M666.88,600.83l-.86,1.72c-.36,0-3.42,1.64-6.9,1.72-31.75.79-63.42,3.78-95.3,2.59,19.3-1.82,38.75-1.85,58.21-2.59,6.62-.25,13.24-.6,19.84-.86,1.89-.08,24.54.91,21.99-1.72l-12.94-2.59c5.47-.69,10.65,1.23,15.95,1.72Z"/>
            <polygon class="st2" points="571.58 596.52 579.78 596.95 573.31 598.24 571.58 596.52"/>
            <path class="st195" d="M507.76,598.24c3.58-.31,2.17,1.63,0,2.59-1.59-.66-1.07-2.5,0-2.59Z"/>
            <polygon class="st153" points="500 601.69 500.87 602.55 500.87 603.42 500 603.42 500 601.69"/>
          </g>
        </g>
        <path class="st239" d="M603.06,636.19c-.94.7-.76.78-1.29,1.72l-11.64.86c.25-.1.61.1.86,0,4.08-1.62,8.63-3.48,12.94-4.31,1.71,2.53-.17,1.21-.86,1.72Z"/>
        <g>
          <path class="st234" d="M555.63,675c-4.65,6.52,14.07.73,14.66,5.61l1.72-3.02c9.72.89,18.56,2.29,28.46,2.59,0,1.55-.47,2.2.86,3.45,1.86,1.75,16.92,4.47,19.84,2.59.92.17,11.7,1.56,8.19,3.45-3.67,1.98-28.17-2.15-34.07.86-27.86.3-55.84-.23-83.65,0,.71-2.34,1.33-3.68-1.29-5.17-7.67-4.35-50.52-5.6-61.66-6.04.81-3.83-.75-4.76-4.31-5.17,37.64-2.3,73.75-2.34,111.25.86Z"/>
          <path class="st198" d="M621.17,686.21c-2.91,1.88-17.98-.84-19.84-2.59,6.5.71,13.4,1.37,19.84,2.59Z"/>
          <path class="st132" d="M572.01,677.58l-1.72,3.02c-.59-4.88-19.31.92-14.66-5.61,5.37.46,10.99,2.09,16.39,2.59Z"/>
          <path class="st212" d="M550.02,677.58c2.22-1.18,2.49,1.54.86,1.72-.1.01-1.74-1.26-.86-1.72Z"/>
        </g>
        <path class="st86" d="M623.76,640.5c8.99,11.08-6.84,27.91-19.4,20.7,12.09-2.68,25.36-8.13,13.37-21.13,5.25-3.96,3.34.94,3.88,1.29.83.54,1.82-1.28,2.16-.86Z"/>
        <path class="st289" d="M603.06,636.19c.69-.52,2.57.81.86-1.72,2.3-.44,3.68.88,3.88.86,1.08-.09.87-2.7,2.59-2.59.55.04,8.26,4.72,9.92,4.74-5.19.2-12.97,1.97-17.25-1.29Z"/>
        <g>
          <path class="st192" d="M651.36,637.91l6.9,11.21c-3.65,1.32-6.13,5.71-9.06,6.9-5.5,2.24-17.01,1.05-21.13,8.62-4.1,1.35-6.99,2.54-8.62-1.72,6.43-3.08,11.76-18.1,4.31-22.42-.38-1.94,5.24-2.43,6.47-2.59,6.11-.78,14.6.22,21.13,0Z"/>
          <path class="st165" d="M643.16,645.68c2.03-.49,1.46,4.41.86,5.17-1.11-.28-1.12-5.11-.86-5.17Z"/>
        </g>
        <g>
          <path class="st208" d="M600.47,658.61c-2.5-.27-28.19-9.27-28.46-10.78,1.67-3.17,9.21-4.66,12.94-5.61,7.58-1.93,29.45-6.1,34.5,1.29,7.83,11.47-10.46,16-18.97,15.09Z"/>
          <path class="st281" d="M612.12,644.81c1.01-.64,4.68-.4,3.88,2.16-.13.42-7.43.07-3.88-2.16Z"/>
          <path class="st177" d="M583.66,645.68c2.93.23.09,3.68-.86,1.72-.46-.95.74-1.73.86-1.72Z"/>
          <polygon class="st226" points="608.67 644.81 609.96 645.24 608.67 646.54 608.23 646.11 608.67 644.81"/>
        </g>
      </g>
    </g>
  </g>
  <path class="st136" d="M501.76,230c5.11,1.06,2.98,6.84,3.6,10.4,1.94,11.16,7.38,21.73,10.39,32.61.98-5.38,6.67-44.61,8.63-45.88.76-.49,6.86-.3,8.15.08,3.62,1.05,9.01,15.26,10.71,19.28,3.07,7.23,5.79,14.97,7.99,22.52l1.97-1.5c1.98-5.14,4.84-37.95,6.48-39.53,1.44-1.39,22.86-4.77,22.25,1.68-6.58,18.14-10.84,37.17-14.46,56.12-.9,4.7-1.03,16.17-3.67,19.32-2.18,2.6-13.73,3.68-16.15-.03l-14.41-35.05-9.92,36.33c-.59.95-1.75,1.24-2.77,1.43-1.78.33-9.4,1.23-10.87,1.16-3.16-.14-4.87-7.13-5.88-9.96-5.47-15.22-9.2-31.35-14.24-46.75-1.24-3.79-7.52-17.36-7.34-19.7.07-.88.95-2.51,1.56-2.51,4.75,0,13.99-.83,17.98,0Z"/>
  <path class="st51" d="M345.04,324.63c-1.07,1.21-3.96,2.24-3.46,4.73.11.56,6.82,8.45,7.48,8.56,3.56-1.32,15.4-13.96,17.84-13.96,1.35,0,9.52,8.91,10.03,10.07,1.57,3.53-8.85,8.9-11.54,11.45-1.5,1.42-4.74,4.1-5.03,6.04l10.74,10.37c1.24.46,1.91-.21,2.84-.83,2.36-1.59,10.82-10.47,12.95-13.05,1.77-2.13,7.29-11.51,8.14-11.86,3.93-1.62,3.28,1.62,4.89,3.78,4.5,6.03,10.75,8.34,4.33,15.46-6.97,7.74-23.83,22-32.39,28.58-11.22,8.63-6.35.98-10.01-4.93-2.48-4-16.04-17.03-20.41-21.57-4.72-4.91-17.32-18.99-22.04-21.93-1.98-1.23-3.6-1.75-5.96-1.55-2.72-2.56,16.42-19.79,18.78-21.94,2.74-2.5,17.04-15.54,18.93-15.91,2.59-.51,10.87,5.74,12.77,7.83,5.3,5.82-5.44,8.61-9.43,11.62-3.15,2.37-6.81,6.06-9.46,9.04Z"/>
  <path class="st57" d="M352.28,676.14c.51.29,5.92,7.95,7.12,9.36,1.39,1.62,4.85,2,3.93,4.9-.51,1.61-7.67,5.17-9.43,6.59-7.49,6.04-14.51,13.77-21.93,20.05-5.52,8.75,6.17,19.28,16.01,15.03,2.07-.89,20.88-18.46,22.92-21.05,1.59-2.02,3.2-6.76,3.52-6.98,2.79-1.92,10.62,9.57,14,10.4,3.36,4.36-4.74,6.25-7.56,8.57-14.97,12.28-27.55,34.73-50.39,22.44-9.93-5.34-17.49-17.32-15.95-28.85,1.86-14,18.51-21.65,27.41-30.56,2.5-2.5,7.55-11.49,10.34-9.88Z"/>
  <path class="st51" d="M326.08,634.36c3.82,3.5,8.11,11.51,10.11,16.38,5.61,13.68,7.04,21.68-11.65,19.17.21-7.27.96-16.95-5.05-22.45-3.03-2.77-6.47-4.24-7.08.99-1.38,11.85,6.31,24.52-1.52,35.48-5.77,8.08-17.71,7.81-25.34,2.5-7.94-5.52-15.4-25.73-14.59-34.98.4-4.53,11.14-6.91,14.12-4.55s-1.08,21.71,7.41,25.57c11.53,5.25,5.36-12.66,4.99-17.99-.21-3.09-.4-8.06-.04-11.01,1.75-14.38,18.89-18.05,28.64-9.12Z"/>
  <path class="st51" d="M738.95,707.92c-.54.8-6.93,1.15-8.73,1.76-15.37,5.18-20.6,19.07-8.69,31.34,11.95,12.31,30.46,2.64,32.44-12.67.29-2.22-2.14-5.15,1.56-5.42,4.26-.31,11.07,11.25,10.32,15.34-1,5.39-15.98,18.44-21.14,20.92-32.19,15.46-59.64-28.24-35.18-52.21,3.33-3.26,15.12-12.47,19.52-11.54,3.52.74,12.09,9.23,9.89,12.48Z"/>
  <path class="st178" d="M624.06,823.91c-.58.88-19.66,3.62-20.75,2.94-2-4.45-.73-9.38-1.4-14.09-1.12-7.81-10.24-18.49-15.7-24.29-2.54-2.71-15.63-13.14-15.9-14.17-1.36-5.29,19.54-8.59,21.73-7.16.45.3,3.31,7.65,4.72,9.77.87,1.31,8.92,12.78,10.39,11.09-.23-4.3,1.51-8.32,1.99-12.51.37-3.22-.83-10.29.51-12.49,1.77-2.92,18.16-5.59,20.06-3.02,1.12,1.52-4.7,12.74-5.59,15.5-2.85,8.79-7.35,27.99-5.52,36.59.86,4.02,7.15,9.33,5.46,11.86Z"/>
  <path class="st57" d="M540.73,771c5.03,1.42.42,5.16-.28,6.72-1.89,4.24-1.88,27.26-1.84,33.6.01,2.27,1.1,5.06.67,7.63,10.52,2.96,19.2-.64,28.89-3.93,1.02,5.23.94,16.96-5.52,17.88-8.4,1.2-26.01.63-34.95.14-2.91-.16-5.57-.9-8.45-1.05.06-4.67,2.6-7.59,3.04-12.45.89-9.84.89-29.22-.03-39.05-.28-2.94-4.28-9.49.49-9.49,4.04,0,15.1-.82,17.98,0Z"/>
  <path class="st57" d="M810.28,643.69c-9.58-10.47,8.07-20.42,14.69-12.22,7.65,9.47-7.76,19.8-14.69,12.22Z"/>
  <path class="st57" d="M818.83,390.62c-1.85-3.93-20.03-33.32-21.87-34.16-.85-.39-1.29-.61-2.28-.35-.86.22-11.46,9.56-13.8,11.28-8.76,6.46-29.62,21.92-39.13,24.83-3.75,1.15-10.53-.35-11.57,3.5-.77,2.85,6.13,14.34,8.05,17.59,14.76,25.01,30.91,42.3,61.07,24.52,18.33-10.81,29.52-25.96,19.54-47.2ZM755.5,407.95c5.34-2.03,38.17-25.09,40.35-23.82.49.29,5.45,8.54,5.86,9.63,9.75,25.55-40.73,45.44-46.21,14.19Z"/>
  <path class="st51" d="M754,306.52c-7.93-9.58-21.82-17.24-34.45-16.95-19.42.43-41.78,24.82-41.53,43.95.4,31.04,35.98,51.19,62.34,33.31,19.85-13.47,30.57-39.85,13.64-60.3ZM704.05,351.52c-15.59-12.75,4.27-40.47,18.74-43.32,8.51-1.67,19.89,7.07,21.04,15.57,1.98,14.54-24.58,40.19-39.79,27.75Z"/>
  <path class="st101" d="M580.54,392.65c2.58,2.61,5.86,5.44,8.75,7.75,4.61,3.68,22.29,11.73,11.8,18.02-9.18,5.5-21.26-3.77-26.26-2.34-3.17.91-.35,4.46.57,6.22,6.35,12.22,18.09,24.78,29.46,32.51,5.15,3.5,23.41,11.26,24.03,16.82,1.07,9.63-15.41,8.28-21.16,7.4-6.66-1.02-15.25-4.72-21.05-5.04-2.98-.16-1.26,4.37-.71,5.73,4.24,10.54,32.92,36.18,43.49,41.46,4.69,2.34,29.96,8.72,19.61,18.27-9.45,8.72-36.32.92-47.31-3.41-5.1,1.42,3.85,13.04,5.45,15.17,9.15,12.17,22.77,23.76,36.24,30.96,6.48,3.46,22.24,8.36,26.6,12.38,3.25,3,2.81,7.63-.45,10.46-6.18,5.36-22.02,6.56-29.96,5.98-10.16-.74-18.75-5.09-28.48-6.98-2.25,2.3,7.44,14.04,8.81,16.67,2,3.85,4.84,7.89-.3,8.4-8.68.85-30.32-8.24-38.84-12.22-4.71-2.2-20.08-14.56-19.66-4.41.54,13.16,2.4,30.74,4.16,43.92,1.26,9.49,2.42,19.36,6.79,27.95,10.73,5.8,27.31,6.92,37.39,12.82,8.85,5.18,4.11,13.72-4.8,13.9-35.09-1.19-71.01,1.4-105.99,0-5.61-.23-25.47-.08-20.94-10.02,3.51-7.7,33.69-11.82,40.8-17.27l3.39-10.53c4.15-21.14,5.73-42.74,6.8-64.26-1.47-1.87-1.84-.58-3.07-.02-14.48,6.48-26.24,14.76-42.55,18.41-29.68,6.64-6.07-10.26-3.86-23.35-1.33-1.25-11.45,3.84-13.96,4.52-10.52,2.83-24.29,3.77-34.79.78-9.27-2.65-18.57-8.92-6.5-16.1,24.26-14.42,37.05-14.29,57.22-38.73,1.83-2.22,11.37-14.29,11.02-15.95-.15-.74-1.57-1.45-2.48-1.55-3.72-.41-18.15,5.31-24.11,5.91-7.52.76-27.94,2.1-25.15-10.16,1.35-5.91,15.35-8.62,20.8-11.2,12.84-6.08,38.05-29.6,43.4-42.56.68-1.66.68-3.22.54-4.96-12.62,1.44-25.08,9.07-38.19,4.73-8.17-2.71-5.36-10.12.29-14.17,15.68-11.22,26.6-14.37,40.41-30.55,2.14-2.51,12.18-15.2,9.47-18.01-7.49.69-23.69,7.73-29.99,1.53s12.25-15.61,16.54-19.51c9.97-9.07,20.77-25,26.97-37.01,2.45-4.74,9.88-25.32,12.48-26.51,1.71-.78,3.27-.86,4.98-.02,2.29,1.12,8.02,19.14,9.81,23.18,5.98,13.43,12.09,24.44,22.5,34.98Z"/>
  <path class="st51" d="M675.64,270.95c-4.81-30.55-49.6-42.58-68.9-17.86-13.51,17.3-17.53,43.41-.16,59.49,31.91,29.54,75.38-1.42,69.06-41.63ZM633.64,307.08c-30.23.04-15.89-46.49.22-49.85,5.24-1.09,12.16.82,16.29,4.23,12.99,10.73,1.18,45.59-16.52,45.62Z"/>
  <path class="st57" d="M428.09,250.26c-3.9.56-10.32,3.26-14.1,4.88-5.07,2.17-20.12,9.19-23.96,12.02-7.12,5.24.17,7.85,3.18,11.49,3.76,4.55,21.85,42.47,23.45,48.52,1.09,4.11-.86,12.34,4.2,12.83,4.89.48,34.31-14.76,39.35-18.59,29.56-22.5,4.01-76.37-32.12-71.15ZM434.76,315.93c-4.63-.26-10.18-18.72-11.94-22.91-1.12-2.67-8.31-16.57-8.23-17.53.21-2.72,12.93-6.92,15.51-7.23,13.25-1.62,22.39,15.93,23.21,27.27.73,10.08-8.38,20.98-18.55,20.41Z"/>
  <path class="st51" d="M357.4,396c-13.03,3.44-25.42,4.81-38.96,4,1.5-22.63-21.57-34.03-38.97-18.52-5.25,4.69-22.53,34.27-20.9,39.89.69,2.39,6.36,1.42,8.96,2.09,5.43,1.39,48.1,23.78,52.41,27.54,1.93,1.69,3.43,6.74,6.79,5.88,1.77-.45,9.08-13.73,9.91-16.17,2.38-6.97-1.97-4.76-7.48-6.94-2.48-.98-16.27-7.19-16.63-8.43-.43-1.49,1.75-5.8,2.95-6.81,5.9-4.97,24.97,2.12,31.92-1.05,3.02-1.38,11.78-19.66,10-21.48ZM294.44,416.6c-.92-.3-12.41-7.13-12.8-7.78-1.82-3.07,5.89-15.04,8.84-16.3,6.62-2.83,13.93,3.28,13.97,9.96.02,4.09-5.14,15.71-10.01,14.11Z"/>
  <path class="st51" d="M769.76,641.26c-18.21,2.67-29.76,29.4-22.47,44.97,5.01,10.7,24.52,20.18,35.93,18.56,6.07-.86,16.79-8.57,20.57-13.46,18.96-24.57-6.33-54.13-34.03-50.06ZM790.38,685.9c-9.34,9.58-30.55-3.3-31.01-14.54-.24-5.92,4.41-12.9,10.36-14.13,15.99-3.3,33.78,15.21,20.65,28.67Z"/>
  <path class="st10" d="M499.7,773.06c-7.98-11.68-29.81-12.35-42.41-16.62-1.25,5.14-1.42,10.33-2.47,15.56-2.1,10.41-5.7,26.62-9.94,36.05-.94,2.1-5.15,5.42-3.46,7.85.57.82,17.48,5.55,19.23,4.98,3.25-1.07.52-5.63.68-8.27.07-1.19,2.23-7.71,2.94-8.2,1.28-.9,15.01,2.69,18.51,2.67,17.39-.06,26.39-20.17,16.92-34.02ZM482.21,791.42c-2.94,1.76-12.31,1.58-13.8-.53-1.09-1.54,2.49-14.05,2.97-16.81,9.95-1.45,22.25,10.5,10.83,17.34Z"/>
  <path class="st10" d="M400.86,725.02c-5.63,13.57-13.48,32.67-23.45,43.5-1.66,1.8-8.76,7.05-8.94,8.11-.49,2.85,14.84,10.37,17.42,12.34,2.27-1.67,1.06-4.47,2.04-6.93.5-1.26,4.6-8.17,5.45-8.61,2.62-1.32,14.17,6.19,17.75,7.28,9.47,2.9,19.75-1.24,24.58-9.84,14.32-25.48-18.91-34.82-34.86-45.86ZM401.54,760.51l8.39-14.43c23.41,7.03,9.11,31.06-8.39,14.43Z"/>
</svg>