<?xml version="1.0" encoding="UTF-8"?>
<svg id="Layer_1" xmlns="http://www.w3.org/2000/svg" xmlns:xlink="http://www.w3.org/1999/xlink" version="1.1" viewBox="0 0 1080 1080">
  <!-- Generator: Adobe Illustrator 30.0.0, SVG Export Plug-In . SVG Version: 2.1.1 Build 123)  -->
  <defs>
    <linearGradient id="linear-gradient" x1="104.76" y1="637.61" x2="1108.25" y2="666.68" gradientTransform="translate(0 1080) scale(1 -1)" gradientUnits="userSpaceOnUse">
      <stop offset="0" stop-color="#fff"/>
      <stop offset="1" stop-color="#f2f2f2"/>
    </linearGradient>
    <linearGradient id="linear-gradient1" x1="104.89" y1="633.36" x2="1108.37" y2="662.43" gradientTransform="translate(0 1080) scale(1 -1)" gradientUnits="userSpaceOnUse">
      <stop offset="0" stop-color="#fff"/>
      <stop offset="1" stop-color="#f2f2f2"/>
    </linearGradient>
    <linearGradient id="linear-gradient2" x1="106.9" y1="563.78" x2="1110.39" y2="592.85" gradientTransform="translate(0 1080) scale(1 -1)" gradientUnits="userSpaceOnUse">
      <stop offset="0" stop-color="#fff"/>
      <stop offset="1" stop-color="#f2f2f2"/>
    </linearGradient>
    <linearGradient id="linear-gradient3" x1="105.4" y1="615.46" x2="1108.89" y2="644.52" gradientTransform="translate(0 1080) scale(1 -1)" gradientUnits="userSpaceOnUse">
      <stop offset="0" stop-color="#fff"/>
      <stop offset="1" stop-color="#f2f2f2"/>
    </linearGradient>
    <linearGradient id="linear-gradient4" x1="106.17" y1="589.03" x2="1109.66" y2="618.1" gradientTransform="translate(0 1080) scale(1 -1)" gradientUnits="userSpaceOnUse">
      <stop offset="0" stop-color="#fff"/>
      <stop offset="1" stop-color="#f2f2f2"/>
    </linearGradient>
  </defs>
  <path d="M614.97,351.36c-5.8-5.78-23.96,8.76-28.39,12.83-25.65,23.55-55.31,88.91-51.17,123.61,2.32,19.44,19.34,16.92,31.41,7.23,22.53-18.09,24.42-47.96,47.11-66.43,12.38-10.08,37.15-20.53,48.68-4.17,5.85,8.3,4.58,19.04,4.27,28.57,15.97.08,18.39-13.41,27.29-23.17,4.35-4.78,11.97-10.92,18.06-13.05,9.94-3.48,24.08-2.58,27.36,9.28,1.29.99,2.87-6.46,3.28-7.02,1.8-2.42,20.94-1.89,23.63.69l.86,1.73-25.72,62.63c-1.45,20.85,16.97-4.75,20.96-10.15,9.74-13.2,29.41-51.1,41.79-57.46,6.49-3.34,14.49-3,20.52,1.17,2.01,3.27-3.49,8.5-4.79,12.06-5.64,15.43,3.5,42.43.91,60.65-3.72,26.12-33,40.5-55.32,26.1l-9.73-11.28c-7.34,9.79-24.75,21.87-37.16,15.3-5.09-2.69-5.53-8.45-6.96-13.25-.28-.95.55-1.49-1.27-1.22-35.75,39.63-60.22,1.61-39.95-36.61.34-1.06-8.6,1.15-9.05,1.46-.92.63-7.72,17.09-9.6,20.26-10.22,17.24-28.29,33.24-49.86,30.88-10.38-1.14-14.25-8.01-17.99-16.51-.35-.8.49-1.47-1.32-1.16-21.09,25.33-68.04,39.14-82.42-.05-1.89-.32-9.46,7.41-11.88,9.15-11.79,8.46-33.99,16.81-42.46-.12-9.85-19.69,9.91-39.58,14.7-57.11.83-3.03,2.52-9.1-2.34-8.97-11.73.32-24.64,28.45-29.16,38.01-4.61,9.74-8.89,24.53-13.97,33.13-3.8,6.43-23.39,3.92-23.65-.96-.11-2.21,2.59-5.69,1.21-8.04-6.16,4.97-11.78,12.5-20.18,13.46-12.31,1.41-19.54-2.7-18.08-15.99-1.46-.38-1.68.6-2.52,1.25-6.77,5.2-9.44,10.92-18.86,13.93-17.65,5.63-31.3-.93-29.91-20.69,1.02-14.5,21.94-62.81,29.3-77.53.71-1.41,1.26-3.16,2.71-4.01,2.84-1.67,14.45-1.79,17.84-1.11,8.99,1.81,4.79,9.42,2.69,14.92-4.7,12.29-11.04,24.01-15.92,36.23-2.21,5.54-10.53,24.07-5.93,28.6,2.99,2.13,6.69.19,9.27-1.7,9.46-6.95,15.88-23.32,20.75-33.92,2.82-6.14,16.21-40.67,18.86-42.54,4.25-3.01,24.3-3.12,24.65,3.65-5.41,19.83-19.17,39.69-23.91,59.37-2.17,9.03-2.89,18.47,8.84,10.53,17.49-20.71,23.53-49.83,35.32-74.03,3.5-2.41,18.71-1.65,21.85,1.67,2.15,2.27-4,9.74-2.97,13.02,10.07-9.51,25.64-24.21,40.53-15.32,21.64,12.94-7.64,51.17-11.81,67.62-5.33,21.05,10.79,11.61,18.29,1.48,7.96-10.76,7.26-21.75,10.15-34.44,9.78-42.98,41.01-101.16,83.07-119.62,37.04-16.25,64.32,1.37,53.77,42.88-1.61,6.32-6.09,20.06-13.32,21.16-4.94.76-20.19-.97-25.1-2.53-1.06-.34-1.99-.54-2.61-1.59-.95-2.07,9.86-17.07,11.53-20.49,2.12-4.35,7.72-18.39,3.85-22.25l-.03-.02ZM721.71,435.46c-11.74,2.3-26,31.58-29.24,42.3-8.6,28.47,9.28,21.69,19.53,5.24,4.17-6.7,16.75-33.64,16.72-40.56-.02-4.1-2.6-7.85-7.01-6.98h0ZM639.32,437.17c-1.14.25-2.59.87-2.99,2.05-.82,6.42,2.22,12.8,8.67,14.59,1.8-.38,6.21-19.27-5.68-16.64h0ZM795.91,447.09c0,1.05-.26,2.08-.8,2.99-6.59,11.16-14.12,21.87-20.63,33.09-.3,9.39,11.76,22.46,19.26,11.82,6.19-8.79,3.63-34.62,3-45.81-.05-.95.55-2.31-.83-2.08h0ZM621.89,455.5c-1.21-.26-1.36.12-2.06.87-1.88,2.04-7.29,14.66-8.26,17.82-1.8,5.93-5.59,23.74,3.25,25.02,11.42,1.66,21.69-18.22,24.77-27.25-7.26-3.4-15.36-8.29-17.7-16.46Z" style="fill: url(#linear-gradient);"/>
  <path d="M296.66,400.74c-2.44-3.47,16.26-22.4,7.86-34.37-8.88-12.65-31.59-3.75-39.72,6.4-24.96,31.13,20.25,61,28.67,89.65,16.39,55.77-46.16,103.96-95.4,79.5-36.11-17.94-28.43-81.04,14.87-77.15,19.78,1.78,5.38,12.63.96,21.97-19.09,40.35,32.4,45.82,45.01,11.4,17.36-47.37-55.18-65.46-34.76-118.94,12.78-33.47,66.19-54.78,97.67-36.88,18.91,10.74,20.08,34.14,9.4,51.5-8.1,13.16-21.44,9.12-34.56,6.92Z" style="fill: url(#linear-gradient1);"/>
  <path d="M493.93,246.76c108.95-4.15,228.43,7.21,334.65,31.75,61.42,14.19,159.37,36.82,165.92,113.03-5.55,74.05,7.14,158.23-.11,231.06-7.32,73.46-104.43,94.53-163.88,107.86-182.16,40.86-386.97,40.41-569.72,3.3-65.65-13.33-168.21-32.13-175.11-113.46-6.26-73.79,4.84-156.33.11-231.06,8.52-66.49,75.65-86.77,131.17-102.1,89.17-24.61,184.47-36.86,276.96-40.38h.01ZM493.93,275.63c-97.42,2.25-226.88,17.3-318.07,52.17-29.37,11.23-59.94,29.49-63.66,63.8,4.72,72.34-6.24,152.48-.07,223.87,4.43,51.22,56.12,66.2,98.12,77.43,200.94,53.74,446.38,54.04,647.65,2.38,43.41-11.14,105.53-26.22,110.16-79.82,6.1-70.63-4.74-149.9-.07-221.47-6.6-43.13-42.7-57.93-79.35-69.76-120.38-38.85-268.55-51.54-394.72-48.62v.02Z" style="fill: url(#linear-gradient2);"/>
  <path d="M899.95,365.67c3.01,2.82-6.46,18.46-5.7,19.15l31.4-.72c2.76.93,1.12,8.14.36,10.23-7.94,21.77-25.45,10.05-42.28,14.06-6.93,21.63-18.05,42.45-25.42,63.74-2.67,7.73-10.02,28.42,6.36,24.03,10.44-2.8,12.13-11.41,17.9-17.41,3.69-3.83,9.64,2.01,9.11,7.38-1.11,11.19-16.45,27.17-26.29,31.8-13.38,6.29-33.84,6.92-38.66-10.4-6.86-24.64,18.47-69.11,27.58-93.25.41-1.1,2.43-6.34,2.1-6.72-2.15,1.35-3.99.05-6.26-.04-18.63-.73-39.15,5.34-45.8-18.06l59.93-3.91c2.75-.94,6.99-19.1,11.7-21.11,1.29-.55,10.15-1.53,11.93-1.5,2.02.03,10.81,1.6,12.05,2.76v-.03Z" style="fill: url(#linear-gradient3);"/>
  <path d="M795.11,450.07c.54-.91.79-1.94.8-2.99,1.38-.22.78,1.14.83,2.08.63,11.19,3.19,37.02-3,45.81" style="fill: url(#linear-gradient4);"/>
  <g style="isolation: isolate;">
    <text transform="translate(405.33 649.43)" style="fill: #fff; font-family: Noka-Semibold, Noka; font-size: 102.92px; font-weight: 600; isolation: isolate;"><tspan x="0" y="0">GOLF</tspan></text>
  </g>
  <g style="isolation: isolate;">
    <text transform="translate(256.55 649.43)" style="fill: #fff; font-family: Noka-Semibold, Noka; font-size: 62.25px; font-weight: 600; isolation: isolate;"><tspan x="0" y="0">EST</tspan></text>
  </g>
  <g style="isolation: isolate;">
    <text transform="translate(709.46 649.43)" style="fill: #fff; font-family: Noka-Semibold, Noka; font-size: 62.25px; font-weight: 600; isolation: isolate;"><tspan x="0" y="0">2025</tspan></text>
  </g>
</svg>